<svg xmlns="http://www.w3.org/2000/svg" xmlns:xlink="http://www.w3.org/1999/xlink" width="17.639" height="18" viewBox="0 0 17.639 18"><defs><style>.a{fill:none;}.b{clip-path:url(#a);}.c{fill:#3e82f1;}.d{clip-path:url(#b);}.e{fill:#32a753;}.f{clip-path:url(#c);}.g{fill:#f9bb00;}.h{clip-path:url(#d);}.i{fill:#e74235;}</style><clipPath id="a"><path class="a" d="M14,12.363v3.482h4.843a4.141,4.141,0,0,1-1.8,2.717v2.257h2.908A8.775,8.775,0,0,0,22.639,14.2a10.4,10.4,0,0,0-.162-1.841Z"/></clipPath><clipPath id="b"><path class="a" d="M5.957,15.71v2.332A9,9,0,0,0,14,23a8.59,8.59,0,0,0,5.956-2.181l-2.908-2.257A5.43,5.43,0,0,1,8.964,15.71Z"/></clipPath><clipPath id="c"><path class="a" d="M5.957,9.958a9.014,9.014,0,0,0,0,8.084L8.964,15.71a5.308,5.308,0,0,1,0-3.42V9.958Z"/></clipPath><clipPath id="d"><path class="a" d="M5.957,9.958,8.964,12.29A5.364,5.364,0,0,1,14,8.58a4.857,4.857,0,0,1,3.44,1.345l2.581-2.581A8.643,8.643,0,0,0,14,5,9,9,0,0,0,5.957,9.958"/></clipPath></defs><g transform="translate(-5 -5)"><g class="b"><rect class="c" width="18.64" height="18.456" transform="translate(9 7.364)"/></g></g><g transform="translate(-5 -5)"><g class="d"><rect class="e" width="23.999" height="17.29" transform="translate(0.957 10.71)"/></g></g><g transform="translate(-5 -5)"><g class="f"><rect class="g" width="13.964" height="18.084" transform="translate(0 4.958)"/></g></g><g transform="translate(-5 -5)"><g class="h"><rect class="i" width="24.064" height="17.29" transform="translate(0.957)"/></g></g></svg>