<svg xmlns="http://www.w3.org/2000/svg" xmlns:xlink="http://www.w3.org/1999/xlink" width="344" height="344" viewBox="0 0 344 344">
  <defs>
    <filter id="Ellipse_428" x="0" y="0" width="344" height="344" filterUnits="userSpaceOnUse">
      <feOffset input="SourceAlpha"/>
      <feGaussianBlur stdDeviation="4" result="blur"/>
      <feFlood flood-opacity="0.161"/>
      <feComposite operator="in" in2="blur"/>
      <feComposite in="SourceGraphic"/>
    </filter>
    <clipPath id="clip-path">
      <path id="Path_2444" data-name="Path 2444" d="M160,0A160,160,0,1,1,0,160,160,160,0,0,1,160,0Z" transform="translate(10908 1184)" fill="#fff"/>
    </clipPath>
  </defs>
  <g id="Group_2046" data-name="Group 2046" transform="translate(-10928 -1184)">
    <g id="Group_2045" data-name="Group 2045">
      <g transform="matrix(1, 0, 0, 1, 10928, 1184)" filter="url(#Ellipse_428)">
        <circle id="Ellipse_428-2" data-name="Ellipse 428" cx="160" cy="160" r="160" transform="translate(12 12)" fill="var(--text-gray)"/>
      </g>
      <g id="Mask_Group_11" data-name="Mask Group 11" transform="translate(32 12)" clip-path="url(#clip-path)">
        <g id="Group_2044" data-name="Group 2044" transform="translate(10967.012 1261.824) rotate(-19)">
          <path id="Path_2302" data-name="Path 2302" d="M0,0,0,0l.012.01Z" transform="translate(95.058 83.464)" fill="#b1b0af"/>
          <path id="Path_2303" data-name="Path 2303" d="M0,0H0Z" transform="translate(95.073 83.478)" fill="#b1b0af"/>
          <path id="Path_2304" data-name="Path 2304" d="M.17.04C.149.033.127.026.1.02L.017,0A.463.463,0,0,1,0,.108L.275.074Z" transform="translate(92.97 82.368)" fill="#b1b0af"/>
          <path id="Path_2305" data-name="Path 2305" d="M10.881.02C10.35.026,9.824.028,9.295.054c-.244.019-.488.042-.73.079C8.353.165,8.142.2,7.931.242c-.125.023-.251.046-.377.067-.41.067-.821.107-1.235.138a4.1,4.1,0,0,0-.827.16L5.185.72C5.159.733,5.131.742,5.1.753c-.028.342-.064.684-.111,1.023-.071.525-.156,1.048-.243,1.569-.094.555-.2,1.108-.285,1.666q-.11.768-.184,1.541c-.05.531-.091,1.07-.176,1.6-.161,1.029-.354,2.058-.594,3.071-.228.964-.495,1.917-.745,2.876-.232.888-.417,1.787-.608,2.686h0q-.287,1.411-.59,2.819c-.061.3-.123.6-.185.9C1.15,21.663.927,22.828.754,24c-.141.957-.249,1.918-.373,2.876-.062.48-.131.963-.167,1.446s-.063.992-.1,1.488c-.073.96-.124,1.921-.106,2.884.019.98.062,1.96.044,2.94C.035,36.454,0,37.274,0,38.1c0,.069,0,.138,0,.207,0,.1,0,.206,0,.309q.942.3,1.887.6c.967.3,1.938.578,2.9.908l0-.014c.005-.025.01-.05.016-.075.11-.494.213-.989.318-1.485q.212-1.1.4-2.2c.079-.449.144-.9.2-1.353.063-.483.1-.967.146-1.451.1-.985.152-1.975.243-2.96.087-.96.219-1.917.31-2.877.093-.979.186-1.958.3-2.935s.234-1.97.391-2.951c.079-.493.157-.985.219-1.483.059-.469.1-.942.16-1.413.116-.969.286-1.933.393-2.9.057-.516.106-1.03.137-1.549.03-.479.069-.955.123-1.432.113-1,.266-1.994.4-2.99A20.01,20.01,0,0,1,9.3,6.927c.273-.9.5-1.82.785-2.721a10.783,10.783,0,0,1,.511-1.248c.231-.5.484-.992.733-1.484l-.154.3c.235-.468.445-.946.64-1.431.04-.1.083-.2.126-.3L11.954,0l-.073,0C11.548.014,11.214.016,10.881.02Z" transform="translate(99.135 147.276)" fill="#e0bc77"/>
          <path id="Path_2306" data-name="Path 2306" d="M206.178,229.806l-.012-1.45c-.019-2.634-.07-5.313-.118-7.9l-.024-1.271c-.028-1.518-.095-3.068-.163-4.525-.033-.7-.091-1.414-.152-2.14l-.2-2.4c-.162-1.909-.354-3.847-.538-5.722-.309-3.136-.626-6.377-.826-9.574-.042-.7-.089-1.408-.133-2.111l-.1-1.549-.058-.884-.06-.867c-.029-.442-.074-.882-.119-1.322l-.054-.542c-.073-.767-.159-1.533-.244-2.3q-.067-.6-.133-1.19c-.124-1.144-.27-2.3-.41-3.427l-.089-.7.016.17-.1-.859c-.141-1.137-.287-2.313-.411-3.471q-.141-1.314-.276-2.628l-.189-1.8c-.116-1.105-.273-2.223-.425-3.3q-.1-.71-.2-1.421c-.107-.8-.216-1.595-.324-2.392q-.168-1.229-.335-2.457c-.212-1.574-.488-3.166-.756-4.7-.24-1.385-.49-2.818-.691-4.233q-.1-.712-.2-1.425c-.147-1.047-.293-2.095-.452-3.14-.154-1.018-.342-2.05-.523-3.047q-.12-.663-.239-1.324-.162-.93-.318-1.859c-.145-.862-.29-1.723-.448-2.581-.118-.644-.243-1.285-.367-1.926-.17-.873-.347-1.775-.5-2.667-.109-.639-.212-1.278-.315-1.918-.142-.882-.29-1.8-.455-2.69-.152-.831-.315-1.658-.477-2.485q-.166-.843-.329-1.685c-.518-2.722-1.092-5.5-1.756-8.511q-.19-.867-.389-1.732c-.191-.846-.384-1.693-.565-2.542q-.247-1.169-.508-2.335c-.07-.314-.145-.628-.22-.942-.093-.388-.185-.776-.27-1.166q-.414-1.909-.84-3.817l-.16-.722-.161-.736c-.232-1.07-.473-2.175-.773-3.249-.179-.641-.38-1.314-.651-2.179-.131-.419-.279-.843-.422-1.253-.081-.23-.161-.459-.239-.69l-.057-.167c-.425-1.252-.866-2.546-1.281-3.826q-.218-.671-.433-1.343c-.293-.914-.6-1.86-.91-2.785q-.277-.819-.561-1.636c-.269-.785-.54-1.568-.8-2.356-.572-1.715-1.048-3.021-1.542-4.232q-.589-1.445-1.192-2.88l-.352-.843c-.482-1.214-.977-2.488-1.473-3.786l-.03-.082c-.528-1.381-1.073-2.808-1.687-4.181-.607-1.355-1.235-2.754-1.877-4.12q-.425-.906-.839-1.815c-.1-.218-.2-.433-.294-.648-.186-.414-.372-.828-.57-1.236-.673-1.383-1.334-2.732-2.022-4.043-.322-.615-.652-1.225-.983-1.836-.346-.641-.693-1.284-1.03-1.929l-.39-.752c-.574-1.1-1.166-2.244-1.8-3.335-.776-1.329-1.6-2.665-2.514-4.084l-.329-.508c-.252-.388-.5-.775-.747-1.169-.4-.653-.792-1.312-1.154-1.928l-.119-.2c-.7-1.194-1.422-2.429-2.2-3.6-.658-1-1.536-2.31-2.479-3.606-.426-.585-.875-1.177-1.369-1.813-.213-.274-.433-.545-.65-.817s-.451-.559-.672-.844l-.032-.041c-.458-.591-.914-1.182-1.38-1.768-.544-.682-1.094-1.339-1.657-2.009-1-1.189-2.134-2.322-3.132-3.32q-.37-.37-.747-.733c-.628-.7-1.35-1.491-2.089-2.259-.414-.429-.764-.773-1.1-1.083-.266-.244-.553-.477-.83-.7-.136-.111-.272-.22-.4-.332-.5-.414-.992-.85-1.471-1.269-.281-.247-.562-.495-.844-.739-.69-.595-1.368-1.224-2.025-1.832l-.309-.286a25.26,25.26,0,0,0-5.066-3.669q-.307-.166-.616-.329c-.534-.372-.953-.639-1.356-.865-.514-.29-1.054-.554-1.576-.807l-.311-.152c-.245-.12-.495-.232-.743-.346l-.244-.111c-.389-.179-.741-.339-1.105-.485-1.146-.467-2.419-.931-4-1.459-.608-.2-1.235-.376-1.84-.543l-.223-.061c-.657-.182-1.213-.33-1.734-.461a34.589,34.589,0,0,1,2.337,3.417c.2.33.393.662.587.993.214.365.428.729.645,1.092.413.686.846,1.336,1.411,2.163.369.538.731,1.1,1.081,1.636l.047.073.256.395c.258.4.544.785.8,1.129l.034.047c.215.3.431.591.635.894.259.385.548.776.781,1.091.21.284.418.567.62.857a22.5,22.5,0,0,1,1.252,2.025l.086.154.02.035c.4.722.813,1.468,1.155,2.233l.078.17c.111.244.249.547.355.839a4.425,4.425,0,0,1,.191,2.4,14.231,14.231,0,0,1-.856,2.516l-.077.183c-.121.289-.246.589-.4.871-.181.34-.38.654-.55.917a17.011,17.011,0,0,1-3.433,3.784,12.278,12.278,0,0,1-1.941,1.3c-.7.39-1.4.764-2.122,1.142-.7.368-1.482.746-2.455,1.191a21.522,21.522,0,0,1-2.217.912,21.292,21.292,0,0,1-2.678.7,11.328,11.328,0,0,1-2.092.185l-.31,0a14.016,14.016,0,0,1-3-.35,26.7,26.7,0,0,1-2.941-.945,12.5,12.5,0,0,1-2.326-1.1,13.863,13.863,0,0,1-2.51-1.892A30.169,30.169,0,0,1,99.3,31c-.483-.7-.915-1.338-1.309-2.015a7.478,7.478,0,0,1-.946-2.182,4.723,4.723,0,0,1-.162-1.226,3.424,3.424,0,0,1,.083-.92L97,24.538l.161-.5a3.973,3.973,0,0,1,.571-1.052,3.707,3.707,0,0,1,.49-.591,9.586,9.586,0,0,1,1.479-1.188,13.011,13.011,0,0,1,1.457-.771,15.259,15.259,0,0,1,2.329-.838c.7-.2,1.533-.428,2.371-.625.578-.137,1.169-.258,1.771-.381l.687-.141a6.635,6.635,0,0,0,.872-.258c.049-.03.095-.062.14-.1.088-.093.171-.19.251-.288.073-.144.136-.288.194-.436a6.387,6.387,0,0,0,.123-.685,8.279,8.279,0,0,0-.152-1.51,9.331,9.331,0,0,0-.363-1.2q-.236-.592-.488-1.174c-.141-.325-.291-.647-.441-.968l-.046-.1-.019-.04c-.248-.531-.505-1.081-.719-1.638a1.124,1.124,0,0,1,.038-.88,1.2,1.2,0,0,1,.683-.634,1.171,1.171,0,0,1,.392-.065,1.1,1.1,0,0,1,.986.516c.324.616.677,1.229.988,1.769.327.566.617,1.141.857,1.628a14.162,14.162,0,0,1,.711,1.588,15.25,15.25,0,0,1,.57,2.1,5.112,5.112,0,0,1-2.272,5.439,9.363,9.363,0,0,1-1.914.74c-.619.183-1.266.4-1.924.644-.219.082-.439.162-.658.241-.843.308-1.714.625-2.552,1.009a10.847,10.847,0,0,0-1.423.915c-.123.125-.238.253-.349.379.05.152.1.3.164.447.193.339.406.672.629,1.022l.208.327c.285.451.627.984,1,1.508l.178.248c.594.828,1.209,1.684,1.877,2.485.337.359.632.647.929.906a9.4,9.4,0,0,0,.836.643,22.664,22.664,0,0,0,4.122,1.855,8.7,8.7,0,0,0,1.544.314c.389.036.778.058,1.167.079a11.15,11.15,0,0,0,2-.187,14.972,14.972,0,0,0,1.659-.447l.4-.14c.483-.168,1.03-.358,1.552-.57,1.206-.491,2.4-1.061,3.557-1.612l.088-.042a15.765,15.765,0,0,0,1.516-.877,11.662,11.662,0,0,0,1.128-.906,14.887,14.887,0,0,0,1.894-2.2,13.949,13.949,0,0,0,1.187-2.59,5.217,5.217,0,0,0,.151-.743c-.005-.086-.013-.169-.022-.251-.069-.206-.155-.407-.238-.6l-.019-.044L129.29,24c-.026-.059-.051-.118-.075-.178-.135-.325-.266-.62-.4-.9-.069-.133-.136-.266-.2-.4-.371-.705-.695-1.291-1.02-1.841-.349-.591-.742-1.158-1.122-1.706-.164-.236-.324-.475-.484-.715l-.08-.12c-.274-.412-.543-.813-.822-1.2-.5-.7-.971-1.393-1.433-2.12l-.6-.936c-.7-1.1-1.429-2.228-2.086-3.38a41.6,41.6,0,0,0-2.539-4.065c-.8-1.088-1.72-2.226-2.908-3.58a15.765,15.765,0,0,0-2.56-2.289,6.108,6.108,0,0,0-.887-.454,4.884,4.884,0,0,0-.7-.108,15.22,15.22,0,0,0-3,.379,31.6,31.6,0,0,0-3.524.989A36.454,36.454,0,0,0,101.3,2.832C99.479,3.783,97.712,4.864,96,5.91l-.186.114a38.829,38.829,0,0,0-5.131,3.685c-.688.618-1.406,1.279-2.2,2.021a1.537,1.537,0,0,1-.956.486c-.038,0-.078,0-.116,0a1.422,1.422,0,0,1-1.423-1.3,1.389,1.389,0,0,1,.343-1.053l.16-.149.072-.067c.525-.492,1.068-1,1.612-1.489l.406-.367c.446-.4.95-.863,1.466-1.269,1.128-.885,2.294-1.725,3.466-2.5.95-.626,2.038-1.337,3.147-2.02l-1.676.107-.562.035c-.348.021-.695.037-1.044.052l-.12.005-.135.007c-.339.017-.675.033-1.008.054-.8.057-1.607.128-2.361.2a21.394,21.394,0,0,0-2.544.434c-.632.14-1.294.338-1.826.5l-.417.124-.435.127-.05.015c-.64.186-1.216.358-1.785.55l-.177.06c-1.384.472-2.855.974-4.292,1.448-.626.2-1.269.431-2.087.735-.778.394-1.555.787-2.338,1.172q-2.764,1.364-5.534,2.711l-.058.029c-1.414.688-2.8,1.362-4.191,2.061-1,.566-1.912,1.092-2.778,1.611s-1.714.992-2.591,1.481l-.181.1-.846.475c-1.268.819-2.417,1.6-3.514,2.39l-.058.046-.48.38a58.715,58.715,0,0,0-5.928,5.758q-.509.544-1.02,1.084c-.413.437-.809.913-1.158,1.331-.127.154-.255.306-.382.458-.462.542-.935,1.058-1.463,1.626-.906.978-1.828,2.054-2.737,3.2l-.329.439-.09.12q-.309.412-.623.821l.075-.07c-.269.344-.513.678-.757,1.013l-.111.153L38.942,35q-.276.38-.558.756c-.361.489-.747.971-1.12,1.435l-.157.2-.182.228c-.119.149-.239.3-.356.448-.467.632-.86,1.154-1.266,1.658-.2.245-.4.487-.6.726l-.125.148-.3.36c-.711.856-1.411,1.688-2.17,2.459-.586.594-1.177,1.17-1.943,1.907-.279.193-.558.388-.834.586-.121.087-.243.175-.363.264l-.133.1-.134.1-.038.028c-.344.252-.669.489-1,.716l-.3.206-.3.206c-.37.251-.741.5-1.105.758l-.588.414c-.862.605-1.839,1.293-2.76,2-.232.177-.462.359-.691.542l-.165.131q-.321.255-.643.507l-.661.511-.34.265L19.635,53l-.335.252-.162.124c-.336.253-.673.508-1.005.765l-.031.023-.02.031,0,0-.269.2-.22.163c-.219.167-.454.343-.689.516l-.154.116c-.2.147-.4.294-.592.444q-.679.515-1.354,1.037l-.242.185c-.712.538-1.39,1.078-2.2,1.727l-.684.545-.555.438c-.7.551-1.392,1.1-2.093,1.637-.615.458-1.236.91-1.857,1.361L7,62.68c-.913.663-1.926,1.4-2.885,2.132l-.143.1-.1.08c-.819.628-1.646,1.3-2.311,1.844q-.474.386-.951.771l.033.03a15.982,15.982,0,0,1,1.232,1.319c.454.536.872,1.108,1.282,1.678A9.822,9.822,0,0,1,3.8,71.6c.15.27.3.54.442.812l-.053-.1a7.829,7.829,0,0,1,.466.952,6,6,0,0,1,.212.831c.1.471.187.951.242,1.429a2.613,2.613,0,0,1-.057,1.026,3.641,3.641,0,0,1-.229.624c-.058.117-.12.232-.182.347-.232.429-.432.874-.683,1.293A10.086,10.086,0,0,1,2.8,80.346,8.968,8.968,0,0,1,1.716,81.4c-.369.293-.736.587-1.1.888-.206.171-.41.342-.616.513H.034c.384.012.831.029,1.266.086.239.03.475.075.711.119a7.588,7.588,0,0,0,1.131.157q.243.008.487.008c.49,0,.985-.024,1.466-.048l.076,0c.222-.224.446-.446.663-.675.33-.209.682-.388,1.029-.564l.112-.055c.369-.187.743-.371,1.116-.553l.15-.074.318-.154c.4-.2.8-.4,1.2-.6l.092-.046c.606-.306,1.231-.624,1.859-.909a.961.961,0,0,1,.4-.079h0l.266-.14.144-.077c.192-.1.386-.2.578-.309l.212-.118c.559-.31,1.137-.63,1.728-.914l.4-.228c.8-.459,1.632-.932,2.4-1.475.373-.265.742-.539,1.111-.813l.077-.057c.538-.4,1.095-.818,1.667-1.2l.294-.2c.793-.536,1.692-1.142,2.616-1.664.4-.226.794-.447,1.192-.669l.233-.129.111-.062c.517-.288,1.036-.574,1.55-.868.956-.548,1.91-1.142,2.834-1.717l.136-.084.053-.033c.591-.372,1.207-.725,1.8-1.067l.082-.046c.379-.216.758-.434,1.134-.655.489-.29.977-.585,1.464-.879.576-.348,1.153-.695,1.734-1.035l.235-.138c.45-.264.9-.528,1.355-.782.394-.222.788-.464,1.2-.715l.363-.223c.158-.1.319-.194.48-.29.342-.206.7-.417,1.031-.642l.34-.231.342-.231q.408-.273.813-.547c.248-.17.493-.343.739-.517.185-.131.369-.261.557-.391.255-.177.521-.343.78-.5l.4-.251.4-.257a19.825,19.825,0,0,0,2.4-1.7c.246-.226.482-.467.71-.7l.025-.026.248-.255a7.261,7.261,0,0,0,.835-.964l.053-.083.037-.045-.036.041a5.477,5.477,0,0,0,.372-.724c.071-.159.149-.315.227-.471.054-.107.108-.215.161-.323.063-.136.133-.269.214-.419a6.98,6.98,0,0,0,.356-.748l-.017.032c.05-.135.1-.268.154-.4.075-.19.15-.381.216-.578.12-.351.234-.7.35-1.055l.037-.12.142-.412-.038.075c.036-.112.063-.226.091-.34l.041-.158c.093-.345.2-.711.336-1.084a1.807,1.807,0,0,1,1.07-.967,1.908,1.908,0,0,1,.629-.108,1.886,1.886,0,0,1,1.856,2.214,6.25,6.25,0,0,1-.367,1.143,5,5,0,0,1-.43.741l-.049.074c-.2.306-.408.608-.615.909a6.9,6.9,0,0,1-.645.838,9.069,9.069,0,0,1-.844.745c-.178.153-.359.3-.539.448l-.089.071-.177.142c-.2.177-.4.35-.609.522s-.381.321-.569.485c-.471.428-.907.9-1.31,1.34-.448.495-.925.98-1.385,1.45l-.057.058-.154.157a31.272,31.272,0,0,1-2.509,2.369l-.793.643c-.545.439-1.088.88-1.65,1.347-.45.373-.914.761-1.405,1.121-.2.145-.4.288-.593.43l-.1.069-.137.1c-.2.144-.4.289-.6.437-1.054.778-2.029,1.462-2.981,2.087-2.083,1.367-4.234,2.682-6.088,3.806a38.308,38.308,0,0,1-3.422,1.837l-.472.23-.048.022c-.364.178-.74.362-1.117.526-.435.191-.9.4-1.344.615s-.873.48-1.3.723l-.105.061-.325.186c-.707.409-1.278.751-1.8,1.078-.335.211-.687.409-1.028.6l-.06.033c-.207.116-.414.232-.619.351-.555.323-1.128.632-1.753.934l.036,0-.321.163-.157.069.042-.012q-.5.257-1.005.518l-.8.413c-.509.26-1.041.513-1.509.735l-.43.2q-.271.131-.541.257a.841.841,0,0,1-.193.12c-.785.359-1.559.776-2.319,1.185-.258.14-.517.28-.777.417l-.512.272-.174.093c.513.013.987.019,1.431.019.931,0,1.773-.026,2.574-.08.2-.013.392-.03.587-.05h1.067c.665,0,1.359.028,1.916.05l.357.015c.305.007.61.012.916.012a14.6,14.6,0,0,0,1.645-.08c.376-.044.755-.117,1.121-.19l.051-.009.053-.012.346-.066c.149-.03.3-.058.446-.086.278-.052.553-.1.824-.158.282-.08.557-.173.834-.265l.071-.024c.137-.046.276-.093.414-.137.221-.071.446-.14.669-.207.281-.084.552-.166.819-.257.834-.284,1.929-.669,2.99-1.134.463-.2.93-.431,1.343-.636l.068-.034.075-.037c.4-.2.813-.4,1.223-.583l.627-.276c.546-.237,1.164-.508,1.74-.806.3-.173.566-.327.852-.472.088-.045.178-.086.269-.129l.04-.018.211-.1c.263-.156.546-.32.83-.458s.6-.264.889-.384l.064-.026.119-.049c.178-.071.36-.141.541-.21l.051-.02.112-.042.034-.013c.463-.176.919-.348,1.347-.557q.285-.172.563-.352c.524-.335,1.039-.639,1.581-.929a1.027,1.027,0,0,1,.211-.084l1.071-.651,1.421-.864.583-.354c1.059-.644,2.258-1.373,3.439-2.034,1.456-.814,2.893-1.6,4.229-2.323l1.134-.616.441-.239c1.177-.64,2.344-1.273,3.508-1.915.335-.218.67-.435,1-.656q.479-.263.957-.529c.459-.252.913-.512,1.367-.773l.453-.259c.4-.208.8-.409,1.2-.609.542-.27,1.1-.55,1.642-.847.563-.307,1.111-.661,1.641-1,.381-.245.774-.5,1.171-.735.768-.4,1.574-.76,2.352-1.105.272-.12.544-.24.814-.363.531-.24,1.058-.49,1.585-.74.6-.286,1.224-.582,1.844-.857,1.048-.464,2.12-.922,3.157-1.364L76,55.213l.049-.021c1.154-.493,2.347-1,3.563-1.394.446-.143.893-.282,1.34-.423s.893-.281,1.339-.424c.92-.29,1.907-.6,2.9-.863,1.406-.327,2.929-.609,4.787-.885.611-.089,1.223-.179,1.835-.265h.418l.225,0H92.6c.28,0,.561-.005.839-.012l.153,0c.26-.005.509-.008.758-.008h.209c.733.008,1.513.041,2.385.1.206.013.412.023.617.03l.122.005.075,0c.405.017.8.034,1.192.079a12.166,12.166,0,0,1,1.342.244l.086.018.563.12.277.053c.5.1.939.188,1.371.311a13.753,13.753,0,0,1,1.961.707l.519.237c.35.157.7.314,1.037.479a20.379,20.379,0,0,1,2.226,1.237c.2.129.356.239.493.346.092.073.187.149.28.234,1.3,1.088,2.539,2.249,3.738,3.37l.037.036.066.063.227.212c.472.441.977.941,1.641,1.62q.261.483.53.965l1.116,2q.942,1.7,1.89,3.392c.989,1.764,1.962,3.584,2.889,5.408l.127.248c.785,1.543,1.6,3.138,2.3,4.766.655,1.7,1.241,3.4,1.741,5.052.294.984.546,1.834.776,2.736.132.514.248,1.034.363,1.541l.023.106.071.312c.058.257.116.513.177.768q.21.88.429,1.76l.026.111c.28,1.137.6,2.426.855,3.684.218,1.066.371,1.884.5,2.652.118.711.217,1.442.307,2.13l.057.428c.128,1.042.246,2.086.365,3.129.132,1.174.265,2.349.412,3.521.264,2.091.532,4.332.7,6.563.049.6.094,1.191.138,1.786l0,.044.013.169c.128,1.689.245,3.211.385,4.733.2,2.1.31,4.265.409,6.175l0,.091.037.706c.033.608.053,1.216.072,1.826.013.429.028.851.045,1.274l.025.546.024.563c.032.679.062,1.357.081,2.037.059,2.067.088,4.285.092,6.978,0,1.636-.024,3.273-.08,4.887,0,.064.008.128.012.192.011.164.02.328.032.492.006.09.014.179.02.269q.03.4.063.806c.016.195.031.389.046.584q.015.186.03.373c0,.054.01.107.015.161.025.3.052.6.086.895.026.228.048.459.088.686.006.033.013.067.02.1a1.3,1.3,0,0,1-.093.093c.018.293.033.586.038.88.009.541,0,1.079-.008,1.62a30.2,30.2,0,0,1-.2,3.4c-.066.529-.165,1.054-.232,1.583-.073.567-.129,1.137-.2,1.7-.135,1.063-.281,2.124-.425,3.184-.042.3-.08.61-.119.915.031,1.275.061,2.551,0,3.825-.034.773-.087,1.546-.136,2.319s-.113,1.575-.228,2.356-.289,1.575-.444,2.36c-.145.733-.255,1.474-.334,2.216-.086.81-.173,1.623-.281,2.43s-.24,1.611-.336,2.421c-.023.193-.046.387-.07.578-.019.081-.036.163-.055.245q-.164.723-.307,1.453c-.014.072-.028.143-.042.215-.08.41-.157.82-.235,1.229,0,.158,0,.316-.012.474-.026.553-.053,1.107-.089,1.66s-.058,1.12-.1,1.677c-.088,1.107-.235,2.2-.371,3.306-.145,1.179-.352,2.346-.588,3.51q-.113.6-.228,1.21c.024-.122.049-.242.072-.364-.031.165-.065.33-.1.493.008-.043.016-.086.024-.129-.079.406-.163.809-.279,1.207a8.335,8.335,0,0,1-.55,1.376,3.028,3.028,0,0,1-.67.877,2.143,2.143,0,0,1-.806.484c-.011.01-.02.02-.031.029a2.172,2.172,0,0,1-1.512.47,5.171,5.171,0,0,1-1.646-.34c-.429-.157-.855-.327-1.281-.492-.452-.174-.912-.33-1.367-.5-.965-.361-1.946-.673-2.92-1.012-.292-.1-.577-.219-.861-.339l-.319-.1-.17-.04c-.859-.2-1.715-.429-2.578-.62-.83-.182-1.658-.367-2.484-.566-1-.24-1.977-.542-2.967-.817q-1.286-.356-2.574-.71c-.984-.269-1.945-.6-2.9-.95-.491-.177-.983-.351-1.471-.533-.582-.217-1.139-.46-1.695-.732l.219.108-.3-.146-.043-.021.037.018c-.223-.112-.444-.227-.665-.342-.017.009-.035.016-.051.026l-.529-.206c-.688-.266-1.378-.541-2.078-.782l-.053-.019-.361-.161h0q-2.293-1.022-4.574-2.071l-.131-.06c-.34-.135-.679-.27-1.02-.4-.414-.159-.813-.351-1.212-.541q-.614-.233-1.226-.475c-.695-.275-1.383-.565-2.071-.852l-.178-.074c-.747-.311-1.478-.662-2.207-1.009l-.086-.042c-.293-.132-.585-.264-.876-.4-.163-.077-.323-.161-.485-.241-.232-.1-.464-.21-.7-.317-.718-.329-1.435-.665-2.131-1.038q-1.142-.611-2.258-1.265c-.354-.2-.707-.406-1.062-.61-.326-.186-.661-.359-.992-.538l.1.052-.272-.142c-.3-.141-.6-.283-.9-.428l-.182-.092c-.756-.156-1.5-.359-2.24-.581-.226-.067-.452-.133-.677-.2l-.243-.074c-.166-.05-.332-.1-.5-.157l-.381-.132-.348-.12c-.057-.019-.112-.041-.168-.062-.15-.057-.3-.116-.448-.175-.419-.162-.837-.331-1.251-.508-.435-.186-.877-.364-1.3-.571-.21-.1-.418-.207-.625-.316-.047-.025-.1-.047-.143-.072-.238-.128-.468-.263-.7-.4h0c-.47-.2-.927-.431-1.378-.674-.6-.311-1.184-.661-1.769-1-.558-.328-1.119-.656-1.688-.967-.611-.319-1.238-.612-1.829-.968-.435-.262-.866-.531-1.3-.8q-.68-.427-1.326-.9t-1.266-.925c-.412-.3-.835-.58-1.241-.886-.191-.145-.374-.3-.561-.45-.218-.174-.438-.347-.657-.52-.409-.325-.8-.671-1.2-1.01s-.753-.668-1.136-.995q-.605-.521-1.206-1.048c-.421-.373-.846-.741-1.255-1.128-.376-.354-.753-.7-1.125-1.063s-.758-.718-1.124-1.091q-.572-.586-1.129-1.185c-.164-.175-.311-.368-.466-.552-.184-.222-.368-.446-.552-.669q-.507-.613-1.014-1.226c-.645-.782-1.292-1.563-1.962-2.323-.347-.4-.691-.794-1.049-1.181s-.732-.786-1.088-1.187c-.183-.206-.365-.412-.54-.624s-.349-.439-.52-.662a8.906,8.906,0,0,1-.885-1.355l-.455-.889c0-.007,0-.015-.006-.022-.055-.061-.114-.119-.168-.18-.137-.157-.281-.31-.414-.471s-.251-.312-.38-.465c-.259-.3-.525-.6-.793-.886-.137-.148-.28-.29-.41-.443a3.371,3.371,0,0,1-.287-.409,2.581,2.581,0,0,1-.158-.287,5.343,5.343,0,0,1-.284-.751,4.527,4.527,0,0,1-.125-.65,11.275,11.275,0,0,1-.123-1.413c0-.219.006-.436,0-.654,0-.082,0-.164,0-.246,0-.1,0-.2,0-.3-.007-.182-.016-.364-.017-.546,0-.083,0-.166,0-.248a6.884,6.884,0,0,1-.222-.679c-.019-.071-.035-.142-.051-.214s-.038-.165-.056-.248c-.013-.06-.026-.121-.038-.181l-.018-.081c-.044-.21-.09-.42-.149-.627-.079-.236-.168-.468-.25-.7-.049-.137-.1-.272-.154-.408-.038-.1-.069-.2-.1-.295l-.018-.052c-.012-.033-.025-.064-.037-.1-.053-.144-.11-.286-.173-.426-.151-.3-.3-.6-.462-.891s-.327-.6-.489-.905l-.012.054v0l-.034.139,0-.006-.034.139h0l-.019.076v0c-.01.041-.021.081-.032.123l-.012.042-.041.153-.019.07-.1.361-.1.368c0,.01-.005.021-.008.032-.016.059-.032.119-.047.179,0,.018-.006.035-.01.053-.055.306-.105.614-.148.922-.039.291-.087.582-.115.876v.009c0,.055,0,.11.006.165s0,.106,0,.159.011.086.018.129a.085.085,0,0,1-.016.062v0a.18.18,0,0,1-.011.036.077.077,0,0,1-.05.047c-.006.086-.013.172-.013.259l0,.018a.084.084,0,0,1-.07.1.081.081,0,0,1-.086-.052h0a.082.082,0,0,1-.063-.014.093.093,0,0,1-.028-.033.46.46,0,0,1-.04-.174l-.016-.123c-.012-.082-.021-.164-.03-.246-.019-.172-.036-.341-.051-.512s-.031-.351-.044-.527c-.013-.16-.029-.318-.039-.477-.006-.114-.013-.228-.02-.342-.005-.084-.007-.168-.009-.252q-.01-.287-.017-.575t-.013-.554c0-.152,0-.3,0-.457,0-.029,0-.057,0-.086,0-.174,0-.348.005-.523s0-.332,0-.5c0-.191,0-.381.011-.571,0-.033,0-.066.006-.1,0-.059.006-.117.011-.177,0-.036.008-.071.013-.106a.579.579,0,0,1,.025-.1c0-.005,0-.011,0-.016a.107.107,0,0,1,.027-.037c0-.045,0-.09,0-.135-.066-.093-.126-.189-.186-.285-.035-.055-.074-.109-.106-.166-.161-.28-.293-.571-.434-.86s-.282-.561-.422-.842-.259-.549-.392-.822c-.044-.091-.093-.179-.142-.268-.007.015-.014.03-.022.044s-.023.028-.034.041a.238.238,0,0,1-.075.061.291.291,0,0,1-.067.016.089.089,0,0,1-.021,0c-.064.226-.128.453-.192.68s-.12.425-.177.637l-.038.137c-.033.237-.066.474-.093.713s-.05.487-.061.731c0,.074,0,.148-.005.222q.043.37.094.74c.021.152.042.3.061.454l0,.02q.07.422.139.844a.086.086,0,0,1-.069.1h0v.016a.452.452,0,0,1-.007.07.555.555,0,0,1,.007.056.086.086,0,0,1-.047.091.085.085,0,0,1-.08-.006h-.013a.1.1,0,0,1-.024-.011l0,.01a.086.086,0,0,1-.041.112.085.085,0,0,1-.112-.041,2.388,2.388,0,0,1-.117-.427c-.025-.144-.049-.289-.071-.434-.048-.288-.092-.575-.137-.863s-.086-.55-.119-.827q-.051-.447-.082-.9c-.012-.178-.015-.356-.015-.534s.007-.352.011-.529,0-.34.009-.511.005-.347.012-.521.015-.376.025-.565c.011-.173.033-.345.059-.518s.063-.352.1-.529c.024-.112.052-.224.082-.336a1.64,1.64,0,0,0-.119-.235,1.984,1.984,0,0,0-.244-.283,1.092,1.092,0,0,0-.126-.087,1.341,1.341,0,0,0-.17-.061c-.029,0-.057-.007-.086-.009s-.052.007-.078.012-.057.026-.086.04c-.135.293-.269.586-.391.884-.144.349-.275.7-.405,1.053-.229.613-.4,1.245-.563,1.876-.078.358-.161.715-.214,1.078-.065.443-.136.886-.191,1.331-.085.682-.173,1.363-.261,2.045.008.225.016.45.036.676.08.93.19,1.859.335,2.782.14.89.3,1.779.451,2.667.059.337.118.676.184,1.013.121.394.242.787.369,1.178.136.26.262.507.388.754l.06.119.061.121c.076.154.153.309.228.464.028.058.055.115.083.172l.038.08.112.233c.361.755.711,1.495,1.055,2.239q.3.649.6,1.3c.835,1.83,1.553,3.315,2.257,4.674l.058.112.086.166.017.033c.182.351.365.7.551,1.055a2.975,2.975,0,0,0,.317.269c.108.162.213.327.321.492.165.255.328.508.5.757.313.462.627.921.946,1.377.533.762,1.1,1.518,1.653,2.249l.192.256.3.4c.217.292.435.585.661.871.342.434.69.864,1.038,1.294.32.4.664.79,1,1.169l.081.094c.319.364.7.794,1.094,1.216.2.212.4.42.611.625.152.152.3.3.451.458.2.209.4.42.6.63.177.186.354.372.532.557a27.9,27.9,0,0,0,2.3,2.116c.834.693,1.58,1.336,2.285,1.968.313.28.645.592,1.045.981.22.216.434.441.646.665.162.17.323.339.488.507.754.758,1.547,1.475,2.361,2.2.45.4.89.813,1.333,1.224.353.329.706.657,1.063.982.261.238.528.468.794.7l.394.345c.146.128.29.259.435.388.277.249.565.508.856.75,1.016.842,1.808,1.467,2.571,2.029.359.264.72.522,1.082.781.5.361,1.024.733,1.526,1.112.759.572,1.512,1.147,2.266,1.723l.273.208c1.57,1.2,3.2,2.367,4.776,3.5l.81.582.366.264c.761.547,1.524,1.1,2.289,1.637.313.222.621.448.93.674l.405.3c.418.306.853.611,1.33.93l.657.443c.757.513,1.541,1.042,2.329,1.537,1.061.665,2.053,1.256,3.035,1.81.845.476,1.693.983,2.512,1.471l.65.388.735.437c.71.421,1.444.856,2.158,1.3.372.241.747.479,1.12.716l.31.2.442.281c.322.206.642.411.97.608.9.541,1.881,1.12,3.007,1.772,2.159,1.249,4.334,2.4,5.989,3.262,1.781.93,3.769,1.888,6.257,3.014.418.19.852.367,1.27.537l.21.084c.534.221,1.114.449,1.773.7.426.163.871.326,1.347.492l.45.217q.469.245.939.488l1.553.8c.5.257,1.009.5,1.513.745.466.228.938.445,1.408.664.435.2.869.408,1.307.6l1.716.76c.553.245,1.117.465,1.675.7.9.376,1.815.732,2.725,1.087.128.05.257.1.386.146-.37,1.422-.743,2.9-1.128,4.461q-.137.554-.28,1.107l-.143.559c-.041.16-.08.321-.12.481-.1.4-.183.732-.28,1.065-.355,1.193-.748,2.385-1.088,3.409s-.7,2.03-1.055,3.017l-.046.127-.055.153-.339.95c-.606,1.694-1.162,3.22-1.7,4.666-.354.945-.739,1.89-1.147,2.893-.146.363-.3.727-.442,1.092q-.861,2.141-1.735,4.279c-1.741,4.14-3.628,8.562-5.614,12.847-.52,1.118-1.071,2.333-1.638,3.611-.5,1.132-.967,2.339-1.34,3.309l-.082.215c-.329.855-.643,1.742-.962,2.652l-.252.715c-.2.558-.383,1.106-.55,1.627,1.488.2,2.948.414,4.343.633,3.083.483,6.108,1.087,8.918,1.67l.5.082.681.113.38.06c.652.1,1.326.211,1.984.348.272.058.545.112.818.166.641.129,1.3.263,1.948.422.23.058.458.113.687.17.61.149,1.239.3,1.851.479q1.981.406,3.964.793c2.527.491,5.114.886,7.618,1.268.983.15,1.966.3,2.946.456l.4.057c.993.143,2.02.289,3.033.418l.839.106c3.492.441,7.1.9,10.639,1.438,4.177.636,7.907,1.286,11.4,1.989q3.176.637,6.357,1.247,2.319.451,4.637.906c3.494.69,6.983,1.311,10.258,1.891q3.6.635,7.2,1.256c3.012.521,6.125,1.06,9.182,1.609l.459.082q.507.091,1.012.183l.956.173.15.028.21.037.21.039c-.022-.891-.046-1.777-.059-2.665,0-.385-.006-.77-.006-1.156l0-.512c0-.365.017-.738.035-1.1.008-.162.016-.325.021-.487.013-.355.049-.718.082-1.069.017-.175.034-.352.049-.527.013-.156.037-.311.059-.467.012-.08.024-.161.033-.241l.09-.686.017-.136.028-.181c.082-.532.166-1.082.27-1.619.159-.8.336-1.651.542-2.6.07-.317.137-.632.2-.948s.131-.608.2-.911l.089-.4c.132-.6.268-1.212.367-1.825.129-.8.253-1.591.353-2.394l.006-.039c.085-.69.174-1.4.219-2.108.124-1.926.194-3.415.228-4.828l.039-1.565q.04-1.573.075-3.145c.033-1.491.107-3,.178-4.469l.006-.139c.141-2.871.223-5.794.3-8.619l.009-.36c.1-3.592.161-6.522.194-9.221l.005-.438c.019-1.459.037-2.97.033-4.453Q206.2,231.43,206.178,229.806ZM12.9,70.518a.869.869,0,0,1-.6.3.942.942,0,0,1-.659-.214.892.892,0,0,1-.09-1.258.867.867,0,0,1,.6-.3.942.942,0,0,1,.659.215.892.892,0,0,1,.09,1.258Zm1.3-3.546a.592.592,0,0,1-.438.206.735.735,0,0,1-.513-.167.706.706,0,0,1-.237-.466.733.733,0,0,1,.2-.545.592.592,0,0,1,.438-.206.735.735,0,0,1,.513.167.707.707,0,0,1,.238.466A.733.733,0,0,1,14.2,66.972Zm4.159,3.546a1.167,1.167,0,0,1-.826.438,1.28,1.28,0,0,1-.867-.265A1.2,1.2,0,0,1,16.5,69a1.168,1.168,0,0,1,.826-.438,1.281,1.281,0,0,1,.867.265,1.2,1.2,0,0,1,.172,1.693Zm.935-7.06a.589.589,0,0,1-.433.2.723.723,0,0,1-.506-.166.7.7,0,0,1-.235-.461.737.737,0,0,1,.195-.538.588.588,0,0,1,.433-.2.723.723,0,0,1,.506.165.7.7,0,0,1,.235.462A.739.739,0,0,1,19.3,63.458ZM20.539,67.3a.514.514,0,0,1-.376.175.63.63,0,0,1-.441-.144.608.608,0,0,1-.2-.4.641.641,0,0,1,.17-.471.515.515,0,0,1,.376-.175.631.631,0,0,1,.442.145.609.609,0,0,1,.2.4A.64.64,0,0,1,20.539,67.3Zm2.117-9.346a.852.852,0,0,1-.586.3.917.917,0,0,1-.643-.209.873.873,0,0,1-.087-1.229.852.852,0,0,1,.586-.3.917.917,0,0,1,.643.209.87.87,0,0,1,.087,1.229Zm1.871,7.885a.751.751,0,0,1-.521.265.819.819,0,0,1-.572-.187.774.774,0,0,1-.078-1.093.751.751,0,0,1,.521-.265.818.818,0,0,1,.572.187.774.774,0,0,1,.078,1.093Zm2.354-3.479-.007.011a.931.931,0,0,1-.657.348,1.026,1.026,0,0,1-.691-.211.959.959,0,0,1-.137-1.348.93.93,0,0,1,.657-.348,1.026,1.026,0,0,1,.691.211,1,1,0,0,1,.348.657A.973.973,0,0,1,26.882,62.358Zm4.98-2.154a1.39,1.39,0,0,1-.984.524,1.527,1.527,0,0,1-1.034-.318,1.433,1.433,0,0,1-.206-2.018,1.391,1.391,0,0,1,.984-.524,1.526,1.526,0,0,1,1.034.318,1.432,1.432,0,0,1,.206,2.018Zm26.731-32.8a.7.7,0,0,1-.423.366,6.691,6.691,0,0,0-.9.367l-.077.034c-.3.136-.59.273-.88.415-.421.217-.736.393-1.018.57-.374.236-.743.484-1.111.732l-.118.079c-.63.426-1.278.908-1.929,1.428.084-.021.169-.039.253-.058.246-.049.492-.094.739-.138l.16-.028a7.878,7.878,0,0,1,.884-.125h.041a.569.569,0,0,1,.2,1.105c-.167.073-.337.138-.533.214l-.2.075c-.236.093-.474.183-.714.267a9.873,9.873,0,0,0-1.123.466,9.733,9.733,0,0,0-1,.588,12.343,12.343,0,0,0-.977.768,12.1,12.1,0,0,0-.96,1.009.857.857,0,0,1-1.465-.823.92.92,0,0,1-.1-.331.958.958,0,0,1,.218-.668c.418-.578.836-1.107,1.28-1.618a20.7,20.7,0,0,1,4.1-3.558,17.228,17.228,0,0,1,2.357-1.346c.437-.2.8-.356,1.145-.478.127-.045.255-.088.383-.131l.23-.078.189-.069a3.251,3.251,0,0,1,.392-.124,1.214,1.214,0,0,1,.284-.04.675.675,0,0,1,.306.07.773.773,0,0,1,.4.44A.8.8,0,0,1,58.592,27.405Z" transform="translate(9.197)" fill="#dddbd7"/>
          <path id="Path_2307" data-name="Path 2307" d="M.01.057l0-.048L0,0Q0,.075,0,.15C0,.119.007.088.01.057Z" transform="translate(36.02 137.849)" fill="#b1b0af"/>
          <path id="Path_2308" data-name="Path 2308" d="M.013,0,0,.046C0,.038.006.031.009.023S.012.008.013,0Z" transform="translate(33.715 130.632)" fill="#b1b0af"/>
          <path id="Path_2309" data-name="Path 2309" d="M0,0H0Z" transform="translate(33.457 130.79)" fill="#b1b0af"/>
          <path id="Path_2310" data-name="Path 2310" d="M9.25,9.309A4.451,4.451,0,0,0,9,8.587c-.151-.249-.339-.471-.5-.714a4.557,4.557,0,0,1-.47-.939,2.289,2.289,0,0,1-.12-.495,2.227,2.227,0,0,1,.009-.348A1.231,1.231,0,0,1,8.167,5.5a1.111,1.111,0,0,1,1.145-.41,2.217,2.217,0,0,1,.423.15c.087.045.172.093.255.143q-.148-.243-.295-.487c-.331-.545-.677-1.079-.966-1.648q-.081-.158-.158-.317a1.25,1.25,0,0,1-.119-.723,1.108,1.108,0,0,1,.937-.917l-.066-.077A9.928,9.928,0,0,0,8.468.472C8.26.308,8.037.161,7.827,0l-.5.4-.36.289c-.182.145-.36.287-.541.43-.368.291-.731.59-1.093.889l-.2.134c-.307.2-.6.4-.9.6C3.7,3.108,3.191,3.478,2.65,3.87l-.05.035-.268.2-.116.084L1.8,4.491l-.058.045c-.2.149-.385.289-.566.435-.113.206-.224.41-.334.617L.781,5.7a6.383,6.383,0,0,0-.322.654c-.015.084-.026.173-.037.273a1.629,1.629,0,0,0-.392.847A3.421,3.421,0,0,0,.1,8.7,3.874,3.874,0,0,0,.419,9.749a5.04,5.04,0,0,0,.719,1.074,4.338,4.338,0,0,0,.936.831,4.206,4.206,0,0,0,1.22.935,3.473,3.473,0,0,0,.791.305c.418.123.828.241,1.259.338.138.031.276.059.414.086a.849.849,0,0,1,.234-.219,6.366,6.366,0,0,0,1.036-.765l.083-.077c0-.03,0-.061,0-.091a4.214,4.214,0,0,1,.056-.455c0-.033,0-.066,0-.1a3.52,3.52,0,0,1,.034-.678c.031-.159.084-.314.116-.474.016-.078.029-.156.052-.232A1.311,1.311,0,0,1,7.6,9.716a1.06,1.06,0,0,1,.472-.348,1.3,1.3,0,0,1,1.209.225C9.277,9.5,9.266,9.4,9.25,9.309Z" transform="translate(0 69.162)" fill="#dddbd7"/>
          <path id="Path_2311" data-name="Path 2311" d="M0,.014,0,0,0,.014Z" transform="translate(104.986 187.758)" fill="#b1b0af"/>
          <path id="Path_2312" data-name="Path 2312" d="M13.512,0c-.4.028-.792.058-1.186.1-.443.047-.881.137-1.322.2A9.63,9.63,0,0,1,9.313.4C8.982.391,8.651.364,8.319.341c-.109.338-.221.675-.344,1.01-.176.485-.381.96-.582,1.437-.36.848-.7,1.7-1,2.57-.156.452-.3.907-.451,1.36S5.6,7.641,5.427,8.1s-.341.911-.5,1.373-.27.925-.4,1.39c-.136.5-.274,1.007-.394,1.514-.111.467-.2.941-.3,1.412.016-.074.03-.148.046-.222-.057.289-.106.577-.152.866-.042.272-.1.541-.142.814-.156.993-.338,1.982-.487,2.976-.146.976-.264,1.955-.439,2.927-.343,1.914-.533,3.852-.782,5.779-.128.979-.309,1.951-.43,2.93-.118.955-.154,1.918-.259,2.873-.054.5-.086,1-.157,1.5-.068.479-.145.958-.221,1.437-.153.962-.336,1.921-.534,2.875.01-.05.021-.1.032-.148-.1.5-.206,1-.314,1.5.609.216,1.216.436,1.821.662,2.006.751,4.058,1.368,6.124,1.931.709.194,1.422.371,2.132.558-.023-.442-.044-.885-.067-1.327-.116-1.686-.2-3.371-.212-5.062-.005-.815.012-1.631-.014-2.446-.028-.867-.017-1.732.006-2.6q.041-1.622.158-3.241c.078-1.095.187-2.184.3-3.275a30.268,30.268,0,0,1,.635-3.493q.371-1.645.726-3.29c.123-.568.258-1.134.389-1.7.119-.52.228-1.042.353-1.561.251-1.032.479-2.07.74-3.1s.545-2.03.818-3.045c.133-.5.243-1,.379-1.5.122-.442.239-.884.342-1.329.084-.511.131-1.023.166-1.538.039-.541.1-1.078.17-1.615A21.61,21.61,0,0,0,15.256.059,2.708,2.708,0,0,1,14.711.1C14.307.091,13.918-.006,13.512,0Z" transform="translate(104.987 147.873)" fill="#e0bc77"/>
          <path id="Path_2313" data-name="Path 2313" d="M0,.059,0,.046C.006.03.009.015.012,0,.008.02,0,.039,0,.059Z" transform="translate(84.318 161.422)" fill="#b1b0af"/>
          <path id="Path_2314" data-name="Path 2314" d="M.007,0,0,.034.006.006Z" transform="translate(84.308 161.493)" fill="#b1b0af"/>
          <path id="Path_2315" data-name="Path 2315" d="M11.324,1.785C11.3,1.3,11.269.816,11.253.33c0-.11,0-.22,0-.33a7.071,7.071,0,0,1-.995.154C9.769.193,9.28.235,8.792.269A6.6,6.6,0,0,0,7.332.5c-.294.1-.589.2-.889.28-.326.085-.652.159-.981.228q-.649.136-1.305.234a7.55,7.55,0,0,1-.085.8c-.066.434-.15.865-.232,1.3-.1.5-.191.991-.3,1.483-.1.435-.21.867-.311,1.3-.207.884-.423,1.765-.616,2.652.013-.066.028-.133.041-.2-.1.476-.2.95-.3,1.426-.209,1.035-.416,2.072-.6,3.113-.091.532-.186,1.062-.278,1.594s-.2,1.075-.273,1.616c-.069.482-.137.96-.186,1.443-.046.439-.074.881-.124,1.32Q.742,20.464.61,21.838c-.045.464-.1.929-.148,1.393-.049.437-.077.876-.111,1.314-.07.909-.12,1.816-.165,2.727Q.049,30.007.017,32.743,0,34.084,0,35.427c0,.865,0,1.729.045,2.595.089,1.262.2,2.523.3,3.787.071.962.186,1.921.23,2.886.041.88.036,1.759.052,2.639,0,.281.018.562.026.842.5.138.987.294,1.483.435.428.121.849.268,1.286.359l-.411-.08c.327.064.652.134.979.2.22.039.441.077.657.137.119.033.237.062.358.084l-.41-.08c.244.048.48.093.718.16l.078.021c.091.012.183.024.272.04.008-.034.019-.068.027-.1.111-.463.22-.925.34-1.385s.265-.927.418-1.385c.26-.777.489-1.563.76-2.336s.524-1.534.728-2.319c.038-.15.078-.3.118-.451.067-.464.136-.927.212-1.39q.02-.164.044-.326c.187-1.33.421-2.653.572-3.987.1-.839.193-1.679.312-2.517.015-.111.035-.222.052-.333,0-.14,0-.281,0-.421.017-1.157.034-2.312.112-3.466s.178-2.326.306-3.487c.249-2.282.6-4.553.777-6.842q.063-.832.133-1.662c.043-.536.061-1.073.106-1.608.1-1.2.239-2.39.4-3.583.071-.533.134-1.069.178-1.6s.066-1.046.1-1.57c.025-.416.059-.832.095-1.249,0-.405,0-.81-.019-1.215-.018-.491-.057-.98-.069-1.47-.012-.509.01-1.015.005-1.525C11.36,2.741,11.348,2.264,11.324,1.785Z" transform="translate(126.291 145.919)" fill="#e0bc77"/>
          <path id="Path_2316" data-name="Path 2316" d="M0,.044C0,.032.005.021.008.009L.01,0Z" transform="translate(84.298 161.526)" fill="#b1b0af"/>
          <path id="Path_2317" data-name="Path 2317" d="M5,5.437a14.212,14.212,0,0,1-.776,3.227c-.173.481-.362.957-.549,1.433-.182.458-.322.933-.487,1.4-.355,1-.7,2.021-.974,3.054-.263,1.007-.48,2.024-.7,3.041-.35,1.731-.679,3.465-.976,5.2-.163.963-.323,1.924-.423,2.9-.092.89-.088,1.793-.1,2.687-.025,2.2-.029,4.392.023,6.588.013.558.054,1.116.07,1.674S.129,37.743.124,38.3c-.009,1.078,0,2.16.033,3.238s.107,2.127.107,3.194c0,.3,0,.6,0,.9.26.077.519.154.78.228,1.851.53,3.742.9,5.6,1.423.258.073.518.141.777.211,0-.08,0-.161,0-.242.025-.859.073-1.718.077-2.575q0-1.353,0-2.7c0-.92,0-1.841-.013-2.762-.012-.872-.013-1.741.015-2.612.028-.914.033-1.828.064-2.741s.058-1.835.082-2.753c.049-1.811.166-3.621.239-5.432.037-.889.058-1.785.138-2.672.084-.942.161-1.884.253-2.824.043-.451.093-.9.144-1.351s.073-.875.112-1.311c.084-.91.217-1.816.364-2.719.3-1.8.634-3.6,1-5.394.188-.935.343-1.875.539-2.807.185-.877.383-1.749.574-2.625l-.044.214q.091-.445.184-.888l0,.012c.092-.443.191-.884.285-1.327.065-.318.135-.633.2-.95,0-.008,0-.016,0-.025a1.273,1.273,0,0,1-.467-.676C11.091.3,11.012.27,10.934.24a5.417,5.417,0,0,0-.637-.2A2.955,2.955,0,0,0,9.769,0a2.531,2.531,0,0,0-.384.072C9.041.2,8.708.37,8.372.518c-.174.077-.344.163-.513.25-.241.123-.482.248-.728.361a13.267,13.267,0,0,1-2.117.7,9.161,9.161,0,0,1,.1,1.054c.014.287.021.575.011.862C5.1,4.308,5.066,4.875,5,5.437Z" transform="translate(117.346 146.008)" fill="#e0bc77"/>
          <path id="Path_2318" data-name="Path 2318" d="M16.025,1.816a8.4,8.4,0,0,1-1.189-.1A14.945,14.945,0,0,1,12.5,1.291c-.373-.112-.739-.243-1.106-.371A11.484,11.484,0,0,0,10.069.527C9.672.44,9.279.341,8.884.242A4.591,4.591,0,0,1,8.344.066C8.292.046,8.241.024,8.191,0c-.015.087-.024.174-.036.26,0,.028,0,.056,0,.084.008.21.007.421.014.628a9.666,9.666,0,0,0,.269,1.459A7.091,7.091,0,0,1,8.628,3.79a7.488,7.488,0,0,1-.009,1.228c-.051.443-.107.886-.145,1.331-.034.412-.057.823-.12,1.232a19.228,19.228,0,0,1-.633,2.713c-.14.451-.253.91-.4,1.358-.14.428-.271.859-.41,1.286q-.453,1.387-.894,2.779c-.14.439-.288.876-.415,1.318-.132.468-.268.934-.421,1.4-.145.439-.3.875-.448,1.313s-.274.888-.417,1.33c-.289.9-.6,1.793-.9,2.686-.144.421-.314.838-.476,1.252-.18.46-.359.92-.521,1.385s-.3.929-.477,1.385c-.164.435-.325.871-.474,1.31-.158.468-.313.938-.467,1.408-.136.417-.26.84-.418,1.249-.073.191-.146.382-.218.572-.12.315-.242.63-.363.945.154.073.31.145.464.22l-.058-.029.244.12.024.012-.008,0c.931.462,1.846.954,2.775,1.42.3.142.6.279.9.423l-.04-.019.041.02.131.064q1.57.763,3.108,1.589c.98.524,1.917,1.123,2.905,1.633l.183.09c.263.123.529.239.8.352-.016-.347-.025-.694-.032-1.041-.005-.273-.015-.545-.014-.819,0-.964-.011-1.93.018-2.893s.139-1.908.246-2.857c.114-.995.207-1.988.4-2.971.394-2.013.728-4.035,1.176-6.038.219-.979.483-1.949.71-2.926.218-.934.405-1.876.607-2.814.047-.234.1-.468.141-.7,0,0,0,.007,0,.01l.021-.1-.012.06c0-.025.01-.05.016-.075s.006-.03.009-.044l.012-.055.009-.042-.006.03.012-.056-.035.171c.134-.654.294-1.3.458-1.954.141-.558.269-1.121.389-1.686.159-.9.292-1.806.381-2.718.049-.495.052-1,.071-1.492s.054-1.007.092-1.511c.073-.936.183-1.865.319-2.795a15.711,15.711,0,0,0,.19-1.951c0-.022,0-.045,0-.067-.159-.009-.319-.007-.481-.005Z" transform="translate(84.853 145.655)" fill="#e0bc77"/>
          <path id="Path_2319" data-name="Path 2319" d="M.488,5.335A3.878,3.878,0,0,0,.964,5.9a3.209,3.209,0,0,0,.457.312,4.365,4.365,0,0,0,.777.277,4.493,4.493,0,0,0,.766.057H3.3c.146,0,.292,0,.439,0a2.971,2.971,0,0,0,.553-.111,6.283,6.283,0,0,0,1.042-.545,4.889,4.889,0,0,0,.777-.674,4.3,4.3,0,0,0,.545-.8A6.385,6.385,0,0,0,7.1,3.262a3.167,3.167,0,0,0,.041-.6,3.422,3.422,0,0,0-.12-.625,3.526,3.526,0,0,0-.23-.491A5.671,5.671,0,0,0,6.039.693,4.553,4.553,0,0,0,5.394.249c.026.046.051.095.075.144a2.372,2.372,0,0,1,.226,1.1,1.6,1.6,0,0,1-.347.989,1.089,1.089,0,0,1-.557.359,1.328,1.328,0,0,1-.643-.018,3.108,3.108,0,0,1-.679-.286,2.956,2.956,0,0,1-.416-.248,3.675,3.675,0,0,1-.48-.423,1.938,1.938,0,0,1-.339-.477,3.209,3.209,0,0,1-.15-.4A1.8,1.8,0,0,1,2.078,0q-.1.058-.2.122a4.256,4.256,0,0,0-.6.512,4.943,4.943,0,0,0-.6.916A7.978,7.978,0,0,0,.062,3.235,4.419,4.419,0,0,0,0,4.046a2.139,2.139,0,0,0,.068.35A5.484,5.484,0,0,0,.488,5.335Z" transform="translate(49.667 97.78)" fill="#e0bc77"/>
          <path id="Path_2320" data-name="Path 2320" d="M.012.021,0,0V.033C0,.028.009.025.012.021Z" transform="translate(36.414 135.478)" fill="#b1b0af"/>
          <path id="Path_2321" data-name="Path 2321" d="M0,.072A.085.085,0,0,1,.041.1C.044.095.05.086.054.076L.012,0C.009.024,0,.048,0,.073Z" transform="translate(36.543 135.74)" fill="#b1b0af"/>
          <path id="Path_2322" data-name="Path 2322" d="M.043.026.022.009,0,0Z" transform="translate(60.622 167.097)" fill="#b1b0af"/>
          <path id="Path_2323" data-name="Path 2323" d="M.087.089C.15.133.21.181.271.227L.027.014,0,0,.022.012,0,0Z" transform="translate(64.824 169.094)" fill="#b1b0af"/>
          <path id="Path_2324" data-name="Path 2324" d="M.041.038,0,0,.037.035Z" transform="translate(65.072 169.297)" fill="#b1b0af"/>
          <path id="Path_2325" data-name="Path 2325" d="M2.968,29.135c.434.258.873.507,1.293.788s.813.562,1.232.819c.332.2.675.395,1.018.582.174-.416.356-.83.547-1.238.079-.169.151-.342.225-.514q.294-.679.56-1.371c.231-.6.43-1.216.637-1.83.162-.481.309-.964.46-1.448.163-.525.334-1.048.476-1.579.264-.988.491-1.981.726-2.976.239-1.01.5-2.014.774-3.015.242-.88.536-1.747.725-2.637a33.225,33.225,0,0,0,.435-3.31c.082-.869.12-1.748.154-2.621.035-.9.095-1.814.18-2.715.083-.872.24-1.733.377-2.6q.107-.662.191-1.33c.022-.185.026-.372.042-.558a.158.158,0,0,0,0-.026l-.161-.038c-.236-.061-.468-.129-.7-.194-.435-.12-.878-.221-1.32-.315C10,.85,9.165.719,8.344.484,7.96.374,7.579.253,7.2.142,7.01.089,6.823.043,6.636,0c-.115.65-.243,1.3-.349,1.948-.136.834-.379,1.637-.56,2.46-.025.123-.05.246-.076.368a8.086,8.086,0,0,0-.123.8c-.028.3-.037.6-.054.907-.02.325-.034.649-.063.972a7.771,7.771,0,0,1-.124.8c-.1.543-.193,1.091-.3,1.633-.124.617-.3,1.218-.446,1.829-.12.621-.23,1.243-.4,1.852-.2.708-.365,1.423-.531,2.141-.322,1.39-.689,2.768-1.088,4.138-.3,1.035-.658,2.054-1,3.077-.169.508-.31,1.022-.445,1.539C.98,24.82.9,25.183.8,25.536c-.036.126-.074.251-.117.374A6.409,6.409,0,0,1,0,27.242c.166.1.332.208.5.313C1.323,28.079,2.128,28.635,2.968,29.135Z" transform="translate(71.978 144.219)" fill="#e0bc77"/>
          <path id="Path_2326" data-name="Path 2326" d="M1.183,32.217c.332.178.656.373.987.552.273.147.541.3.811.453.058-.142.115-.285.174-.427.114-.275.23-.549.344-.825.1-.235.193-.47.284-.707.336-.883.675-1.766,1.058-2.629.2-.447.405-.89.6-1.34s.39-.92.6-1.371A26.7,26.7,0,0,0,7.1,23.374q.463-1.339.85-2.7c.257-.908.6-1.789.838-2.7.119-.454.242-.9.361-1.359.115-.436.206-.88.322-1.317.251-.945.478-1.9.726-2.843.227-.865.493-1.721.683-2.6.042-.215.086-.431.129-.646.087-.467.161-.94.2-1.413a14.541,14.541,0,0,1,.273-1.716c-.019.087-.036.176-.054.263a9.705,9.705,0,0,0,.2-2.077,4.745,4.745,0,0,0-.15-.8,6.943,6.943,0,0,1-.173-.736,7.173,7.173,0,0,1-.089-1.008c0-.154,0-.31,0-.466-.164-.045-.329-.078-.488-.138C10.383.991,10.041.858,9.7.736,9.5.668,9.3.6,9.105.542S8.725.421,8.536.356c-.3-.1-.593-.216-.9-.291A5.9,5.9,0,0,0,6.987,0c-.009.023-.016.047-.024.071-.054.147-.1.3-.143.448-.082.266-.17.532-.237.8-.037.226-.049.454-.064.683a.687.687,0,0,1-.166.4c-.036.368-.071.737-.118,1.1-.054.426-.106.85-.141,1.277s-.069.881-.1,1.32c-.037.458-.088.914-.123,1.372-.03.41-.058.823-.1,1.233s-.1.842-.15,1.262c-.057.471-.09.945-.141,1.416-.1.945-.323,1.867-.518,2.794-.179.861-.441,1.7-.626,2.563l0,.018,0,.012-.008.037c-.088.425-.181.85-.27,1.274-.338,1.658-.718,3.315-1.2,4.94-.152.515-.318,1.024-.476,1.537-.152.492-.265,1-.406,1.492s-.27,1.007-.422,1.505c-.158.517-.347,1.025-.539,1.531-.111.29-.232.576-.352.862-.074.178-.15.355-.218.536-.145.378-.291.754-.432,1.132l.1.051C.463,31.847.826,32.026,1.183,32.217Z" transform="translate(79.992 144.726)" fill="#e0bc77"/>
          <path id="Path_2327" data-name="Path 2327" d="M5.029,27.5l.31.219c.437.307.872.615,1.3.936.367.277.723.569,1.083.854s.744.544,1.122.807c.07-.119.141-.238.209-.359a7.733,7.733,0,0,0,.4-1.39c.017-.074.033-.148.051-.223.146-.625.311-1.248.517-1.856s.423-1.223.628-1.836c.208-.629.4-1.264.583-1.9.3-1.012.607-2.021.867-3.045.123-.482.244-.964.39-1.439.151-.493.342-.974.506-1.462.135-.4.234-.8.342-1.2.132-.486.306-.958.439-1.442.115-.418.2-.846.291-1.269.09-.405.2-.8.3-1.209.074-.442.108-.888.154-1.335a13.167,13.167,0,0,1,.252-1.468q.144-.651.333-1.289c.094-.316.2-.628.276-.948.086-.459.149-.922.227-1.384q.111-.667.211-1.336c.016-.11.036-.219.054-.328a1.458,1.458,0,0,1-.217-.845,1.427,1.427,0,0,1,.478-.963c0-.017,0-.035,0-.052.011-.144.024-.287.025-.432-.165-.034-.325-.082-.488-.131C15.2,1.034,14.73.9,14.259.755c-.419-.128-.835-.264-1.25-.4-.344-.115-.693-.237-1.046-.327a4.318,4.318,0,0,0-.814-.014c-.318.019-.636.023-.954.023,0,.011-.007.022-.01.032s0,.011,0,.017c-.049.307-.079.618-.118.925a7.034,7.034,0,0,1-.28,1.244c-.111.342-.266.674-.4,1.008-.129.317-.257.636-.383.955-.63,1.627-1.2,3.276-1.786,4.918-.3.843-.652,1.666-.98,2.5-.314.794-.694,1.561-1.084,2.32-.312.641-.605,1.292-.886,1.949-.309.718-.64,1.426-.97,2.133a24.665,24.665,0,0,1-1.237,2.393c-.33.546-.68,1.081-1.025,1.619-.09.14-.181.28-.27.421-.185.3-.376.589-.563.883l-.013.02L0,23.662c.652.513,1.329,1,1.961,1.535.733.623,1.505,1.19,2.285,1.752C4.5,27.135,4.767,27.318,5.029,27.5Z" transform="translate(61.12 139.832)" fill="#e0bc77"/>
          <path id="Path_2328" data-name="Path 2328" d="M1.281,39.312c-.013-.039-.026-.078-.039-.116l.138.417-.087-.265q.1.31.205.618c.057.17.116.339.178.507q.157.426.351.838a6.758,6.758,0,0,0,.33.625,4.051,4.051,0,0,0,.451.549c.079.063.159.122.243.177.042.015.083.03.126.044l.043,0,.057-.012c.045-.021.088-.045.131-.068l.048-.025c.305-.22.6-.455.909-.669l.179-.123.082-.056c.218-.149.434-.3.643-.462.293-.229.59-.454.892-.67.281-.2.57-.39.848-.592L7.046,40c.248-.182.483-.381.722-.574.5-.4,1.023-.773,1.519-1.178a14.263,14.263,0,0,0,1.335-1.217l.026-.026a3.792,3.792,0,0,0,.441-.6,2.261,2.261,0,0,0,.078-.216,1.252,1.252,0,0,0,.012-.157,1.6,1.6,0,0,0-.037-.2,2.066,2.066,0,0,0-.112-.225,3.318,3.318,0,0,0-.374-.414c-.382-.345-.758-.7-1.138-1.043A11.86,11.86,0,0,1,8.17,33.006c-.185-.211-.342-.445-.513-.665-.2-.259-.449-.479-.651-.736a3.252,3.252,0,0,1-.372-.565,1.948,1.948,0,0,1-.219-.626,2.281,2.281,0,0,1,.015-.69,4.563,4.563,0,0,1,.137-.547,5.138,5.138,0,0,1,.429-.97,3.31,3.31,0,0,1,.244-.387,2.089,2.089,0,0,0,.193-.256.441.441,0,1,1,.675.562c-.035.054-.063.111-.093.168a4.966,4.966,0,0,0-.347.992,3.989,3.989,0,0,0-.065.652,1.681,1.681,0,0,0,.032.176,2.055,2.055,0,0,0,.1.2c.29.39.681.679.991,1.052a11.46,11.46,0,0,0,.8.955c.381.333.762.664,1.116,1.025s.718.7,1.039,1.08a2.227,2.227,0,0,1,.459,2.285,5.5,5.5,0,0,1-.975,1.424c-.433.484-.888.95-1.342,1.414s-.9.943-1.367,1.4c-.4.4-.819.791-1.241,1.174-.092.083-.182.168-.274.251-.266.239-.525.486-.8.716s-.588.471-.879.71c-.073.06-.147.116-.221.174q-.246.195-.506.373a6.674,6.674,0,0,0,.41.88c.161.28.329.556.5.83.061.1.117.2.179.3a10.844,10.844,0,0,1,.562.943c.161.312.309.63.472.943s.332.615.48.931A7.735,7.735,0,0,0,7.576,50c.142.211.3.413.431.627.147.229.281.466.409.706.247.463.495.925.752,1.382.176.313.344.632.513.949.072.135.146.268.218.4.245.466.491.927.773,1.372s.6.848.855,1.3c.236.406.466.818.715,1.217.318.475.688.91,1.043,1.358.406.508.819,1.012,1.215,1.528s.776,1.082,1.2,1.6c.837,1.029,1.773,1.977,2.522,3.078a9.4,9.4,0,0,0,.588.785c.222.262.459.509.7.756a18.669,18.669,0,0,1,1.328,1.43q.609.776,1.253,1.526c.43.5.886.983,1.3,1.5s.813,1.038,1.257,1.528.869.954,1.316,1.417c.157.163.305.333.459.5.391.368.782.736,1.167,1.11.422.409.864.8,1.292,1.2.362.343.727.683,1.1,1.012l.036.033c.373.324.754.64,1.132.96l.014-.022c.134-.215.267-.431.409-.642l.06-.087c.2-.291.4-.58.6-.87.179-.259.355-.519.535-.778a19.548,19.548,0,0,0,1.184-1.96c.458-.91.91-1.825,1.338-2.751.211-.458.429-.913.657-1.363.251-.495.518-.979.773-1.472l.172-.338c.154-.314.3-.63.438-.954.342-.809.7-1.612,1.009-2.434s.621-1.655.909-2.493q.421-1.231.812-2.474.18-.571.349-1.148c.1-.329.207-.657.286-.989a2.675,2.675,0,0,0,.03-.514c-.026-.359-.054-.716-.061-1.075,0-.2-.012-.392-.021-.588-.007-.058-.02-.115-.03-.174a1.016,1.016,0,0,1-.009-.12l-.471-.2c-.359-.153-.716-.308-1.078-.453s-.71-.269-1.067-.4c-.183-.067-.367-.133-.55-.2a9.61,9.61,0,0,1-1.376-.653,23.325,23.325,0,0,1-1.923-1.367c-.329-.259-.7-.551-1.045-.867-.281-.262-.555-.534-.828-.806l-.055-.053c-.241-.253-.435-.468-.608-.677a8.117,8.117,0,0,1-.649-.946,12.923,12.923,0,0,1-1.117-2.7,9.925,9.925,0,0,1-.214-1.211c-.037-.4-.057-.819-.058-1.294a14.618,14.618,0,0,1,.178-1.6c.089-.566.192-1.078.316-1.563a29.456,29.456,0,0,1,1.091-2.79c.095-.222.191-.444.285-.667q.123-.289.241-.58c.021-.051.043-.1.064-.153q.406-.74.832-1.468c.367-.422.739-.841,1.1-1.264s.747-.859,1.125-1.285c.225-.249.449-.5.673-.75l.74-.8c.171-.127.342-.256.508-.389.667-.534,1.537-1.248,2.335-2.03.365-.359.844-.834,1.31-1.327.167-.178.334-.36.5-.542s.309-.339.466-.507c.243-.257.478-.533.7-.8l.2-.237c.276-.319.58-.623.876-.914l.046-.046a20.91,20.91,0,0,1,2.356-2.005c.143-.1.286-.2.433-.294.314-.313.626-.624.943-.931.906-.881,1.864-1.7,2.68-2.383l.464-.384.3-.249q.339-.279.673-.565l.119-.1.065-.056A8.3,8.3,0,0,1,50,16.442a6.949,6.949,0,0,1-.676-.919c-.024.015-.048.03-.074.044q-.321.172-.638.353c-.2.124-.41.243-.617.361a2.937,2.937,0,0,1-.513.237c-.192.067-.388.125-.584.182-.249.071-.495.157-.748.217a.624.624,0,0,1-.475-.127.644.644,0,0,1,.306-1.149c.168-.024.338-.024.505-.047.135-.02.267-.046.4-.076a3.341,3.341,0,0,0,.722-.316l-.127.075.3-.174.281-.17-.026.015.127-.075-.1.06c.231-.135.464-.265.7-.392-.06-.115-.123-.228-.177-.347a8.979,8.979,0,0,1-.723-2.388,7.157,7.157,0,0,1-.058-1.363,5.206,5.206,0,0,1,.221-1.167,10.3,10.3,0,0,1,.322-1.048c.051-.133.111-.262.166-.393a.679.679,0,0,1,.031-.146,3.37,3.37,0,0,1,.265-.673,1.915,1.915,0,0,1,.183-.251c.008-.025.016-.051.025-.075a2.065,2.065,0,0,1,.414-.673,3.982,3.982,0,0,1,.4-.387c.133-.108.274-.2.418-.3.124-.083.255-.161.388-.234a1.61,1.61,0,0,1,.142-.1l.092-.053a1.993,1.993,0,0,0,.512-.18c.034.006.068.011.1.016s.089.007.134.01l.017-.006c.173-.056.347-.106.522-.152.031-.008.063-.014.094-.021l.039-.014a1.835,1.835,0,0,1,.182-.054l.107-.025c.054-.012.11-.02.165-.029h.011a.077.077,0,0,1,.049.022c.122-.018.243-.035.366-.055.166-.026.332-.048.5-.071a3.7,3.7,0,0,1,.495-.039c.137,0,.275,0,.412.009h0A4.226,4.226,0,0,0,55.7,4.088l.006,0a3.844,3.844,0,0,0,.451-.237c.014-.009.03-.015.045-.023l.061-.015c.057-.047.112-.1.169-.146.1-.082.193-.162.286-.247.046-.045.092-.091.137-.138s.1-.12.154-.181l.311-.372.036-.041c.008-.015.014-.031.023-.047a3.916,3.916,0,0,1,.329-.5c.159-.2.318-.408.493-.6.109-.119.222-.235.337-.35-.036-.037-.066-.075-.1-.112a2.406,2.406,0,0,0-.3-.244,4.016,4.016,0,0,0-.563-.353A2.6,2.6,0,0,0,57,.272,1.547,1.547,0,0,0,56.334.02,2.336,2.336,0,0,0,56.014,0a5.112,5.112,0,0,0-1.051.138,17.856,17.856,0,0,0-2.319.632,15.5,15.5,0,0,0-2.6,1.194c-.706.291-1.464.613-2.213.989l-.232.116c-.33.165-.671.337-1,.521l-.6.346-.486.278c-.334.191-.666.385-1,.579-.4.231-.8.463-1.2.69l-.042.025-.045.024c-.649.277-1.186.515-1.691.747s-.987.454-1.476.69c-.562.272-1.124.567-1.619.827-.443.231-.881.469-1.32.707-.4.216-.8.433-1.2.645l-.1.05-.094.05-.105.042c-.131.052-.26.1-.387.162-.283.137-.55.291-.843.464l-.2.12-.39.145c-.274.1-.547.2-.821.309-.476.181-.97.368-1.461.533-.355.119-.731.231-1.119.331a8.2,8.2,0,0,1-1.124.1l-.19.008c-.236.011-.472.015-.708.015s-.454,0-.679-.009a4.587,4.587,0,0,1-.758-.122,5.241,5.241,0,0,0-.99-.107h-.016l-.124-.005L25.7,11.2l.017.006-.178-.059a7.673,7.673,0,0,0-1.14-.3,3.108,3.108,0,0,0-.495-.037,5.71,5.71,0,0,0-1.047.117,8.971,8.971,0,0,0-1.352.36,5.214,5.214,0,0,0-.98.524c-.1.061-.19.12-.286.178-.253.135-.512.257-.772.38l-.31.148a16.393,16.393,0,0,0-1.508.848c-.364.228-.727.46-1.088.694-.533.343-1.086.7-1.64,1.029l-.457.273c-.282.169-.563.338-.848.5a15.951,15.951,0,0,0-1.392.936c-.253.187-.5.378-.753.567-.176.133-.351.266-.528.4l-.153.115c-.31.229-.632.468-.931.724-.361.307-.7.635-1.01.943-.191.176-.386.344-.581.515a14.085,14.085,0,0,0-1.119,1.046c-.212.227-.406.478-.595.719l-.1.125c-.107.136-.22.273-.339.414.165-.022.331-.042.5-.052s.347-.016.52-.016c.269,0,.538.012.808.029a.7.7,0,1,1-.094,1.388c-.141-.009-.281-.015-.422-.02-.237-.009-.473-.013-.71,0-.26.029-.519.066-.778.1l-.4.057c-.041.005-.08.015-.121.021-.216.032-.43.075-.64.127-.139.034-.278.067-.415.109s-.278.111-.415.171a6.047,6.047,0,0,0-.672.335c-.137.1-.268.2-.4.307-.073.057-.149.109-.22.168-.124.1-.24.218-.358.328-.075.07-.155.136-.227.209a5.068,5.068,0,0,0-.382.529c-.2.318-.384.652-.559.99-.031.064-.057.13-.087.195-.181.39-.345.785-.487,1.191q-.105.3-.2.608c-.013.039-.025.079-.037.119-.067.218-.13.436-.182.66s-.07.463-.091.7a13.211,13.211,0,0,0-.022,1.7c0,.032,0,.063,0,.1.007.144.01.288.016.431.013.311.026.621.033.931,0,.184.006.367.008.55,0,.21.007.42.016.631a9.432,9.432,0,0,0,.126.989c.046.244.107.483.176.721,0,.01.006.021.009.032.016.054.029.109.046.163.061.168.128.333.186.5.077.224.151.448.226.672-.008-.024-.015-.049-.024-.073l.087.261L.862,38.03c.12.354.233.71.348,1.065Zm18.846-22.35a11.219,11.219,0,0,1,.752-1.677,4.886,4.886,0,0,1,.6-.842,4.207,4.207,0,0,1,.822-.684l-.114.073.118-.075,0,0a3.723,3.723,0,0,1,.681-.362,2.854,2.854,0,0,1,.472-.151,1.711,1.711,0,0,1,.367-.03l.036-.032a2.163,2.163,0,0,1,.589-.372,2.074,2.074,0,0,1,.419-.131,3.876,3.876,0,0,1,.442-.035h.055a2.444,2.444,0,0,1,.6.088,1.7,1.7,0,0,1,.354.134,3.021,3.021,0,0,1,.526.322c.1.079.2.16.3.242.249.2.493.4.723.627a5.053,5.053,0,0,1,.549.649,3.868,3.868,0,0,1,.79,1.9,3.5,3.5,0,0,1-.075,1.094,5.02,5.02,0,0,1-.3.91c-.141.326-.282.652-.448.965a4.128,4.128,0,0,1-.617.86,4.961,4.961,0,0,1-.72.693c-.3.219-.609.439-.929.63a3.57,3.57,0,0,1-.9.389,4.477,4.477,0,0,1-.908.113c-.314.022-.629.047-.942.037a3.649,3.649,0,0,1-1.058-.183,4.424,4.424,0,0,1-1.016-.474A3.246,3.246,0,0,1,20.572,21a2.976,2.976,0,0,1-.511-.923,4.181,4.181,0,0,1,.065-3.119Z" transform="translate(28.733 83.181)" fill="#e0bc77"/>
          <path id="Path_2329" data-name="Path 2329" d="M0,.082.05,0,.018.055,0,.086Z" transform="translate(95.867 94.176)" fill="#b1b0af"/>
          <path id="Path_2330" data-name="Path 2330" d="M0,0,.045.029.027.01Z" transform="translate(93.954 83.303)" fill="#b1b0af"/>
          <path id="Path_2331" data-name="Path 2331" d="M0,.021.025.005.029,0Z" transform="translate(90.314 98.877)" fill="#b1b0af"/>
          <path id="Path_2332" data-name="Path 2332" d="M.054,0,0,.01S0,.017.006.022L.018.016Z" transform="translate(91.889 97.468)" fill="#b1b0af"/>
          <path id="Path_2333" data-name="Path 2333" d="M0,.029H0L.017,0V0Z" transform="translate(95.851 94.262)" fill="#b1b0af"/>
          <path id="Path_2334" data-name="Path 2334" d="M6.387,5.294c.188-.121.369-.26.551-.392a5.172,5.172,0,0,0,.5-.408c.174-.182.339-.372.5-.563A4.767,4.767,0,0,0,8.4,3.3a4.168,4.168,0,0,0,.278-.679A5.289,5.289,0,0,0,8.83,1.545a3.093,3.093,0,0,0-.066-.524A3.922,3.922,0,0,0,8.487.362a1.846,1.846,0,0,0-.15-.2C8.278.107,8.216.055,8.152.008L8.1,0c-.1.009-.2.026-.3.044A.757.757,0,0,1,7.393,0a2.343,2.343,0,0,1-.027.317,7.351,7.351,0,0,1-.23.908,8.048,8.048,0,0,1-.271.879,5.78,5.78,0,0,1-.431.876A3.682,3.682,0,0,1,5.277,4.122a3.474,3.474,0,0,1-1.719.571,2.136,2.136,0,0,1-.837-.113c-.024-.009-.046-.021-.07-.031a3.793,3.793,0,0,1-.515-.265,3.745,3.745,0,0,1-.644-.531,2.733,2.733,0,0,1-.627-.814C.834,2.869.805,2.8.778,2.727c-.139.02-.278.04-.414.07-.045.016-.089.033-.132.053a1.5,1.5,0,0,0-.119.093C.1,2.957.09,2.971.079,2.985s-.015.036-.022.054A2.727,2.727,0,0,0,0,3.488a.076.076,0,0,1,0,.069s0,.009,0,.014a3.893,3.893,0,0,0,.113.774c.015.039.029.078.046.116.036.057.072.114.111.17.069.1.137.2.207.291.116.16.244.31.373.458s.281.32.422.482c.056.063.115.123.172.185.078.085.154.172.236.254l-.014-.016c.072.069.145.137.223.2.041.033.082.064.125.094l.083.033c.067.025.136.049.2.071.041.014.082.029.124.041s.107.031.161.046l-.021-.007c.074.019.148.037.224.053.058,0,.115,0,.173,0l.052,0a5.153,5.153,0,0,0,.524-.1c.281-.079.556-.169.83-.268a3.429,3.429,0,0,0,.346-.129c.111-.051.216-.113.323-.174l-.017.01.23-.135-.1.057c.222-.132.438-.27.654-.409C6,5.553,6.191,5.42,6.387,5.294Z" transform="translate(83.001 90.158)" fill="#e0bc77"/>
          <path id="Path_2335" data-name="Path 2335" d="M.082.007C.054.054.027.1,0,.149L.086,0l0,.005,0,.008Z" transform="translate(95.768 94.284)" fill="#b1b0af"/>
          <path id="Path_2336" data-name="Path 2336" d="M13.969.02,13.781.007C13.721,0,13.663,0,13.6,0c-.118,0-.236.011-.353.023l-.381.044c-.069.006-.138.016-.206.028l-.141.024c-.075.014-.15.031-.225.049-.044.011-.087.02-.131.033l-.108.034c-.069.022-.137.047-.206.07l-.21.069c-.151.049-.3.1-.448.15l-.011,0c-.1.082-.207.173-.309.269-.017.017-.035.029-.052.046-.067.069-.141.148-.214.226l-.075.08c-.1.11-.2.227-.3.348-.036.044-.069.093-.1.138a6.574,6.574,0,0,0-.387.571c-.047.083-.095.171-.143.26l-.031.059-.01.02c-.044.086-.088.172-.128.263l-.08.183c-.08.182-.161.364-.255.54-.015.028-.03.056-.049.084.025,0,.05,0,.075,0a2.35,2.35,0,0,1,.683.165,2.456,2.456,0,0,1,.509.272,3.948,3.948,0,0,1,.771.748,4.937,4.937,0,0,1,.475.7.912.912,0,0,1,.139-.041,1.327,1.327,0,0,1,.216-.018,1.547,1.547,0,0,1,.363.045,1.147,1.147,0,0,1,.148.048l.031,0a4.157,4.157,0,0,1,.783.179,1.539,1.539,0,0,1,.777.629,4.762,4.762,0,0,1,.542,1.246,2.968,2.968,0,0,1,.128.777,5.367,5.367,0,0,1-.044.839,6.591,6.591,0,0,1-.287,1.217,3.714,3.714,0,0,1-.261.635,6.824,6.824,0,0,1-.468.763,7.439,7.439,0,0,1-1.058,1.143,3.629,3.629,0,0,1-.495.375,3.848,3.848,0,0,1-.665.328,10.546,10.546,0,0,1-1.38.436c-.188.042-.374.089-.563.125l-.047.027-.15.08a3.027,3.027,0,0,1-.423.2c-.077.026-.156.05-.236.07s-.133.03-.2.044a3.638,3.638,0,0,1-.475.078c-.087.007-.171.012-.259.014a2.19,2.19,0,0,1-.226-.005A6.211,6.211,0,0,1,6.395,14.6l-.007,0-.014,0a1.466,1.466,0,0,1-.41-.153l-.054-.03a2.369,2.369,0,0,1-.248-.129c-.046-.029-.091-.058-.136-.09-.023-.017-.045-.036-.068-.055a.121.121,0,0,1-.036-.005.328.328,0,0,1-.067-.041l-.012-.007a1.381,1.381,0,0,1-.158-.161c-.036-.039-.068-.082-.1-.124-.02-.024-.038-.046-.055-.071l-.1-.144c-.017-.024-.036-.048-.052-.073l-.17-.274,0,0c-.053-.077-.105-.154-.155-.233a7.057,7.057,0,0,1-.491-.851c-.036-.075-.067-.152-.1-.23s-.05-.149-.073-.224c-.026-.091-.046-.183-.067-.276-.009-.036-.014-.073-.021-.109s-.015-.079-.02-.119c-.011-.1-.02-.19-.025-.286s-.007-.165-.007-.246a1.047,1.047,0,0,1,.024-.257c0-.015.009-.029.014-.044a1.3,1.3,0,0,1-.009-.314,1.136,1.136,0,0,1,.206-.537,1.423,1.423,0,0,1,.91-.547c.074-.015.15-.027.225-.038a2.7,2.7,0,0,1-.059-.269,3.439,3.439,0,0,1-.033-.467,3.239,3.239,0,0,1,.129-.894A8.371,8.371,0,0,1,5.487,6.3c.027-.064.055-.127.084-.19a2.332,2.332,0,0,1-.343.049c-.335.021-.671,0-1.006-.006-.036,0-.071,0-.107-.005C3.424,6.339,2.7,6.382,2,6.554c-.212.148-.419.3-.616.473-.026.022-.049.047-.074.069l-.153.246c-.062.108-.123.218-.186.326l.012-.02A8.882,8.882,0,0,0,.18,9.48,5.816,5.816,0,0,0,0,10.617,7.834,7.834,0,0,0,.234,12.26a10.138,10.138,0,0,0,.837,1.984c.059.1.12.2.18.308a6.569,6.569,0,0,0,.874,1.169c.033.027.064.056.1.082.246.2.5.39.749.582L3,16.41l.047.025c.046.026.093.052.139.076.109.055.22.111.331.163s.227.107.342.16L4,16.893c.046.02.091.041.137.059.219.088.438.176.662.251.095.031.188.063.283.093l.111.024c.14.028.282.05.423.071l.4.065c.129.021.257.045.387.068s.277.05.417.07c.05.007.1.009.151.014a.075.075,0,0,1,.074,0l.019.011c.058,0,.115.012.173.016s.132,0,.2.005.145,0,.218,0c.132,0,.265,0,.4,0s.252-.009.377-.024c.071-.009.141-.019.211-.032s.135-.025.2-.039c.192-.039.382-.086.572-.134l.086-.046c.08-.042.157-.088.234-.137s.174-.111.257-.173.143-.108.213-.164l0,0c.053-.044.106-.088.156-.137a1.85,1.85,0,0,0,.128-.141c.042-.052.081-.106.122-.158s.087-.116.132-.173.082-.1.123-.15c.086-.106.175-.208.264-.311s.186-.211.284-.313q.038-.039.079-.075c.022-.021.045-.044.069-.064.052-.045.1-.091.158-.132.114-.085.227-.173.347-.248a4.182,4.182,0,0,1,.383-.219c.138-.07.28-.136.422-.2h0a3.1,3.1,0,0,1,.336-.134,2.922,2.922,0,0,1,.408-.087l-.013,0,.2-.036c.153-.028.307-.056.457-.094l.138-.037.131-.053c.154-.058.31-.115.467-.167.067-.023.135-.045.2-.066.121-.066.244-.127.367-.188l.074-.057c.053-.041.107-.078.161-.116l.125-.088c.067-.045.133-.092.2-.138a14.629,14.629,0,0,0,1.4-1.993l.019-.032.064-.11.014-.024-.008.014.015-.025c.027-.048.052-.1.079-.144l.017-.031c.047-.111.1-.221.14-.334l0,.009c.029-.083.057-.166.08-.252s.042-.174.062-.261a.082.082,0,0,1,.034-.049c0-.025.009-.05.012-.076s0-.04.006-.059c.007-.106.015-.211.023-.317,0-.064.008-.129.014-.193.021-.224.044-.448.067-.671,0,.006,0,.015,0,.022.008-.09.017-.179.025-.269s.016-.208.026-.311c0-.043.009-.087.013-.13,0-.008-.012-.014-.012-.024.009-.2.017-.407.025-.611.007-.158.009-.318.02-.477s.021-.332.029-.5c0-.073.008-.145.009-.216s0-.162,0-.244c0-.159-.005-.319-.013-.477s-.018-.311-.025-.467c0-.082-.008-.162-.012-.242s-.011-.149-.017-.223-.018-.147-.029-.22-.022-.145-.033-.218c-.011-.051-.023-.1-.034-.153s-.025-.091-.037-.137c-.022-.082-.047-.165-.078-.245-.018-.05-.035-.1-.055-.152s-.041-.1-.062-.148c-.033-.082-.071-.161-.107-.24h0c-.049-.1-.1-.2-.149-.3-.021-.044-.045-.086-.069-.128s-.05-.095-.078-.14c-.052-.086-.1-.171-.156-.255-.065-.1-.128-.2-.194-.3-.08-.122-.16-.245-.239-.368l-.193-.168c-.071-.063-.144-.127-.214-.192-.038-.037-.078-.072-.115-.109a.117.117,0,0,1-.039-.015C16.121.936,15.9.764,15.675.6l.017.013c-.125-.083-.253-.165-.387-.236-.062-.034-.129-.06-.193-.089-.009,0-.017.007-.027,0-.056-.016-.111-.032-.166-.05s-.1-.037-.152-.058-.082-.042-.123-.063S14.538.1,14.485.086C14.314.058,14.141.037,13.969.02Z" transform="translate(78.348 82.944)" fill="#e0bc77"/>
          <path id="Path_2337" data-name="Path 2337" d="M3.29.365,3.225.352A.842.842,0,0,1,2.753.1L2.559.027c-.036,0-.071-.009-.107-.011C2.212,0,1.969,0,1.728,0a3,3,0,0,0-.473.2A4.074,4.074,0,0,0,.6.719a2.8,2.8,0,0,0-.272.354,1.832,1.832,0,0,0-.086.186C.224,1.3.212,1.34.2,1.381c-.005.024-.011.048-.015.072a.345.345,0,0,1-.037.1l0,.005A4.74,4.74,0,0,0,0,2.58a2.77,2.77,0,0,0,.084.557.538.538,0,0,1,.085.046c.01,0,.02-.005.03-.005a.646.646,0,0,1,.437.117.593.593,0,0,1,.227.391.6.6,0,0,1-.118.437.654.654,0,0,1-.205.171,3.28,3.28,0,0,0,.413.5,3.275,3.275,0,0,0,.532.437A3.007,3.007,0,0,0,2,5.462l.028.011a1.614,1.614,0,0,0,.239.028,2.886,2.886,0,0,0,.651-.092,3.32,3.32,0,0,0,.621-.247,3.381,3.381,0,0,0,.475-.4,3.4,3.4,0,0,0,.376-.455,3.18,3.18,0,0,0,.234-.582,5.784,5.784,0,0,0,.116-.666A.679.679,0,0,1,4.7,2.79c0-.016,0-.031,0-.047a3.014,3.014,0,0,0-.069-.6A2.56,2.56,0,0,0,4.461,1.7c-.133-.2-.3-.374-.445-.561C3.943,1.043,3.867.953,3.79.863c-.1-.115-.2-.228-.306-.338-.057-.053-.115-.1-.176-.152Z" transform="translate(84.009 88.712)" fill="#e0bc77"/>
          <path id="Path_2338" data-name="Path 2338" d="M.03.039.038.045l0,0L0,0Z" transform="translate(83.849 95.791)" fill="#b1b0af"/>
        </g>
      </g>
    </g>
    <text id="SAVING_DRAFT_" data-name="SAVING DRAFT" transform="translate(11100 1472)" fill="#e0bc77" font-size="18" font-family="Roboto-Bold, Roboto" font-weight="700"><tspan x="-68.243" y="0">SAVING DRAFT</tspan></text>
  </g>
</svg>
