<svg id="company-logo" xmlns="http://www.w3.org/2000/svg" width="200" height="100" viewBox="0 0 200 100">
  <rect id="Rectangle_1505" data-name="Rectangle 1505" width="200" height="100" rx="4" fill="#b1b0af"/>
  <path id="Path_3271" data-name="Path 3271" d="M81.259,17.394c0,1.161-1.824,2.322-3.814,1.824S73.631,17.56,73.631,16.4s1.658-1.658,3.814-1.658S81.259,16.067,81.259,17.394ZM98.01,72.29C75.787,64,50.578,58.192,49.417,47.247S60.363,33.647,65.5,33.315s21.063,3.814,29.355,4.478c8.292.5,13.6,1.493,17.248-2.488s2.819-5.971-1.493-7.463c-4.478-1.493-19.9-3.814-22.721-9.453-2.819-5.473-4.146-8.956-12.6-9.619s-12.6,0-13.6-2.819,1-6.634-6.634-5.8A219.267,219.267,0,0,0,29.847,5.453c-2.985.829-3.317,4.478,1.99,3.98,12.6-1.327,16.087.332,16.087.332s-27.2,15.258-34.662,24.214C5.135,43.764-5.313,61.344,3.145,84.562c.829,2.488,1.824,4.644,2.488,6.468H133.5C123.716,84.728,110.283,76.767,98.01,72.29Z" transform="translate(36.599 8.97)" fill="#dddbd7"/>
</svg>
