<svg xmlns="http://www.w3.org/2000/svg" xmlns:xlink="http://www.w3.org/1999/xlink" width="177" height="160" viewBox="0 0 177 160">
  <defs>
    <clipPath id="clip-path">
      <rect id="Rectangle_1861" data-name="Rectangle 1861" width="177" height="160" fill="#fff"/>
    </clipPath>
  </defs>
  <g id="Mask_Group_9" data-name="Mask Group 9" clip-path="url(#clip-path)">
    <path id="Path_3159" data-name="Path 3159" d="M111.128,23.34c0,1.558-2.495,3.117-5.217,2.449s-5.217-2.226-5.217-3.785,2.268-2.226,5.217-2.226S111.128,21.559,111.128,23.34Zm22.908,73.694C103.643,85.9,69.167,78.109,67.579,63.415s14.97-18.256,22-18.7,28.805,5.121,40.146,6.011c11.341.668,18.6,2,23.589-3.34s3.856-8.015-2.041-10.019c-6.124-2-27.218-5.121-31.074-12.69-3.856-7.347-5.67-12.023-17.238-12.913s-17.238,0-18.6-3.785S85.725-.928,75.291.185A304.756,304.756,0,0,0,40.815,7.31c-4.083,1.113-4.536,6.011,2.722,5.343,17.238-1.781,22,.445,22,.445s-37.2,20.483-47.4,32.505C7.02,58.74-7.269,82.339,4.3,113.509c1.134,3.34,2.495,6.234,3.4,8.683H182.574C169.192,113.732,150.82,103.045,134.036,97.034Z" transform="translate(6.426 55.477)" fill="#dddbd7"/>
  </g>
</svg>
