      <svg xmlns="http://www.w3.org/2000/svg" xmlns:xlink="http://www.w3.org/1999/xlink" width="191" height="168" viewBox="0 0 191 168">
        <defs>
          <clipPath id="clip-path">
            <rect id="Rectangle_1862" data-name="Rectangle 1862" width="191" height="168" fill="#fff" stroke="#707070" stroke-width="1"/>
          </clipPath>
        </defs>
        <g id="Mask_Group_10" data-name="Mask Group 10" clip-path="url(#clip-path)">
          <path id="Path_3160" data-name="Path 3160" d="M71.455,23.36c0,1.56,2.495,3.12,5.217,2.451s5.217-2.228,5.217-3.788S79.621,19.8,76.672,19.8,71.455,21.578,71.455,23.36ZM48.547,97.119C78.94,85.977,113.416,78.178,115,63.471S100.034,45.2,93,44.753,64.2,49.878,52.857,50.769c-11.341.669-18.6,2.006-23.589-3.343S25.412,39.4,31.309,37.4c6.124-2.006,27.218-5.125,31.074-12.7,3.856-7.354,5.67-12.033,17.238-12.924s17.238,0,18.6-3.788-1.361-8.913,9.073-7.8a304.524,304.524,0,0,1,34.476,7.131c4.083,1.114,4.536,6.017-2.722,5.348-17.238-1.783-22,.446-22,.446s37.2,20.5,47.4,32.534c11.114,13.147,25.4,36.768,13.836,67.965-1.134,3.343-2.495,6.239-3.4,8.691H.009C13.391,113.831,31.763,103.135,48.547,97.119Z" transform="translate(-5.574 63.385)" fill="none" stroke="#dddbd7" stroke-width="1"/>
        </g>
      </svg>