<svg xmlns="http://www.w3.org/2000/svg" xmlns:xlink="http://www.w3.org/1999/xlink" width="118.88" height="81.038" viewBox="0 0 118.88 81.038">
  <defs>
    <linearGradient id="linear-gradient" x1="0.5" x2="0.5" y2="1" gradientUnits="objectBoundingBox">
      <stop offset="0" stop-color="#e0bc77"/>
      <stop offset="0.34" stop-color="#e0bc77"/>
      <stop offset="1" stop-color="#e0bc77" stop-opacity="0"/>
    </linearGradient>
  </defs>
  <path id="Path_2075" data-name="Path 2075" d="M72.365,15.493c0,1.034-1.625,2.068-3.4,1.625s-3.4-1.477-3.4-2.511,1.477-1.477,3.4-1.477S72.365,14.312,72.365,15.493ZM87.282,64.38c-19.791-7.385-42.24-12.554-43.274-22.3s9.748-12.111,14.326-12.406,18.757,3.4,26.142,3.988c7.385.443,12.111,1.329,15.36-2.215s2.511-5.317-1.329-6.646c-3.988-1.329-17.723-3.4-20.234-8.418C75.762,11.506,74.581,8.4,67.048,7.813s-11.225,0-12.111-2.511S55.824-.605,49.03.133A195.264,195.264,0,0,0,26.581,4.859C23.922,5.6,23.627,8.847,28.353,8.4c11.225-1.182,14.326.3,14.326.3S18.457,22.287,11.811,30.263C4.574,38.976-4.73,54.632,2.8,75.309c.738,2.215,1.625,4.135,2.215,5.76H118.888C110.175,75.457,98.212,68.367,87.282,64.38Z" transform="translate(-0.009 -0.03)" fill="url(#linear-gradient)"/>
</svg>
