<svg xmlns="http://www.w3.org/2000/svg" width="73.005" height="49.766" viewBox="0 0 73.005 49.766">
  <path id="Path_2204" data-name="Path 2204" d="M44.444,9.526c0,.635-1,1.27-2.086,1s-2.086-.907-2.086-1.542.907-.907,2.086-.907S44.444,8.8,44.444,9.526ZM53.6,39.548c-12.154-4.535-25.94-7.709-26.575-13.7s5.986-7.437,8.8-7.619,11.519,2.086,16.054,2.449c4.535.272,7.437.816,9.433-1.36s1.542-3.265-.816-4.081c-2.449-.816-10.884-2.086-12.426-5.17C46.53,7.077,45.8,5.173,41.178,4.81s-6.893,0-7.437-1.542S34.285-.36,30.113.094A119.914,119.914,0,0,0,16.327,3c-1.633.453-1.814,2.449,1.088,2.177,6.893-.726,8.8.181,8.8.181S11.338,13.7,7.257,18.6C2.813,23.947-2.9,33.562,1.724,46.259c.453,1.36,1,2.54,1.36,3.537H73.014C67.663,46.35,60.316,42,53.6,39.548Z" transform="translate(-0.009 -0.03)" fill="#e0bc77"/>
</svg>
