<svg xmlns="http://www.w3.org/2000/svg" xmlns:xlink="http://www.w3.org/1999/xlink" width="191" height="127" viewBox="0 0 191 127">
  <defs>
    <clipPath id="clip-path">
      <rect id="Rectangle_1862" data-name="Rectangle 1862" width="191" height="127" transform="translate(605 748)" fill="#fff"/>
    </clipPath>
  </defs>
  <g id="Mask_Group_10" data-name="Mask Group 10" transform="translate(-605 -748)" clip-path="url(#clip-path)">
    <path id="Path_3160" data-name="Path 3160" d="M71.455,23.777c0,1.588,2.495,3.175,5.217,2.495S81.889,24,81.889,22.416s-2.268-2.268-5.217-2.268S71.455,21.962,71.455,23.777ZM48.547,98.853C78.94,87.512,113.416,79.573,115,64.6S100.034,46,93,45.551,64.2,50.768,52.857,51.675c-11.341.68-18.6,2.041-23.589-3.4s-3.856-8.165,2.041-10.207c6.124-2.041,27.218-5.217,31.074-12.928,3.856-7.485,5.67-12.248,17.238-13.155s17.238,0,18.6-3.856S96.858-.946,107.292.188a299.871,299.871,0,0,1,34.476,7.258c4.083,1.134,4.536,6.124-2.722,5.444-17.238-1.815-22,.454-22,.454s37.2,20.867,47.4,33.115c11.114,13.382,25.4,37.424,13.836,69.178-1.134,3.4-2.495,6.351-3.4,8.846H.009C13.391,115.864,31.763,104.977,48.547,98.853Z" transform="translate(599.426 768.518)" fill="none" stroke="#b1b0af" stroke-width="1"/>
  </g>
</svg>
