<svg xmlns="http://www.w3.org/2000/svg" xmlns:xlink="http://www.w3.org/1999/xlink" width="344" height="344" viewBox="0 0 344 344">
  <defs>
    <filter id="Ellipse_428" x="0" y="0" width="344" height="344" filterUnits="userSpaceOnUse">
      <feOffset input="SourceAlpha"/>
      <feGaussianBlur stdDeviation="4" result="blur"/>
      <feFlood flood-opacity="0.161"/>
      <feComposite operator="in" in2="blur"/>
      <feComposite in="SourceGraphic"/>
    </filter>
    <clipPath id="clip-path">
      <path id="Path_2444" data-name="Path 2444" d="M160,0A160,160,0,1,1,0,160,160,160,0,0,1,160,0Z" transform="translate(10908 1184)" fill="#fff"/>
    </clipPath>
  </defs>
  <g id="Group_2720" data-name="Group 2720" transform="translate(-10928 -1184)">
    <g id="Group_2045" data-name="Group 2045">
      <g transform="matrix(1, 0, 0, 1, 10928, 1184)" filter="url(#Ellipse_428)">
        <circle id="Ellipse_428-2" data-name="Ellipse 428" cx="160" cy="160" r="160" transform="translate(12 12)" fill="#3c3c3c"/>
      </g>
      <g id="Mask_Group_11" data-name="Mask Group 11" transform="translate(32 12)" clip-path="url(#clip-path)">
        <g id="Group_2719" data-name="Group 2719" transform="translate(10973 1239.445)">
          <g id="Group_2019" data-name="Group 2019">
            <path id="Path_2280" data-name="Path 2280" d="M30.292,1021.329l.012,0,0,0Z" transform="translate(-26.159 -1007.641)" fill="#b1b0af"/>
            <path id="Path_2281" data-name="Path 2281" d="M56.16,1044.25l.008.031-.008-.031Z" transform="translate(-45.157 -1024.473)" fill="#b1b0af"/>
            <path id="Path_2282" data-name="Path 2282" d="M20.707,995.215a1.4,1.4,0,0,1,.333.088c-.023-.093-.047-.186-.076-.279a9,9,0,0,0-.394-.847,7.9,7.9,0,0,1-.346-.86c-.03-.082-.061-.165-.087-.249a1.029,1.029,0,0,1-.037-.252.666.666,0,0,1,.087-.352.758.758,0,0,1,.279-.279,1.368,1.368,0,0,1,.642-.178H21.09l.035,0,.084-.006-.045,0a.933.933,0,0,1,.361.033,1.3,1.3,0,0,1,.333.165.522.522,0,0,1,.039-.044,1.106,1.106,0,0,1,.032-.4.937.937,0,0,1,.3-.418.637.637,0,0,1,.407-.159c-.025-.044-.048-.089-.074-.132-.108-.173-.213-.346-.323-.517-.026-.038-.049-.078-.074-.116-.133.012-.266.025-.4.034l-.374.023q-.719.045-1.437.087c-.629.036-1.214.054-1.788.054h-.249a.788.788,0,0,0-.439.021c-.387.133-.8.279-1.207.447a3.492,3.492,0,0,0-.828.463,1.9,1.9,0,0,0-.551.643,2.547,2.547,0,0,0-.147.433c-.005.1-.009.192-.01.286a1.315,1.315,0,0,0,.051.283,4.212,4.212,0,0,0,.434,1.027,4.392,4.392,0,0,0,.464.669l.1.134c.234.3.5.619.785.942.337.377.691.738,1.056,1.09h0a.531.531,0,0,1,.367.07l.205.106c.049.021.1.039.15.058h.009c.138.009.276.01.414.005a2.089,2.089,0,0,0,.341-.071c.024-.01.047-.022.07-.034a1.66,1.66,0,0,0,.16-.151,1.316,1.316,0,0,0,.091-.135,1.379,1.379,0,0,0,.049-.166,5.986,5.986,0,0,1,.167-.714A1.045,1.045,0,0,1,20.707,995.215Z" transform="translate(-14.733 -984.94)" fill="#b1b0af"/>
            <path id="Path_2283" data-name="Path 2283" d="M56.6,1040.561l.011-.006h0Z" transform="translate(-45.478 -1021.76)" fill="#b1b0af"/>
            <path id="Path_2284" data-name="Path 2284" d="M237.118,1084.024c-.032-.083-.066-.166-.1-.247-.039-.065-.076-.13-.109-.2a1.351,1.351,0,0,1-.092-.217.436.436,0,0,1,.035-.33.389.389,0,0,1-.063-.09.513.513,0,0,1-.036-.355l-.038-.089a4.27,4.27,0,0,1-.747-.938,3.98,3.98,0,0,1-.2-.374l-.016-.032c-.058-.115-.117-.236-.185-.347-.088-.114-.182-.223-.288-.348-.121-.141-.247-.287-.358-.443a4.317,4.317,0,0,1-.464-.779c-.063-.137-.123-.275-.184-.413l-.118-.271c-.262-.591-.469-1.043-.668-1.466l-.064-.132-.043-.087c-.065-.131-.145-.293-.209-.451-.069-.173-.136-.347-.2-.522-.078-.116-.156-.232-.232-.35-.245-.372-.472-.748-.62-1-.184-.3-.381-.61-.572-.9l-.145-.226c-.179-.278-.35-.563-.52-.848l-.022-.037-.147-.247c-.417-.693-.882-1.359-1.33-2l-.164-.237c-.488-.7-.986-1.446-1.48-2.22-.21-.328-.416-.661-.612-.994l-.125-.166-.073-.1c-.551-.731-1.122-1.488-1.665-2.242q-.613-.853-1.236-1.7l-.071-.1c-.665-.909-1.352-1.849-2.008-2.785s-1.334-1.886-1.99-2.8l-.1-.132-.031-.043q-.481-.671-.961-1.342c-.343-.483-.7-.96-1.047-1.437l-.243-.331-.244-.331-.141-.194c-.49-.672-1.046-1.432-1.614-2.159s-1.14-1.463-1.711-2.193c-.187-.241-.388-.476-.583-.7l-.029-.034-.134-.156-.033-.037-.018-.021c-.314-.366-.629-.731-.947-1.1-.946-1.084-1.933-2.161-2.887-3.2l-.529-.578q-1.118-1.281-2.225-2.574l-1.322-1.532c-.735-.852-1.357-1.547-1.954-2.189-.4-.429-.806-.851-1.213-1.274q-.327-.338-.652-.679c-.376-.393-.758-.781-1.141-1.169-.28-.283-.557-.563-.832-.847l-.482-.5c-.464-.48-.929-.962-1.4-1.436-1.238-1.242-2.586-2.371-3.891-3.462l-.211-.176q-2.075-1.737-4.147-3.466c-1.631-1.358-2.916-2.37-4.165-3.282-.361-.263-.718-.531-1.075-.8-.335-.252-.67-.5-1.008-.752s-.666-.5-1-.748c-.346-.263-.694-.527-1.046-.784s-.713-.527-1.068-.794-.731-.549-1.1-.819c-.231-.169-.466-.332-.7-.495l-.26-.182q-.213-.15-.423-.3c-.2-.143-.4-.285-.6-.423l-.307-.208c-.239-.129-.466-.254-.691-.387-.241-.142-.479-.285-.719-.429s-.477-.287-.717-.428c-.47-.252-.955-.492-1.424-.724-.248-.122-.495-.245-.742-.369-.836-.424-1.666-.9-2.47-1.351l-.116-.066q-.455-.247-.9-.5l.049.033c-1.166-.655-2.4-1.358-3.582-2.185-.714-.5-1.479-.941-2.22-1.367-.318-.184-.635-.366-.95-.554-.341-.2-.682-.426-1.009-.639l-.475-.307-.65-.411c.229.41.41.761.56,1.085.264.566.513,1.151.757,1.724l.258.606c.063.145.129.291.195.435.093.205.187.411.272.619.2.476.347.859.476,1.206.166.446.3.845.42,1.219.083.267.153.537.228.837l.1.376c.035.131.07.263.1.395l.052.2c.05.2.1.391.155.591l.1.376c.088.321.178.652.253.981q.124.545.242,1.09l.057.255.077.343c.077.337.172.757.244,1.161.162.92.287,1.813.372,2.653l.048.47c.071.673.151,1.436.18,2.171a22.32,22.32,0,0,1-.035,2.926l-.069.7-.02.208c-.056.577-.111,1.153-.159,1.73a25.839,25.839,0,0,1-.321,2.625c-.161.833-.342,1.73-.564,2.641a55.245,55.245,0,0,1-1.554,5.418,14.482,14.482,0,0,1-1.116,2.364,11.054,11.054,0,0,1-1.662,2.2c-.367.379-.749.747-1.166,1.125a3.83,3.83,0,0,1-.494.389,5.268,5.268,0,0,1-.482.269l-.054.028a1.387,1.387,0,0,1-.264.113,3.378,3.378,0,0,1-.693.137c-.056,0-.112,0-.168,0-.127,0-.257-.006-.448-.022a4.134,4.134,0,0,1-1.386-.355,5.047,5.047,0,0,1-1.257-.851,11.091,11.091,0,0,1-1.777-2.12,26.468,26.468,0,0,1-1.363-2.321c-.514-.984-.986-1.992-1.442-2.967-.257-.548-.514-1.1-.778-1.642q-.584-1.2-1.166-2.411l-.067-.138-.027-.055c-.329-.682-.669-1.386-.976-2.092-.333-.764-.643-1.553-.948-2.411-.141-.393-.287-.815-.406-1.235-.093-.323-.181-.684-.287-1.172l-.038-.178a11.355,11.355,0,0,1-.229-1.287l-.005-.049c-.019-.184-.037-.367-.049-.551a7.733,7.733,0,0,1,.02-.887,4.467,4.467,0,0,1,.092-.715,2.871,2.871,0,0,1,.338-.888l.043-.071a2.379,2.379,0,0,1,.313-.439l.02-.02a4.753,4.753,0,0,1,.452-.41,2.5,2.5,0,0,1,.237-.168,3.073,3.073,0,0,1,.63-.31,5.9,5.9,0,0,1,.6-.147l.052-.011.468-.1a5.765,5.765,0,0,0,.87-.3,6.626,6.626,0,0,0,.946-.637,2.566,2.566,0,0,0,.169-.2,3.16,3.16,0,0,0,.151-.313,3.284,3.284,0,0,0,.059-.441c0-.24-.014-.483-.028-.718h0l-.005-.038c-.006-.092-.012-.184-.016-.276-.018-.333-.043-.725-.1-1.112-.108-.824-.229-1.573-.368-2.289a9.206,9.206,0,0,0-.527-1.652,3.936,3.936,0,0,0-.334-.49,3.371,3.371,0,0,0-.36-.3,2.685,2.685,0,0,0-.286-.144l-.031,0-.027,0a1.789,1.789,0,0,0-.146.108,3.489,3.489,0,0,0-.312.4,11.439,11.439,0,0,0-.58,1.114c-.1.206-.209.446-.336.674a2.328,2.328,0,0,1-.575.76.987.987,0,0,1-.571.206.778.778,0,0,1-.087,0,1.09,1.09,0,0,1-.487-.2,3.5,3.5,0,0,1-.471-.418l-.092-.092a5.973,5.973,0,0,1-.908-1.088c-.065-.106-.126-.215-.186-.324q-.064-.117-.131-.233l-.077-.13c-.079-.134-.158-.269-.233-.4a10.1,10.1,0,0,1-.505-1.08c-.308-.745-.589-1.512-.846-2.229-.281-.782-.506-1.62-.7-2.36l-.018-.066c-.115-.427-.225-.855-.334-1.284-.067-.26-.127-.523-.186-.785-.039-.176-.079-.353-.121-.528a.6.6,0,0,1,.02-.411.547.547,0,0,1,.313-.286.491.491,0,0,1,.173-.03.524.524,0,0,1,.523.362c.043.179.083.358.122.538l.006.028c.052.231.1.463.161.693l.159.618.158.618c.185.723.381,1.47.584,2.221.2.718.433,1.46.643,2.113a14.843,14.843,0,0,0,.808,1.992c.064.128.128.256.19.385a4.576,4.576,0,0,0,1.273,1.514.8.8,0,0,0,.1.045.1.1,0,0,0,.028,0l.028,0a.262.262,0,0,0,.035-.025c.014-.015.026-.03.038-.045a4.141,4.141,0,0,0,.259-.623c.057-.2.106-.4.155-.6l.024-.1c.026-.1.052-.209.08-.313a9.175,9.175,0,0,1,.4-1.184,3.183,3.183,0,0,1,.175-.361,2.174,2.174,0,0,1,.3-.432,1.764,1.764,0,0,1,.669-.462,1.952,1.952,0,0,1,.654-.121,1.557,1.557,0,0,1,.209.014,2.7,2.7,0,0,1,.966.344,3.46,3.46,0,0,1,.593.4,3.838,3.838,0,0,1,.884,1.092,10.086,10.086,0,0,1,.571,1.293,18.5,18.5,0,0,1,.609,2.1c.047.2.1.407.159.633.049.185.1.371.14.557.093.4.177.826.262,1.352a6.047,6.047,0,0,1,.106,1.086l0,.157a3.323,3.323,0,0,1-.06.725,4.511,4.511,0,0,1-.24.768,4.132,4.132,0,0,1-.383.663l-.064.1a1.817,1.817,0,0,1-.3.331c-.162.147-.3.27-.449.386a6.744,6.744,0,0,1-.981.613,5.8,5.8,0,0,1-1.346.551c-.292.071-.586.13-.887.189l-.2.039a2.314,2.314,0,0,0-.236.073c-.058.037-.114.077-.168.118l-.073.083c-.013.027-.026.054-.038.081a5.124,5.124,0,0,0-.1.722,11.091,11.091,0,0,0,.26,2.107c.069.3.141.6.221.9s.182.6.281.894l.012.035.069.2c.277.82.526,1.493.784,2.118.34.824.7,1.639,1.066,2.423.181.387.358.776.534,1.165l.09.2c.147.323.295.647.445.969.219.467.432.936.644,1.406l.075.166c.4.884.814,1.8,1.254,2.683a19.582,19.582,0,0,0,2.38,3.664,6.734,6.734,0,0,0,.94.843,4.156,4.156,0,0,0,.5.231,3.983,3.983,0,0,0,.552.1c.062,0,.123-.009.183-.015s.092-.033.136-.053a4.936,4.936,0,0,0,.708-.54c.39-.384.73-.733,1.04-1.068a10.157,10.157,0,0,0,.835-1.066,16.938,16.938,0,0,0,.947-1.8,17.658,17.658,0,0,0,.7-1.924l.022-.068c.16-.537.3-1.062.424-1.505.267-.989.485-1.867.666-2.685l.058-.261c.166-.751.338-1.527.474-2.3.148-.833.225-1.69.3-2.533l.009-.111c.044-.48.1-.959.151-1.438.044-.384.086-.769.123-1.153a36.352,36.352,0,0,0-.227-4.832c-.081-.789-.174-1.682-.338-2.536-.153-.8-.318-1.593-.474-2.327l-.121-.5c-.157-.643-.319-1.284-.48-1.925l-.138-.549-.047-.182-.007-.028c-.085-.338-.172-.688-.283-1.024-.13-.393-.277-.816-.45-1.294-.181-.5-.382-.991-.578-1.469l-.038-.093c-.114-.282-.229-.564-.339-.847-.275-.708-.58-1.465-.943-2.2-.3-.538-.614-1.057-.912-1.538a.94.94,0,0,1-.141-.5c-.044-.063-.088-.126-.134-.187-.271-.361-.58-.693-.875-1.035-.314-.365-.618-.737-.951-1.086-.391-.392-.791-.774-1.185-1.163a16.135,16.135,0,0,0-1.417-1.255c-.839-.649-1.655-1.335-2.536-1.927-.091-.05-.184-.1-.279-.144-.6-.278-1.2-.542-1.79-.85-.3-.161-.607-.316-.92-.456l-.29-.13a2.364,2.364,0,0,1-.874-.256c-.282-.112-.564-.217-.836-.347l-.1-.038c-.249-.1-.495-.21-.744-.312a5.625,5.625,0,0,0-.589-.182c-.5-.145-.982-.357-1.482-.507a.91.91,0,0,1-.207-.064.8.8,0,0,1-.433-.436.811.811,0,0,1,.113-.789,1.017,1.017,0,0,1,.382-.289,1.976,1.976,0,0,1,.434-.139c.113-.028.228-.058.342-.077a8.692,8.692,0,0,1,.869-.091c.119-.008.238-.011.357-.011.087,0,.175,0,.262.005a3.084,3.084,0,0,1,.368.025,5.6,5.6,0,0,1,.935.245c.028,0,.056-.006.084-.006s.072.006.108.009c-.337-.362-.684-.728-1.053-1.105-.416-.424-.821-.872-1.213-1.307-.38-.419-.772-.854-1.173-1.267-.641-.609-1.3-1.187-2.038-1.825-.211-.183-.415-.379-.613-.569-.144-.137-.287-.274-.433-.408-.344-.316-.729-.639-1.209-1.019a19.493,19.493,0,0,0-1.6-1.146l-.27-.171c-.418-.265-.851-.538-1.259-.833-.933-.67-1.942-1.323-3.087-1.994l-.257-.15-.416-.245-.195-.09-.195-.09c-1.023-.473-2.038-1.007-3.019-1.522l-.732-.384-.263-.137c-.61-.317-1.24-.645-1.849-.989l-.084-.034-.04-.01h0c-.379-.161-.755-.313-1.134-.46-.546-.162-1.093-.318-1.64-.474l-.619-.176c-1.247-.36-2.548-.789-4.093-1.35q-.42-.153-.839-.31c-.322-.095-.588-.178-.836-.263-.3-.1-.6-.212-.9-.318-1.046-.368-2.127-.749-3.21-1.065-.326-.1-.654-.182-.982-.271-.288-.077-.577-.154-.863-.236-.617-.179-1.233-.361-1.849-.543l-.24-.07c-1.13-.334-2.125-.617-3.041-.864-.225-.037-.465-.074-.707-.1q-.677-.084-1.354-.155c-.721-.078-1.476-.147-2.246-.206-.5-.039-.947-.058-1.379-.059l-.213,0q-.218,0-.436,0c-.193,0-.386,0-.578.015a13,13,0,0,0-2.443.4,2.788,2.788,0,0,0-.37.125l-.134.052c-.166.064-.311.126-.442.189-.271.131-.537.269-.8.408l-.217.113c-.253.129-.505.261-.757.393l-.255.134c-.594.3-1.151.574-1.7.833-.7.328-1.429.609-1.915.792-.347.13-.7.237-1.051.341l-.042.012c-.258.078-.527.158-.788.249-.23.08-.456.167-.682.255a11.278,11.278,0,0,1-1.223.422,11.337,11.337,0,0,1-1.343.14c-.295.019-.628.04-.947.08-.5.06-1.017.146-1.435.215-.38.061-.741.12-1.1.172-.54.074-1.093.111-1.627.147l-.128.008c-.259.019-.519.036-.778.06a1.356,1.356,0,0,0-.373-.053c-.037,0-.074,0-.111.005-.392-.006-.785-.008-1.177-.008-.6,0-1.208.005-1.812.01l-.673.005c-.273,0-.546,0-.819.007-.432,0-.863.008-1.294.008-.523,0-.959-.006-1.373-.02-.3-.01-.592-.018-.888-.018-.312,0-.587.007-.841.024l-.361.022c-.4.024-.78.049-1.158.06-.146,0-.294.005-.44.005-.311,0-.622-.007-.935-.015h-.04c-.306-.008-.612-.017-.919-.017-.2,0-.406,0-.608.013-.355.016-.708.019-1.037.019H62.27c-.2,0-.394,0-.593.005s-.394.006-.591.006c-.163,0-.326,0-.49-.007l-.092,0-.08,0-.033,0-.059-.006-.065,0c-.687-.034-1.385-.054-2.042-.07l-.359-.01-.7-.021q-.336-.011-.673-.01c-.2,0-.4,0-.6,0h-.07c-.22,0-.441,0-.662,0s-.44,0-.66-.008c-.638-.038-1.283-.126-1.906-.213-.2-.027-.386-.053-.573-.077l-.043-.006c-.423-.054-.861-.111-1.287-.146s-.87-.054-1.259-.07l-.124,0c-.684-.036-1.354-.069-2.025-.069-.416,0-.778.01-1.108.034-.586.037-1.18.1-1.754.152l-.241.023c-.295.028-.589.057-.885.083-.947.081-1.9.1-2.83.123l-.5.011-.15,0-.109,0c-.363.01-.735.021-1.1.04.058.05.113.1.167.155.075.074.149.146.221.221s.147.149.218.226l.026.028c.042.027.084.054.124.082a3.268,3.268,0,0,1,.3.231c.212.19.393.359.551.519.426.43.842.888,1.235,1.362.367.443.7.88.984,1.3a13.179,13.179,0,0,1,.935,1.532,2.748,2.748,0,0,1,.239.586l.033.133a3.328,3.328,0,0,1,.071.345,1.819,1.819,0,0,1,.006.435,1.34,1.34,0,0,1-.1.407,2.053,2.053,0,0,1-.2.759,1.364,1.364,0,0,1-.12.265,1.631,1.631,0,0,1-.053.253,1.8,1.8,0,0,1-.285.607,1.6,1.6,0,0,1-.238.272,2.886,2.886,0,0,1-2,.833h-.054a3.581,3.581,0,0,1-.917-.135q-.268-.077-.534-.162c-.22-.067-.438-.137-.657-.206l-.186-.06-.47-.15q-.842-.247-1.684-.484a1.041,1.041,0,0,1-.424-.181l-.286-.084-.355-.108.09.075.1.085c.368.311.759.644,1.124,1,.215.209.423.423.631.638l.082.084q.312.13.626.256l.6.241a.705.705,0,0,1,.182-.026,1.692,1.692,0,0,1,.522.114l.058.02.624.2.244.074.409.125.05.016.026.007.111.034.184.063-.043-.019.044.013.029.008.037.011.495.155c1.1.33,1.974.572,2.82.785,1.657.418,3.359.766,5.059,1.035q.476.077.951.156l.106.018c.547.09,1.114.183,1.671.262.686.1,1.388.181,2.007.255l.533.063c.458.055.917.114,1.376.174.4.052.8.1,1.206.152.94.113,1.782.229,2.573.353l.053.009c.826.132,1.68.268,2.529.355.9.092,1.718.16,2.491.206.307.009.614.01.921.011h.126c.253,0,.506,0,.759.01q.949.023,1.9.053l.411.015.049,0c.342.012.7.024,1.042.024.149,0,.3,0,.448-.009a9.588,9.588,0,0,0,1.6-.208,10.16,10.16,0,0,0,2.012-.611c.246-.13.493-.256.743-.378a4.12,4.12,0,0,1,1.109-.3,10.453,10.453,0,0,1,1.5-.147h.06a1.4,1.4,0,0,1,.937.317,1.366,1.366,0,0,1,.163,1.927,1.407,1.407,0,0,1-.929.481l-.034,0c-.482.068-.916.131-1.347.213a2.328,2.328,0,0,0-.252.074c-.092.034-.181.074-.269.116l-.047.025-.044.023c-.2.107-.4.213-.608.31a4.6,4.6,0,0,1-.521.2,11.088,11.088,0,0,1-1.094.312l-.168.038a12.988,12.988,0,0,1-2.324.383q-.265.011-.529.01c-.518,0-1.044-.028-1.554-.055l-.075,0c-.164-.009-.328-.018-.493-.025-.415-.021-.83-.046-1.244-.071-.339-.021-.678-.04-1.017-.058-.585-.025-1.273-.06-1.942-.127-.7-.071-1.255-.14-1.76-.219-.633-.1-1.279-.22-1.976-.365q-.371-.076-.742-.155l-.083-.017c-.358-.076-.715-.151-1.074-.224-.64-.131-1.282-.254-1.926-.378l-.581-.112-.463-.091-.13-.026c-.206-.04-.412-.081-.618-.118-.159-.03-.319-.058-.478-.086l-.037-.007-.126-.023c-.224-.04-.451-.081-.689-.128-.741-.145-1.662-.326-2.527-.525-.782-.18-1.631-.389-2.672-.657-.814-.21-1.608-.441-2.562-.721-.781-.23-1.619-.483-2.459-.766-.383-.13-.744-.255-1.094-.379l-.079-.011c-.125-.016-.25-.027-.374-.047-.109-.017-.217-.025-.325-.049l-.049-.01h-.066a2.318,2.318,0,0,0-.232.006.663.663,0,0,1-.046.066q-.018.022-.035.045a2.99,2.99,0,0,0-.167.464c0,.028-.008.056-.011.084a2.171,2.171,0,0,0,.059.306l.039.145-.016-.057c.021.076.04.152.059.229a.472.472,0,0,1-.03.27c.033.071.068.142.1.214.053.115.106.229.16.343a11.571,11.571,0,0,0,.6,1.1,10.953,10.953,0,0,0,1.659,1.96c.313.308.6.58.891.832a10.261,10.261,0,0,0,.975.748,8.7,8.7,0,0,0,2.284,1.182,35.867,35.867,0,0,0,5.357,1.142l.263.043a.894.894,0,0,0,.147.011l.032.011a13.773,13.773,0,0,0,1.553.572l.272.088c.718.232,1.451.457,2.162.672l.163.05.71.216c.767.245,1.54.523,2.287.792l.042.015c.646.232,1.316.473,1.98.692s1.379.417,2.206.618c.212.051.426.1.64.139l.077.017.252.052c.324.067.655.167.92.248.655.211,1.306.472,1.935.724l.1.041c.145.058.291.117.436.173l1.006.4c.548.221,1.1.441,1.645.655,1.38.535,2.8,1.042,4.167,1.532l.086.031,1,.357q.554.2,1.1.4l.223.081c.494.181.988.361,1.484.534l.65.228c.708.246,1.439.5,2.153.769.913.342,1.8.683,2.665,1.086,1.037.489,1.952.914,2.8,1.3.97.441,1.981.831,2.852,1.163,1.055.4,1.908.765,2.685,1.14.76.367,1.644.8,2.522,1.267.421.225.875.471,1.333.741.23.137.458.277.688.417l.069.042.513.313.117.071.035.022c.768.464,1.561.944,2.368,1.375.276.15.554.3.831.442.5.266,1.121.594,1.7.915.916.51,1.815,1.022,2.649,1.5.418.24.841.471,1.264.7s.825.451,1.232.683c1.761,1.006,3.35,1.909,4.985,2.766q.739.387,1.482.768l.107.055c1.181.609,2.4,1.239,3.571,1.911,1.146.659,2.087,1.221,2.964,1.771l.615.387.236.148.7.459c.579.381,1.157.76,1.741,1.134l.5.323.148.1c.206.134.412.269.619.4l.054.034c.663.444,1.305.915,1.963,1.438.686.548,1.418,1.146,2.124,1.809.336.318.655.666.963,1,.176.192.355.38.534.569q.2.207.394.417l.444.475.11.119c.409.438.816.875,1.22,1.318.578.648,1.141,1.328,1.686,1.985l.194.237.833,1q.546.655,1.088,1.314c.923,1.121,1.837,2.281,2.718,3.4l.024.03q.59.749,1.181,1.5c.4.505.821,1.012,1.226,1.5l.069.084.411.5q.559.679,1.126,1.352c.19.273.376.541.559.807l.152.221c.587.852,1.253,1.818,1.909,2.73.724,1,1.5,2.029,2.19,2.935l.425.561c.347.457.691.916,1.035,1.375.528.7,1.047,1.393,1.573,2.081s1.1,1.406,1.594,2.028l.155.194c.238.3.476.6.713.9.4.5.848,1.073,1.278,1.64.3.393.591.794.883,1.194l.371.51c.392.532.77,1.11,1.1,1.619l.031.048c.421.643.816,1.277,1.211,1.938.131.218.259.437.387.655l.171.29c.451.768.918,1.561,1.41,2.333.342.537.69,1.07,1.04,1.6l.015.023c.388.593.791,1.206,1.174,1.815,1.355,2.147,2.814,4.44,4.3,6.662.74,1.1,1.5,2.214,2.273,3.294.734,1.029,1.5,2,2.437,3.149.816,1,1.606,2.056,2.413,3.229.386.558.746,1.154,1.063,1.678.3.5.648,1.074,1.011,1.606l.113.165.034.05c.687,1.009,1.4,2.051,2.076,3.09.747,1.145,1.443,2.306,2.149,3.494.44.742.88,1.5,1.345,2.329.195.5.454,1.158.731,1.824l.252.61c.4.751.789,1.513,1.171,2.264l.237.467a11.944,11.944,0,0,1,.619,1.212c.164.321.356.7.538,1.095.327.7.63,1.421.9,2.061l.036.087c.142.337.283.689.418,1.046l.152.343c.058.132.111.266.162.4.131.139.232.256.323.367a6.808,6.808,0,0,1,.428.615l.062.1c.185.283.352.573.542.918.12-.056.24-.114.359-.172l.267-.127c.506-.244,1.033-.47,1.542-.689l.041-.017.316-.136.15-.066c.473-.2,1.062-.454,1.6-.734.556-.291,1.137-.62,1.776-1.007.372-.226.744-.47,1.112-.712l.05-.033c.2-.133.408-.267.614-.4q.35-.224.706-.443l.122-.076c.325-.2.649-.4.971-.608.394-.253.786-.525,1.166-.789l.038-.026.147-.1c.115-.08.23-.16.346-.239.272-.187.547-.369.822-.551.3-.2.594-.394.888-.6l.546-.4c.79-.577,1.607-1.174,2.439-1.722l.294-.2c.352-.235.752-.5,1.15-.751.451-.284.9-.591,1.349-.9l.061-.042.086-.061.29-.2.442-.364.121-.1c.523-.432,1.047-.864,1.576-1.289a.546.546,0,0,1,.353-.134h0l.09-.078c.148-.131.3-.262.448-.389.325-.273.674-.563,1.031-.839.221-.169.453-.327.679-.481l.064-.042.245-.166c.385-.285.751-.606,1.121-.929.295-.258.6-.524.945-.8s.68-.532,1.008-.815.666-.577,1-.869q.777-.686,1.544-1.386c.456-.414.949-.828,1.383-1.192l.243-.2c.386-.323.967-.807,1.563-1.266.269-.208.533-.419.8-.632l.059-.047c.245-.2.489-.394.738-.585.444-.34,1.022-.793,1.556-1.271.222-.2.436-.412.641-.62s.454-.459.71-.682a17.772,17.772,0,0,1,1.775-1.329l.375-.252q.537-.361,1.073-.724l.166-.116.1-.073c.392-.286.769-.606,1.15-.931l.061-.052c.181-.154.361-.307.544-.456l.332-.267c.193-.153.384-.306.57-.466a11.719,11.719,0,0,1,.951-.729l-.059.029.066-.043.027-.022c.069-.046.137-.091.206-.136l.079-.051.157-.1a1.944,1.944,0,0,0,.243-.226c.125-.153.243-.312.36-.472l.045-.06c.064-.088.13-.176.195-.263a5.357,5.357,0,0,0,.559-.9,5.812,5.812,0,0,1,.291-.573c.085-.139.166-.278.242-.422a3.085,3.085,0,0,0,.159-.56l.018-.11C237.256,1084.449,237.192,1084.232,237.118,1084.024ZM46.883,982.064a.541.541,0,0,1-.4.185.658.658,0,0,1-.458-.146.633.633,0,0,1-.222-.428.667.667,0,0,1,.178-.495.537.537,0,0,1,.4-.186.658.658,0,0,1,.458.146.633.633,0,0,1,.222.428A.668.668,0,0,1,46.883,982.064Zm2.3,4.287a.413.413,0,0,1-.3.143.508.508,0,0,1-.354-.113.484.484,0,0,1-.17-.33.514.514,0,0,1,.138-.381.413.413,0,0,1,.3-.143.509.509,0,0,1,.354.113.492.492,0,0,1,.17.33A.514.514,0,0,1,49.184,986.351Zm2.426-4.369a1.112,1.112,0,0,1,.257-.808,1.079,1.079,0,0,1,.754-.39,1.155,1.155,0,0,1,.808.257,1.109,1.109,0,0,1,.133,1.562,1.079,1.079,0,0,1-.754.39,1.155,1.155,0,0,1-.808-.257A1.112,1.112,0,0,1,51.61,981.982Zm2.684,4.5a1.01,1.01,0,0,1-.705.365,1.076,1.076,0,0,1-.755-.24,1.036,1.036,0,0,1-.125-1.46,1.009,1.009,0,0,1,.705-.365,1.079,1.079,0,0,1,.755.24,1.036,1.036,0,0,1,.125,1.46Zm3.5-4.014a.476.476,0,0,1-.351.165.581.581,0,0,1-.406-.129.566.566,0,0,1-.2-.38.6.6,0,0,1,.159-.438.475.475,0,0,1,.351-.165.581.581,0,0,1,.406.129.566.566,0,0,1,.2.38A.6.6,0,0,1,57.791,982.466Zm2.623,3.989a.753.753,0,0,1-.529.274.81.81,0,0,1-.566-.18.777.777,0,0,1-.094-1.1.754.754,0,0,1,.529-.274.816.816,0,0,1,.566.18.777.777,0,0,1,.093,1.1Zm3.982-3.661a.68.68,0,0,1-.477.247.734.734,0,0,1-.511-.163.712.712,0,0,1-.247-.477.7.7,0,0,1,.163-.511.679.679,0,0,1,.477-.247.733.733,0,0,1,.511.163.7.7,0,0,1,.084.988Zm2.811,5.317a1.11,1.11,0,0,1-.775.4,1.193,1.193,0,0,1-.832-.265,1.139,1.139,0,0,1-.136-1.607,1.109,1.109,0,0,1,.775-.4,1.193,1.193,0,0,1,.832.265,1.139,1.139,0,0,1,.136,1.607Zm42.824-4.431a.6.6,0,0,1-.243.378.587.587,0,0,1-.278.1.744.744,0,0,1-.126.011,1.564,1.564,0,0,1-.417-.078l-.063-.018-.3-.081c-.153-.041-.306-.08-.46-.117l-.127-.032c-.38-.094-.73-.175-1.071-.247-1.334-.281-2.744-.531-4.436-.788-.215-.033-.431-.062-.646-.092l-.147-.02c-.439-.058-.867-.117-1.284-.191l-.072-.013c-.367-.065-.7-.125-1.032-.2-.445-.106-.882-.242-1.328-.384a.7.7,0,0,1-.384-.419.734.734,0,0,1,.025-.55.726.726,0,0,1,.419-.382.735.735,0,0,1,.245-.043.761.761,0,0,1,.125.011l.179.055.042.012.043.014.232.069.331.1c.129.038.261.069.393.1l.171.04c.3.073.619.124.924.174l.037.006.049.007q.546.089,1.091.175l.088.014.027,0c1.057.167,2.151.339,3.22.551.609.12,1.092.228,1.517.344-.547-.334-1.14-.658-1.813-.992a17.024,17.024,0,0,0-2.064-.866c-.187-.053-.371-.1-.559-.15a5.41,5.41,0,0,0-.555-.1l-.1-.013c-.328-.048-.674-.082-1.057-.1h-.155c-.235,0-.43.008-.612.024a.7.7,0,0,1-.533.226c-.034,0-.07,0-.1-.005a.95.95,0,0,1-.654-.408.709.709,0,0,1-.1-.593.83.83,0,0,1,.207-.406.783.783,0,0,1,.338-.233l.061-.029.036-.008a1.792,1.792,0,0,1,.4-.06h.02c.326.006.667.026,1.012.059a14.623,14.623,0,0,1,1.839.285,10.366,10.366,0,0,1,2.1.742c.3.137.612.294,1,.494l.07.036c.306.158.581.3.847.461.593.354,1.231.772,1.95,1.28.3.212.576.422.827.625l.032.026.021.018c.122.1.249.2.364.317l.049.049C109.853,983.076,110.122,983.34,110.03,983.68Z" transform="translate(-29.732 -969.792)" fill="#b1b0af"/>
          </g>
          <path id="Path_2285" data-name="Path 2285" d="M683.607,1404.312c-.5.483-1,1.006-1.434,1.468-.11.115-.222.227-.334.339l-.071.071c-.094.094-.188.189-.279.286-.247.259-.5.506-.754.732a14.126,14.126,0,0,1-1.614,1.2c-.152.1-.3.209-.452.316l-.08.063c-.459.369-.934.762-1.412,1.165-.568.478-1.038.9-1.483,1.32a15.9,15.9,0,0,1-1.393,1.229c-.277.208-.555.416-.839.624l-.274.195-.031.023c-.164.117-.328.234-.487.358-.517.4-1.069.833-1.607,1.275-.228.188-.454.378-.681.568-.3.249-.593.5-.894.743-.49.4-1.059.858-1.626,1.351s-1.095.939-1.606,1.363c-.26.215-.521.428-.785.638-.147.115-.3.226-.447.336l-.063.047c-.107.08-.215.159-.32.241-.337.261-.661.534-1.018.839l-.1.081c-.182.154-.364.308-.547.458a9.4,9.4,0,0,1-1.033.7c-.1.059-.194.119-.288.179-.4.33-.87.711-1.354,1.057l-.362.259c-.187.147-.374.293-.569.432-.415.3-.875.615-1.4.966-.287.2-.62.431-.94.667-.5.372-1.013.77-1.451,1.113l-.232.182c-.189.146-.376.295-.562.443l-.042.033-.092.073c-.305.241-.608.48-.915.716-.269.206-.549.414-.83.614-.242.174-.5.337-.749.5l-.242.157q-.613.406-1.232.806c-.274.186-.544.379-.81.573l-.363.264a27.42,27.42,0,0,0-2.9,2.317l-.114.107-.114.108c-.18.166-.354.33-.517.5-.257.269-.524.526-.754.747a10.4,10.4,0,0,1-1.172.977.659.659,0,0,1,.07.094l.038.058c.045.069.089.138.134.2a1.787,1.787,0,0,0,.234.263,4.208,4.208,0,0,0,.536.337c.476.265.983.531,1.506.793.464.232.931.477,1.381.715l.134.072a6.323,6.323,0,0,1,.7.434l.133.091.046.031c.17.117.34.234.507.357.28.207.559.414.834.625.158.082.313.167.466.26.472.283.946.615,1.327.883l.446.31c.148.1.293.208.438.315l.078.057c.089.067.18.132.273.195l.079.055.125.088c.4.293.781.588,1.12.878s.628.577.886.834l.137.135c.121.091.242.184.36.28.358.291.728.578,1.1.849.031,0,.061,0,.092,0a1.326,1.326,0,0,1,.951.408c.048.05.1.1.145.148.128.128.241.243.344.367a4.158,4.158,0,0,1,.292.4l-.071-.114a3.241,3.241,0,0,0,.464.5l.042.035.069.059.027.022.027.023q.134.117.266.237l.22.168c.143.109.289.221.433.344l-.059-.061c.2.163.391.329.584.5l.11.088c.071.056.14.111.2.171a.682.682,0,0,1-.058-.3.71.71,0,0,1,.221-.474l.085-.088.022-.023c.163-.169.332-.344.5-.505.223-.207.452-.407.648-.575s.4-.334.594-.5l.092-.077c.167-.14.335-.281.5-.423.561-.48,1.121-.983,1.662-1.468l.075-.068c.415-.372.831-.746,1.25-1.113.577-.506,1.094-.973,1.58-1.428l.1-.1c.148-.219.321-.459.526-.736.255-.344.538-.677.814-1l.03-.036.054-.063a12.334,12.334,0,0,1,.9-.948l.278-.257c.232-.215.466-.431.692-.653.258-.252.526-.533.793-.833l.009-.016.01-.017c.282-.336.556-.7.755-.974a9.744,9.744,0,0,1,.713-.883c.132-.139.271-.273.41-.406l.026-.025c.132-.125.262-.251.388-.382.176-.183.348-.37.518-.558l.082-.09.249-.271c.084-.09.167-.183.253-.278l.187-.207.143-.155c.088-.095.176-.189.261-.287.127-.142.258-.281.39-.419l.068-.072c.129-.134.256-.269.381-.407l.321-.354.048-.052.512-.562c.316-.344.656-.678.984-1l.047-.047a.274.274,0,0,1,.188-.074.2.2,0,0,1,.07.011c.375-.387.747-.775,1.114-1.169.224-.257.442-.52.66-.783l.055-.066c.211-.255.422-.512.639-.764.335-.387.615-.7.88-.979l.158-.163.154-.16c.14-.143.279-.286.416-.432.354-.416.69-.859,1.024-1.3q.194-.257.39-.513c.158-.2.317-.407.475-.61l.1-.131c.307-.391.613-.783.913-1.182.2-.271.4-.554.594-.829l.055-.078c.24-.345.512-.734.791-1.095l.082-.1.017-.021c.444-.571.9-1.161,1.3-1.777l.221-.341c.148-.227.3-.453.439-.684.23-.372.462-.746.7-1.113.074-.113.145-.226.218-.34l.04-.062.076-.119c.1-.159.2-.318.309-.473.133-.2.27-.4.407-.594l.288-.417c.4-.591.754-1.205,1.161-1.944.123-.226.25-.45.376-.674l.039-.066c.221-.391.471-.835.7-1.272.056-.113.112-.226.164-.337-.032-.26-.047-.53-.059-.784l0-.077c-.006-.108-.011-.215-.021-.324a7.124,7.124,0,0,0-.146-.935c-.074-.305-.152-.574-.236-.821a3.214,3.214,0,0,0-.236-.473,7.1,7.1,0,0,0-.736-.819c-.089-.086-.182-.168-.275-.25l-.055-.049-.027-.024c-.148-.132-.3-.268-.441-.411-.044-.045-.086-.09-.129-.137l-.047-.051c-.082-.088-.164-.177-.253-.257-.061-.056-.124-.111-.188-.165l-.04-.035c-.071-.063-.143-.127-.214-.191-.124-.118-.243-.242-.362-.365l-.027-.029c-.126-.132-.251-.262-.383-.387l-.054-.043-.032-.027c-.058-.044-.118-.086-.179-.126-.078-.053-.157-.1-.237-.148-.062-.038-.124-.075-.185-.114a6.91,6.91,0,0,1-1.192-1.027q-.408-.317-.817-.634c-.22-.17-.443-.34-.666-.506-.283-.165-.613-.355-.952-.528-.2-.1-.4-.193-.592-.3,0,.044.008.087.008.127l.1.115.032.038.02.024.032.04c.034.043.067.085.1.129l.015.026.014.026a2.647,2.647,0,0,1,.062.3,4.936,4.936,0,0,1-.047.806,9.642,9.642,0,0,1-.69,1.844l-.193.393-.064.129-.052.1-.08.159-.067.133-.045.011a.23.23,0,0,1-.057.01c-.129.116-.258.231-.388.347l-.036.032C684.129,1403.829,683.86,1404.068,683.607,1404.312Z" transform="translate(-476.818 -1284.86)" fill="#fff"/>
          <path id="Path_2286" data-name="Path 2286" d="M774.543,1508.924c-.178-.632-.37-1.26-.568-1.886v0c-.156-.495-.314-.988-.471-1.482-.055-.171-.11-.343-.164-.515l-.12-.382v0l0-.005c-.126-.263-.249-.527-.364-.794-.224-.52-.478-1.024-.71-1.541s-.5-1.044-.749-1.565c-.2-.413-.393-.829-.6-1.235-.026-.05-.049-.1-.075-.149l-.01-.017-.128-.228c0,.009.01.017.014.025-.3-.532-.6-1.065-.883-1.607-.256-.492-.506-.987-.776-1.472l.021.037-.018-.033.018.032c-.278-.5-.547-1-.812-1.508l-.069-.13q-.394-.754-.781-1.511c-.5-.976-.876-2.01-1.372-2.989l0-.007-.013-.028-.318-.627c-.205-.275-.413-.56-.616-.852-.3-.434-.606-.883-.9-1.334-.19-.289-.365-.594-.538-.9l-.083-.144c-.476-.829-.882-1.573-1.239-2.273-.419-.82-.807-1.687-1.148-2.452l-.015-.032c-.169-.376-.329-.763-.482-1.138l-.024-.058-.222-.54q-.728-1.341-1.457-2.687l-.006-.01c-.4-.7-.8-1.394-1.219-2.082-.447-.738-.914-1.464-1.368-2.2-.417-.676-.853-1.34-1.281-2.01-.243-.379-.487-.755-.738-1.128-.086-.129-.173-.255-.258-.384-.07-.1-.137-.209-.2-.316a1.736,1.736,0,0,1-.292-.748,1.009,1.009,0,0,1-.018-.139q-.206-.342-.412-.689c-.43-.717-.881-1.411-1.305-2.062-.544-.813-1.083-1.587-1.539-2.238l-.088-.125-.051-.072c-.474-.674-.964-1.373-1.466-2.042-.472-.633-.994-1.31-1.641-2.134-.535-.683-1.049-1.4-1.572-2.137l-.446-.63c-.392-.556-.8-1.131-1.208-1.689l-.024-.033c-.541-.74-1.1-1.5-1.716-2.209a29.1,29.1,0,0,0-2.055-2.1c-.542-.51-1.083-1.041-1.607-1.553l-.106-.1c-.634-.621-1.423-1.394-2.194-2.1-.223-.191-.481-.393-.79-.617-.247-.176-.5-.324-.76-.475l-.1-.045-.343-.145c-.144.254-.283.51-.423.767l-.033.06c-.207.384-.422.779-.649,1.159-.283.477-.6.943-.911,1.393l-.016.022-.051.075c-.107.156-.214.312-.319.469-.431.644-.875,1.331-1.356,2.1-.135.218-.277.431-.419.643q-.126.187-.249.375c-.19.292-.4.582-.578.816l-.129.176c-.148.2-.3.4-.449.6l-.035.048-.021.028c-.308.412-.627.838-.923,1.268-.56.809-1.042,1.461-1.516,2.051-.4.5-.793,1.021-1.168,1.526l-.278.373-.024.032c-.226.3-.483.643-.754.95-.144.16-.291.318-.438.476l-.062.066q-.179.191-.357.386c-.343.39-.665.795-1.02,1.244l-.024.03c-.331.417-.672.848-1.031,1.253-.635.716-1.311,1.445-1.908,2.09l-.493.531c-.334.379-.663.775-.982,1.158l-.074.089c-.28.338-.561.677-.848,1.01-.761.884-1.416,1.681-2.007,2.436l-.245.312c-.41.526-.92,1.181-1.428,1.788q-.439.523-.875,1.05l-.028.034-.672.808c-.549.655-1.142,1.35-1.772,1.991l-.3.306c-.2.2-.394.4-.594.6-.257.253-.53.526-.787.8-.185.214-.365.431-.544.647l-.057.086a.877.877,0,0,1-.265.566c-.453.5-.921,1-1.375,1.482l-.268.285-.32.339-.092.1c-.375.4-.748.795-1.129,1.188l-.029.03c-.282.289-.574.589-.87.874-.274.259-.575.532-.918.832-.223.2-.452.383-.692.579l-.117.1-.142.116a8.59,8.59,0,0,0-1.065.977.858.858,0,0,1-.61.234h-.036a.4.4,0,0,1-.12-.021l-.027.306c-.026.3-.053.6-.082.911-.055.582-.11,1.164-.172,1.743l-.032.3c-.037.356-.077.725-.127,1.083a.826.826,0,0,1-.007.408c-.037.139-.073.278-.1.415-.035.239-.057.482-.078.719l0,.033c-.023.261-.049.558-.092.839a6.96,6.96,0,0,1-.228,1.032c-.075.229-.15.459-.219.691l-.015.049a8.931,8.931,0,0,1-.421,1.2,4.066,4.066,0,0,1-.339.635l.287.235a16.4,16.4,0,0,1,1.367,1.3c.386.4.748.814,1.206,1.353l.073.085c.158.186.314.37.467.56l.058.073.283.355c.057.073.111.146.165.222l.093.127a2.638,2.638,0,0,0,.188.236s.03.009.029.012c.04.078.082.154.125.229.22.31.435.625.649.939.172.223.347.443.524.665.219.275.437.549.649.827.19.249.366.513.536.769l.161.24.249.372q.2.305.411.611l.341.466.143.2.1.137a23.972,23.972,0,0,1,1.391,2.063c.251.427.487.872.717,1.3l.015.029.054.1c.114.211.227.423.343.635l.154.278c.306.553.654,1.18.953,1.81q.255.536.5,1.08c.155.347.285.709.415,1.071l.018.05c.16.422.325.842.491,1.26l.089.227q.131.332.258.663c.285.736.57,1.555.872,2.508.18.563.381,1.166.653,1.953l.137.274c.207.411.422.836.615,1.268l.2.445.1.221c.163.358.326.716.483,1.077.085.194.167.388.249.583l.036.085c.15.351.3.714.468,1.063.282.593.571,1.184.857,1.775l.021.037c.016.05.034.1.052.15l.168.479.126.359.214.607.029.084c.219.629.45,1.306.663,2.011l.036.12.034.117.1.338c.094.316.188.633.286.947l.066.215.122.386c.22.677.493,1.324.8,2.039l.049.119c.17.421.333.845.495,1.27l.136.353c.126.327.253.653.385.976l.094.231c.138.329.26.671.382,1.016.065.186.132.373.2.557.106.284.217.565.329.847s.215.542.317.816c.172.458.331.93.486,1.388h0l.011.025c.2.59.4,1.2.639,1.788l.04.1.02.048.021.052.025.06.016.042.019.042.024.059.017.039.027.063.016.037.032.074.01.025.028.065.015.036.028.063.016.037.023.053.033.075c.139.314.281.625.424.938.171.373.342.748.506,1.125.222.554.406,1.131.583,1.69l.015.043c.139.438.284.891.446,1.33.324.865.6,1.657.843,2.418l.02.061.026.083.069.217c.024.077.048.154.071.231l.033.109.03.1.013.039.018.059.02.069.009.027.021.071.008.027.028.1.026.091c.064.221.125.443.181.666l.007.029.015.052.016.081.01.028.007.031.034.148.051.222c.045.2.087.408.13.612l.005.027c.063.3.127.6.2.9.086.374.187.75.284,1.113l.011.042c.047.174.093.349.139.524.11.42.2.857.3,1.416.03.177.063.354.1.53l.022.118c.045.236.089.47.128.707.022.192.039.365.053.529l.267-.2c.317-.243.638-.481.958-.72.375-.279.748-.558,1.117-.844q.357-.276.713-.555c.449-.352.9-.7,1.356-1.046l.84-.63q.659-.492,1.315-.987l.133-.1c.712-.537,1.424-1.075,2.144-1.6l.464-.338c.569-.415,1.158-.845,1.724-1.283,1.012-.782,2.016-1.609,2.988-2.408q.562-.462,1.125-.923c.4-.326.805-.644,1.211-.962.291-.229.582-.457.87-.688.818-.654,1.471-1.2,2.059-1.7.33-.285.654-.578.977-.871.3-.275.607-.549.916-.817q.335-.291.671-.58c.467-.4.95-.818,1.417-1.237.6-.537,1.2-1.094,1.773-1.634l.206-.191c.6-.555,1.182-1.08,1.887-1.708l.215-.191c.641-.571,1.282-1.141,1.931-1.7.573-.5,1.248-1.086,1.918-1.688,1.451-1.3,2.781-2.537,4.065-3.772a35.612,35.612,0,0,0,3.51-4.091q.515-.675,1.033-1.345l.57-.74c.274-.357.553-.709.831-1.062s.558-.705.832-1.061a15.99,15.99,0,0,0,1.411-2.06c.088-.162.171-.327.255-.492.1-.2.2-.4.308-.588.121-.218.248-.433.376-.648l.086-.148a1.765,1.765,0,0,1,.145-.7c.06-.152.121-.3.185-.456.122-.292.245-.583.387-.866a8.163,8.163,0,0,0,.341-.742c.166-.428.349-.851.507-1.281.117-.32.219-.646.319-.971.094-.341.189-.682.288-1.022s.14-.677.206-1.017c.1-.524.21-1.047.308-1.573.11-.592.271-1.173.38-1.766a10.4,10.4,0,0,0,.155-1.4A6.526,6.526,0,0,0,774.543,1508.924Z" transform="translate(-515.954 -1318.555)" fill="#b1b0af"/>
          <path id="Path_2287" data-name="Path 2287" d="M634.727,1568.67l.2.125.2.125.234.146.183.113.359.223.188.115c.176.11.359.224.545.324l.609.322.1.05.156.081c.255.135.512.27.765.409l.2.11a2.683,2.683,0,0,1,.442.178.3.3,0,0,1,.076.052l.107.033c.11.033.218.073.325.112l.07.01c.069.01.139.02.207.031.2.036.389.08.61.141.255.068.527.153.855.268a.691.691,0,0,1,.21.114l.062-.043c.272-.2.546-.418.786-.612a13.553,13.553,0,0,1,1.367-1c.362-.222.72-.423,1.093-.615.1-.051.2-.1.313-.15l.213-.1.071-.034c.055-.027.111-.054.165-.077.033-.056.065-.113.1-.17.117-.267.228-.561.349-.922.056-.169.1-.341.153-.514.041-.146.083-.292.13-.438.087-.277.19-.555.3-.844.046-.121.09-.244.134-.365a7.9,7.9,0,0,0,.31-1.156c.069-.393.147-.815.259-1.236a.639.639,0,0,1,.26-.365c.028-.23.054-.462.079-.693l.032-.287q.1-.879.19-1.759.087-.854.172-1.707c.014-.137.027-.273.039-.409l.011-.126.037-.4.011-.068a.44.44,0,0,1-.147-.156c-.14-.238-.28-.474-.425-.709q-.095-.156-.187-.311l-.038-.063a.676.676,0,0,1-.146-.421l-.037-.043a1.881,1.881,0,0,1-.4-.308,1.826,1.826,0,0,1-.145-.167l-.044-.054c-.044-.054-.085-.108-.134-.175-.024-.032-.048-.063-.073-.094-.082-.107-.162-.217-.234-.328-.361-.332-.68-.634-.974-.924-.118-.119-.239-.236-.359-.355l-.094-.09c-.227-.222-.454-.444-.678-.67l-.1-.1c-.155-.158-.309-.314-.471-.465-.191-.179-.384-.353-.578-.527-.276-.229-.571-.473-.87-.7-.323-.247-.65-.487-.977-.725l-.193-.141-.022-.017c-.257-.188-.524-.382-.777-.584-.2-.16-.392-.321-.583-.489-.088-.078-.173-.159-.273-.254l-.024-.02q-.423-.363-.855-.718-.389-.321-.784-.63c-.066-.052-.133-.1-.2-.155a7.832,7.832,0,0,0-1.478-.827l-.026-.012c-.318-.149-.656-.272-.947-.376l-.05-.033-.052-.034a3.136,3.136,0,0,0-.956-.7,1.036,1.036,0,0,0-.146-.043,1.787,1.787,0,0,0-.207-.05l-.151-.076c-.312-.158-.625-.314-.939-.466-.255-.115-.516-.222-.785-.332a11.187,11.187,0,0,1-1.421-.659c-.264.113-.536.207-.77.281a.543.543,0,0,1,.058.282l-.04.594-.039.595-.022.278c-.017.224-.034.456-.04.683l-.005.211c-.015.588-.028,1.214-.028,1.838,0,1.366-.007,2.838-.073,4.339l-.017.353-.015.336-.007.136c-.022.464-.044.928-.055,1.39l0,.113c-.008.276-.018.588-.006.887.013.338.03.676.048,1.015.069.824.147,1.647.226,2.47l.019.187c.045.462.09.953.12,1.443.013.213.02.425.027.638l0,.1c.005.165.01.331.019.5a10.122,10.122,0,0,0,.438,2.264,5.508,5.508,0,0,0,.291.7l.015.029c.112.213.239.453.378.676a3.193,3.193,0,0,0,.343.427,6.469,6.469,0,0,0,1.165.743c.525.262,1.084.544,1.644.863.33.187.658.393.974.592Z" transform="translate(-465.807 -1391.245)" fill="#e0bc77"/>
          <path id="Path_2288" data-name="Path 2288" d="M612.386,1546.392c-.1.087-.189.186-.287.293l-.058.063a.722.722,0,0,1-.3.183c-.042.094-.087.189-.133.282-.126.261-.268.522-.4.751q-.123.221-.242.445l-.012.029a4.757,4.757,0,0,0-.184.489c-.06.207-.114.414-.165.624-.095.389-.177.742-.249,1.075h0c-.095.477-.172.95-.231,1.407-.078.578-.13,1.166-.17,1.666-.011.125-.02.249-.029.372l-.009.131,0,.051c-.027.371-.054.756-.1,1.132-.1.822-.258,1.668-.4,2.415l-.009.047c-.057.313-.114.626-.168.938-.048.27-.088.541-.129.811l-.013.09c-.029.2-.058.392-.089.587-.023.454-.047.907-.075,1.361-.013.2-.028.4-.047.6l-.032.361-.005.06c-.007.086-.02.17-.032.254l0,.035-.005.041-.007.043a1.461,1.461,0,0,1-.05.241c-.015.053-.035.1-.056.155l-.02.053a.829.829,0,0,1-.119.2l0,.037c-.024.274-.046.548-.068.827a.945.945,0,0,1-.019.139c.092-.042.187-.082.281-.12a4.536,4.536,0,0,1,1-.286,7.016,7.016,0,0,1,1.032-.094h.038a3.543,3.543,0,0,1,.633.048,2.367,2.367,0,0,1,.725.256c.1.053.192.108.285.167a.527.527,0,0,1,.244.419.343.343,0,0,1,.271-.114.079.079,0,0,1,.046.012,9.431,9.431,0,0,1-.066-1.1c0-.64-.009-1.247-.041-1.925,0,0-.006-.026-.007-.028-.022-.31-.042-.62-.06-.93-.013-.241-.03-.483-.048-.731-.051-.742-.108-1.583-.117-2.4-.007-.756.05-1.544.1-2.239.02-.276.039-.553.055-.829.08-1.339.123-2.8.134-4.459,0-.646.018-1.345.039-2.137.008-.269.026-.536.049-.855l.012-.191.037-.539.019-.285.027-.278-.225.076A3.757,3.757,0,0,0,612.386,1546.392Z" transform="translate(-450.776 -1392.995)" fill="#fff"/>
          <path id="Path_2289" data-name="Path 2289" d="M685.478,1715.274c-.28-.319-.6-.69-.919-1.065q-.311-.374-.628-.742c-.167-.18-.334-.357-.5-.534s-.344-.352-.52-.525l-.25-.249c-.079-.081-.161-.16-.242-.238l-.065-.062c-.167-.161-.34-.326-.5-.5-.2-.225-.4-.452-.6-.681l-.2-.231a19.637,19.637,0,0,1-1.506-2.027l-.157-.211c-.144-.2-.29-.39-.436-.583-.294-.377-.606-.744-.907-1.1-.25-.294-.5-.587-.74-.886-.282-.351-.547-.7-.863-1.117-.122-.162-.241-.325-.36-.488l-.02-.028c-.133-.181-.265-.364-.414-.559-.269-.349-.519-.7-.683-.924-.3-.413-.6-.823-.9-1.233l-.037-.051q-.414-.563-.823-1.129l-.025-.034c-.287-.4-.585-.809-.84-1.239l-.16-.268c-.2-.335-.4-.669-.608-1s-.411-.634-.619-.948l-.166-.251c-.134-.2-.263-.406-.393-.61-.144-.227-.288-.455-.438-.678a28.345,28.345,0,0,1-1.556-2.591c-.221-.42-.471-.852-.766-1.319-.142-.226-.288-.45-.436-.673-.06-.09-.122-.178-.187-.27s-.144-.2-.213-.31c-.3-.457-.55-.889-.773-1.32a11.032,11.032,0,0,1-.524-1.258l-.107-.29a.4.4,0,0,1,0-.246l-.028-.057c-.046-.092-.091-.183-.135-.275-.266-.543-.513-1.1-.753-1.649l-.047-.106-.162-.368-.156-.354c-.213-.393-.389-.744-.539-1.074-.282-.614-.551-1.267-.846-2.054-.257-.68-.538-1.355-.81-2.007l-.029-.069c-.168-.354-.306-.65-.425-.966-.157-.406-.315-.852-.5-1.4l-.061-.183c-.224-.622-.441-1.259-.643-1.857l-.051-.146c-.109-.321-.218-.642-.319-.963-.033-.1-.065-.209-.1-.312l-.107-.242-.04-.094c-.077-.172-.152-.344-.222-.519s-.131-.349-.192-.524l-.026-.075c-.128-.358-.248-.72-.366-1.082s-.234-.753-.337-1.147c-.033-.121-.066-.243-.1-.364-.063-.223-.125-.446-.178-.672l-.073-.3c-.065-.268-.131-.535-.186-.805s-.1-.509-.158-.764l-.074-.358c-.033-.156-.066-.311-.1-.466-.049-.226-.1-.452-.143-.681l-.009-.051c-.036-.119-.072-.238-.1-.358s-.052-.22-.072-.328a.435.435,0,0,1-.139-.224c-.074-.222-.136-.449-.2-.67l-.011-.045-.036-.135-.066-.241-.032-.118c-.042-.157-.085-.313-.125-.47a6.761,6.761,0,0,1-.169-.788c-.036-.272-.054-.552-.07-.8l-.014-.194a.375.375,0,0,1,.047-.191l-.021-.356-.008.038c-.009-.109-.022-.218-.037-.341l-.023-.2c-.059-.529-.153-1.068-.234-1.544-.051-.3-.1-.594-.147-.891-.1-.687-.19-1.446-.275-2.388-.022-.225-.038-.45-.055-.677l0-.033c-.009-.127-.019-.254-.03-.382-.028-.355-.057-.776-.059-1.2,0-.232-.006-.464-.011-.7l0-.115-.011-.4c-.006-.364-.01-.785.019-1.194.008-.1.018-.21.028-.314.005-.048.011-.094.018-.141a1.048,1.048,0,0,1,.034-.17l-.076-.018-.225-.054c-.2-.046-.418-.1-.63-.168a4.159,4.159,0,0,1-.8-.333c-.1-.056-.192-.12-.286-.184l-.023-.014a3.98,3.98,0,0,0-.347-.22c-.106-.046-.214-.091-.321-.133-.2-.056-.4-.116-.6-.177l-.127-.037-.292-.087-.271-.077c-.084-.018-.167-.034-.251-.05a.434.434,0,0,1-.153-.064q-.345-.095-.692-.185a13.4,13.4,0,0,1-1.411-.437l-.029-.01a3.6,3.6,0,0,1-.367-.154c.181.482.333.931.465,1.368l.269.885.02.065c.216.71.432,1.42.656,2.127l.194.6c.294.917.6,1.866.873,2.81a1.411,1.411,0,0,0,.117.414l.125.456c.188.7.382,1.441.532,2.194l.077.4a15.993,15.993,0,0,0,.381,1.676l.01.033c.094.3.2.648.317.975.045.125.089.248.135.372.074.2.147.4.215.607a16.242,16.242,0,0,1,.539,2.037c.025.124.051.25.078.378.048.229.1.458.136.69l.028.169.15.88c.1.606.192,1.215.284,1.828l.043.277c.047.309.1.617.145.927.062.389.124.777.182,1.167.1.693.21,1.43.347,2.147.069.371.145.741.221,1.111l.048.236c.051.251.1.5.152.753.106.554.191,1.108.283,1.723l.063.409.106.69c.072.465.145.93.211,1.4.053.393.108.788.167,1.208.02.143.041.286.063.429l.013.088c.023.154.047.306.068.46q.073.555.144,1.111l.052.4.1.741c.1.73.228,1.469.357,2.16.089.489.2.98.3,1.415l.016.074c.045.2.088.4.132.606.154.719.246,1.446.335,2.151.1.792.193,1.443.291,2.051.057.358.12.717.185,1.077.068.38.134.76.2,1.14.055.343.1.7.139,1.061l0,.029c.039.327.078.665.131,1l.052.331q.137.853.268,1.706.039.257.081.51c.055.219.106.44.156.661.066.294.128.589.181.887.005.03.012.059.017.088s.009.059.014.089c.044.261.084.522.12.784.013.091.026.183.037.274.066.5.118,1.01.163,1.516.017.188.034.375.049.562l0,.025q.033.422.062.845c.049.705.1,1.409.148,2.114,0,.03,0,.061.006.09q.03.447.056.893c.01.174.018.348.027.522.011.209.022.417.031.626q.021.514.032,1.028c0,.04,0,.08,0,.12s0,.064,0,.1q.008.4.01.808c0,.062,0,.124,0,.185,0,.029,0,.059,0,.089q0,.407-.01.814c0,.019,0,.037,0,.056,0,.054,0,.108,0,.162q-.014.524-.043,1.049c-.08,1.444-.128,2.891-.187,4.335a.821.821,0,0,1-.02.148v0h0c.065.487.122.975.16,1.465,0,.01,0,.019,0,.029,0,.061.007.123.011.184q.024.392.028.786c0,.013,0,.026,0,.039,0,.25,0,.5,0,.751,0,.014,0,.028,0,.041a20.321,20.321,0,0,1-.112,2.13c-.04.326-.087.651-.133.975-.084.591-.165,1.182-.192,1.78,0,.067,0,.133,0,.2,0,.151,0,.3.006.451,0,.074.007.148.01.222.006.147.014.295.025.442.006.08.014.16.022.24q.02.21.048.42c.011.083.023.166.036.249.01.061.016.123.027.185h.007c.023.129.042.258.07.387.072.266.143.533.211.8-.032-.127-.063-.253-.1-.38a6.469,6.469,0,0,0,.333,1.021c.018.024.035.047.053.07s.052.042.079.061a6.3,6.3,0,0,0,.959.374,3.472,3.472,0,0,0,.465.082l.127-.005c1.239-.656,2.585-1.4,4.184-2.3.754-.426,1.563-.887,2.362-1.37.814-.491,1.612-1.014,2.36-1.509.167-.111.332-.227.5-.343s.307-.217.464-.321l.3-.2c.261-.175.522-.349.785-.52l.235-.153c.681-.441,1.386-.9,2.1-1.318.581-.342,1.183-.674,1.765-.995l.7-.388c.225-.126.453-.25.681-.372l.408-.223c.416-.226.816-.462,1.261-.723.769-.452,1.518-.953,2.22-1.429.5-.337,1-.671,1.494-1.006l.654-.439q.489-.328.979-.654l.268-.179c-.112-.124-.222-.251-.331-.376Z" transform="translate(-480.37 -1467.026)" fill="#b1b0af"/>
          <path id="Path_2290" data-name="Path 2290" d="M715.524,1711.126q-.121-.363-.247-.722c-.323-.91-.618-1.7-.9-2.4-.118-.272-.242-.542-.366-.811l-.023-.052c-.091-.2-.182-.4-.272-.6-.239-.534-.475-1.07-.714-1.633l-.016-.043-.018-.037c-.16-.384-.312-.783-.453-1.187s-.3-.822-.457-1.218-.3-.773-.436-1.162-.285-.8-.429-1.2l-.1-.273-.009-.026c-.088-.246-.177-.492-.273-.734-.183-.417-.392-.824-.553-1.132-.191-.364-.372-.742-.556-1.154l-.113-.257a.437.437,0,0,1-.161-.159c-.172-.293-.344-.588-.506-.887a8.615,8.615,0,0,1-.365-.781c-.129-.3-.244-.612-.346-.888l-.068-.185c-.132-.354-.258-.71-.385-1.069l-.2-.577-.018-.051c-.163-.463-.325-.927-.495-1.388-.076-.2-.151-.408-.227-.618l-.505-1.1c-.309-.667-.617-1.334-.918-2.006-.451-1-.887-2.068-1.271-3.005l-.1-.243c-.189-.458-.377-.917-.569-1.374-.138-.326-.281-.651-.424-.974-.168-.379-.359-.809-.529-1.228-.332-.809-.612-1.612-.944-2.578q-.2-.582-.406-1.163c-.136-.387-.271-.773-.4-1.16-.175-.5-.339-1.013-.5-1.522l-.094-.292q-.245-.543-.478-1.089l-.235-.55c-.26-.612-.495-1.162-.744-1.707l-.122-.267-.058-.126c-.29-.631-.588-1.283-.866-1.93-.139-.321-.272-.644-.4-.968-.159-.386-.337-.825-.524-1.242-.335-.751-.706-1.482-1.088-2.226l-.251-.487c-.1-.2-.208-.4-.311-.6-.133-.257-.253-.525-.371-.784l-.012-.028-.114-.253c-.386-.846-.724-1.534-1.065-2.167-.111-.2-.228-.406-.344-.607l-.036-.063c-.066-.114-.133-.228-.2-.343-.194-.341-.389-.7-.58-1.064a20.761,20.761,0,0,0-1.163-2c-.232-.315-.471-.625-.71-.935l-.327-.426c-.373-.49-.785-.971-1.15-1.395l-.042-.049-.021-.025-.373-.373-.249-.248-.1-.1q-.61-.61-1.226-1.213c-.136-.134-.274-.265-.415-.4l-.258-.246c-.214-.2-.445-.435-.71-.708a.264.264,0,0,1-.048-.3c-.091.043-.18.092-.267.143-.259.151-.533.327-.863.551-.242.174-.5.361-.737.561l-.049.037.014.043c.11.368.223.749.347,1.12q.153.394.321.78c.119.27.251.535.38.793l.023.046c.253.5.55,1.022.907,1.584.479.657,1.007,1.271,1.6,1.948.315.362.633.724.956,1.08s.654.675.981.991l.026.025c.226.22.458.435.689.648l.3.275,1.071,1a.305.305,0,0,1,.093.229.375.375,0,0,1-.114.272.37.37,0,0,1-.255.093.383.383,0,0,1-.245-.115q-.551-.479-1.094-.968l-.232-.208c-.245-.218-.491-.437-.731-.66l-.26-.24-.049-.046c-.245-.223-.5-.454-.736-.691-.349-.344-.683-.693-1.023-1.05l-.195-.2c-.23-.242-.462-.484-.686-.731l-.043-.048a9.84,9.84,0,0,1-.9-1.1c-.282-.424-.5-.786-.7-1.14a11.4,11.4,0,0,1-.515-1.021l.1.394c.159.6.354,1.234.592,1.927l-.009-.05c.057.151.112.3.167.456l.022.06.1.278c.1.271.209.54.315.808l.065.168.043.11c.131.33.254.664.377,1l.026.068.019.051.01.028.009.027a8.9,8.9,0,0,0,.515,1.114c.155.276.325.549.5.827l.084.136c.152.244.3.491.449.738l.169.282c.181.3.344.6.525.94l.043.081.043.079c.175.331.351.662.522,1a.274.274,0,0,1-.115.37.259.259,0,0,1-.125.032.285.285,0,0,1-.246-.147l-.2-.347-.028-.05c-.207-.365-.416-.73-.632-1.091l-.044-.071c-.056-.093-.111-.186-.172-.277-.08-.114-.159-.228-.238-.344l-.224-.322-.066-.1-.136-.217.031.061-.075-.1c-.295-.412-.6-.838-.854-1.284a9.674,9.674,0,0,1-.5-.974.386.386,0,0,1-.026-.06c-.072-.165-.14-.331-.213-.5s-.138-.332-.207-.5c-.164-.386-.3-.72-.409-1.023-.147-.4-.28-.8-.408-1.19-.144-.434-.272-.873-.409-1.423-.031.671-.057,1.277-.062,1.889l-.009.794a.519.519,0,0,1,.076.272c0,.208-.007.415-.014.623,0,.143-.008.287-.01.431-.007.331.015.659.032.877.048.493.1.982.163,1.474.061.524.11,1.016.142,1.5l.007-.056c.089.93.182,1.677.293,2.356.049.307.109.614.169.92l.044.224c.042.224.077.45.112.676l.011.076c.018.119.035.238.055.358.074.46.143.837.219,1.189s.162.777.219,1.2c.021.157.038.315.056.474.029.261.059.532.109.8.023.125.05.25.078.373a.429.429,0,0,1,.1.215l.047.311.021.134.025.091.021.076c.056.2.1.407.152.611s.089.381.14.57l.059.225c.037.147.076.295.119.439l.035.117c.053.178.106.357.151.537.082.312.177.625.269.927l.023.076.1.324.109.359c.2.463.394.891.591,1.306.4.831.83,1.662,1.251,2.466l.042.083.346.661a1.375,1.375,0,0,0,.131.206l.1.246.039.091c.16.38.326.773.473,1.165.237.626.532,1.407.876,2.124l.031.065c.154.317.311.647.484.961.158.284.324.563.491.842l.08.135c.38.632.749,1.286,1.108,1.917l.051.091.047.082c.315.557.642,1.133.973,1.693.686,1.159,1.462,2.354,2.442,3.762.31.434.625.863.943,1.292l.061.083.3.4.17.2a.289.289,0,0,1,.268.153l.091.2c.08.173.162.351.259.516s.214.341.318.5c.213.24.424.479.63.724.078.093.155.189.232.283l.051.062.124.153c.073.092.151.181.23.273.061.07.121.14.181.211l.2.237.064.075.139.163c.136.16.26.334.382.508l.079.111.168.237.217.306.106.146c.1.14.2.28.3.426a.483.483,0,0,1,.08.228l.237.317.366.489.178.233.177.234c.322.4.68.794,1,1.141l.024.026c.282.311.573.646.915,1.051.089.107.175.216.278.342l.035.045c.091.113.183.226.276.336q.291.347.589.689c.233.268.462.537.69.808l.069.08.38.449q.358.422.7.853a.822.822,0,0,1,.084.106q.195.246.387.493c.187.243.364.491.555.756l.044.061c.139.191.282.382.427.572l.083.11.1.126c.218.281.442.571.648.873.074.107.145.215.217.324l.03.046c.126.19.257.386.4.571a14.187,14.187,0,0,0,1.016,1.153l.231.232c.1.1.208.207.309.31l.14.144.069.072c.1.109.208.217.316.322.166.162.317.338.469.513l.068.079.142.162c.112.127.226.257.336.388.123.149.287.346.462.531q.391-.274.776-.553c.574-.416,1.19-.875,1.915-1.427-.053-.115-.106-.232-.157-.356C715.91,1712.263,715.716,1711.694,715.524,1711.126Z" transform="translate(-505.425 -1468.104)" fill="#e0bc77"/>
        </g>
      </g>
    </g>
  </g>
</svg>
