<svg id="run-studio-run-logo" xmlns="http://www.w3.org/2000/svg" width="139.923" height="49.956" viewBox="0 0 139.923 49.956">
  <path id="Path_3318" data-name="Path 3318" d="M5.4-4.275H3.827V0H.913V-12.086H5.669a5.309,5.309,0,0,1,3.362.954,3.231,3.231,0,0,1,1.212,2.695,3.924,3.924,0,0,1-.51,2.09A3.623,3.623,0,0,1,8.135-5l2.523,4.88V0H7.537ZM3.827-6.516H5.669a1.654,1.654,0,0,0,1.249-.437,1.689,1.689,0,0,0,.419-1.219A1.709,1.709,0,0,0,6.915-9.4a1.639,1.639,0,0,0-1.245-.445H3.827Zm17.656-5.57v7.911a4.546,4.546,0,0,1-.573,2.328,3.71,3.71,0,0,1-1.644,1.5,5.79,5.79,0,0,1-2.532.515A5,5,0,0,1,13.256-.979a4.085,4.085,0,0,1-1.295-3.138v-7.969h2.93v8.027q.05,1.984,1.843,1.984a1.784,1.784,0,0,0,1.37-.5,2.328,2.328,0,0,0,.465-1.619v-7.894ZM33.394,0H30.5L26.214-7.521V0H23.3V-12.086h2.914l4.275,7.521v-7.521h2.905ZM7.147,12.788a1.2,1.2,0,0,0-.452-1,5.623,5.623,0,0,0-1.59-.739,15.25,15.25,0,0,1-1.859-.739Q.9,9.16.9,7.143a2.843,2.843,0,0,1,.585-1.772,3.785,3.785,0,0,1,1.656-1.2,6.444,6.444,0,0,1,2.407-.427,5.637,5.637,0,0,1,2.337.465A3.7,3.7,0,0,1,9.488,5.537,3.457,3.457,0,0,1,10.061,7.5H7.155A1.461,1.461,0,0,0,6.7,6.354a1.763,1.763,0,0,0-1.224-.407,1.989,1.989,0,0,0-1.233.344A1.014,1.014,0,0,0,4.292,8.01a6.281,6.281,0,0,0,1.751.78A10.729,10.729,0,0,1,8.1,9.658a3.459,3.459,0,0,1,1.959,3.113,2.951,2.951,0,0,1-1.2,2.49,5.317,5.317,0,0,1-3.279.9,6.505,6.505,0,0,1-2.66-.527,4.011,4.011,0,0,1-1.793-1.444,3.763,3.763,0,0,1-.6-2.113H3.453a1.854,1.854,0,0,0,.5,1.432,2.374,2.374,0,0,0,1.631.461,1.875,1.875,0,0,0,1.141-.311A1.027,1.027,0,0,0,7.147,12.788Zm13.9-6.624H17.415V16H14.5V6.164H10.94V3.914h10.1ZM31.75,3.914v7.911a4.546,4.546,0,0,1-.573,2.328,3.71,3.71,0,0,1-1.644,1.5A5.79,5.79,0,0,1,27,16.166a5,5,0,0,1-3.478-1.146,4.085,4.085,0,0,1-1.295-3.138V3.914h2.93v8.027q.05,1.984,1.843,1.984a1.784,1.784,0,0,0,1.37-.5,2.328,2.328,0,0,0,.465-1.619V3.914ZM33.568,16V3.914h3.893a5.727,5.727,0,0,1,2.88.726,5.105,5.105,0,0,1,2,2.05,6.19,6.19,0,0,1,.726,2.968v.556a6.226,6.226,0,0,1-.7,2.976,5.127,5.127,0,0,1-1.976,2.059A5.6,5.6,0,0,1,37.544,16Zm2.914-9.836v7.6h1.013a2.267,2.267,0,0,0,1.926-.892,4.373,4.373,0,0,0,.672-2.652V9.691a4.337,4.337,0,0,0-.672-2.64,2.306,2.306,0,0,0-1.959-.888ZM47.663,16H44.758V3.914h2.905Zm12.26-5.794a7.127,7.127,0,0,1-.656,3.129,4.847,4.847,0,0,1-1.864,2.1,5.189,5.189,0,0,1-2.752.735,5.262,5.262,0,0,1-2.739-.71,4.838,4.838,0,0,1-1.864-2.03,6.922,6.922,0,0,1-.7-3.03V9.716A7.159,7.159,0,0,1,50,6.583a4.835,4.835,0,0,1,1.868-2.1,5.529,5.529,0,0,1,5.508-.008,4.922,4.922,0,0,1,1.872,2.079,6.953,6.953,0,0,1,.677,3.092ZM56.96,9.7a5.082,5.082,0,0,0-.6-2.735,1.93,1.93,0,0,0-1.722-.934q-2.191,0-2.316,3.287l-.008.888a5.227,5.227,0,0,0,.589,2.731,1.927,1.927,0,0,0,1.751.955,1.9,1.9,0,0,0,1.7-.938,5.084,5.084,0,0,0,.606-2.7ZM5.4,27.725H3.827V32H.913V19.914H5.669a5.309,5.309,0,0,1,3.362.954,3.231,3.231,0,0,1,1.212,2.695,3.924,3.924,0,0,1-.51,2.09A3.623,3.623,0,0,1,8.135,27l2.523,4.88V32H7.537ZM3.827,25.484H5.669a1.654,1.654,0,0,0,1.249-.437,1.689,1.689,0,0,0,.419-1.219A1.709,1.709,0,0,0,6.915,22.6a1.639,1.639,0,0,0-1.245-.445H3.827Zm17.656-5.57v7.911a4.546,4.546,0,0,1-.573,2.328,3.71,3.71,0,0,1-1.644,1.5,5.79,5.79,0,0,1-2.532.515,5,5,0,0,1-3.478-1.146,4.085,4.085,0,0,1-1.295-3.138V19.914h2.93v8.027q.05,1.984,1.843,1.984a1.784,1.784,0,0,0,1.37-.5,2.328,2.328,0,0,0,.465-1.619V19.914ZM33.394,32H30.5l-4.283-7.521V32H23.3V19.914h2.914l4.275,7.521V19.914h2.905Z" transform="translate(80 12.086)" fill="#fff"/>
  <path id="Path_2204" data-name="Path 2204" d="M44.444,9.526c0,.635-1,1.27-2.086,1s-2.086-.907-2.086-1.542.907-.907,2.086-.907S44.444,8.8,44.444,9.526ZM53.6,39.548c-12.154-4.535-25.94-7.709-26.575-13.7s5.986-7.437,8.8-7.619,11.519,2.086,16.054,2.449c4.535.272,7.437.816,9.433-1.36s1.542-3.265-.816-4.081c-2.449-.816-10.884-2.086-12.426-5.17C46.53,7.077,45.8,5.173,41.178,4.81s-6.893,0-7.437-1.542S34.285-.36,30.113.094A119.914,119.914,0,0,0,16.327,3c-1.633.453-1.814,2.449,1.088,2.177,6.893-.726,8.8.181,8.8.181S11.338,13.7,7.257,18.6C2.813,23.947-2.9,33.562,1.724,46.259c.453,1.36,1,2.54,1.36,3.537H73.014C67.663,46.35,60.316,42,53.6,39.548Z" transform="translate(-0.009 0.159)" fill="#e0bc77"/>
</svg>
