<svg xmlns="http://www.w3.org/2000/svg" width="616.639" height="730.156" viewBox="0 0 616.639 730.156">
  <g id="Group_2023" data-name="Group 2023" transform="translate(-18.481 149.037) rotate(-19)">
    <path id="Path_2302" data-name="Path 2302" d="M1154.51,901.474l.007.006.026.021Z" transform="translate(-952.489 -724.092)" fill="#b1b0af"/>
    <path id="Path_2303" data-name="Path 2303" d="M1154.56,901.516l0,0,0,0Z" transform="translate(-952.502 -724.103)" fill="#b1b0af"/>
    <path id="Path_2304" data-name="Path 2304" d="M1148.689,898.311c-.045-.014-.093-.031-.141-.042l-.185-.043a.985.985,0,0,1-.036.23l.584-.074Z" transform="translate(-950.744 -723.175)" fill="#b1b0af"/>
    <path id="Path_2305" data-name="Path 2305" d="M1189.706,1090.472c-1.128.014-2.246.017-3.37.073-.518.04-1.037.09-1.55.168-.451.069-.9.15-1.349.232-.267.048-.534.1-.8.142-.872.143-1.744.227-2.624.294a8.742,8.742,0,0,0-1.758.339c-.216.081-.435.162-.651.241-.057.027-.116.047-.174.07-.059.727-.136,1.453-.235,2.174-.151,1.116-.331,2.226-.516,3.334-.2,1.18-.434,2.355-.606,3.54q-.235,1.632-.392,3.275c-.107,1.13-.194,2.274-.373,3.395-.342,2.187-.751,4.374-1.262,6.527-.485,2.049-1.051,4.074-1.584,6.112-.493,1.887-.886,3.8-1.293,5.708v0c-.406,2-.827,3.992-1.253,5.992-.128.639-.26,1.281-.393,1.92-.5,2.465-.969,4.94-1.337,7.427-.3,2.033-.53,4.077-.793,6.112-.132,1.02-.278,2.046-.356,3.073-.082,1.054-.135,2.108-.213,3.162-.154,2.041-.263,4.082-.225,6.129.04,2.083.132,4.166.093,6.249-.034,1.749-.1,3.49-.1,5.237,0,.147-.006.294,0,.44,0,.219,0,.437,0,.656q2,.646,4.011,1.276c2.055.644,4.12,1.228,6.157,1.929l.006-.03c.011-.053.022-.106.034-.159.233-1.049.454-2.1.675-3.155q.45-2.329.858-4.668c.169-.953.306-1.915.429-2.876.134-1.026.207-2.056.311-3.084.213-2.094.323-4.2.516-6.292.185-2.041.466-4.074.659-6.114.2-2.081.4-4.161.639-6.238.247-2.1.5-4.186.83-6.271.168-1.048.334-2.094.465-3.151.126-1,.219-2,.339-3,.247-2.061.609-4.107.836-6.168.121-1.1.225-2.19.291-3.291.065-1.018.146-2.03.261-3.045.241-2.122.566-4.237.849-6.353a42.594,42.594,0,0,1,1.59-6.645c.58-1.92,1.068-3.869,1.668-5.783a22.887,22.887,0,0,1,1.085-2.652c.491-1.066,1.029-2.109,1.559-3.154-.109.213-.219.429-.328.645.5-.995.944-2.01,1.359-3.042.086-.213.177-.426.267-.64l.039-.094c-.05,0-.1.006-.154.006C1191.124,1090.461,1190.415,1090.464,1189.706,1090.472Z" transform="translate(-955.897 -777.432)" fill="#e0bc77"/>
    <path id="Path_2306" data-name="Path 2306" d="M1338.444,1142.718l-.025-3.081c-.039-5.6-.149-11.292-.252-16.8l-.051-2.7c-.059-3.227-.2-6.521-.347-9.616-.07-1.5-.194-3.006-.322-4.547l-.429-5.111c-.345-4.057-.752-8.176-1.144-12.16-.656-6.664-1.331-13.552-1.755-20.348-.09-1.5-.188-2.991-.283-4.486l-.21-3.292-.123-1.878-.126-1.842c-.062-.939-.157-1.875-.253-2.809l-.115-1.152c-.154-1.629-.337-3.258-.519-4.884q-.142-1.266-.283-2.528c-.263-2.431-.575-4.9-.872-7.284l-.188-1.489.034.362-.216-1.825c-.3-2.416-.611-4.915-.874-7.376q-.3-2.793-.586-5.585l-.4-3.827c-.247-2.349-.581-4.724-.9-7.023q-.214-1.509-.421-3.019c-.227-1.7-.46-3.389-.69-5.083q-.357-2.612-.712-5.223c-.451-3.344-1.037-6.729-1.606-10-.51-2.943-1.041-5.989-1.469-9q-.216-1.514-.424-3.028c-.311-2.226-.622-4.452-.962-6.673-.328-2.164-.726-4.356-1.11-6.476q-.256-1.409-.507-2.815-.344-1.977-.675-3.95c-.309-1.831-.617-3.661-.953-5.486-.25-1.369-.516-2.731-.779-4.094-.362-1.855-.738-3.773-1.066-5.668-.233-1.357-.452-2.716-.67-4.077-.3-1.875-.617-3.815-.968-5.717-.322-1.766-.67-3.524-1.015-5.282q-.353-1.791-.7-3.58c-1.1-5.784-2.321-11.7-3.731-18.088q-.4-1.842-.827-3.681c-.407-1.8-.816-3.6-1.2-5.4q-.525-2.485-1.079-4.962c-.149-.667-.309-1.334-.468-2-.2-.824-.392-1.649-.575-2.478q-.88-4.057-1.786-8.113l-.339-1.534-.342-1.565c-.493-2.274-1.006-4.623-1.643-6.905-.381-1.362-.807-2.793-1.385-4.631-.278-.891-.592-1.791-.9-2.663-.172-.488-.342-.975-.507-1.466l-.121-.356c-.9-2.661-1.839-5.411-2.722-8.13q-.463-1.425-.92-2.854c-.622-1.943-1.267-3.953-1.934-5.918q-.589-1.741-1.192-3.477c-.572-1.668-1.147-3.333-1.7-5.007-1.217-3.645-2.226-6.421-3.278-8.994q-1.253-3.07-2.534-6.121l-.749-1.791c-1.024-2.579-2.077-5.287-3.131-8.046l-.064-.174c-1.121-2.935-2.279-5.969-3.586-8.885-1.29-2.879-2.624-5.854-3.99-8.755q-.9-1.926-1.783-3.858c-.213-.463-.421-.919-.625-1.377-.4-.881-.791-1.761-1.212-2.627-1.43-2.938-2.834-5.806-4.3-8.593-.684-1.306-1.385-2.6-2.089-3.9-.734-1.363-1.472-2.728-2.19-4.1l-.83-1.6c-1.219-2.344-2.478-4.768-3.836-7.087-1.649-2.824-3.4-5.663-5.343-8.68l-.7-1.079c-.535-.824-1.068-1.648-1.587-2.484-.858-1.387-1.684-2.789-2.453-4.1l-.252-.435c-1.486-2.537-3.022-5.161-4.671-7.659-1.4-2.122-3.263-4.909-5.268-7.664-.906-1.242-1.859-2.5-2.91-3.853-.454-.583-.919-1.158-1.382-1.735-.479-.594-.959-1.189-1.427-1.794l-.067-.087c-.973-1.256-1.943-2.512-2.932-3.756-1.156-1.45-2.325-2.846-3.522-4.27-2.133-2.526-4.536-4.934-6.655-7.057q-.786-.787-1.587-1.559c-1.334-1.478-2.868-3.168-4.441-4.8-.88-.911-1.623-1.643-2.338-2.3-.566-.518-1.175-1.015-1.763-1.491-.289-.235-.578-.468-.861-.706-1.06-.881-2.109-1.806-3.126-2.7-.6-.525-1.194-1.051-1.794-1.57-1.466-1.264-2.908-2.6-4.3-3.894l-.656-.609a53.691,53.691,0,0,0-10.766-7.8q-.652-.353-1.309-.7c-1.135-.791-2.025-1.357-2.882-1.839-1.093-.617-2.24-1.178-3.35-1.716l-.662-.322c-.521-.256-1.051-.494-1.578-.735l-.519-.235c-.827-.381-1.575-.721-2.349-1.031-2.437-.993-5.142-1.979-8.509-3.1-1.292-.431-2.624-.8-3.911-1.155l-.474-.129c-1.4-.388-2.579-.7-3.684-.979a73.568,73.568,0,0,1,4.966,7.262c.421.7.835,1.407,1.247,2.111.454.776.909,1.55,1.371,2.321.877,1.457,1.8,2.839,3,4.6.784,1.143,1.553,2.33,2.3,3.477l.1.154.544.838c.549.842,1.156,1.669,1.69,2.4l.072.1c.458.628.915,1.255,1.35,1.9.551.818,1.166,1.65,1.659,2.318.446.6.889,1.206,1.318,1.822a47.869,47.869,0,0,1,2.661,4.3l.182.328.042.074c.85,1.534,1.728,3.121,2.454,4.746l.166.362c.235.518.528,1.163.754,1.784a9.4,9.4,0,0,1,.407,5.1,30.2,30.2,0,0,1-1.82,5.348l-.163.39c-.257.615-.523,1.252-.844,1.851-.384.723-.807,1.391-1.169,1.949a36.155,36.155,0,0,1-7.3,8.043,26.1,26.1,0,0,1-4.125,2.76c-1.492.83-2.968,1.624-4.511,2.427-1.493.782-3.151,1.586-5.218,2.532a45.757,45.757,0,0,1-4.711,1.938,45.243,45.243,0,0,1-5.692,1.486,24.077,24.077,0,0,1-4.445.393c-.22,0-.438,0-.659-.005a29.788,29.788,0,0,1-6.371-.744,56.753,56.753,0,0,1-6.25-2.008,26.567,26.567,0,0,1-4.944-2.333,29.474,29.474,0,0,1-5.334-4.021,64.13,64.13,0,0,1-7.3-8.91c-1.026-1.491-1.943-2.843-2.782-4.282a15.891,15.891,0,0,1-2.011-4.636,10.038,10.038,0,0,1-.344-2.605,7.279,7.279,0,0,1,.176-1.954l.082-.258.342-1.057a8.442,8.442,0,0,1,1.212-2.236,7.884,7.884,0,0,1,1.041-1.257,20.363,20.363,0,0,1,3.144-2.524,27.705,27.705,0,0,1,3.1-1.638,32.425,32.425,0,0,1,4.949-1.781c1.493-.422,3.258-.91,5.038-1.329,1.229-.291,2.484-.548,3.763-.81l1.46-.3a14.108,14.108,0,0,0,1.854-.549c.1-.065.2-.131.3-.2.187-.2.364-.4.534-.613.154-.3.288-.613.412-.926a13.575,13.575,0,0,0,.261-1.456,17.6,17.6,0,0,0-.322-3.208,19.882,19.882,0,0,0-.771-2.548q-.5-1.257-1.037-2.495c-.3-.692-.619-1.375-.937-2.057l-.1-.208-.039-.085c-.528-1.13-1.074-2.3-1.528-3.482a2.39,2.39,0,0,1,.082-1.87,2.56,2.56,0,0,1,1.45-1.347,2.488,2.488,0,0,1,.833-.138,2.329,2.329,0,0,1,2.095,1.1c.689,1.309,1.438,2.611,2.1,3.759.694,1.2,1.31,2.424,1.822,3.46a30.111,30.111,0,0,1,1.512,3.374,32.463,32.463,0,0,1,1.211,4.453c.807,3.986-.591,9.236-4.829,11.559a19.9,19.9,0,0,1-4.067,1.573c-1.315.389-2.691.85-4.09,1.368-.465.174-.933.345-1.4.513-1.791.654-3.642,1.329-5.424,2.144a23.064,23.064,0,0,0-3.024,1.945c-.261.266-.507.538-.741.805.106.322.218.636.349.949.409.72.863,1.429,1.337,2.173l.443.695c.606.96,1.333,2.091,2.131,3.2l.378.527c1.263,1.759,2.569,3.578,3.989,5.281.717.762,1.344,1.375,1.973,1.926a19.992,19.992,0,0,0,1.776,1.367,48.173,48.173,0,0,0,8.76,3.942,18.482,18.482,0,0,0,3.281.667c.827.075,1.654.123,2.48.168a23.722,23.722,0,0,0,4.26-.4,31.843,31.843,0,0,0,3.526-.95l.852-.3c1.026-.357,2.189-.762,3.3-1.211,2.564-1.044,5.1-2.255,7.56-3.426l.187-.089a33.514,33.514,0,0,0,3.221-1.864,24.8,24.8,0,0,0,2.4-1.926,31.628,31.628,0,0,0,4.025-4.669,29.623,29.623,0,0,0,2.522-5.5,11.036,11.036,0,0,0,.322-1.579c-.011-.182-.028-.359-.047-.534-.146-.437-.329-.865-.507-1.279l-.04-.094-.067-.155c-.054-.125-.108-.25-.16-.377-.287-.69-.564-1.318-.847-1.917-.146-.284-.289-.566-.428-.853-.788-1.5-1.476-2.743-2.168-3.913-.742-1.257-1.577-2.46-2.385-3.625-.349-.5-.689-1.01-1.029-1.519l-.171-.255c-.582-.875-1.153-1.728-1.747-2.559-1.067-1.487-2.063-2.961-3.044-4.506l-1.273-1.99c-1.493-2.328-3.037-4.735-4.432-7.184a88.361,88.361,0,0,0-5.4-8.64c-1.692-2.313-3.656-4.73-6.181-7.609a33.506,33.506,0,0,0-5.44-4.865,12.972,12.972,0,0,0-1.885-.964,10.366,10.366,0,0,0-1.5-.23,32.344,32.344,0,0,0-6.385.8,67.165,67.165,0,0,0-7.49,2.1,77.459,77.459,0,0,0-7.538,3.112c-3.86,2.021-7.615,4.318-11.247,6.54l-.4.241a82.538,82.538,0,0,0-10.9,7.832c-1.462,1.313-2.989,2.719-4.668,4.295a3.267,3.267,0,0,1-2.031,1.034c-.082.006-.166.009-.247.009a3.022,3.022,0,0,1-3.024-2.768,2.952,2.952,0,0,1,.728-2.238l.34-.317.152-.143c1.115-1.046,2.269-2.127,3.426-3.165l.863-.779c.947-.86,2.02-1.833,3.115-2.7,2.4-1.881,4.875-3.667,7.365-5.307,2.02-1.331,4.331-2.841,6.688-4.292q-1.782.115-3.561.227l-1.194.075c-.74.045-1.477.079-2.218.11l-.255.011-.286.014c-.72.037-1.435.07-2.142.115-1.7.121-3.415.272-5.018.418a45.52,45.52,0,0,0-5.408.922c-1.343.3-2.75.718-3.881,1.06l-.886.263-.925.269-.106.031c-1.36.4-2.585.76-3.794,1.169l-.375.126c-2.941,1-6.067,2.069-9.123,3.078-1.329.434-2.7.916-4.436,1.562-1.654.838-3.305,1.674-4.968,2.492q-5.875,2.9-11.76,5.762l-.123.061c-3.006,1.461-5.946,2.894-8.907,4.379-2.131,1.2-4.062,2.321-5.9,3.424-1.817,1.087-3.642,2.108-5.506,3.148l-.384.216q-.9.5-1.8,1.009c-2.694,1.741-5.136,3.4-7.468,5.08l-.123.1q-.512.4-1.021.807a124.8,124.8,0,0,0-12.6,12.238q-1.081,1.156-2.167,2.3c-.878.928-1.719,1.94-2.462,2.828-.269.328-.541.651-.812.973-.982,1.152-1.988,2.249-3.11,3.456-1.926,2.078-3.886,4.365-5.817,6.8l-.7.934-.19.255q-.657.875-1.323,1.744l.16-.149c-.572.731-1.091,1.441-1.609,2.153l-.236.325-.241.328q-.588.807-1.186,1.606c-.768,1.04-1.587,2.063-2.38,3.05l-.334.415-.387.485c-.253.317-.507.634-.757.953-.992,1.343-1.828,2.453-2.691,3.524-.415.522-.849,1.035-1.281,1.542l-.266.314-.642.766c-1.511,1.819-3,3.589-4.612,5.226-1.245,1.262-2.5,2.487-4.129,4.054-.592.41-1.186.825-1.772,1.245-.258.185-.516.372-.771.56l-.284.2-.286.207-.082.059c-.731.535-1.421,1.04-2.122,1.522l-.642.438-.645.437c-.787.533-1.575,1.065-2.349,1.612l-1.25.881c-1.831,1.287-3.909,2.747-5.865,4.25-.494.375-.981.762-1.469,1.152l-.35.278q-.682.543-1.366,1.077l-1.4,1.085-.723.563-.987.759-.713.535-.345.264c-.715.538-1.43,1.079-2.137,1.626l-.067.048-.042.067-.006-.005-.572.418-.468.347c-.466.356-.965.729-1.463,1.1l-.328.247q-.631.467-1.259.944-1.443,1.094-2.877,2.2l-.513.393c-1.514,1.143-2.955,2.29-4.685,3.67l-1.453,1.158-1.18.931c-1.483,1.172-2.958,2.335-4.449,3.479-1.307.972-2.627,1.934-3.948,2.893l-.342.25c-1.94,1.41-4.093,2.977-6.131,4.53l-.3.222-.215.171c-1.741,1.334-3.5,2.767-4.912,3.919q-1.007.821-2.022,1.639l.07.064a33.986,33.986,0,0,1,2.619,2.8c.964,1.138,1.853,2.355,2.725,3.566a20.915,20.915,0,0,1,1.357,2.049c.318.573.634,1.147.94,1.725l-.113-.217a16.6,16.6,0,0,1,.99,2.024,12.787,12.787,0,0,1,.451,1.766c.212,1,.4,2.021.515,3.037a5.554,5.554,0,0,1-.121,2.181,7.739,7.739,0,0,1-.487,1.326c-.123.25-.255.494-.387.738-.494.911-.917,1.858-1.453,2.747a21.417,21.417,0,0,1-2.462,3.255,19.05,19.05,0,0,1-2.3,2.234c-.784.622-1.564,1.247-2.338,1.887-.437.363-.871.728-1.309,1.089l.073,0c.816.025,1.766.062,2.692.182.507.065,1.01.159,1.511.252a16.12,16.12,0,0,0,2.4.334q.517.017,1.034.017c1.04,0,2.094-.051,3.115-.1l.161-.007c.472-.477.947-.949,1.409-1.434.7-.445,1.449-.824,2.186-1.2l.238-.118c.785-.4,1.579-.788,2.372-1.175l.319-.157.676-.328c.852-.418,1.7-.846,2.546-1.278l.2-.1c1.287-.65,2.616-1.326,3.95-1.931a2.043,2.043,0,0,1,.855-.168h.009l.566-.3.306-.163c.409-.219.821-.434,1.228-.656l.452-.25c1.188-.659,2.417-1.34,3.672-1.943l.841-.485c1.7-.975,3.468-1.982,5.1-3.134.794-.563,1.576-1.146,2.361-1.727l.163-.121c1.144-.855,2.327-1.738,3.543-2.552l.626-.421c1.684-1.138,3.6-2.427,5.559-3.537.841-.479,1.687-.95,2.534-1.422l.5-.275.235-.131c1.1-.612,2.2-1.219,3.294-1.845,2.032-1.164,4.06-2.428,6.022-3.65l.288-.18.112-.07c1.256-.791,2.566-1.542,3.833-2.268l.174-.1c.8-.46,1.612-.922,2.411-1.393q1.56-.926,3.112-1.867c1.225-.74,2.45-1.477,3.686-2.2l.5-.294c.956-.561,1.912-1.122,2.88-1.663.838-.471,1.674-.987,2.54-1.519l.771-.474c.337-.207.678-.412,1.021-.617.726-.437,1.48-.886,2.192-1.365l.724-.491.726-.49q.867-.58,1.727-1.163c.528-.362,1.049-.729,1.57-1.1.393-.278.784-.556,1.183-.831.541-.375,1.107-.728,1.657-1.071l.846-.532.85-.547a42.163,42.163,0,0,0,5.111-3.622c.522-.479,1.024-.992,1.509-1.491l.053-.056.527-.541a15.444,15.444,0,0,0,1.775-2.049l.112-.177.079-.1-.076.087a11.638,11.638,0,0,0,.791-1.539c.151-.339.316-.67.482-1,.115-.228.23-.457.342-.687.135-.289.283-.572.454-.891a14.81,14.81,0,0,0,.757-1.59l-.037.067c.106-.286.216-.569.328-.853.159-.4.319-.81.459-1.228.255-.746.5-1.491.744-2.243l.078-.255.3-.875-.081.16c.075-.239.134-.479.193-.724l.087-.337c.2-.734.435-1.511.715-2.3a3.839,3.839,0,0,1,2.274-2.055,4.054,4.054,0,0,1,1.338-.23,4.009,4.009,0,0,1,3.945,4.7,13.3,13.3,0,0,1-.78,2.428,10.593,10.593,0,0,1-.914,1.575l-.1.157c-.426.65-.866,1.293-1.307,1.931a14.664,14.664,0,0,1-1.371,1.781,19.221,19.221,0,0,1-1.794,1.584c-.378.325-.762.639-1.146.953l-.188.151c-.123.1-.25.2-.376.3-.426.375-.861.743-1.295,1.11-.407.339-.81.681-1.209,1.031-1,.909-1.928,1.906-2.784,2.849-.953,1.051-1.965,2.083-2.943,3.081l-.121.123-.328.334a66.47,66.47,0,0,1-5.333,5.035l-1.685,1.366c-1.158.933-2.313,1.87-3.507,2.862-.956.793-1.943,1.618-2.986,2.383-.417.309-.841.611-1.261.914l-.2.146-.292.21c-.426.306-.852.614-1.275.928-2.24,1.654-4.312,3.106-6.336,4.435-4.427,2.9-9,5.7-12.939,8.089a81.441,81.441,0,0,1-7.272,3.905l-1,.488-.1.047c-.774.379-1.572.769-2.374,1.119-.925.406-1.909.844-2.857,1.306-.928.488-1.856,1.021-2.753,1.537l-.224.129-.69.395c-1.5.869-2.717,1.6-3.821,2.291-.712.449-1.461.869-2.184,1.278l-.126.07c-.44.246-.88.493-1.315.746-1.18.687-2.4,1.343-3.726,1.984l.075-.008-.681.347-.334.146.09-.025q-1.068.547-2.137,1.1-.853.441-1.7.878c-1.081.552-2.212,1.09-3.207,1.562l-.915.434c-.384.185-.768.367-1.149.547a1.791,1.791,0,0,1-.41.255c-1.668.763-3.314,1.649-4.928,2.518-.549.3-1.1.594-1.651.886l-1.087.578-.37.2c1.091.027,2.1.039,3.042.039,1.98,0,3.768-.056,5.47-.171.418-.028.833-.065,1.248-.106.344,0,.687,0,1.028,0h1.24c1.413,0,2.887.059,4.071.106l.759.031c.648.014,1.3.025,1.946.025a31.027,31.027,0,0,0,3.5-.171c.8-.093,1.6-.25,2.383-.4l.109-.02.112-.025.735-.14c.316-.065.631-.123.947-.182.591-.11,1.175-.219,1.752-.337.6-.171,1.183-.368,1.772-.563l.151-.05c.291-.1.586-.2.881-.292.471-.151.947-.3,1.421-.44.6-.18,1.172-.353,1.741-.547,1.772-.6,4.1-1.421,6.355-2.411.985-.426,1.977-.917,2.854-1.351l.146-.073.16-.079c.858-.421,1.727-.852,2.6-1.239.443-.2.889-.393,1.331-.586,1.161-.5,2.473-1.079,3.7-1.713.631-.367,1.2-.695,1.811-1,.188-.1.379-.182.572-.275l.084-.039.449-.21c.558-.331,1.16-.679,1.763-.973s1.265-.561,1.89-.816l.135-.056.252-.1c.378-.151.765-.3,1.15-.446l.109-.042.238-.09.073-.028c.984-.373,1.954-.74,2.862-1.183q.6-.366,1.2-.748c1.113-.713,2.209-1.357,3.359-1.974a2.185,2.185,0,0,1,.448-.179l2.276-1.382,3.019-1.837,1.24-.751c2.251-1.368,4.8-2.918,7.309-4.323,3.095-1.73,6.148-3.4,8.988-4.937l2.411-1.309.937-.507c2.5-1.36,4.982-2.706,7.455-4.071.712-.463,1.424-.925,2.131-1.394q1.017-.559,2.035-1.124c.976-.535,1.941-1.088,2.9-1.643l.962-.55c.844-.443,1.7-.869,2.549-1.295,1.152-.575,2.344-1.169,3.49-1.8,1.2-.653,2.36-1.4,3.488-2.128.81-.522,1.646-1.062,2.489-1.562,1.632-.858,3.345-1.615,5-2.349.578-.256,1.156-.51,1.73-.771,1.127-.51,2.249-1.041,3.368-1.573,1.278-.609,2.6-1.237,3.919-1.822,2.228-.987,4.505-1.959,6.708-2.9l.788-.337.1-.044c2.453-1.049,4.987-2.134,7.572-2.963.948-.3,1.9-.6,2.849-.9s1.9-.6,2.846-.9c1.954-.616,4.054-1.267,6.165-1.834,2.989-.695,6.224-1.295,10.174-1.881,1.3-.19,2.6-.381,3.9-.563l.889,0,.477.006h.322c.594,0,1.191-.012,1.783-.025l.325-.009c.552-.011,1.082-.016,1.612-.016.149,0,.294,0,.443,0,1.558.017,3.215.088,5.069.21.437.028.875.048,1.312.065l.258.011.159.009c.861.036,1.7.072,2.534.168a25.864,25.864,0,0,1,2.851.519l.182.039c.418.09.807.174,1.2.255l.589.112c1.054.21,2,.4,2.913.662a29.253,29.253,0,0,1,4.168,1.5l1.1.5c.743.334,1.477.667,2.2,1.018a43.273,43.273,0,0,1,4.73,2.63c.423.275.756.507,1.048.734.2.154.4.317.594.5,2.761,2.312,5.4,4.78,7.945,7.163l.079.076.14.134.482.451c1,.937,2.077,2,3.487,3.443q.556,1.026,1.127,2.052l2.372,4.259q2,3.608,4.018,7.208c2.1,3.748,4.169,7.617,6.139,11.494l.269.527c1.669,3.28,3.4,6.67,4.887,10.129,1.393,3.6,2.638,7.216,3.7,10.738.625,2.091,1.161,3.9,1.649,5.815.281,1.093.527,2.2.771,3.274l.048.225.151.664c.124.547.246,1.091.375,1.632q.445,1.871.911,3.74l.056.235c.594,2.417,1.267,5.155,1.817,7.83.463,2.265.788,4,1.057,5.635.252,1.511.462,3.064.653,4.527l.121.909c.272,2.215.524,4.433.777,6.65.28,2.5.563,4.991.875,7.483.561,4.444,1.13,9.207,1.5,13.948.1,1.265.2,2.531.294,3.8l.006.093.028.359c.271,3.589.521,6.824.818,10.059.421,4.463.659,9.064.869,13.123l.009.194.078,1.5c.07,1.293.112,2.585.154,3.88.028.911.059,1.808.1,2.708l.053,1.161.05,1.2c.067,1.443.132,2.885.171,4.328.126,4.393.187,9.106.2,14.831.006,3.477-.051,6.957-.169,10.386.008.136.017.273.026.409.023.349.042.7.068,1.046.014.19.029.381.043.571q.065.857.133,1.713c.034.414.066.828.1,1.242q.031.4.063.792c.009.114.022.228.031.343.054.634.11,1.269.182,1.9.056.484.1.975.188,1.458.012.07.026.141.042.212a2.764,2.764,0,0,1-.2.2c.039.622.07,1.245.082,1.87.019,1.15-.006,2.294-.017,3.443a64.255,64.255,0,0,1-.415,7.233c-.14,1.125-.35,2.24-.493,3.365-.154,1.206-.275,2.417-.426,3.622-.286,2.259-.6,4.514-.9,6.767-.088.648-.171,1.3-.253,1.944.065,2.709.13,5.421.007,8.13-.073,1.643-.184,3.286-.288,4.929-.106,1.671-.241,3.347-.485,5.007-.246,1.682-.614,3.347-.945,5.015-.309,1.559-.541,3.132-.709,4.71-.182,1.721-.368,3.448-.6,5.164s-.51,3.424-.715,5.145c-.048.41-.1.822-.149,1.228-.041.173-.077.347-.116.521q-.35,1.537-.653,3.089c-.03.152-.059.3-.088.457-.17.871-.334,1.742-.5,2.612,0,.336-.009.672-.025,1.008-.056,1.175-.112,2.353-.19,3.527-.081,1.189-.124,2.381-.219,3.563-.188,2.352-.5,4.685-.788,7.026-.308,2.506-.749,4.985-1.25,7.46q-.239,1.285-.484,2.572c.05-.259.1-.515.153-.774-.067.35-.137.7-.2,1.049.018-.091.035-.183.052-.274-.168.862-.347,1.719-.593,2.564a17.71,17.71,0,0,1-1.169,2.924,6.436,6.436,0,0,1-1.424,1.865,4.552,4.552,0,0,1-1.713,1.029c-.023.02-.042.043-.066.063a4.615,4.615,0,0,1-3.213,1,10.985,10.985,0,0,1-3.5-.723c-.912-.334-1.817-.7-2.722-1.046-.962-.37-1.938-.7-2.9-1.063-2.05-.768-4.136-1.43-6.2-2.15-.62-.216-1.227-.466-1.83-.721l-.679-.216-.362-.085c-1.825-.435-3.645-.911-5.478-1.318-1.764-.387-3.524-.78-5.279-1.2-2.122-.51-4.2-1.153-6.305-1.736q-2.733-.757-5.47-1.509c-2.092-.572-4.133-1.281-6.168-2.018-1.043-.376-2.088-.746-3.126-1.133-1.236-.46-2.421-.978-3.6-1.555l.464.229q-.316-.153-.632-.311l-.091-.045.079.039c-.474-.238-.944-.482-1.414-.727-.035.02-.074.034-.109.055l-1.124-.438c-1.463-.566-2.929-1.151-4.415-1.661l-.113-.04-.768-.342v0q-4.874-2.171-9.722-4.4l-.279-.127c-.722-.286-1.443-.573-2.167-.853-.879-.339-1.727-.746-2.576-1.149q-1.306-.5-2.6-1.009c-1.476-.583-2.938-1.2-4.4-1.811l-.378-.158c-1.587-.662-3.14-1.407-4.691-2.145l-.182-.088c-.622-.281-1.243-.561-1.861-.851-.347-.163-.687-.342-1.03-.513-.493-.223-.986-.446-1.479-.673-1.525-.7-3.05-1.413-4.528-2.206q-2.426-1.3-4.8-2.688c-.751-.435-1.5-.863-2.257-1.3-.693-.4-1.4-.762-2.108-1.144l.2.11-.577-.3c-.635-.3-1.272-.6-1.9-.911-.129-.063-.257-.131-.386-.195-1.606-.333-3.189-.764-4.761-1.234-.479-.143-.962-.283-1.438-.432-.171-.053-.343-.1-.516-.156-.352-.106-.705-.213-1.054-.334l-.809-.28-.739-.256c-.12-.042-.238-.088-.357-.133-.319-.121-.636-.248-.953-.373-.891-.344-1.78-.7-2.658-1.079-.925-.4-1.864-.774-2.772-1.214-.447-.215-.889-.44-1.328-.671-.1-.052-.2-.1-.3-.153-.505-.272-1-.558-1.486-.853h0c-1-.434-1.969-.916-2.929-1.432-1.281-.662-2.516-1.405-3.759-2.132-1.187-.7-2.379-1.395-3.587-2.056-1.3-.678-2.631-1.3-3.887-2.058-.925-.558-1.841-1.13-2.759-1.7q-1.446-.909-2.817-1.923-1.341-.988-2.691-1.965c-.875-.634-1.775-1.234-2.638-1.884-.406-.309-.794-.639-1.192-.956-.463-.37-.931-.737-1.4-1.1-.868-.69-1.7-1.427-2.545-2.147-.813-.7-1.6-1.419-2.414-2.114q-1.286-1.107-2.562-2.226c-.894-.793-1.8-1.575-2.666-2.4-.8-.751-1.6-1.5-2.391-2.259s-1.612-1.525-2.389-2.319q-1.215-1.245-2.4-2.518c-.347-.373-.662-.781-.99-1.174-.392-.472-.782-.948-1.174-1.422q-1.077-1.3-2.156-2.6c-1.371-1.662-2.745-3.322-4.169-4.937-.737-.84-1.469-1.687-2.229-2.509-.774-.838-1.556-1.671-2.313-2.523-.39-.438-.776-.875-1.147-1.326s-.743-.934-1.1-1.407a18.922,18.922,0,0,1-1.881-2.879q-.483-.942-.967-1.889c-.008-.015-.006-.032-.012-.047-.118-.129-.243-.253-.357-.383-.292-.334-.6-.659-.88-1s-.533-.664-.807-.989c-.55-.637-1.116-1.267-1.685-1.884-.291-.314-.594-.617-.872-.943a7.167,7.167,0,0,1-.611-.869,5.479,5.479,0,0,1-.337-.611,11.35,11.35,0,0,1-.6-1.6,9.587,9.587,0,0,1-.266-1.382,23.919,23.919,0,0,1-.261-3c-.009-.465.014-.927.008-1.39,0-.174,0-.349,0-.523,0-.213,0-.426,0-.64-.016-.387-.035-.774-.037-1.161,0-.176,0-.352.007-.528a14.613,14.613,0,0,1-.472-1.443c-.04-.15-.074-.3-.109-.454-.04-.175-.081-.351-.118-.527-.027-.128-.055-.257-.081-.385-.012-.057-.025-.115-.037-.172-.094-.447-.191-.894-.317-1.333-.168-.5-.356-1-.531-1.494-.1-.291-.219-.577-.328-.866-.081-.207-.147-.418-.217-.627l-.039-.11c-.024-.07-.052-.137-.078-.206-.112-.307-.235-.608-.367-.906-.32-.635-.64-1.27-.982-1.893-.353-.64-.694-1.283-1.039-1.924l-.026.115,0-.009-.072.295,0-.012-.072.295v0c-.014.054-.026.109-.04.161l0-.005c-.021.087-.045.173-.069.261l-.024.09-.087.324-.04.149c-.07.256-.141.513-.21.768l-.21.782c-.006.022-.012.045-.017.068-.034.126-.067.253-.1.38-.006.038-.014.075-.021.113-.118.651-.224,1.3-.314,1.96-.084.619-.185,1.237-.244,1.862l0,.02c0,.118.009.235.012.352s0,.226.006.337c.011.092.023.183.038.274a.18.18,0,0,1-.033.133v.01a.384.384,0,0,1-.022.076.165.165,0,0,1-.105.1c-.012.183-.029.366-.028.55l.006.039a.178.178,0,0,1-.148.2.172.172,0,0,1-.182-.111h0a.175.175,0,0,1-.134-.031.2.2,0,0,1-.059-.07.972.972,0,0,1-.084-.37l-.034-.26c-.025-.174-.045-.348-.065-.522-.039-.365-.076-.726-.109-1.087s-.065-.746-.093-1.119c-.028-.339-.062-.675-.082-1.015-.014-.241-.028-.485-.042-.726-.011-.179-.014-.356-.02-.535q-.021-.609-.036-1.222-.017-.589-.028-1.178c-.007-.323-.006-.647-.005-.972,0-.061,0-.122,0-.183,0-.37.009-.74.011-1.11.006-.353,0-.706,0-1.059,0-.407.006-.81.023-1.214,0-.07.009-.141.013-.21.006-.125.012-.25.023-.375.006-.076.017-.151.028-.225a1.228,1.228,0,0,1,.053-.2c0-.011,0-.023.009-.034a.227.227,0,0,1,.058-.078c0-.1,0-.192,0-.288-.139-.2-.267-.4-.4-.606-.075-.118-.156-.231-.226-.353-.342-.594-.622-1.214-.922-1.828s-.6-1.191-.9-1.789c-.292-.575-.55-1.166-.833-1.746-.095-.193-.2-.38-.3-.568a1.031,1.031,0,0,1-.047.093c-.026.028-.048.059-.073.087a.507.507,0,0,1-.16.129.621.621,0,0,1-.143.033.185.185,0,0,1-.045,0c-.136.48-.272.963-.408,1.446q-.194.677-.375,1.354c-.027.1-.054.195-.08.292-.07.5-.139,1.008-.2,1.514s-.107,1.034-.129,1.553c-.007.158-.009.316-.011.473q.091.787.2,1.573c.044.323.09.642.129.965l0,.043q.148.9.3,1.794a.182.182,0,0,1-.146.208h0l0,.034a1,1,0,0,1-.015.149c.006.04.012.08.015.12a.184.184,0,0,1-.1.193.181.181,0,0,1-.171-.013H951.2a.207.207,0,0,1-.05-.024l.008.022a.183.183,0,0,1-.087.238.181.181,0,0,1-.238-.087,5.085,5.085,0,0,1-.25-.908c-.053-.306-.1-.614-.151-.922-.1-.611-.2-1.223-.292-1.834-.093-.583-.182-1.169-.253-1.758q-.109-.951-.174-1.907c-.025-.378-.031-.756-.031-1.135s.014-.749.022-1.124.009-.724.02-1.085.011-.737.025-1.108c.014-.4.031-.8.053-1.2.022-.367.07-.734.126-1.1s.134-.749.216-1.124c.051-.238.111-.477.174-.715a3.488,3.488,0,0,0-.252-.5,4.211,4.211,0,0,0-.518-.6,2.331,2.331,0,0,0-.268-.185,2.87,2.87,0,0,0-.361-.13c-.061-.009-.122-.016-.183-.02s-.111.014-.167.024a2,2,0,0,0-.182.085c-.288.622-.571,1.245-.832,1.879-.306.741-.583,1.489-.861,2.238-.487,1.3-.841,2.646-1.2,3.987-.165.76-.343,1.519-.454,2.29-.138.942-.289,1.884-.407,2.828-.18,1.448-.368,2.9-.556,4.347.017.478.034.957.077,1.436.171,1.977.4,3.95.712,5.913.3,1.892.631,3.781.959,5.668.124.716.25,1.436.391,2.152.257.838.515,1.673.785,2.5.288.552.558,1.077.824,1.6l.126.252.129.258c.162.328.325.656.484.987.059.124.118.244.177.365l.082.171.238.5c.768,1.6,1.511,3.177,2.243,4.758q.643,1.38,1.275,2.764c1.775,3.889,3.3,7.045,4.8,9.933l.123.238.182.353.036.07c.387.746.777,1.5,1.172,2.243a6.31,6.31,0,0,0,.673.571c.23.345.453.7.681,1.046.35.541.7,1.079,1.059,1.61q1,1.471,2.01,2.927c1.132,1.621,2.341,3.227,3.513,4.78l.409.544.634.846c.462.62.925,1.242,1.4,1.851.726.922,1.466,1.836,2.206,2.75.681.843,1.41,1.679,2.116,2.484l.172.2c.678.774,1.486,1.687,2.324,2.584.423.451.861.892,1.3,1.329.322.322.642.645.958.972.429.444.855.892,1.281,1.338.376.4.751.79,1.13,1.183a59.287,59.287,0,0,0,4.88,4.5c1.772,1.472,3.359,2.84,4.856,4.183.665.594,1.371,1.259,2.221,2.086.468.46.922.937,1.374,1.413.344.362.687.72,1.037,1.076,1.6,1.612,3.288,3.135,5.018,4.685.957.855,1.893,1.727,2.832,2.6.751.7,1.5,1.4,2.259,2.086.555.5,1.122.995,1.688,1.489l.838.734c.311.272.616.55.925.825.589.53,1.2,1.079,1.819,1.595,2.159,1.789,3.843,3.118,5.464,4.312.763.561,1.531,1.11,2.3,1.66,1.072.768,2.176,1.558,3.244,2.364,1.612,1.217,3.213,2.439,4.817,3.661l.58.443c3.337,2.543,6.8,5.03,10.149,7.433l1.722,1.236.779.561c1.618,1.163,3.238,2.33,4.865,3.479.664.472,1.321.953,1.976,1.433l.861.634c.888.65,1.814,1.3,2.826,1.977l1.4.942c1.609,1.09,3.274,2.215,4.951,3.266,2.254,1.413,4.362,2.669,6.451,3.847,1.8,1.012,3.6,2.088,5.338,3.125l1.382.825,1.562.928c1.508.895,3.07,1.82,4.586,2.756.791.512,1.587,1.017,2.381,1.522l.659.418.939.6c.684.437,1.365.874,2.06,1.292,1.906,1.15,4,2.381,6.39,3.766,4.589,2.655,9.212,5.1,12.728,6.933,3.784,1.977,8.01,4.012,13.3,6.406.889.4,1.811.78,2.7,1.141l.446.179c1.135.469,2.366.953,3.768,1.487.906.347,1.852.693,2.863,1.045.319.154.637.31.956.462q1,.521,2,1.037,1.654.849,3.3,1.7c1.063.547,2.144,1.057,3.216,1.584.99.485,1.993.945,2.991,1.41.925.432,1.847.866,2.778,1.279l3.647,1.615c1.174.521,2.374.989,3.561,1.483,1.918.8,3.858,1.556,5.792,2.31.272.105.547.208.821.31-.786,3.021-1.578,6.159-2.4,9.481q-.291,1.177-.594,2.352l-.3,1.188c-.087.339-.171.682-.256,1.023-.21.85-.39,1.556-.594,2.262-.754,2.535-1.59,5.069-2.312,7.245-.721,2.147-1.494,4.315-2.243,6.412l-.1.269-.118.325-.72,2.018c-1.287,3.6-2.47,6.844-3.622,9.917-.752,2.007-1.57,4.017-2.437,6.148-.311.771-.628,1.545-.939,2.322q-1.829,4.55-3.687,9.094c-3.7,8.8-7.71,18.2-11.932,27.3-1.1,2.375-2.276,4.957-3.482,7.674-1.072,2.405-2.055,4.971-2.849,7.031l-.174.457c-.7,1.817-1.366,3.7-2.044,5.635l-.535,1.52c-.418,1.186-.813,2.35-1.169,3.457,3.162.431,6.266.88,9.229,1.345,6.552,1.026,12.981,2.31,18.953,3.549l1.062.174c.485.081.965.163,1.447.241l.807.126c1.385.218,2.817.448,4.217.74.577.124,1.158.238,1.738.353,1.362.275,2.772.558,4.141.9.488.124.973.241,1.461.362,1.3.317,2.633.642,3.934,1.018q4.21.862,8.425,1.685c5.371,1.043,10.87,1.884,16.191,2.694,2.089.319,4.177.636,6.26.969l.858.121c2.111.3,4.292.615,6.445.888l1.783.225c7.421.937,15.1,1.906,22.611,3.056,8.877,1.352,16.8,2.733,24.237,4.228q6.749,1.354,13.51,2.649,4.928.958,9.855,1.926c7.426,1.466,14.842,2.787,21.8,4.018q7.653,1.35,15.307,2.669c6.4,1.107,13.016,2.254,19.515,3.42l.975.175q1.076.193,2.151.39c.678.121,1.354.243,2.032.367l.319.059.446.079.446.084c-.047-1.893-.1-3.777-.126-5.664-.011-.818-.014-1.637-.014-2.456l-.006-1.087c0-.776.037-1.567.073-2.333.017-.345.033-.69.045-1.035.028-.754.1-1.525.174-2.271.037-.372.073-.749.1-1.121.028-.331.078-.662.126-.993.025-.171.05-.342.07-.513l.191-1.458.036-.289.059-.385c.174-1.13.353-2.3.574-3.44.337-1.7.715-3.51,1.153-5.528.149-.673.291-1.343.434-2.015.141-.648.278-1.293.418-1.937l.188-.847c.281-1.267.569-2.576.779-3.878.275-1.707.538-3.38.751-5.088l.012-.082c.182-1.466.37-2.983.465-4.48.263-4.093.412-7.258.485-10.261l.084-3.325q.084-3.343.16-6.683c.07-3.168.227-6.386.378-9.5l.014-.295c.3-6.1.474-12.313.645-18.318l.019-.765c.21-7.634.342-13.861.412-19.6l.012-.931c.039-3.1.078-6.311.07-9.465Q1338.483,1146.169,1338.444,1142.718ZM927.675,804.191a1.846,1.846,0,0,1-1.273.647,2,2,0,0,1-1.4-.456,1.9,1.9,0,0,1-.191-2.674,1.844,1.844,0,0,1,1.272-.647,2,2,0,0,1,1.4.456,1.9,1.9,0,0,1,.191,2.674Zm2.772-7.536a1.257,1.257,0,0,1-.93.437,1.562,1.562,0,0,1-1.089-.355,1.5,1.5,0,0,1-.5-.991,1.556,1.556,0,0,1,.417-1.158,1.257,1.257,0,0,1,.93-.437,1.562,1.562,0,0,1,1.089.355,1.5,1.5,0,0,1,.5.991A1.556,1.556,0,0,1,930.448,796.655Zm8.839,7.536a2.48,2.48,0,0,1-1.755.931,2.718,2.718,0,0,1-1.842-.563,2.559,2.559,0,0,1-.367-3.6,2.482,2.482,0,0,1,1.755-.931,2.722,2.722,0,0,1,1.843.563,2.559,2.559,0,0,1,.367,3.6Zm1.988-15a1.251,1.251,0,0,1-.919.431,1.535,1.535,0,0,1-1.075-.352,1.483,1.483,0,0,1-.5-.98,1.568,1.568,0,0,1,.414-1.143,1.25,1.25,0,0,1,.919-.431,1.538,1.538,0,0,1,1.075.352,1.49,1.49,0,0,1,.5.981A1.569,1.569,0,0,1,941.275,789.187Zm2.641,8.164a1.093,1.093,0,0,1-.8.372,1.339,1.339,0,0,1-.938-.307,1.292,1.292,0,0,1-.434-.852,1.363,1.363,0,0,1,.36-1,1.1,1.1,0,0,1,.8-.373,1.341,1.341,0,0,1,.939.307,1.3,1.3,0,0,1,.434.852A1.361,1.361,0,0,1,943.916,797.351Zm4.5-19.863a1.812,1.812,0,0,1-1.245.63,1.949,1.949,0,0,1-1.367-.444,1.854,1.854,0,0,1-.186-2.612,1.811,1.811,0,0,1,1.245-.631,1.948,1.948,0,0,1,1.367.445,1.849,1.849,0,0,1,.186,2.612Zm3.975,16.757a1.6,1.6,0,0,1-1.107.563,1.74,1.74,0,0,1-1.216-.4,1.646,1.646,0,0,1-.166-2.323,1.6,1.6,0,0,1,1.107-.563,1.738,1.738,0,0,1,1.216.4,1.645,1.645,0,0,1,.167,2.323Zm5-7.394c-.006.007-.009.015-.015.022a1.978,1.978,0,0,1-1.4.74,2.181,2.181,0,0,1-1.469-.449,2.039,2.039,0,0,1-.292-2.865,1.977,1.977,0,0,1,1.4-.74,2.182,2.182,0,0,1,1.469.449,2.122,2.122,0,0,1,.74,1.4A2.069,2.069,0,0,1,957.395,786.851Zm10.583-4.578a2.954,2.954,0,0,1-2.092,1.113,3.245,3.245,0,0,1-2.2-.675,3.044,3.044,0,0,1-.437-4.29,2.956,2.956,0,0,1,2.091-1.113,3.243,3.243,0,0,1,2.2.676,3.043,3.043,0,0,1,.437,4.289Zm56.809-69.706a1.494,1.494,0,0,1-.9.777,14.19,14.19,0,0,0-1.906.779l-.163.072c-.628.289-1.253.581-1.87.883-.9.462-1.563.835-2.164,1.211-.8.5-1.578,1.029-2.361,1.556l-.252.169c-1.338.9-2.715,1.929-4.1,3.035.179-.045.359-.084.538-.123.522-.1,1.046-.2,1.57-.294l.34-.06a16.78,16.78,0,0,1,1.878-.266c.031,0,.059,0,.088,0a1.209,1.209,0,0,1,.421,2.349c-.355.155-.716.294-1.133.454l-.421.16c-.5.2-1.006.39-1.517.566a20.983,20.983,0,0,0-2.387.99,20.7,20.7,0,0,0-2.116,1.25,26.247,26.247,0,0,0-2.077,1.631,25.729,25.729,0,0,0-2.041,2.144,1.821,1.821,0,0,1-3.113-1.748,1.959,1.959,0,0,1-.2-.7,2.035,2.035,0,0,1,.464-1.42c.888-1.228,1.778-2.352,2.719-3.438a44,44,0,0,1,8.721-7.562,36.611,36.611,0,0,1,5.008-2.86c.928-.433,1.7-.756,2.434-1.015.269-.1.541-.188.813-.278l.488-.165c.12-.042.238-.085.4-.146a6.922,6.922,0,0,1,.834-.263,2.581,2.581,0,0,1,.6-.084,1.436,1.436,0,0,1,.651.149,1.644,1.644,0,0,1,.842.935A1.708,1.708,0,0,1,1024.786,712.567Z" transform="translate(-880.719 -654.324)" fill="#dddbd7"/>
    <path id="Path_2307" data-name="Path 2307" d="M979.714,1062.636l.007-.1-.02-.02c0,.106-.006.213-.009.319C979.7,1062.768,979.706,1062.7,979.714,1062.636Z" transform="translate(-903.14 -769.552)" fill="#b1b0af"/>
    <path id="Path_2308" data-name="Path 2308" d="M972.9,1041.144c-.01.032-.019.064-.029.1.006-.016.014-.032.018-.048S972.892,1041.161,972.9,1041.144Z" transform="translate(-901.213 -763.519)" fill="#b1b0af"/>
    <path id="Path_2309" data-name="Path 2309" d="M972.1,1041.612h0v0Z" transform="translate(-900.998 -763.651)" fill="#b1b0af"/>
    <path id="Path_2310" data-name="Path 2310" d="M892.69,878.907a9.464,9.464,0,0,0-.536-1.535c-.321-.528-.721-1-1.059-1.517a9.689,9.689,0,0,1-1-2,4.867,4.867,0,0,1-.256-1.051,4.741,4.741,0,0,1,.02-.74,2.617,2.617,0,0,1,.527-1.262,2.362,2.362,0,0,1,2.434-.872,4.711,4.711,0,0,1,.9.319c.185.1.365.2.543.3-.21-.344-.418-.69-.627-1.035-.7-1.158-1.438-2.293-2.053-3.5q-.172-.337-.337-.673A2.656,2.656,0,0,1,891,863.81a2.355,2.355,0,0,1,1.992-1.949c-.047-.054-.093-.11-.141-.164a21.1,21.1,0,0,0-1.819-1.57c-.442-.35-.916-.662-1.363-1-.357.286-.713.57-1.069.857l-.765.614c-.387.308-.766.611-1.15.914-.782.619-1.553,1.253-2.324,1.89l-.432.286c-.653.435-1.284.853-1.909,1.282-1.116.762-2.2,1.55-3.353,2.383l-.106.075-.569.415-.247.18-.883.651-.124.1c-.423.317-.819.614-1.2.925-.241.437-.476.871-.709,1.312l-.132.244a13.615,13.615,0,0,0-.684,1.39c-.031.179-.056.367-.078.581a3.464,3.464,0,0,0-.833,1.8,7.271,7.271,0,0,0,.152,2.6,8.234,8.234,0,0,0,.676,2.223,10.709,10.709,0,0,0,1.528,2.282,9.223,9.223,0,0,0,1.99,1.766,8.939,8.939,0,0,0,2.593,1.987,7.376,7.376,0,0,0,1.682.648c.888.26,1.761.512,2.675.718.293.065.587.125.881.183a1.807,1.807,0,0,1,.5-.465,13.535,13.535,0,0,0,2.2-1.625c.058-.055.118-.109.176-.164,0-.065,0-.129.007-.193a8.98,8.98,0,0,1,.119-.968c0-.069-.007-.14-.006-.21a7.484,7.484,0,0,1,.073-1.441c.067-.339.179-.667.246-1.006.034-.165.062-.331.11-.494a2.787,2.787,0,0,1,.5-1.09,2.252,2.252,0,0,1,1-.74,2.763,2.763,0,0,1,2.569.477C892.747,879.306,892.724,879.1,892.69,878.907Z" transform="translate(-873.031 -712.137)" fill="#dddbd7"/>
    <path id="Path_2311" data-name="Path 2311" d="M1183.91,1210.331l.006-.03-.006.03Z" transform="translate(-960.788 -811.27)" fill="#b1b0af"/>
    <path id="Path_2312" data-name="Path 2312" d="M1212.627,1092.2c-.841.059-1.682.123-2.521.213-.942.1-1.873.291-2.809.426a20.491,20.491,0,0,1-3.594.216c-.7-.026-1.407-.082-2.112-.131-.233.718-.471,1.435-.731,2.147-.375,1.032-.81,2.041-1.237,3.053-.765,1.8-1.491,3.611-2.127,5.462-.331.961-.634,1.928-.958,2.89-.337.99-.724,1.962-1.094,2.941s-.726,1.937-1.054,2.918-.574,1.965-.843,2.955c-.289,1.071-.583,2.14-.838,3.218-.236.993-.429,2-.637,3,.034-.157.064-.314.1-.471-.121.614-.225,1.225-.322,1.841-.09.578-.213,1.15-.3,1.73-.331,2.111-.718,4.212-1.035,6.325-.311,2.075-.56,4.155-.934,6.221-.728,4.068-1.133,8.186-1.662,12.282-.272,2.081-.656,4.147-.914,6.227-.25,2.03-.328,4.077-.55,6.106-.115,1.059-.182,2.131-.334,3.187-.146,1.018-.309,2.036-.471,3.053-.325,2.044-.715,4.082-1.135,6.109.022-.107.044-.21.068-.314-.218,1.063-.439,2.128-.667,3.188,1.293.46,2.584.926,3.871,1.407,4.264,1.6,8.624,2.907,13.014,4.1,1.508.411,3.022.789,4.532,1.185-.049-.94-.094-1.88-.142-2.819-.246-3.583-.431-7.163-.45-10.758-.011-1.733.025-3.465-.029-5.2-.059-1.842-.036-3.681.011-5.526q.088-3.448.337-6.889c.165-2.327.4-4.642.637-6.961a64.286,64.286,0,0,1,1.351-7.424q.787-3.495,1.542-6.992c.261-1.208.549-2.411.827-3.616.252-1.1.485-2.215.751-3.317.532-2.193,1.018-4.4,1.573-6.588.547-2.164,1.158-4.314,1.738-6.47.284-1.06.516-2.131.8-3.188.258-.939.507-1.878.726-2.826.179-1.085.278-2.173.353-3.269.082-1.15.216-2.29.362-3.431a45.9,45.9,0,0,0,.615-6.095,5.727,5.727,0,0,1-1.159.095C1214.317,1092.392,1213.491,1092.184,1212.627,1092.2Z" transform="translate(-960.789 -777.931)" fill="#e0bc77"/>
    <path id="Path_2313" data-name="Path 2313" d="M1122.707,1132.443l.006-.027c.007-.034.013-.066.019-.1C1122.724,1132.359,1122.715,1132.4,1122.707,1132.443Z" transform="translate(-943.512 -789.256)" fill="#b1b0af"/>
    <path id="Path_2314" data-name="Path 2314" d="M1122.693,1132.526c0,.024-.01.048-.015.072l.014-.059Z" transform="translate(-943.503 -789.315)" fill="#b1b0af"/>
    <path id="Path_2315" data-name="Path 2315" d="M1271.063,1090.206c-.051-1.032-.118-2.061-.151-3.093-.007-.234,0-.467,0-.7a15,15,0,0,1-2.114.327c-1.037.082-2.075.172-3.112.244a14.016,14.016,0,0,0-3.1.5c-.625.213-1.251.423-1.89.595-.693.181-1.385.339-2.086.484q-1.38.29-2.775.5a16.011,16.011,0,0,1-.18,1.7c-.141.922-.32,1.839-.494,2.756-.2,1.054-.406,2.106-.636,3.151-.2.925-.446,1.842-.662,2.764-.44,1.878-.9,3.751-1.309,5.635.028-.14.059-.283.087-.423-.207,1.012-.421,2.019-.636,3.031-.444,2.2-.883,4.4-1.265,6.616-.194,1.13-.4,2.257-.591,3.387s-.418,2.285-.581,3.434c-.146,1.023-.291,2.041-.4,3.068-.1.934-.156,1.873-.263,2.806q-.328,2.919-.611,5.84c-.1.987-.205,1.974-.314,2.96-.1.928-.163,1.861-.236,2.792-.149,1.932-.255,3.861-.35,5.795q-.291,5.812-.359,11.627-.039,2.851-.037,5.705c0,1.839,0,3.676.1,5.515.19,2.683.431,5.363.631,8.048.151,2.044.395,4.083.49,6.134.087,1.87.076,3.737.11,5.608.011.6.039,1.194.055,1.79,1.055.294,2.1.625,3.152.924.911.258,1.805.569,2.733.762-.292-.056-.583-.115-.874-.171.7.136,1.386.285,2.08.429.468.083.938.164,1.4.291.253.071.5.132.76.18l-.872-.169c.519.1,1.02.2,1.525.34l.165.045c.193.026.388.05.579.085.018-.073.04-.144.058-.217.235-.984.468-1.965.723-2.943s.563-1.971.889-2.944c.552-1.652,1.04-3.322,1.615-4.965.569-1.626,1.113-3.26,1.547-4.929.081-.319.166-.639.25-.959.143-.987.289-1.971.452-2.955q.042-.349.093-.693c.4-2.826.894-5.638,1.216-8.472.2-1.783.409-3.569.662-5.349.033-.236.075-.472.11-.707,0-.3,0-.6,0-.9.037-2.458.073-4.914.238-7.367q.248-3.709.65-7.41c.53-4.85,1.281-9.675,1.651-14.542q.134-1.767.283-3.533c.092-1.138.129-2.279.225-3.417.216-2.548.507-5.08.844-7.614.151-1.133.286-2.271.378-3.409.092-1.11.14-2.224.207-3.337.052-.884.126-1.769.2-2.654,0-.861-.007-1.722-.04-2.582-.039-1.043-.121-2.083-.146-3.124-.025-1.081.02-2.158.012-3.24C1271.138,1092.238,1271.113,1091.223,1271.063,1090.206Z" transform="translate(-978.597 -776.298)" fill="#e0bc77"/>
    <path id="Path_2316" data-name="Path 2316" d="M1122.65,1132.719c.006-.025.011-.048.016-.073l0-.019Z" transform="translate(-943.496 -789.344)" fill="#b1b0af"/>
    <path id="Path_2317" data-name="Path 2317" d="M1231.145,1098.228a30.211,30.211,0,0,1-1.649,6.858c-.367,1.023-.768,2.033-1.166,3.045-.387.973-.684,1.982-1.034,2.969-.754,2.136-1.5,4.295-2.069,6.49-.558,2.14-1.021,4.3-1.5,6.463-.743,3.678-1.443,7.365-2.073,11.062-.348,2.047-.687,4.088-.9,6.155-.2,1.892-.187,3.81-.21,5.711-.053,4.668-.062,9.333.048,14,.028,1.186.115,2.371.149,3.558s.039,2.349.028,3.527c-.02,2.291-.009,4.589.07,6.882.076,2.263.227,4.52.227,6.788,0,.642,0,1.282,0,1.923.552.163,1.1.327,1.658.485,3.933,1.127,7.953,1.915,11.892,3.025.549.154,1.1.3,1.651.449,0-.171,0-.342.006-.514.053-1.825.154-3.65.163-5.472q.009-2.877,0-5.748c0-1.956,0-3.914-.028-5.871-.025-1.853-.028-3.7.031-5.551.059-1.943.07-3.885.137-5.825s.123-3.9.174-5.851c.1-3.85.353-7.7.507-11.545.079-1.89.123-3.794.292-5.678.18-2,.342-4,.538-6,.092-.959.2-1.915.305-2.871.1-.928.154-1.859.238-2.787.179-1.934.46-3.861.774-5.778.63-3.835,1.348-7.656,2.12-11.464.4-1.988.729-3.984,1.146-5.966.393-1.864.813-3.717,1.22-5.579l-.093.454q.194-.946.391-1.887l-.007.026c.2-.942.406-1.878.606-2.821.137-.675.286-1.346.434-2.018,0-.017.006-.034.01-.052a2.7,2.7,0,0,1-.993-1.437c-.164-.069-.331-.134-.5-.2a11.555,11.555,0,0,0-1.353-.434,6.256,6.256,0,0,0-1.122-.076,5.381,5.381,0,0,0-.815.154c-.732.275-1.441.631-2.153.945-.37.163-.731.348-1.091.531-.513.261-1.024.526-1.548.767a28.178,28.178,0,0,1-4.5,1.483,19.478,19.478,0,0,1,.207,2.24c.031.611.045,1.222.023,1.833C1231.352,1095.828,1231.276,1097.034,1231.145,1098.228Z" transform="translate(-971.12 -776.372)" fill="#e0bc77"/>
    <path id="Path_2318" data-name="Path 2318" d="M1158.35,1089.489a17.871,17.871,0,0,1-2.526-.21,31.779,31.779,0,0,1-4.976-.906c-.792-.237-1.57-.517-2.35-.788a24.426,24.426,0,0,0-2.806-.835c-.844-.185-1.679-.4-2.518-.606a9.727,9.727,0,0,1-1.149-.375c-.11-.042-.219-.09-.325-.14-.032.184-.051.369-.076.553,0,.06.008.12.01.179.018.446.015.895.031,1.336a20.553,20.553,0,0,0,.571,3.1,15.035,15.035,0,0,1,.393,2.885,15.931,15.931,0,0,1-.019,2.61c-.109.942-.227,1.884-.309,2.828-.073.875-.121,1.75-.255,2.619a40.768,40.768,0,0,1-1.345,5.767c-.3.959-.538,1.934-.85,2.887-.3.909-.575,1.825-.872,2.734q-.963,2.948-1.9,5.907c-.3.934-.612,1.862-.881,2.8-.28.995-.569,1.984-.894,2.966-.308.934-.642,1.859-.953,2.79s-.583,1.887-.886,2.826c-.615,1.909-1.264,3.81-1.915,5.708-.306.894-.668,1.78-1.012,2.66-.382.978-.763,1.954-1.108,2.943s-.648,1.974-1.015,2.944c-.348.925-.69,1.85-1.007,2.784-.336,1-.665,1.993-.993,2.991-.288.886-.552,1.786-.888,2.655-.156.4-.309.811-.464,1.217-.255.67-.515,1.339-.771,2.008.328.156.658.308.985.467l-.123-.061.519.255.05.025-.017-.009c1.978.983,3.924,2.027,5.9,3.018.635.3,1.274.594,1.906.9l-.085-.041.086.042.279.136q3.338,1.622,6.6,3.378c2.082,1.113,4.074,2.386,6.174,3.47l.389.192c.559.263,1.125.507,1.692.749-.034-.737-.054-1.476-.069-2.213-.012-.58-.032-1.159-.03-1.741,0-2.049-.023-4.1.039-6.148s.294-4.055.522-6.073c.241-2.115.44-4.225.846-6.314.836-4.278,1.548-8.576,2.5-12.832.465-2.08,1.026-4.141,1.508-6.218.463-1.985.861-3.987,1.29-5.98.1-.5.2-1,.3-1.491,0,.007,0,.014,0,.021.015-.073.03-.146.044-.219l-.027.129c.01-.053.022-.106.033-.159.006-.031.013-.063.019-.094s.017-.078.025-.117.012-.06.018-.089l-.013.065.025-.119c-.025.121-.05.243-.075.364.286-1.39.625-2.772.972-4.152.3-1.186.572-2.383.828-3.583.339-1.918.619-3.838.81-5.776.1-1.051.11-2.116.152-3.171.042-1.071.115-2.139.2-3.21.154-1.99.39-3.964.678-5.94a33.376,33.376,0,0,0,.4-4.147c0-.047,0-.095,0-.143-.337-.019-.678-.016-1.021-.011Z" transform="translate(-943.959 -776.076)" fill="#e0bc77"/>
    <path id="Path_2319" data-name="Path 2319" d="M1021.14,955.2a8.232,8.232,0,0,0,1.012,1.205,6.816,6.816,0,0,0,.972.664,9.273,9.273,0,0,0,1.651.589,9.542,9.542,0,0,0,1.628.122c.235,0,.474,0,.713,0,.311,0,.622.005.932,0a6.325,6.325,0,0,0,1.176-.235,13.357,13.357,0,0,0,2.215-1.158,10.4,10.4,0,0,0,1.651-1.431,9.163,9.163,0,0,0,1.158-1.692,13.555,13.555,0,0,0,.939-2.469,6.722,6.722,0,0,0,.086-1.283,7.263,7.263,0,0,0-.255-1.329,7.487,7.487,0,0,0-.488-1.044,12.047,12.047,0,0,0-1.591-1.8,9.668,9.668,0,0,0-1.372-.944c.056.1.109.2.159.306a5.038,5.038,0,0,1,.479,2.341,3.406,3.406,0,0,1-.737,2.1,2.314,2.314,0,0,1-1.183.762,2.821,2.821,0,0,1-1.366-.039,6.6,6.6,0,0,1-1.443-.609,6.264,6.264,0,0,1-.884-.527,7.817,7.817,0,0,1-1.02-.9,4.124,4.124,0,0,1-.721-1.013,6.831,6.831,0,0,1-.319-.855,3.817,3.817,0,0,1-.012-2.1q-.219.124-.434.258a9.057,9.057,0,0,0-1.28,1.087,10.511,10.511,0,0,0-1.276,1.947,16.96,16.96,0,0,0-1.294,3.581,9.388,9.388,0,0,0-.129,1.725,4.56,4.56,0,0,0,.144.744A11.655,11.655,0,0,0,1021.14,955.2Z" transform="translate(-914.548 -736.058)" fill="#e0bc77"/>
    <path id="Path_2320" data-name="Path 2320" d="M980.885,1055.537l-.024-.045,0,.07C980.865,1055.552,980.877,1055.547,980.885,1055.537Z" transform="translate(-903.469 -767.57)" fill="#b1b0af"/>
    <path id="Path_2321" data-name="Path 2321" d="M981.246,1056.424a.185.185,0,0,1,.08.068c.007-.021.019-.039.027-.06l-.088-.162c-.009.051-.017.1-.026.154Z" transform="translate(-903.577 -767.789)" fill="#b1b0af"/>
    <path id="Path_2322" data-name="Path 2322" d="M1052.633,1149.177l-.044-.036-.047-.019Z" transform="translate(-923.705 -794)" fill="#b1b0af"/>
    <path id="Path_2323" data-name="Path 2323" d="M1065.169,1155.224c.133.094.26.2.391.294l-.519-.452-.057-.03.045.026-.046-.025C1065.044,1155.1,1065.107,1155.161,1065.169,1155.224Z" transform="translate(-927.217 -795.669)" fill="#b1b0af"/>
    <path id="Path_2324" data-name="Path 2324" d="M1065.8,1155.716l-.087-.08.079.075Z" transform="translate(-927.424 -795.839)" fill="#b1b0af"/>
    <path id="Path_2325" data-name="Path 2325" d="M1092.475,1143.294c.922.549,1.856,1.076,2.747,1.674.869.58,1.728,1.194,2.619,1.741.706.434,1.434.839,2.164,1.237.37-.885.757-1.765,1.163-2.63.169-.36.32-.728.478-1.092q.625-1.443,1.19-2.914c.491-1.284.914-2.585,1.354-3.889.344-1.023.656-2.05.978-3.078.347-1.116.709-2.226,1.012-3.356.56-2.1,1.043-4.211,1.542-6.325.507-2.147,1.062-4.28,1.646-6.408.515-1.87,1.138-3.712,1.542-5.6a70.666,70.666,0,0,0,.925-7.034c.174-1.847.255-3.714.328-5.57.073-1.923.2-3.855.381-5.77.177-1.853.51-3.684.8-5.521q.227-1.408.406-2.826c.047-.393.056-.791.09-1.186a.341.341,0,0,0,.006-.056c-.115-.025-.23-.053-.342-.081-.5-.129-.995-.275-1.494-.412-.925-.255-1.867-.471-2.806-.67-1.777-.342-3.561-.62-5.3-1.118-.815-.233-1.626-.491-2.442-.726-.393-.114-.79-.211-1.189-.3-.245,1.381-.517,2.758-.742,4.14-.289,1.772-.8,3.479-1.189,5.228-.053.261-.106.522-.162.782-.107.566-.21,1.132-.261,1.707-.059.642-.079,1.284-.116,1.928-.042.69-.072,1.38-.134,2.066a16.572,16.572,0,0,1-.263,1.691c-.213,1.155-.41,2.318-.645,3.471-.263,1.312-.641,2.587-.947,3.888-.255,1.321-.488,2.641-.852,3.937-.421,1.506-.774,3.025-1.128,4.55-.684,2.955-1.464,5.882-2.312,8.795-.639,2.2-1.4,4.365-2.125,6.541-.359,1.079-.659,2.172-.945,3.271-.2.753-.365,1.523-.578,2.275-.076.268-.157.533-.248.8a13.625,13.625,0,0,1-1.453,2.83q.529.332,1.057.666C1088.979,1141.051,1090.69,1142.231,1092.475,1143.294Z" transform="translate(-933.197 -774.876)" fill="#e0bc77"/>
    <path id="Path_2326" data-name="Path 2326" d="M1112.413,1151.347c.706.378,1.393.793,2.1,1.174.579.313,1.151.639,1.723.962.123-.3.245-.6.37-.906.243-.584.489-1.168.73-1.753.207-.5.411-1,.6-1.5.715-1.876,1.435-3.754,2.249-5.588.421-.95.861-1.892,1.267-2.848.412-.979.83-1.954,1.281-2.913a56.593,56.593,0,0,0,2.25-5.419q.984-2.846,1.806-5.739c.547-1.928,1.272-3.8,1.781-5.742.252-.965.515-1.923.768-2.887.244-.928.437-1.87.684-2.8.532-2.007,1.015-4.028,1.542-6.042.482-1.839,1.049-3.658,1.453-5.52.09-.457.182-.917.275-1.374.184-.993.342-2,.428-3a30.94,30.94,0,0,1,.581-3.647c-.04.185-.076.373-.115.558a20.628,20.628,0,0,0,.415-4.413,10.068,10.068,0,0,0-.319-1.7,14.834,14.834,0,0,1-.368-1.565,15.3,15.3,0,0,1-.188-2.142c-.009-.328,0-.659,0-.99-.347-.1-.7-.166-1.037-.294-.729-.278-1.456-.561-2.19-.819-.416-.146-.835-.28-1.254-.414-.4-.128-.808-.256-1.21-.394-.641-.219-1.261-.459-1.918-.619a12.54,12.54,0,0,0-1.374-.138c-.019.05-.034.1-.052.15-.114.312-.207.63-.3.952-.174.566-.362,1.13-.5,1.7-.078.479-.1.964-.137,1.452a1.461,1.461,0,0,1-.353.844c-.077.782-.152,1.565-.25,2.345-.115.906-.225,1.806-.3,2.714-.078.937-.146,1.873-.222,2.806-.078.973-.187,1.943-.26,2.916-.065.872-.123,1.749-.216,2.621-.092.894-.207,1.789-.319,2.683-.12,1-.191,2.007-.3,3.009-.222,2.008-.687,3.967-1.1,5.938-.381,1.831-.937,3.619-1.329,5.447l-.009.039-.005.026-.017.078c-.187.9-.384,1.806-.574,2.709-.718,3.524-1.525,7.045-2.546,10.5-.323,1.093-.676,2.176-1.012,3.266-.323,1.046-.564,2.117-.864,3.171s-.574,2.14-.9,3.2c-.336,1.1-.737,2.179-1.146,3.253-.236.617-.493,1.225-.747,1.833-.158.378-.318.756-.464,1.138-.307.8-.619,1.6-.918,2.406.07.035.139.073.209.108C1110.881,1150.56,1111.654,1150.94,1112.413,1151.347Z" transform="translate(-939.896 -775.3)" fill="#e0bc77"/>
    <path id="Path_2327" data-name="Path 2327" d="M1064.7,1126.833c.22.154.439.311.659.465.928.652,1.853,1.308,2.757,1.989.78.589,1.537,1.209,2.3,1.814s1.581,1.157,2.384,1.715c.149-.253.3-.506.444-.762a16.463,16.463,0,0,0,.859-2.953c.036-.157.071-.315.108-.473.311-1.328.661-2.652,1.1-3.944s.9-2.6,1.334-3.9c.443-1.337.841-2.686,1.239-4.037.636-2.15,1.29-4.295,1.842-6.471.261-1.023.519-2.049.83-3.058.32-1.049.726-2.069,1.076-3.107.287-.843.5-1.7.726-2.556.281-1.032.65-2.035.934-3.065.244-.889.418-1.8.619-2.7.191-.861.435-1.71.634-2.569.157-.939.23-1.886.328-2.837a27.974,27.974,0,0,1,.535-3.12q.307-1.384.707-2.74c.2-.672.423-1.334.586-2.015.182-.976.317-1.96.482-2.941q.235-1.417.448-2.84c.034-.233.076-.465.115-.7a3.1,3.1,0,0,1-.46-1.8,3.034,3.034,0,0,1,1.017-2.046c0-.037,0-.074.006-.111.023-.305.051-.61.054-.917-.35-.073-.692-.174-1.037-.278-1-.3-2.01-.591-3.011-.894-.891-.272-1.775-.56-2.658-.852-.732-.244-1.472-.5-2.223-.7a9.183,9.183,0,0,0-1.729-.031c-.676.04-1.352.048-2.028.049-.007.023-.015.046-.022.069s0,.024-.005.035c-.1.653-.168,1.314-.25,1.967a14.935,14.935,0,0,1-.594,2.644c-.235.726-.566,1.432-.855,2.142-.275.673-.547,1.351-.813,2.03-1.34,3.457-2.543,6.962-3.8,10.452-.643,1.791-1.385,3.541-2.083,5.312-.667,1.688-1.475,3.317-2.3,4.932-.664,1.363-1.287,2.745-1.884,4.141-.656,1.525-1.36,3.031-2.061,4.533a52.428,52.428,0,0,1-2.63,5.086c-.7,1.161-1.446,2.3-2.179,3.441-.192.3-.385.595-.574.9-.393.629-.8,1.251-1.2,1.877l-.028.043-.391.613c1.386,1.091,2.824,2.119,4.167,3.261,1.559,1.323,3.2,2.529,4.856,3.723C1063.591,1126.054,1064.148,1126.442,1064.7,1126.833Z" transform="translate(-924.121 -771.209)" fill="#e0bc77"/>
    <path id="Path_2328" data-name="Path 2328" d="M960.834,984.182q-.041-.124-.084-.248l.294.886-.184-.563q.218.658.436,1.313c.121.36.247.721.379,1.078q.334.906.746,1.781a14.358,14.358,0,0,0,.7,1.328,8.613,8.613,0,0,0,.959,1.168c.167.133.337.258.515.377.088.033.176.064.267.093l.092.008.121-.025c.1-.045.187-.095.279-.145.034-.018.068-.034.1-.052.649-.468,1.274-.967,1.932-1.422l.381-.262.174-.12c.463-.317.923-.637,1.366-.981.622-.487,1.253-.964,1.9-1.424.6-.426,1.211-.83,1.8-1.259.028-.019.053-.042.08-.062.528-.388,1.026-.809,1.535-1.219,1.063-.853,2.173-1.643,3.227-2.5a30.332,30.332,0,0,0,2.837-2.586c.018-.019.038-.036.056-.055a8.053,8.053,0,0,0,.937-1.267,4.812,4.812,0,0,0,.166-.459,2.712,2.712,0,0,0,.026-.333,3.376,3.376,0,0,0-.078-.421,4.379,4.379,0,0,0-.238-.479,7.076,7.076,0,0,0-.8-.879c-.812-.734-1.612-1.478-2.419-2.217a25.236,25.236,0,0,1-2.865-2.45c-.393-.449-.726-.945-1.091-1.413-.431-.55-.953-1.018-1.384-1.565a6.922,6.922,0,0,1-.791-1.2,4.137,4.137,0,0,1-.465-1.331,4.851,4.851,0,0,1,.031-1.466,9.73,9.73,0,0,1,.291-1.163,10.921,10.921,0,0,1,.911-2.061,7.021,7.021,0,0,1,.519-.822,4.436,4.436,0,0,0,.409-.544.937.937,0,1,1,1.435,1.194,4.072,4.072,0,0,0-.2.357,10.546,10.546,0,0,0-.737,2.108,8.483,8.483,0,0,0-.139,1.386,3.652,3.652,0,0,0,.068.375,4.406,4.406,0,0,0,.21.431c.616.829,1.448,1.444,2.107,2.236a24.315,24.315,0,0,0,1.707,2.03c.809.708,1.618,1.412,2.372,2.178s1.525,1.486,2.209,2.3a4.733,4.733,0,0,1,.976,4.856,11.681,11.681,0,0,1-2.072,3.025c-.919,1.028-1.887,2.018-2.851,3.005s-1.923,2-2.9,2.986c-.856.855-1.741,1.682-2.638,2.495-.2.177-.387.358-.583.533-.566.507-1.116,1.032-1.7,1.522-.609.519-1.25,1-1.867,1.509-.154.129-.313.247-.469.37q-.523.413-1.075.793a14.18,14.18,0,0,0,.87,1.87c.342.6.7,1.181,1.058,1.765.129.21.248.426.38.635a23.067,23.067,0,0,1,1.194,2c.342.664.656,1.34,1,2s.706,1.306,1.021,1.979a16.456,16.456,0,0,0,.925,1.738c.3.448.631.878.916,1.332.312.487.6.99.869,1.5.525.984,1.051,1.965,1.6,2.938.374.665.731,1.342,1.089,2.017.153.286.311.57.464.857.522.99,1.043,1.971,1.643,2.916.611.914,1.265,1.8,1.817,2.753.5.863.99,1.738,1.519,2.587.676,1.009,1.461,1.934,2.218,2.885.863,1.079,1.741,2.15,2.582,3.246.86,1.122,1.649,2.3,2.543,3.4,1.78,2.186,3.768,4.2,5.361,6.541a19.973,19.973,0,0,0,1.25,1.668c.471.558.975,1.082,1.483,1.606a39.655,39.655,0,0,1,2.823,3.04q1.3,1.648,2.663,3.243c.914,1.066,1.884,2.089,2.767,3.185s1.728,2.206,2.672,3.246c.919,1.015,1.847,2.027,2.8,3.011.333.346.649.707.975,1.058.831.782,1.662,1.563,2.48,2.359.9.869,1.837,1.693,2.745,2.551.769.729,1.546,1.451,2.342,2.152l.077.07c.794.688,1.6,1.359,2.405,2.041l.03-.047c.285-.457.568-.916.87-1.364.042-.062.085-.123.128-.185.419-.619.846-1.232,1.27-1.848.38-.55.754-1.1,1.137-1.653a41.554,41.554,0,0,0,2.517-4.166c.973-1.935,1.935-3.878,2.843-5.846.448-.973.911-1.94,1.4-2.9.533-1.051,1.1-2.08,1.643-3.128.12-.238.244-.479.365-.718.328-.667.642-1.34.93-2.027.726-1.719,1.484-3.426,2.145-5.173s1.321-3.518,1.931-5.3q.9-2.616,1.727-5.257.383-1.214.741-2.439c.2-.7.44-1.4.608-2.1a5.7,5.7,0,0,0,.065-1.093c-.056-.763-.115-1.522-.129-2.285-.008-.418-.025-.833-.045-1.25-.014-.124-.042-.244-.064-.37a2.18,2.18,0,0,1-.019-.254l-1-.428c-.762-.326-1.522-.654-2.29-.962-.751-.3-1.509-.572-2.268-.847-.39-.143-.78-.283-1.169-.429a20.412,20.412,0,0,1-2.925-1.387,49.55,49.55,0,0,1-4.087-2.9c-.7-.55-1.491-1.172-2.221-1.842-.6-.558-1.18-1.135-1.76-1.712l-.118-.112c-.513-.538-.925-1-1.293-1.438a17.253,17.253,0,0,1-1.379-2.01,27.453,27.453,0,0,1-2.375-5.728,21.122,21.122,0,0,1-.454-2.574c-.078-.84-.12-1.74-.123-2.75a31.035,31.035,0,0,1,.379-3.395c.19-1.2.409-2.29.672-3.322a62.6,62.6,0,0,1,2.319-5.93c.2-.471.406-.944.6-1.418q.261-.615.513-1.234c.044-.108.09-.217.135-.326q.863-1.572,1.768-3.121c.78-.9,1.571-1.786,2.345-2.686q1.184-1.376,2.39-2.732c.479-.528.955-1.061,1.431-1.594q.788-.849,1.573-1.7c.364-.27.727-.544,1.079-.826,1.418-1.135,3.266-2.652,4.962-4.314.776-.763,1.794-1.772,2.784-2.821.356-.379.709-.766,1.062-1.153.328-.359.656-.721.99-1.077.516-.546,1.015-1.133,1.5-1.7l.434-.5c.586-.678,1.234-1.323,1.862-1.943l.1-.1a44.435,44.435,0,0,1,5.007-4.261c.3-.216.609-.423.92-.625.667-.664,1.331-1.326,2-1.979,1.926-1.873,3.961-3.609,5.7-5.063l.987-.816.634-.53q.719-.593,1.43-1.2l.253-.213.139-.12a17.641,17.641,0,0,1-2.527-2.29,14.747,14.747,0,0,1-1.437-1.953c-.05.032-.1.064-.157.093q-.682.365-1.355.75c-.433.263-.872.516-1.311.767a6.238,6.238,0,0,1-1.09.5c-.409.143-.824.266-1.242.387-.53.151-1.051.334-1.589.46a1.325,1.325,0,0,1-1.01-.269,1.368,1.368,0,0,1,.651-2.442c.356-.05.718-.05,1.074-.1.286-.042.567-.1.848-.161a7.094,7.094,0,0,0,1.535-.672l-.269.16.63-.37c.2-.12.4-.241.6-.36l-.055.032.269-.159-.214.128c.491-.287.986-.563,1.489-.834-.127-.245-.262-.484-.377-.737a19.075,19.075,0,0,1-1.537-5.074,15.2,15.2,0,0,1-.123-2.9,11.056,11.056,0,0,1,.469-2.481,21.871,21.871,0,0,1,.684-2.226c.108-.283.236-.557.352-.835a1.442,1.442,0,0,1,.065-.309,7.193,7.193,0,0,1,.563-1.43,4.064,4.064,0,0,1,.388-.534c.018-.053.034-.108.053-.16a4.382,4.382,0,0,1,.88-1.43,8.477,8.477,0,0,1,.847-.822c.283-.23.583-.434.889-.636.264-.176.542-.343.824-.5a3.471,3.471,0,0,1,.3-.212l.195-.113a4.234,4.234,0,0,0,1.089-.383c.072.014.144.024.217.034.094.013.189.015.285.021.012,0,.024-.01.037-.014.367-.118.737-.225,1.11-.323.066-.017.133-.03.2-.045l.082-.03a3.929,3.929,0,0,1,.387-.115c.075-.016.151-.034.227-.053.115-.025.233-.042.351-.062l.024,0a.163.163,0,0,1,.1.046c.258-.039.517-.075.777-.117.353-.056.706-.1,1.059-.151a7.858,7.858,0,0,1,1.052-.084c.292,0,.584.009.875.019h0a8.984,8.984,0,0,0,2.4-.563l.014-.006a8.163,8.163,0,0,0,.96-.5c.03-.018.065-.031.095-.049l.13-.031c.122-.1.238-.207.358-.311.2-.174.41-.344.607-.525.1-.1.2-.192.291-.293.115-.126.221-.255.328-.385.221-.263.44-.527.662-.79.024-.029.051-.057.076-.087s.03-.067.048-.1a8.3,8.3,0,0,1,.7-1.068c.339-.432.675-.866,1.048-1.273q.349-.379.717-.744c-.077-.079-.141-.16-.221-.239a5.134,5.134,0,0,0-.647-.518,8.53,8.53,0,0,0-1.2-.749,5.518,5.518,0,0,0-1.209-.437,3.29,3.29,0,0,0-1.415-.536,4.982,4.982,0,0,0-.679-.042,10.862,10.862,0,0,0-2.234.292,37.935,37.935,0,0,0-4.928,1.343,32.925,32.925,0,0,0-5.518,2.537c-1.5.619-3.112,1.3-4.7,2.1l-.494.246c-.7.351-1.427.716-2.122,1.108-.426.244-.85.488-1.275.735l-1.032.591c-.709.406-1.415.819-2.122,1.231-.844.49-1.69.984-2.54,1.466l-.09.053-.1.05c-1.38.589-2.52,1.094-3.594,1.587-1.049.482-2.1.965-3.138,1.466-1.194.578-2.389,1.206-3.44,1.758-.942.49-1.873,1-2.806,1.5-.852.46-1.7.919-2.559,1.371l-.2.107-.2.106-.224.09c-.278.11-.553.216-.822.345-.6.292-1.169.62-1.791.987-.143.084-.283.168-.424.255-.274.1-.552.207-.83.309-.583.213-1.163.434-1.744.656-1.012.384-2.061.782-3.106,1.133-.754.253-1.553.491-2.377.7a17.428,17.428,0,0,1-2.389.21l-.4.017c-.5.022-1,.031-1.505.031-.482,0-.965-.009-1.444-.019a9.754,9.754,0,0,1-1.612-.258,11.119,11.119,0,0,0-2.1-.227l-.034,0-.263-.012-.261-.075.037.014-.379-.126a16.324,16.324,0,0,0-2.422-.63,6.623,6.623,0,0,0-1.052-.079,12.132,12.132,0,0,0-2.225.25,19.06,19.06,0,0,0-2.874.765,11.072,11.072,0,0,0-2.083,1.113c-.2.129-.4.256-.609.378-.538.286-1.088.547-1.64.807l-.659.314a34.857,34.857,0,0,0-3.2,1.8c-.774.484-1.545.978-2.313,1.474-1.133.729-2.307,1.486-3.485,2.187l-.97.581c-.6.359-1.2.718-1.8,1.068a33.872,33.872,0,0,0-2.958,1.99c-.538.4-1.071.8-1.6,1.206-.373.283-.746.566-1.122.847l-.325.244c-.659.487-1.343.995-1.979,1.539-.768.653-1.486,1.349-2.147,2-.406.373-.821.732-1.236,1.094a29.908,29.908,0,0,0-2.378,2.223c-.451.482-.863,1.015-1.265,1.528l-.207.266c-.228.29-.468.581-.721.88.351-.047.7-.088,1.056-.111q.554-.035,1.106-.034c.572,0,1.144.025,1.717.063a1.478,1.478,0,1,1-.2,2.95c-.3-.019-.6-.031-.9-.042-.5-.019-1.006-.028-1.51-.008-.553.061-1.1.14-1.653.22-.285.042-.57.083-.856.122-.087.011-.17.031-.256.045-.46.069-.913.16-1.361.269-.295.072-.591.142-.883.233-.3.111-.591.236-.881.362a12.82,12.82,0,0,0-1.429.712c-.291.205-.568.431-.85.652-.154.121-.316.231-.467.357-.264.221-.51.462-.76.7-.159.149-.329.288-.483.444a10.759,10.759,0,0,0-.812,1.124c-.434.676-.815,1.387-1.188,2.1-.066.137-.122.277-.185.414-.384.828-.733,1.669-1.035,2.531q-.224.645-.43,1.293c-.027.084-.054.169-.08.253-.142.462-.276.927-.387,1.4-.09.492-.149.984-.192,1.477a28.047,28.047,0,0,0-.047,3.61c0,.067,0,.135.006.2.014.305.021.611.033.917.027.66.055,1.321.071,1.979.008.391.012.779.018,1.169.006.447.015.894.035,1.341a20.033,20.033,0,0,0,.267,2.1c.1.52.228,1.027.373,1.532.007.022.013.045.02.067.034.116.062.232.1.347.129.357.272.708.395,1.068.164.476.322.952.48,1.429-.017-.052-.033-.1-.051-.156l.185.555c-.044-.133-.09-.266-.134-.4.254.752.5,1.509.74,2.263C960.733,983.874,960.784,984.028,960.834,984.182Zm40.051-47.5a23.861,23.861,0,0,1,1.6-3.563,10.388,10.388,0,0,1,1.27-1.788,8.941,8.941,0,0,1,1.748-1.453c-.081.052-.162.1-.243.155l.25-.16-.007.005a7.917,7.917,0,0,1,1.448-.77,6.067,6.067,0,0,1,1-.32,3.631,3.631,0,0,1,.78-.064l.078-.067a4.6,4.6,0,0,1,1.251-.791,4.405,4.405,0,0,1,.891-.278,8.217,8.217,0,0,1,.939-.075l.116,0a5.185,5.185,0,0,1,1.272.187,3.607,3.607,0,0,1,.751.286,6.422,6.422,0,0,1,1.118.684c.216.169.429.339.642.513.53.423,1.048.858,1.537,1.332a10.751,10.751,0,0,1,1.166,1.38,8.22,8.22,0,0,1,1.679,4.045,7.442,7.442,0,0,1-.159,2.325,10.666,10.666,0,0,1-.645,1.934c-.3.693-.6,1.385-.953,2.052a8.77,8.77,0,0,1-1.312,1.828,10.536,10.536,0,0,1-1.531,1.472c-.639.465-1.295.934-1.974,1.34a7.588,7.588,0,0,1-1.906.827,9.52,9.52,0,0,1-1.931.241c-.668.046-1.338.1-2,.079a7.757,7.757,0,0,1-2.249-.39,9.4,9.4,0,0,1-2.159-1.007,6.9,6.9,0,0,1-1.519-1.365,6.321,6.321,0,0,1-1.085-1.962,8.885,8.885,0,0,1,.137-6.628Z" transform="translate(-897.048 -723.855)" fill="#e0bc77"/>
    <path id="Path_2329" data-name="Path 2329" d="M1156.911,933.368l.1-.175-.069.118-.037.065Z" transform="translate(-953.166 -733.046)" fill="#b1b0af"/>
    <path id="Path_2330" data-name="Path 2330" d="M1151.241,900.995l.1.061-.039-.04Z" transform="translate(-951.566 -723.956)" fill="#b1b0af"/>
    <path id="Path_2331" data-name="Path 2331" d="M1140.463,947.157l.054-.034.008-.011Z" transform="translate(-948.524 -736.975)" fill="#b1b0af"/>
    <path id="Path_2332" data-name="Path 2332" d="M1145.243,942.941l-.115.021c0,.009.009.016.012.025l.026-.012Z" transform="translate(-949.841 -735.797)" fill="#b1b0af"/>
    <path id="Path_2333" data-name="Path 2333" d="M1156.858,933.508v0l.034-.058,0,0Z" transform="translate(-953.152 -733.117)" fill="#b1b0af"/>
    <path id="Path_2334" data-name="Path 2334" d="M1132.38,932.547c.4-.258.784-.552,1.171-.832a11.054,11.054,0,0,0,1.07-.867c.37-.387.72-.792,1.07-1.2a10.155,10.155,0,0,0,.962-1.349,8.851,8.851,0,0,0,.59-1.443,11.258,11.258,0,0,0,.329-2.281,6.575,6.575,0,0,0-.141-1.113,8.364,8.364,0,0,0-.587-1.4,3.984,3.984,0,0,0-.319-.429c-.127-.114-.258-.223-.394-.324l-.114-.016c-.21.02-.418.056-.628.094a1.609,1.609,0,0,1-.873-.093,4.978,4.978,0,0,1-.057.673,15.6,15.6,0,0,1-.489,1.93,17.058,17.058,0,0,1-.577,1.869,12.26,12.26,0,0,1-.917,1.862,7.826,7.826,0,0,1-2.456,2.425,7.384,7.384,0,0,1-3.653,1.214,4.544,4.544,0,0,1-1.78-.241c-.052-.019-.1-.045-.148-.066a8.055,8.055,0,0,1-1.094-.564,7.972,7.972,0,0,1-1.368-1.128,5.815,5.815,0,0,1-1.332-1.73c-.069-.147-.129-.3-.187-.45-.3.042-.591.085-.88.149-.1.034-.188.07-.28.113a3.175,3.175,0,0,0-.252.2c-.025.029-.05.059-.074.09s-.032.076-.048.115a5.822,5.822,0,0,0-.11.954.162.162,0,0,1-.009.146c0,.01,0,.02,0,.03a8.294,8.294,0,0,0,.241,1.644c.031.083.063.166.1.248.077.121.152.243.236.36.146.207.292.415.44.619.247.339.518.659.793.973.3.344.6.681.9,1.023.118.134.244.261.365.392.166.181.327.365.5.54-.011-.011-.019-.022-.031-.034.154.146.309.292.474.426.087.07.175.136.265.2.058.024.117.047.176.07.143.053.289.1.434.152.087.031.174.062.263.087.115.031.228.065.342.1-.014-.006-.028-.009-.045-.015.158.041.316.079.476.112.123,0,.245,0,.368,0l.111.008a10.976,10.976,0,0,0,1.113-.2c.6-.169,1.181-.36,1.764-.57a7.363,7.363,0,0,0,.735-.275c.236-.109.459-.241.687-.37l-.036.021.49-.288c-.067.039-.137.081-.208.121.472-.281.931-.575,1.391-.869C1131.564,933.1,1131.965,932.814,1132.38,932.547Z" transform="translate(-942.411 -729.687)" fill="#e0bc77"/>
    <path id="Path_2335" data-name="Path 2335" d="M1156.789,933.526c-.059.1-.116.2-.174.3l.183-.316-.007.011-.01.018Z" transform="translate(-953.084 -733.136)" fill="#b1b0af"/>
    <path id="Path_2336" data-name="Path 2336" d="M1134.717,899.975c-.136-.011-.268-.019-.4-.027s-.25-.017-.376-.014c-.252.006-.5.023-.751.048l-.81.093c-.146.014-.292.034-.438.059-.1.015-.2.033-.3.051-.159.03-.318.065-.478.1-.093.022-.185.042-.278.07-.075.022-.151.048-.229.073-.146.047-.292.1-.437.149s-.3.1-.446.146c-.32.1-.634.216-.953.319l-.023.008c-.223.174-.441.367-.657.572-.036.035-.075.062-.111.1-.143.147-.3.314-.455.481-.055.059-.1.109-.16.169-.212.233-.427.482-.631.74-.075.093-.146.2-.219.293a13.911,13.911,0,0,0-.823,1.214c-.1.177-.2.363-.3.553-.022.042-.043.084-.065.126-.007.014-.014.029-.021.042-.093.182-.186.366-.273.558l-.171.39c-.171.387-.342.774-.541,1.147-.031.059-.065.118-.1.178.053,0,.106,0,.159.006a5,5,0,0,1,1.452.35,5.233,5.233,0,0,1,1.082.578,8.38,8.38,0,0,1,1.638,1.589,10.483,10.483,0,0,1,1.009,1.481,1.935,1.935,0,0,1,.3-.087,2.821,2.821,0,0,1,.458-.037,3.287,3.287,0,0,1,.772.1,2.433,2.433,0,0,1,.314.1c.022,0,.043,0,.065.005a8.823,8.823,0,0,1,1.665.381,3.271,3.271,0,0,1,1.651,1.337,10.135,10.135,0,0,1,1.152,2.649,6.306,6.306,0,0,1,.272,1.651,11.419,11.419,0,0,1-.092,1.784,14,14,0,0,1-.611,2.587,7.872,7.872,0,0,1-.555,1.349,14.461,14.461,0,0,1-.995,1.621,15.778,15.778,0,0,1-2.249,2.43,7.68,7.68,0,0,1-1.051.8,8.18,8.18,0,0,1-1.413.7,22.418,22.418,0,0,1-2.932.926c-.4.089-.8.189-1.2.266-.034.018-.066.038-.1.057l-.319.171a6.411,6.411,0,0,1-.9.423c-.163.056-.331.106-.5.148-.141.037-.284.065-.426.093a7.713,7.713,0,0,1-1.009.165c-.185.014-.365.026-.55.031a4.624,4.624,0,0,1-.479-.011,13.183,13.183,0,0,1-2.248-.289l-.015-.005-.03,0a3.116,3.116,0,0,1-.871-.325c-.039-.021-.077-.042-.115-.064a5.029,5.029,0,0,1-.528-.275c-.1-.062-.194-.123-.288-.191-.049-.037-.1-.078-.144-.118a.26.26,0,0,1-.075-.011.7.7,0,0,1-.141-.086c-.007-.006-.016-.009-.024-.015a2.911,2.911,0,0,1-.336-.342c-.076-.084-.144-.174-.213-.263-.042-.051-.082-.1-.118-.151-.067-.1-.138-.2-.2-.306-.037-.05-.076-.1-.11-.154q-.181-.294-.362-.583l-.006-.01c-.113-.164-.223-.328-.33-.5a15.042,15.042,0,0,1-1.044-1.808c-.075-.16-.143-.322-.2-.488s-.106-.317-.154-.477c-.056-.193-.1-.39-.143-.586-.02-.076-.031-.154-.045-.233s-.031-.169-.042-.253c-.022-.2-.042-.4-.053-.609-.012-.174-.015-.35-.015-.524a2.233,2.233,0,0,1,.051-.547c.008-.031.02-.062.03-.093a2.75,2.75,0,0,1-.019-.668,2.412,2.412,0,0,1,.438-1.141,3.024,3.024,0,0,1,1.934-1.163c.158-.032.319-.057.479-.082a5.741,5.741,0,0,1-.125-.571,7.32,7.32,0,0,1-.07-.993,6.889,6.889,0,0,1,.275-1.9,17.808,17.808,0,0,1,.69-2.109c.057-.136.117-.271.178-.4a4.983,4.983,0,0,1-.728.1c-.712.045-1.425,0-2.137-.014-.076,0-.151-.009-.228-.011-1.469.413-3.011.5-4.493.869-.45.315-.889.646-1.309,1.006-.055.047-.1.1-.158.147-.108.174-.217.347-.325.523-.132.23-.261.462-.4.693l.025-.042a18.874,18.874,0,0,0-1.71,3.891,12.356,12.356,0,0,0-.382,2.417,16.672,16.672,0,0,0,.5,3.493,21.569,21.569,0,0,0,1.78,4.217c.126.219.255.435.382.654a13.968,13.968,0,0,0,1.857,2.484c.069.057.136.118.207.175.524.421,1.057.83,1.593,1.237l.07.053.1.054c.1.055.2.11.3.161.233.118.468.235.7.347s.482.227.726.339l.291.126c.1.042.194.087.291.126.466.188.931.373,1.407.532.2.067.4.134.6.2l.235.051c.3.059.6.106.9.151.283.045.569.09.855.137s.547.1.822.146c.294.053.589.107.886.149.107.014.214.019.322.031a.159.159,0,0,1,.157,0c.013.008.027.014.04.023.123.01.245.026.367.034.14.009.28.009.418.011.154,0,.308,0,.462,0,.281,0,.563,0,.847,0s.535-.019.8-.05c.151-.02.3-.039.449-.068s.286-.053.429-.084c.408-.083.812-.184,1.216-.286.061-.033.122-.065.182-.1.171-.09.334-.187.5-.291.185-.118.37-.235.546-.367.154-.11.3-.229.452-.348l-.009.006c.113-.093.224-.188.331-.291a3.953,3.953,0,0,0,.272-.3c.09-.11.172-.225.258-.337s.185-.247.28-.367.174-.213.261-.319c.182-.225.373-.443.56-.662s.4-.448.6-.665a2.3,2.3,0,0,1,.168-.159c.047-.045.1-.092.146-.135.11-.1.219-.193.337-.281.241-.182.482-.367.737-.527a8.875,8.875,0,0,1,.813-.465c.294-.149.594-.289.9-.423h0a6.626,6.626,0,0,1,.715-.285,6.178,6.178,0,0,1,.866-.185l-.028.005.433-.076c.325-.06.652-.118.972-.2.1-.024.2-.052.294-.079s.185-.077.278-.113c.328-.123.659-.244.993-.356q.214-.073.434-.141c.257-.14.519-.269.78-.4l.157-.121c.112-.087.227-.165.341-.247.087-.062.177-.126.266-.187.142-.1.282-.2.423-.294a31.079,31.079,0,0,0,2.971-4.237l.039-.069c.045-.079.091-.157.136-.235l.029-.05-.017.029.031-.054c.058-.1.111-.2.169-.306.012-.021.024-.044.036-.066.1-.237.206-.469.3-.71l-.01.019c.062-.177.12-.353.171-.535s.09-.37.132-.555a.175.175,0,0,1,.073-.1c.006-.054.019-.107.025-.161s.008-.085.013-.126c.015-.225.032-.449.049-.673.01-.137.017-.274.029-.411.045-.476.093-.953.144-1.427,0,.014,0,.031-.006.047.017-.191.037-.381.053-.572.019-.221.034-.443.056-.662.01-.092.019-.185.028-.276-.007-.018-.025-.031-.025-.051q.029-.648.053-1.3c.014-.337.02-.675.042-1.015s.045-.706.062-1.063c.009-.154.016-.308.019-.459.006-.174.006-.345,0-.519,0-.339-.011-.678-.028-1.015s-.039-.662-.053-.993c-.009-.174-.017-.344-.025-.515s-.023-.317-.037-.474-.039-.314-.062-.468-.047-.309-.071-.463c-.024-.108-.049-.215-.072-.325s-.054-.193-.079-.291c-.047-.174-.1-.35-.165-.521-.039-.107-.073-.219-.118-.323s-.087-.21-.132-.314c-.07-.174-.151-.342-.227-.51l0,0c-.1-.212-.207-.427-.316-.639-.045-.093-.1-.182-.146-.272s-.106-.2-.165-.3c-.11-.182-.216-.364-.331-.541-.138-.21-.272-.421-.412-.628-.171-.258-.339-.52-.509-.782-.138-.118-.275-.237-.411-.357-.152-.134-.306-.269-.454-.409-.08-.079-.165-.154-.245-.233a.249.249,0,0,1-.083-.032c-.465-.367-.934-.732-1.413-1.082l.037.028c-.266-.177-.538-.35-.822-.5-.133-.072-.273-.128-.41-.189-.02,0-.037.016-.057.01-.118-.034-.236-.067-.353-.107s-.216-.078-.322-.123c-.089-.037-.174-.089-.261-.134-.113-.026-.226-.053-.34-.073C1135.45,900.057,1135.083,900.011,1134.717,899.975Z" transform="translate(-938.522 -723.657)" fill="#e0bc77"/>
    <path id="Path_2337" data-name="Path 2337" d="M1128.784,917.789l-.139-.028a1.788,1.788,0,0,1-1-.541c-.137-.051-.274-.1-.412-.149-.076-.006-.15-.019-.227-.022-.512-.028-1.028-.033-1.541-.036a6.4,6.4,0,0,0-1,.433,8.652,8.652,0,0,0-1.4,1.1,5.964,5.964,0,0,0-.578.752,3.928,3.928,0,0,0-.184.4c-.029.085-.054.172-.081.258-.011.051-.022.1-.032.152a.732.732,0,0,1-.079.2l0,.011a10.1,10.1,0,0,0-.308,2.182,5.9,5.9,0,0,0,.179,1.183,1.158,1.158,0,0,1,.181.1c.021,0,.043-.011.065-.011a1.372,1.372,0,0,1,.928.249,1.249,1.249,0,0,1,.232,1.758,1.39,1.39,0,0,1-.436.363,7.414,7.414,0,0,0,2.008,1.99,6.383,6.383,0,0,0,1.087.5c.02.007.039.016.059.023a3.445,3.445,0,0,0,.507.06,6.148,6.148,0,0,0,1.384-.2,7.05,7.05,0,0,0,1.319-.525,6.889,6.889,0,0,0,1.809-1.808,6.758,6.758,0,0,0,.5-1.237,12.274,12.274,0,0,0,.246-1.415,1.451,1.451,0,0,1-.083-.581c0-.034,0-.067,0-.1a6.4,6.4,0,0,0-.148-1.285,5.449,5.449,0,0,0-.357-.939c-.282-.421-.631-.795-.945-1.192-.154-.2-.316-.388-.481-.578-.212-.244-.428-.485-.65-.719-.121-.113-.245-.221-.374-.324Z" transform="translate(-943.253 -728.478)" fill="#e0bc77"/>
    <path id="Path_2338" data-name="Path 2338" d="M1121.384,938.059l.017.013,0,0-.087-.1Z" transform="translate(-943.12 -734.396)" fill="#b1b0af"/>
  </g>
</svg>
