<svg id="Group_2798" data-name="Group 2798" xmlns="http://www.w3.org/2000/svg" width="555.745" height="565.555" viewBox="0 0 555.745 565.555">
  <g id="Group_2019" data-name="Group 2019">
    <path id="Path_2280" data-name="Path 2280" d="M30.292,1021.329l.027.009,0,0Z" transform="translate(-21.414 -991.921)" fill="#b1b0af"/>
    <path id="Path_2281" data-name="Path 2281" d="M56.161,1044.251l.018.066-.018-.068Z" transform="translate(-32.521 -1001.763)" fill="#b1b0af"/>
    <path id="Path_2282" data-name="Path 2282" d="M27.568,1000.723a3.015,3.015,0,0,1,.714.188c-.05-.2-.1-.4-.163-.6a19.316,19.316,0,0,0-.846-1.82,16.985,16.985,0,0,1-.742-1.848c-.064-.176-.131-.354-.187-.535a2.211,2.211,0,0,1-.08-.542,1.43,1.43,0,0,1,.187-.755,1.63,1.63,0,0,1,.6-.6,2.939,2.939,0,0,1,1.38-.382l-.041,0,.074-.005.18-.013-.1.007a2,2,0,0,1,.777.071,2.8,2.8,0,0,1,.716.354,1.143,1.143,0,0,1,.083-.094,2.376,2.376,0,0,1,.068-.854,2.012,2.012,0,0,1,.64-.9,1.367,1.367,0,0,1,.875-.341c-.054-.094-.1-.191-.16-.284-.231-.371-.458-.744-.694-1.111-.056-.082-.1-.167-.16-.249-.286.025-.572.055-.858.072l-.8.049q-1.544.1-3.087.187c-1.351.078-2.608.116-3.84.116l-.535,0a1.69,1.69,0,0,0-.943.045c-.831.285-1.721.6-2.592.96a7.5,7.5,0,0,0-1.779.994,4.085,4.085,0,0,0-1.184,1.382,5.466,5.466,0,0,0-.316.93c-.011.208-.02.412-.022.615a2.825,2.825,0,0,0,.109.609,9.05,9.05,0,0,0,.932,2.207,9.435,9.435,0,0,0,1,1.437l.225.288c.5.649,1.072,1.331,1.687,2.024.723.81,1.485,1.586,2.268,2.341h0a1.14,1.14,0,0,1,.789.151c.147.078.294.153.441.228.106.046.215.084.323.124l.019,0c.3.019.593.022.89.011a4.477,4.477,0,0,0,.733-.153c.051-.022.1-.047.15-.074a3.555,3.555,0,0,0,.344-.325,2.834,2.834,0,0,0,.2-.29,2.974,2.974,0,0,0,.1-.357,12.849,12.849,0,0,1,.358-1.535A2.244,2.244,0,0,1,27.568,1000.723Z" transform="translate(-14.733 -978.649)" fill="#b1b0af"/>
    <path id="Path_2283" data-name="Path 2283" d="M56.6,1040.568l.023-.013h0Z" transform="translate(-32.709 -1000.176)" fill="#b1b0af"/>
    <path id="Path_2284" data-name="Path 2284" d="M469.047,1215.206c-.069-.178-.143-.357-.219-.53-.084-.14-.163-.279-.234-.424a2.9,2.9,0,0,1-.2-.466.937.937,0,0,1,.075-.709.84.84,0,0,1-.136-.194,1.1,1.1,0,0,1-.078-.762l-.082-.192a9.176,9.176,0,0,1-1.605-2.015,8.524,8.524,0,0,1-.437-.8l-.034-.069c-.125-.248-.252-.506-.4-.745-.189-.245-.39-.479-.62-.747-.261-.3-.531-.617-.769-.952a9.276,9.276,0,0,1-1-1.674c-.136-.294-.265-.591-.394-.887l-.254-.581c-.564-1.269-1.007-2.24-1.435-3.15l-.138-.283-.092-.187c-.14-.281-.312-.629-.448-.968-.149-.372-.292-.746-.432-1.121-.167-.25-.334-.5-.5-.751-.526-.8-1.015-1.607-1.333-2.144-.395-.655-.818-1.31-1.229-1.943l-.312-.486c-.385-.6-.751-1.21-1.117-1.822l-.047-.08-.316-.531c-.9-1.489-1.9-2.92-2.858-4.3l-.352-.509c-1.048-1.5-2.118-3.107-3.179-4.77-.451-.7-.894-1.421-1.316-2.135l-.269-.357-.156-.209c-1.184-1.571-2.41-3.2-3.578-4.817q-1.317-1.832-2.654-3.649l-.152-.212c-1.429-1.953-2.9-3.972-4.315-5.983s-2.867-4.052-4.276-6.023l-.2-.283-.067-.094q-1.033-1.441-2.064-2.884c-.738-1.037-1.494-2.062-2.249-3.088l-.522-.711-.524-.711-.3-.417c-1.052-1.443-2.247-3.076-3.468-4.639s-2.45-3.143-3.676-4.712c-.4-.517-.834-1.023-1.253-1.511l-.062-.074-.288-.334-.071-.08-.038-.045c-.675-.787-1.351-1.571-2.035-2.356-2.033-2.329-4.152-4.643-6.2-6.88L408,1126.964q-2.4-2.752-4.781-5.531l-2.84-3.292c-1.58-1.83-2.915-3.323-4.2-4.7-.861-.921-1.732-1.828-2.606-2.737q-.7-.726-1.4-1.458c-.807-.845-1.629-1.678-2.452-2.512-.6-.609-1.2-1.21-1.787-1.819l-1.035-1.068c-1-1.032-1.995-2.066-3.007-3.085-2.659-2.668-5.557-5.094-8.358-7.438l-.452-.379q-4.457-3.732-8.909-7.447c-3.5-2.917-6.264-5.091-8.947-7.05-.775-.566-1.542-1.141-2.309-1.718-.72-.542-1.44-1.084-2.167-1.616s-1.431-1.068-2.142-1.607c-.744-.566-1.491-1.132-2.247-1.685s-1.532-1.132-2.294-1.705c-.786-.591-1.571-1.179-2.367-1.759-.5-.364-1-.713-1.507-1.063l-.559-.39c-.305-.214-.609-.428-.91-.644-.43-.308-.858-.613-1.292-.909l-.66-.448c-.512-.276-1-.546-1.484-.831-.518-.305-1.03-.613-1.545-.921s-1.025-.617-1.541-.92c-1.009-.542-2.053-1.057-3.06-1.556-.532-.263-1.063-.526-1.594-.794-1.8-.911-3.579-1.924-5.307-2.9l-.249-.143q-.977-.531-1.944-1.072l.1.071c-2.505-1.406-5.162-2.918-7.7-4.695-1.534-1.074-3.178-2.022-4.77-2.937-.682-.395-1.364-.787-2.04-1.19-.733-.439-1.464-.914-2.168-1.374-.341-.22-.68-.441-1.021-.66-.464-.3-.931-.588-1.4-.883.491.881.882,1.634,1.2,2.33.568,1.217,1.1,2.473,1.627,3.7l.555,1.3c.136.312.276.624.419.934.2.441.4.883.584,1.331.421,1.023.746,1.846,1.023,2.59.357.957.652,1.815.9,2.62.179.573.328,1.154.491,1.8l.207.807c.076.282.15.565.224.848l.111.422c.108.42.219.84.332,1.271l.22.808c.188.689.382,1.4.544,2.107q.267,1.17.519,2.342l.123.548.165.738c.164.724.369,1.626.524,2.494.349,1.977.617,3.895.8,5.7l.1,1.01c.152,1.446.325,3.085.386,4.663a47.958,47.958,0,0,1-.076,6.286l-.147,1.512-.043.446c-.12,1.239-.239,2.478-.342,3.718a55.5,55.5,0,0,1-.689,5.639c-.347,1.79-.734,3.716-1.213,5.673a118.723,118.723,0,0,1-3.339,11.641,31.111,31.111,0,0,1-2.4,5.078,23.748,23.748,0,0,1-3.57,4.724c-.789.814-1.609,1.6-2.506,2.417a8.259,8.259,0,0,1-1.062.837,11.332,11.332,0,0,1-1.035.577l-.116.06a3,3,0,0,1-.567.244,7.273,7.273,0,0,1-1.488.294c-.12.007-.241.009-.361.009-.273,0-.552-.014-.961-.047a8.878,8.878,0,0,1-2.977-.763,10.84,10.84,0,0,1-2.7-1.829,23.83,23.83,0,0,1-3.817-4.555,56.858,56.858,0,0,1-2.929-4.987c-1.105-2.115-2.119-4.28-3.1-6.374-.553-1.178-1.105-2.357-1.671-3.529q-1.254-2.588-2.505-5.18l-.145-.3-.057-.119c-.706-1.464-1.436-2.978-2.1-4.5-.714-1.641-1.381-3.336-2.037-5.181-.3-.845-.617-1.75-.872-2.653-.2-.695-.39-1.471-.617-2.517l-.082-.383a24.379,24.379,0,0,1-.493-2.765l-.011-.1c-.04-.395-.08-.789-.1-1.184a16.622,16.622,0,0,1,.042-1.906,9.6,9.6,0,0,1,.2-1.537,6.166,6.166,0,0,1,.727-1.907l.093-.154a5.1,5.1,0,0,1,.673-.942l.044-.043a10.194,10.194,0,0,1,.971-.882,5.364,5.364,0,0,1,.509-.362,6.592,6.592,0,0,1,1.354-.667,12.665,12.665,0,0,1,1.289-.317l.111-.024,1-.207a12.392,12.392,0,0,0,1.869-.637,14.256,14.256,0,0,0,2.031-1.368,5.539,5.539,0,0,0,.363-.427,6.783,6.783,0,0,0,.325-.672,7.057,7.057,0,0,0,.127-.948c0-.515-.029-1.038-.059-1.543h.006l-.011-.083c-.013-.2-.025-.4-.035-.593-.038-.714-.092-1.557-.205-2.389-.233-1.771-.491-3.379-.791-4.917a19.775,19.775,0,0,0-1.132-3.549,8.442,8.442,0,0,0-.717-1.053,7.25,7.25,0,0,0-.774-.648,5.768,5.768,0,0,0-.615-.309l-.067,0-.057,0a3.845,3.845,0,0,0-.313.231,7.491,7.491,0,0,0-.67.868,24.591,24.591,0,0,0-1.246,2.393c-.206.443-.449.958-.722,1.447a5,5,0,0,1-1.234,1.633,2.12,2.12,0,0,1-1.227.443,1.667,1.667,0,0,1-.186-.009,2.339,2.339,0,0,1-1.045-.422,7.512,7.512,0,0,1-1.013-.9l-.2-.2a12.828,12.828,0,0,1-1.951-2.337c-.14-.227-.27-.461-.4-.7q-.137-.251-.281-.5l-.165-.279c-.169-.288-.339-.578-.5-.869a21.688,21.688,0,0,1-1.086-2.321c-.662-1.6-1.266-3.247-1.819-4.788-.6-1.68-1.086-3.48-1.512-5.069l-.038-.142c-.248-.917-.484-1.837-.718-2.758-.145-.559-.272-1.124-.4-1.687-.084-.379-.169-.758-.261-1.134a1.3,1.3,0,0,1,.043-.882,1.174,1.174,0,0,1,.672-.613,1.054,1.054,0,0,1,.372-.065,1.126,1.126,0,0,1,1.124.778c.092.384.179.769.263,1.155l.014.061c.111.5.223,1,.345,1.488l.341,1.328.339,1.327c.4,1.553.818,3.158,1.255,4.772.42,1.543.931,3.136,1.382,4.54a31.885,31.885,0,0,0,1.736,4.279c.138.274.274.551.408.827a9.831,9.831,0,0,0,2.734,3.252,1.72,1.72,0,0,0,.215.1.223.223,0,0,0,.059.008l.059,0a.575.575,0,0,0,.075-.052c.029-.031.055-.064.082-.1a8.909,8.909,0,0,0,.557-1.339c.122-.425.227-.855.332-1.286l.051-.208c.056-.225.112-.449.171-.672a19.706,19.706,0,0,1,.852-2.544,6.839,6.839,0,0,1,.376-.776,4.672,4.672,0,0,1,.641-.928,3.789,3.789,0,0,1,1.438-.993,4.193,4.193,0,0,1,1.406-.259,3.375,3.375,0,0,1,.449.029,5.806,5.806,0,0,1,2.075.739,7.435,7.435,0,0,1,1.274.854,8.246,8.246,0,0,1,1.9,2.346,21.679,21.679,0,0,1,1.226,2.778,39.768,39.768,0,0,1,1.309,4.506c.1.44.214.874.341,1.36.105.4.208.8.3,1.2.2.851.381,1.774.564,2.9a12.993,12.993,0,0,1,.228,2.333l-.007.337a7.138,7.138,0,0,1-.13,1.557,9.692,9.692,0,0,1-.515,1.651,8.86,8.86,0,0,1-.823,1.425l-.138.208a3.9,3.9,0,0,1-.639.71c-.348.317-.64.579-.965.829a14.492,14.492,0,0,1-2.107,1.318,12.469,12.469,0,0,1-2.892,1.184c-.627.153-1.259.279-1.906.406l-.423.084a5,5,0,0,0-.507.157c-.125.08-.245.165-.361.254l-.156.178c-.029.058-.055.116-.082.175a11.014,11.014,0,0,0-.213,1.55,23.83,23.83,0,0,0,.559,4.526c.147.649.3,1.293.475,1.937s.391,1.3.6,1.922l.025.075.147.435c.594,1.761,1.129,3.207,1.685,4.551.73,1.769,1.5,3.521,2.289,5.206.39.831.768,1.666,1.148,2.5l.193.422c.316.695.633,1.389.955,2.081.471,1,.927,2.011,1.384,3.02l.162.357c.859,1.9,1.749,3.864,2.7,5.764a42.067,42.067,0,0,0,5.113,7.871,14.482,14.482,0,0,0,2.02,1.811,9.008,9.008,0,0,0,1.071.5,8.538,8.538,0,0,0,1.186.214c.134-.007.265-.02.393-.033.1-.034.2-.071.293-.113a10.614,10.614,0,0,0,1.521-1.161c.838-.824,1.568-1.574,2.233-2.293a21.8,21.8,0,0,0,1.793-2.29,36.391,36.391,0,0,0,2.035-3.876,37.949,37.949,0,0,0,1.513-4.134l.047-.145c.343-1.154.653-2.282.912-3.234.574-2.125,1.042-4.011,1.431-5.768l.124-.561c.357-1.613.725-3.28,1.017-4.933.319-1.788.484-3.63.647-5.443l.02-.239c.094-1.032.208-2.06.324-3.09.094-.825.185-1.651.265-2.478a78.1,78.1,0,0,0-.487-10.381c-.175-1.694-.373-3.614-.727-5.448-.328-1.726-.684-3.423-1.019-5l-.261-1.072c-.337-1.381-.685-2.759-1.032-4.135l-.3-1.179-.1-.392-.015-.06c-.182-.727-.37-1.477-.609-2.2-.278-.845-.6-1.754-.967-2.779-.388-1.069-.822-2.13-1.242-3.156l-.081-.2c-.245-.6-.491-1.211-.728-1.82-.592-1.521-1.247-3.147-2.026-4.731-.639-1.155-1.319-2.271-1.959-3.3a2.02,2.02,0,0,1-.3-1.064c-.1-.135-.189-.27-.288-.4-.582-.776-1.246-1.489-1.879-2.223-.676-.784-1.327-1.583-2.044-2.333-.839-.843-1.7-1.663-2.546-2.5a34.642,34.642,0,0,0-3.045-2.7c-1.8-1.4-3.556-2.867-5.448-4.141-.2-.108-.394-.214-.6-.309-1.286-.6-2.588-1.163-3.845-1.826-.653-.345-1.3-.68-1.977-.98-.208-.095-.415-.187-.623-.278a5.078,5.078,0,0,1-1.877-.55c-.606-.24-1.211-.466-1.8-.745l-.208-.082c-.535-.216-1.063-.45-1.6-.671a12.064,12.064,0,0,0-1.266-.39c-1.078-.312-2.109-.767-3.183-1.09a1.95,1.95,0,0,1-.446-.138,1.715,1.715,0,0,1-.931-.936,1.742,1.742,0,0,1,.243-1.694,2.185,2.185,0,0,1,.821-.62,4.242,4.242,0,0,1,.932-.3c.243-.061.49-.125.736-.165a18.654,18.654,0,0,1,1.868-.2c.256-.017.512-.024.767-.024.188,0,.375,0,.563.011a6.648,6.648,0,0,1,.791.053,12.04,12.04,0,0,1,2.01.526c.06,0,.119-.013.18-.013.079,0,.155.013.232.019-.725-.778-1.47-1.565-2.263-2.375-.894-.911-1.763-1.875-2.605-2.809-.816-.9-1.658-1.835-2.521-2.721-1.377-1.308-2.8-2.55-4.378-3.921-.452-.393-.892-.814-1.318-1.222-.31-.294-.617-.588-.931-.876-.74-.678-1.565-1.373-2.6-2.189a41.876,41.876,0,0,0-3.437-2.463l-.579-.368c-.9-.568-1.828-1.157-2.706-1.79-2-1.44-4.173-2.842-6.632-4.284l-.552-.323c-.3-.176-.6-.35-.894-.526l-.419-.194-.419-.193c-2.2-1.017-4.378-2.163-6.487-3.27l-1.573-.825-.564-.294c-1.311-.682-2.664-1.387-3.972-2.124l-.18-.073-.085-.021h.007c-.814-.345-1.623-.673-2.436-.987-1.173-.348-2.348-.684-3.524-1.019l-1.331-.379c-2.679-.774-5.475-1.694-8.793-2.9q-.9-.328-1.8-.666c-.693-.2-1.263-.383-1.8-.566-.649-.225-1.3-.455-1.941-.682-2.247-.792-4.569-1.609-6.9-2.287-.7-.2-1.4-.392-2.109-.581-.62-.165-1.239-.33-1.855-.506-1.326-.383-2.65-.776-3.972-1.166l-.515-.151c-2.427-.718-4.565-1.327-6.533-1.857-.484-.081-1-.159-1.518-.221q-1.454-.181-2.909-.332c-1.549-.167-3.172-.317-4.826-.442-1.065-.084-2.035-.124-2.962-.127l-.457-.007q-.468-.007-.936-.007c-.414,0-.829.009-1.242.031a27.933,27.933,0,0,0-5.249.851,6,6,0,0,0-.8.268l-.288.111c-.357.136-.669.27-.95.406-.582.281-1.153.577-1.726.876l-.466.243c-.544.277-1.085.56-1.627.845l-.548.288c-1.277.646-2.472,1.233-3.653,1.789-1.507.7-3.069,1.308-4.115,1.7-.745.278-1.513.51-2.258.733l-.091.027c-.555.167-1.132.339-1.692.535-.495.172-.979.359-1.464.548a24.214,24.214,0,0,1-2.628.907,24.366,24.366,0,0,1-2.886.3c-.633.041-1.349.085-2.035.172-1.065.13-2.184.314-3.082.462-.816.131-1.591.259-2.374.37-1.159.159-2.348.238-3.5.317l-.274.018c-.557.04-1.114.078-1.671.13a2.916,2.916,0,0,0-.8-.114c-.08,0-.158,0-.239.011-.842-.013-1.687-.018-2.53-.018-1.3,0-2.595.011-3.892.022l-1.447.011c-.586,0-1.173.009-1.759.016-.927.009-1.854.018-2.779.018-1.124,0-2.059-.013-2.949-.042-.637-.022-1.272-.038-1.908-.038-.67,0-1.262.016-1.808.051l-.775.047c-.849.051-1.676.1-2.487.13-.314.009-.631.011-.946.011-.669,0-1.337-.015-2.008-.033l-.085,0c-.657-.018-1.315-.036-1.975-.036-.434,0-.871.009-1.306.029-.762.034-1.52.04-2.229.04H93.406c-.424,0-.847,0-1.273.011s-.847.013-1.27.013c-.35,0-.7,0-1.052-.015l-.2-.009-.172-.006-.071,0-.127-.013-.14,0c-1.476-.074-2.976-.116-4.387-.151l-.771-.022-1.5-.045q-.722-.023-1.445-.022c-.432,0-.862,0-1.295.009l-.149,0c-.472,0-.947.009-1.422.009s-.945,0-1.417-.018c-1.371-.082-2.756-.272-4.095-.457-.426-.058-.829-.114-1.23-.165l-.092-.013c-.909-.116-1.85-.239-2.766-.314s-1.868-.116-2.7-.15l-.267-.009c-1.469-.078-2.909-.147-4.351-.147-.894,0-1.672.022-2.381.074-1.259.08-2.535.2-3.767.328l-.517.049c-.633.061-1.266.123-1.9.179-2.035.174-4.09.22-6.08.265l-1.068.025-.321.007-.234,0c-.779.021-1.579.046-2.373.086.124.107.243.219.358.332.16.158.321.314.475.475s.317.321.468.486l.056.061c.091.058.181.117.265.177a7.045,7.045,0,0,1,.638.5c.456.407.844.772,1.184,1.115.915.924,1.808,1.909,2.653,2.927.788.952,1.5,1.892,2.114,2.793a28.31,28.31,0,0,1,2.009,3.291,5.9,5.9,0,0,1,.513,1.258l.071.285a7.157,7.157,0,0,1,.152.741,3.907,3.907,0,0,1,.014.935,2.878,2.878,0,0,1-.213.874,4.412,4.412,0,0,1-.423,1.63,2.931,2.931,0,0,1-.258.57,3.5,3.5,0,0,1-.114.543,3.862,3.862,0,0,1-.612,1.3,3.43,3.43,0,0,1-.511.585,6.2,6.2,0,0,1-4.29,1.789H47a7.689,7.689,0,0,1-1.97-.29q-.575-.164-1.148-.348c-.472-.144-.942-.293-1.411-.443l-.4-.128-1.01-.323q-1.809-.532-3.619-1.041a2.238,2.238,0,0,1-.911-.388c-.2-.061-.409-.12-.614-.182l-.762-.232.192.161.219.183c.791.669,1.63,1.384,2.414,2.142.461.449.909.91,1.355,1.371l.177.181q.67.279,1.346.549c.433.174.866.345,1.3.517a1.516,1.516,0,0,1,.391-.055,3.636,3.636,0,0,1,1.121.245l.124.042,1.342.43.524.158c.308.092.616.185.879.268l.107.034.056.015.239.074.4.136-.092-.04.094.029.062.018.08.025,1.063.332c2.374.708,4.242,1.229,6.058,1.687,3.561.9,7.217,1.645,10.868,2.224q1.023.164,2.044.334l.228.038c1.176.193,2.393.393,3.59.562,1.474.208,2.981.389,4.311.548l1.146.136c.985.118,1.97.245,2.955.374.863.112,1.726.223,2.59.328,2.021.244,3.829.492,5.528.758l.114.02c1.775.282,3.61.575,5.434.762,1.941.2,3.692.344,5.351.443.66.02,1.32.022,1.979.025l.272,0c.543,0,1.087.007,1.63.021q2.04.05,4.079.114l.883.031.1,0c.734.026,1.493.052,2.238.052.321,0,.641-.007.963-.018a20.605,20.605,0,0,0,3.445-.448,21.827,21.827,0,0,0,4.323-1.312c.528-.279,1.059-.551,1.6-.811a8.854,8.854,0,0,1,2.382-.649,22.485,22.485,0,0,1,3.215-.317H126a3.006,3.006,0,0,1,2.014.681,2.935,2.935,0,0,1,.351,4.14,3.023,3.023,0,0,1-2,1.034l-.073.009c-1.036.146-1.968.281-2.893.456a5.014,5.014,0,0,0-.541.158c-.2.074-.39.159-.579.249l-.1.054-.1.05c-.432.229-.864.458-1.307.665a9.854,9.854,0,0,1-1.12.426,23.81,23.81,0,0,1-2.35.671l-.361.082a27.906,27.906,0,0,1-4.993.823q-.569.023-1.137.022c-1.112,0-2.244-.06-3.338-.117l-.162-.009c-.353-.02-.705-.039-1.059-.054-.891-.044-1.783-.1-2.672-.152-.729-.044-1.456-.087-2.184-.125-1.256-.054-2.734-.128-4.173-.274-1.494-.152-2.7-.3-3.781-.47-1.36-.217-2.748-.474-4.244-.785q-.8-.163-1.594-.333l-.177-.037c-.768-.163-1.536-.325-2.308-.481-1.375-.281-2.755-.546-4.137-.811l-1.249-.24-.994-.2-.28-.055c-.442-.087-.886-.174-1.327-.255-.341-.065-.685-.124-1.026-.184l-.08-.014-.27-.048c-.482-.086-.969-.173-1.48-.274-1.591-.312-3.57-.7-5.43-1.128-1.681-.387-3.5-.835-5.74-1.411-1.749-.451-3.455-.947-5.5-1.549-1.678-.495-3.478-1.037-5.283-1.647-.823-.279-1.6-.548-2.35-.814-.056-.008-.112-.015-.169-.024-.268-.035-.537-.058-.8-.1-.234-.036-.466-.054-.7-.1l-.1-.022-.11,0h.069l-.1,0c-.167,0-.335,0-.5.013a1.424,1.424,0,0,1-.1.142q-.039.047-.075.1a6.42,6.42,0,0,0-.359,1c-.01.06-.018.12-.025.18a4.665,4.665,0,0,0,.127.658c.029.1.056.208.084.312l-.034-.122c.045.164.087.327.127.492a1.015,1.015,0,0,1-.064.581c.071.154.146.305.216.459.114.248.228.492.344.738a24.843,24.843,0,0,0,1.29,2.374,23.531,23.531,0,0,0,3.565,4.211c.673.662,1.3,1.246,1.914,1.788a22.035,22.035,0,0,0,2.1,1.607,18.7,18.7,0,0,0,4.906,2.539,77.067,77.067,0,0,0,11.508,2.454l.566.092a1.921,1.921,0,0,0,.316.025l.07.024a29.576,29.576,0,0,0,3.336,1.228l.584.189c1.542.5,3.118.981,4.645,1.444l.35.107,1.526.463c1.647.526,3.308,1.124,4.913,1.7l.091.033c1.388.5,2.826,1.016,4.253,1.487,1.411.461,2.962.9,4.739,1.328.455.109.916.2,1.375.3l.165.036.542.111c.7.145,1.407.359,1.977.533,1.407.452,2.806,1.014,4.157,1.555l.216.089c.312.125.624.252.936.373q1.083.431,2.162.867c1.177.475,2.354.947,3.535,1.407,2.964,1.15,6.007,2.238,8.951,3.292l.185.067,2.14.767q1.19.425,2.374.862l.479.174c1.061.388,2.122.775,3.187,1.148l1.4.49c1.52.528,3.092,1.077,4.625,1.652,1.962.735,3.874,1.466,5.724,2.334,2.229,1.052,4.195,1.963,6.014,2.788,2.084.947,4.255,1.786,6.127,2.5,2.267.865,4.1,1.643,5.768,2.45,1.632.789,3.531,1.714,5.419,2.722.9.483,1.879,1.012,2.865,1.591.495.294.985.6,1.478.9l.149.091q.549.338,1.1.673l.252.154.075.047c1.65,1,3.355,2.029,5.086,2.953.593.321,1.19.635,1.785.95,1.079.571,2.407,1.275,3.656,1.966,1.968,1.1,3.9,2.2,5.69,3.22.9.515,1.808,1.012,2.715,1.507.89.486,1.772.969,2.646,1.467,3.783,2.162,7.2,4.1,10.71,5.942q1.589.833,3.183,1.65l.23.118c2.536,1.308,5.158,2.661,7.672,4.106,2.461,1.416,4.484,2.624,6.368,3.8q.659.417,1.322.831l.508.319,1.5.987c1.244.818,2.485,1.634,3.74,2.437l1.07.7.318.208c.442.288.885.577,1.331.86l.116.073c1.425.954,2.8,1.966,4.217,3.089,1.473,1.177,3.047,2.461,4.563,3.888.722.684,1.407,1.431,2.068,2.155.379.413.762.816,1.148,1.222q.425.444.847.9l.954,1.021.236.255c.878.94,1.754,1.879,2.621,2.831,1.242,1.393,2.452,2.853,3.622,4.264l.417.508,1.79,2.153q1.173,1.408,2.338,2.822c1.984,2.409,3.946,4.9,5.84,7.313l.051.064q1.267,1.608,2.536,3.219c.863,1.085,1.763,2.175,2.635,3.23l.147.18.883,1.07q1.2,1.459,2.418,2.9c.408.587.807,1.161,1.2,1.734l.328.475c1.262,1.83,2.693,3.905,4.1,5.865,1.556,2.157,3.23,4.359,4.705,6.306l.914,1.206q1.117,1.471,2.223,2.953c1.134,1.509,2.249,2.993,3.379,4.471,1.16,1.507,2.363,3.02,3.424,4.357l.332.417q.766.966,1.532,1.941c.854,1.081,1.821,2.3,2.746,3.524.644.844,1.27,1.705,1.9,2.565l.8,1.1c.843,1.143,1.654,2.385,2.37,3.479l.067.1c.9,1.382,1.754,2.744,2.6,4.164.281.468.557.939.831,1.406l.368.622c.969,1.649,1.973,3.355,3.029,5.013.734,1.154,1.482,2.3,2.234,3.441l.033.049c.834,1.273,1.7,2.59,2.523,3.9,2.911,4.612,6.045,9.538,9.237,14.312,1.59,2.374,3.233,4.757,4.884,7.077,1.576,2.211,3.232,4.3,5.236,6.765,1.754,2.149,3.451,4.418,5.185,6.936.829,1.2,1.6,2.479,2.285,3.6.653,1.081,1.393,2.307,2.173,3.45l.243.355.074.107c1.476,2.167,3,4.407,4.46,6.638,1.605,2.461,3.1,4.955,4.616,7.507.945,1.594,1.89,3.23,2.889,5,.419,1.072.976,2.487,1.571,3.918q.272.656.542,1.31c.863,1.614,1.695,3.25,2.516,4.864l.508,1a25.686,25.686,0,0,1,1.331,2.6c.352.689.765,1.507,1.157,2.352.7,1.5,1.353,3.053,1.928,4.429l.078.187c.305.725.608,1.48.9,2.247l.328.738c.125.283.239.571.348.856.281.3.5.551.693.789a14.685,14.685,0,0,1,.919,1.322l.134.207c.4.609.756,1.231,1.163,1.973.258-.12.515-.245.771-.37l.575-.274c1.088-.524,2.22-1.01,3.312-1.48l.087-.036.68-.292.323-.141c1.017-.434,2.282-.976,3.444-1.578,1.195-.624,2.443-1.333,3.816-2.164.8-.486,1.6-1.01,2.389-1.529l.107-.071c.437-.285.876-.573,1.319-.856q.752-.481,1.516-.952l.263-.163c.7-.43,1.4-.863,2.086-1.306.847-.544,1.69-1.128,2.506-1.694l.082-.055.317-.219c.247-.172.495-.344.744-.513.584-.4,1.175-.793,1.766-1.183.64-.423,1.277-.847,1.908-1.282l1.173-.854c1.7-1.239,3.452-2.521,5.24-3.7l.631-.422c.755-.505,1.616-1.078,2.47-1.614.969-.611,1.928-1.268,2.9-1.934l.131-.09.185-.131.624-.439.949-.782.259-.212c1.123-.927,2.249-1.857,3.385-2.77a1.174,1.174,0,0,1,.758-.288h0l.194-.167c.319-.281.64-.562.963-.836.7-.586,1.447-1.21,2.216-1.8.475-.363.974-.7,1.458-1.032l.138-.091.526-.357c.827-.613,1.614-1.3,2.407-1.995.633-.555,1.286-1.126,2.03-1.71.718-.562,1.46-1.144,2.167-1.75s1.431-1.239,2.14-1.868q1.668-1.475,3.317-2.978c.98-.889,2.039-1.779,2.971-2.561l.522-.437c.829-.7,2.077-1.734,3.357-2.719.577-.446,1.145-.9,1.714-1.358l.127-.1c.526-.423,1.05-.847,1.585-1.257.953-.731,2.2-1.7,3.343-2.73.477-.426.936-.885,1.377-1.331s.976-.985,1.525-1.465a38.178,38.178,0,0,1,3.813-2.855l.805-.542q1.153-.775,2.3-1.555l.357-.25.223-.158c.843-.615,1.652-1.3,2.47-2l.132-.111c.39-.33.775-.66,1.168-.981l.713-.573c.414-.33.825-.657,1.226-1a25.177,25.177,0,0,1,2.044-1.567l-.127.062.143-.094.058-.047c.147-.1.294-.2.443-.292l.169-.109.337-.219a4.171,4.171,0,0,0,.522-.486c.268-.328.522-.671.774-1.015l.1-.129c.138-.189.278-.379.419-.566a11.515,11.515,0,0,0,1.2-1.937,12.458,12.458,0,0,1,.626-1.23c.183-.3.357-.6.519-.907a6.635,6.635,0,0,0,.341-1.2l.038-.237C469.344,1216.12,469.206,1215.654,469.047,1215.206ZM60.349,996.158a1.162,1.162,0,0,1-.851.4,1.412,1.412,0,0,1-.984-.313,1.361,1.361,0,0,1-.477-.92,1.432,1.432,0,0,1,.383-1.063,1.153,1.153,0,0,1,.851-.4,1.415,1.415,0,0,1,.984.313,1.359,1.359,0,0,1,.476.92A1.434,1.434,0,0,1,60.349,996.158Zm4.944,9.21a.888.888,0,0,1-.655.308,1.093,1.093,0,0,1-.759-.243,1.04,1.04,0,0,1-.365-.708,1.105,1.105,0,0,1,.3-.818.887.887,0,0,1,.655-.308,1.093,1.093,0,0,1,.759.243,1.057,1.057,0,0,1,.365.708A1.1,1.1,0,0,1,65.292,1005.368ZM70.5,995.98a2.389,2.389,0,0,1,.552-1.736,2.319,2.319,0,0,1,1.621-.838,2.481,2.481,0,0,1,1.735.552,2.382,2.382,0,0,1,.286,3.356,2.319,2.319,0,0,1-1.62.838,2.481,2.481,0,0,1-1.736-.552A2.389,2.389,0,0,1,70.5,995.98Zm5.767,9.663a2.17,2.17,0,0,1-1.516.785,2.311,2.311,0,0,1-1.622-.516,2.225,2.225,0,0,1-.268-3.137,2.168,2.168,0,0,1,1.516-.785,2.318,2.318,0,0,1,1.622.516,2.225,2.225,0,0,1,.268,3.137Zm7.512-8.624a1.022,1.022,0,0,1-.753.354,1.249,1.249,0,0,1-.873-.278,1.216,1.216,0,0,1-.421-.815,1.283,1.283,0,0,1,.341-.94,1.021,1.021,0,0,1,.753-.354,1.248,1.248,0,0,1,.873.277,1.217,1.217,0,0,1,.421.815A1.28,1.28,0,0,1,83.784,997.02Zm5.635,8.57a1.619,1.619,0,0,1-1.137.588,1.741,1.741,0,0,1-1.216-.387,1.669,1.669,0,0,1-.2-2.353,1.621,1.621,0,0,1,1.137-.588,1.753,1.753,0,0,1,1.217.387,1.67,1.67,0,0,1,.2,2.353Zm8.555-7.866a1.462,1.462,0,0,1-1.025.531,1.577,1.577,0,0,1-1.1-.349,1.531,1.531,0,0,1-.53-1.025,1.513,1.513,0,0,1,.349-1.1,1.459,1.459,0,0,1,1.025-.531,1.576,1.576,0,0,1,1.1.349,1.508,1.508,0,0,1,.181,2.123Zm6.038,11.424a2.384,2.384,0,0,1-1.665.862,2.563,2.563,0,0,1-1.787-.57,2.448,2.448,0,0,1-.293-3.452,2.383,2.383,0,0,1,1.665-.862,2.563,2.563,0,0,1,1.787.57,2.447,2.447,0,0,1,.293,3.452Zm92-9.518a1.292,1.292,0,0,1-.522.812,1.262,1.262,0,0,1-.6.215,1.593,1.593,0,0,1-.271.025,3.357,3.357,0,0,1-.9-.167l-.136-.038-.635-.174c-.328-.089-.658-.171-.988-.252l-.274-.069c-.815-.2-1.567-.375-2.3-.531-2.866-.6-5.894-1.141-9.531-1.694-.463-.071-.926-.134-1.388-.2l-.315-.043c-.943-.125-1.864-.25-2.76-.41l-.154-.029c-.789-.14-1.5-.269-2.218-.439-.956-.228-1.9-.52-2.854-.825a1.5,1.5,0,0,1-.824-.9,1.572,1.572,0,0,1,1.479-2.094,1.638,1.638,0,0,1,.269.025l.385.118.09.027.091.029.5.147.711.214c.276.082.561.147.845.209l.367.085c.652.156,1.33.267,1.985.374l.079.013.1.015q1.173.192,2.344.376l.189.03.057.009c2.272.358,4.621.728,6.918,1.183,1.308.258,2.345.49,3.259.74-1.176-.717-2.45-1.414-3.9-2.131a36.584,36.584,0,0,0-4.435-1.861c-.4-.114-.8-.221-1.2-.321a11.653,11.653,0,0,0-1.192-.207l-.209-.029c-.7-.1-1.447-.176-2.27-.221l-.332,0c-.506,0-.924.017-1.315.052a1.51,1.51,0,0,1-1.146.485c-.074,0-.15,0-.223-.011a2.04,2.04,0,0,1-1.4-.876,1.524,1.524,0,0,1-.224-1.273,1.782,1.782,0,0,1,.445-.871,1.683,1.683,0,0,1,.726-.5l.13-.063.076-.017a3.854,3.854,0,0,1,.866-.128l.042,0c.7.014,1.432.056,2.174.127a31.41,31.41,0,0,1,3.95.613,22.26,22.26,0,0,1,4.506,1.594c.636.294,1.315.631,2.14,1.061l.151.078c.658.34,1.249.649,1.819.99,1.275.759,2.645,1.659,4.189,2.751.64.455,1.238.906,1.777,1.342l.069.055.046.038c.263.215.535.436.782.681l.1.1C195.634,998.331,196.212,998.9,196.014,999.63Z" transform="translate(-23.503 -969.792)" fill="#b1b0af"/>
  </g>
  <path id="Path_2285" data-name="Path 2285" d="M729.165,1410.633c-1.081,1.039-2.144,2.162-3.08,3.154-.236.248-.477.488-.718.729l-.152.152c-.2.2-.4.406-.6.615-.53.557-1.076,1.088-1.62,1.574a30.3,30.3,0,0,1-3.466,2.57c-.328.223-.651.45-.972.68l-.171.136c-.985.794-2.006,1.637-3.034,2.5-1.219,1.028-2.231,1.93-3.185,2.835a34.166,34.166,0,0,1-2.993,2.639c-.6.448-1.193.894-1.8,1.34l-.588.419-.067.049c-.352.251-.7.5-1.045.769-1.11.86-2.3,1.79-3.452,2.739-.491.4-.976.811-1.462,1.219-.637.535-1.275,1.07-1.921,1.6-1.052.849-2.276,1.843-3.493,2.9s-2.352,2.017-3.451,2.929c-.56.461-1.119.92-1.687,1.371-.317.248-.637.486-.961.722l-.136.1c-.229.172-.462.341-.686.518-.725.562-1.42,1.148-2.187,1.8l-.207.174c-.39.33-.783.662-1.175.985a20.234,20.234,0,0,1-2.22,1.509c-.207.127-.417.256-.62.385-.862.709-1.87,1.527-2.908,2.272l-.778.557c-.4.317-.8.629-1.223.927-.892.644-1.879,1.322-3.016,2.075-.617.428-1.333.925-2.019,1.433-1.081.8-2.176,1.654-3.116,2.391l-.5.39c-.406.314-.807.633-1.208.952l-.09.071-.2.156c-.656.518-1.306,1.032-1.966,1.538-.577.443-1.179.889-1.783,1.319-.519.374-1.065.725-1.609,1.075l-.519.337q-1.317.872-2.646,1.732c-.588.4-1.168.814-1.741,1.23l-.78.568a58.9,58.9,0,0,0-6.234,4.978l-.245.229-.245.232c-.386.357-.76.709-1.11,1.076-.553.577-1.126,1.13-1.621,1.605a22.342,22.342,0,0,1-2.519,2.1,1.423,1.423,0,0,1,.149.2l.082.125c.1.149.192.3.288.439a3.862,3.862,0,0,0,.5.564,9.032,9.032,0,0,0,1.152.724c1.023.568,2.113,1.141,3.237,1.7,1,.5,2,1.025,2.967,1.536l.288.154a13.62,13.62,0,0,1,1.512.932l.285.2.1.067c.365.252.731.5,1.09.767.6.443,1.2.889,1.792,1.342.339.176.673.359,1,.557,1.015.608,2.033,1.322,2.851,1.9l.959.667c.319.219.629.448.941.678l.167.123c.191.144.387.283.586.419l.169.118.268.189c.869.629,1.678,1.264,2.407,1.886.7.6,1.349,1.239,1.9,1.792l.294.29c.261.2.519.395.773.6.769.626,1.565,1.242,2.365,1.823.067,0,.131-.009.2-.009a2.849,2.849,0,0,1,2.042.876c.1.107.207.214.312.318.274.274.518.521.74.789a8.864,8.864,0,0,1,.627.858l-.152-.245a6.962,6.962,0,0,0,1,1.074l.09.076c.049.042.1.082.149.127l.058.048.058.049q.288.251.572.509l.473.361c.308.234.621.475.931.738l-.127-.132c.421.35.84.707,1.255,1.064l.236.189c.152.12.3.239.439.367a1.466,1.466,0,0,1-.125-.655,1.526,1.526,0,0,1,.475-1.019l.183-.189.047-.049c.35-.364.713-.738,1.084-1.086.479-.446.972-.874,1.393-1.235s.849-.718,1.277-1.074l.2-.165c.359-.3.72-.6,1.077-.909,1.206-1.032,2.409-2.111,3.571-3.154l.16-.145c.891-.8,1.785-1.6,2.686-2.391,1.239-1.088,2.349-2.091,3.395-3.067l.225-.207c.318-.471.689-.985,1.13-1.581.548-.738,1.157-1.453,1.748-2.142l.064-.078.116-.136a26.47,26.47,0,0,1,1.941-2.037l.6-.553c.5-.461,1-.925,1.487-1.4.555-.542,1.13-1.146,1.7-1.79l.02-.035.022-.038c.607-.722,1.195-1.514,1.623-2.091a20.926,20.926,0,0,1,1.532-1.9c.283-.3.581-.586.88-.871l.055-.054c.283-.27.564-.539.834-.82.379-.393.747-.8,1.112-1.2l.176-.194.535-.582c.181-.194.359-.393.544-.6l.4-.446.308-.332c.189-.2.379-.406.561-.616.272-.305.555-.6.838-.9l.145-.154c.276-.288.551-.577.818-.874l.689-.761.1-.111,1.1-1.208c.68-.74,1.409-1.456,2.113-2.146l.1-.1a.588.588,0,0,1,.4-.158.419.419,0,0,1,.15.024c.8-.831,1.6-1.665,2.394-2.512.482-.553.949-1.117,1.417-1.683l.118-.143c.453-.548.907-1.1,1.373-1.641.72-.831,1.322-1.5,1.89-2.1l.339-.35.33-.344c.3-.307.6-.615.894-.929.76-.894,1.482-1.845,2.2-2.795q.418-.552.838-1.1c.339-.439.68-.874,1.021-1.311l.218-.281c.66-.84,1.318-1.683,1.962-2.539.439-.582.865-1.19,1.277-1.781l.118-.167c.515-.74,1.1-1.576,1.7-2.352l.176-.225.036-.045c.954-1.226,1.939-2.494,2.793-3.818l.475-.732c.319-.488.636-.974.943-1.469.495-.8.992-1.6,1.506-2.391.159-.243.312-.486.469-.731l.087-.134.163-.256c.221-.341.439-.682.664-1.016.285-.43.58-.854.874-1.278l.62-.9c.863-1.271,1.621-2.59,2.495-4.177.265-.486.537-.968.809-1.449l.083-.143c.475-.841,1.012-1.795,1.507-2.733.12-.243.241-.486.352-.725-.069-.559-.1-1.139-.127-1.685l-.007-.165c-.013-.232-.025-.462-.044-.7a15.3,15.3,0,0,0-.314-2.008c-.159-.656-.326-1.233-.506-1.763a6.909,6.909,0,0,0-.506-1.017,15.265,15.265,0,0,0-1.582-1.759c-.192-.185-.39-.361-.591-.537l-.119-.105-.058-.051c-.319-.283-.646-.575-.947-.883-.094-.1-.185-.194-.277-.294l-.1-.109c-.176-.189-.353-.381-.544-.553-.131-.12-.267-.238-.4-.354l-.087-.076c-.154-.136-.308-.272-.459-.41-.267-.254-.522-.519-.778-.785l-.058-.062c-.27-.283-.54-.564-.823-.831l-.116-.091-.069-.058c-.125-.094-.254-.185-.383-.272-.167-.114-.337-.216-.508-.319-.134-.081-.267-.16-.4-.245a14.85,14.85,0,0,1-2.561-2.207q-.877-.682-1.754-1.362c-.472-.365-.952-.731-1.431-1.088-.609-.354-1.318-.762-2.046-1.135-.432-.2-.863-.415-1.271-.644.009.094.016.187.016.272l.2.247.069.083.042.051.069.087c.074.091.145.183.216.276l.031.056.029.056a5.717,5.717,0,0,1,.133.64,10.609,10.609,0,0,1-.1,1.732,20.727,20.727,0,0,1-1.482,3.961l-.415.845-.138.276-.111.225-.172.341-.145.285c-.031.009-.062.018-.1.025a.51.51,0,0,1-.123.022c-.276.25-.555.5-.834.745l-.078.069C730.286,1409.6,729.709,1410.109,729.165,1410.633Z" transform="translate(-284.902 -1154.004)" fill="#f4f2f0"/>
  <path id="Path_2286" data-name="Path 2286" d="M863.334,1582.691c-.382-1.357-.8-2.706-1.22-4.052l0,.006c-.334-1.062-.674-2.122-1.012-3.183-.118-.369-.236-.738-.352-1.106q-.129-.41-.257-.82l0,0,0-.011c-.271-.564-.535-1.131-.782-1.706-.482-1.117-1.028-2.2-1.525-3.31-.508-1.135-1.07-2.243-1.609-3.363-.427-.886-.844-1.78-1.294-2.652-.055-.106-.1-.215-.16-.32l-.021-.036c-.092-.163-.183-.327-.275-.489.009.018.021.035.029.053-.644-1.143-1.291-2.289-1.9-3.452-.549-1.057-1.087-2.121-1.667-3.162l.046.08-.038-.071c.013.023.026.046.039.069-.6-1.073-1.175-2.155-1.744-3.24l-.147-.279q-.847-1.619-1.677-3.246c-1.077-2.1-1.881-4.318-2.947-6.422l-.01-.014c-.01-.02-.019-.041-.029-.06q-.341-.672-.682-1.347c-.441-.591-.887-1.2-1.324-1.83-.651-.931-1.3-1.9-1.935-2.866-.408-.622-.785-1.277-1.157-1.928l-.179-.31c-1.023-1.781-1.894-3.379-2.661-4.884-.9-1.761-1.734-3.624-2.467-5.269l-.031-.069c-.363-.807-.706-1.638-1.036-2.445l-.051-.125-.477-1.159q-1.565-2.882-3.129-5.773c0-.007-.009-.016-.014-.022-.856-1.5-1.72-2.994-2.619-4.474-.961-1.585-1.964-3.145-2.938-4.726-.9-1.453-1.832-2.879-2.753-4.317-.522-.814-1.045-1.623-1.585-2.423-.185-.276-.373-.548-.555-.825-.149-.225-.294-.448-.43-.68a3.731,3.731,0,0,1-.628-1.607,2.19,2.19,0,0,1-.038-.3q-.442-.735-.885-1.48c-.923-1.541-1.892-3.032-2.8-4.429-1.168-1.748-2.327-3.411-3.306-4.808l-.189-.27-.109-.153c-1.019-1.449-2.071-2.949-3.15-4.387-1.014-1.359-2.135-2.815-3.526-4.585-1.15-1.467-2.254-3.009-3.377-4.592l-.959-1.353c-.843-1.194-1.714-2.429-2.595-3.629l-.051-.071c-1.161-1.589-2.36-3.23-3.687-4.745a62.526,62.526,0,0,0-4.415-4.5c-1.164-1.1-2.327-2.236-3.453-3.337l-.227-.22c-1.362-1.335-3.056-3-4.714-4.518-.479-.41-1.034-.845-1.7-1.327-.53-.379-1.076-.7-1.634-1.021l-.2-.1-.738-.312c-.31.546-.609,1.1-.91,1.647l-.071.129c-.446.825-.907,1.674-1.4,2.49-.609,1.025-1.3,2.026-1.957,2.993l-.034.047-.109.16c-.229.334-.459.671-.686,1.008-.925,1.382-1.879,2.86-2.914,4.514-.289.468-.595.925-.9,1.382q-.271.4-.535.8c-.408.626-.87,1.251-1.242,1.754l-.276.377c-.319.432-.642.867-.965,1.3l-.076.1-.044.06c-.662.885-1.346,1.8-1.984,2.724-1.2,1.738-2.238,3.138-3.256,4.406-.867,1.074-1.7,2.193-2.51,3.279l-.6.8-.051.069c-.486.647-1.037,1.382-1.621,2.042-.31.343-.624.682-.941,1.023l-.134.143q-.384.411-.767.829c-.738.838-1.429,1.707-2.191,2.673l-.051.064c-.712.9-1.445,1.821-2.216,2.693-1.364,1.538-2.818,3.1-4.1,4.489l-1.058,1.141c-.718.814-1.424,1.665-2.109,2.487l-.158.192c-.6.726-1.206,1.453-1.821,2.169-1.634,1.9-3.043,3.611-4.311,5.234l-.526.671c-.88,1.13-1.977,2.537-3.067,3.841q-.943,1.123-1.879,2.256l-.06.073-1.445,1.736c-1.179,1.407-2.454,2.9-3.807,4.277l-.642.657c-.426.435-.847.87-1.277,1.3-.553.544-1.139,1.13-1.692,1.729-.4.459-.785.925-1.17,1.391l-.123.185a1.883,1.883,0,0,1-.568,1.215c-.972,1.078-1.979,2.151-2.953,3.185l-.575.613-.686.729-.2.21c-.8.854-1.607,1.707-2.425,2.552l-.062.065c-.607.621-1.232,1.266-1.87,1.877-.589.557-1.235,1.143-1.973,1.787-.479.419-.972.823-1.486,1.244l-.252.207-.306.25a18.466,18.466,0,0,0-2.289,2.1,1.845,1.845,0,0,1-1.311.5h-.078a.869.869,0,0,1-.259-.045l-.058.658c-.055.648-.114,1.3-.176,1.957-.118,1.251-.236,2.5-.37,3.745l-.069.635c-.08.765-.165,1.558-.274,2.327a1.773,1.773,0,0,1-.015.876c-.081.3-.156.6-.221.892-.076.512-.123,1.036-.167,1.545l0,.071c-.049.561-.105,1.2-.2,1.8a14.932,14.932,0,0,1-.49,2.218c-.16.492-.321.987-.47,1.484l-.031.1a19.215,19.215,0,0,1-.9,2.577,8.738,8.738,0,0,1-.729,1.364l.617.5a35.243,35.243,0,0,1,2.938,2.786c.829.86,1.607,1.75,2.59,2.907l.156.182c.339.4.675.8,1,1.2l.124.156.609.762c.123.156.239.314.354.477l.2.274a5.649,5.649,0,0,0,.4.506s.065.02.063.027c.087.167.176.33.269.493.473.666.934,1.342,1.393,2.017.37.479.746.952,1.126,1.429.47.59.938,1.179,1.4,1.776.408.535.787,1.1,1.152,1.652l.346.515.535.8q.438.655.883,1.312l.733,1,.308.419.219.294a51.628,51.628,0,0,1,2.989,4.431c.539.918,1.047,1.872,1.54,2.795l.033.063.116.216c.245.454.488.909.736,1.364l.33.6c.657,1.188,1.4,2.536,2.048,3.888q.549,1.153,1.064,2.32c.332.745.613,1.522.891,2.3l.038.107c.343.907.7,1.808,1.054,2.708l.192.488q.281.712.555,1.424c.613,1.581,1.223,3.342,1.872,5.388.386,1.21.818,2.505,1.4,4.2l.294.588c.446.883.907,1.8,1.322,2.724l.435.956.214.475c.35.769.7,1.538,1.038,2.313.183.417.359.834.535,1.253l.078.183c.321.753.651,1.534,1.005,2.285.607,1.275,1.226,2.543,1.841,3.814l.044.08c.035.107.074.216.111.323l.361,1.03.27.771.459,1.3.063.18c.47,1.351.967,2.806,1.424,4.32l.078.259.073.252.216.727c.2.68.4,1.359.613,2.035l.143.462.263.829c.472,1.453,1.058,2.844,1.72,4.38l.1.256c.365.905.716,1.816,1.063,2.728l.292.758c.272.7.544,1.4.827,2.1l.2.5c.3.706.557,1.442.821,2.182.14.4.283.8.43,1.2.227.61.466,1.215.706,1.819.232.582.462,1.166.68,1.752.37.985.711,2,1.043,2.982h-.007l.025.054c.428,1.268.869,2.577,1.373,3.841l.087.214.043.1.044.112.054.129.035.089.04.091.051.127.036.083.058.136.034.08.069.158.022.054.06.14.033.078.061.136.035.08.049.114.071.16c.3.675.6,1.344.912,2.015.367.8.736,1.607,1.088,2.416.477,1.19.871,2.43,1.253,3.631l.031.094c.3.94.611,1.915.959,2.858.7,1.859,1.288,3.559,1.812,5.2l.043.132.055.178.147.466c.051.166.1.33.152.5l.071.234.064.212.027.084.038.127.042.147.018.058.045.152.018.058.06.2.055.2c.136.475.268.952.388,1.431l.015.062.031.111.034.174.022.06.015.067.074.318.109.477c.1.439.187.876.279,1.315l.011.058c.136.646.272,1.3.426,1.942.185.8.4,1.611.611,2.391l.023.089c.1.375.2.749.3,1.126.236.9.435,1.841.642,3.043.064.381.136.76.207,1.139l.047.254c.1.506.192,1.01.274,1.518.047.412.084.785.114,1.137.187-.143.377-.29.573-.439.682-.521,1.371-1.034,2.059-1.547.8-.6,1.607-1.2,2.4-1.812q.766-.592,1.532-1.193c.965-.756,1.933-1.512,2.913-2.247l1.805-1.353q1.415-1.056,2.825-2.12l.285-.216c1.529-1.154,3.06-2.309,4.607-3.444l1-.726c1.222-.892,2.487-1.814,3.7-2.757,2.173-1.681,4.331-3.457,6.419-5.174q1.207-.993,2.417-1.984c.858-.7,1.73-1.384,2.6-2.066.624-.491,1.251-.981,1.87-1.478,1.757-1.4,3.161-2.568,4.424-3.66.709-.613,1.4-1.242,2.1-1.87.653-.591,1.3-1.179,1.968-1.756q.719-.625,1.443-1.246c1-.863,2.042-1.756,3.045-2.657,1.284-1.154,2.568-2.352,3.809-3.51l.442-.41c1.279-1.193,2.539-2.32,4.054-3.668l.462-.41c1.377-1.226,2.755-2.452,4.148-3.66,1.231-1.068,2.682-2.334,4.122-3.627,3.118-2.8,5.974-5.449,8.733-8.1a76.526,76.526,0,0,0,7.541-8.789q1.107-1.451,2.22-2.889l1.224-1.589c.588-.767,1.188-1.522,1.785-2.28s1.2-1.516,1.787-2.28a34.363,34.363,0,0,0,3.032-4.425c.19-.348.368-.7.548-1.056.214-.426.43-.85.662-1.264.261-.468.533-.929.807-1.391l.185-.317a3.792,3.792,0,0,1,.312-1.5c.13-.327.261-.653.4-.979.263-.627.526-1.253.832-1.861.265-.524.522-1.045.733-1.594.357-.92.751-1.828,1.09-2.753.252-.687.47-1.387.686-2.086.2-.733.406-1.465.62-2.2.189-.718.3-1.456.443-2.184.221-1.126.45-2.249.662-3.379.236-1.272.582-2.521.816-3.793a22.329,22.329,0,0,0,.332-3A14.012,14.012,0,0,0,863.334,1582.691Z" transform="translate(-307.784 -1173.705)" fill="#dddbd7"/>
  <path id="Path_2287" data-name="Path 2287" d="M641.37,1597.383l.426.268.426.268.5.314.393.243.771.479.4.248c.379.236.771.481,1.17.7.437.232.871.462,1.308.691l.2.107.334.173c.548.29,1.1.58,1.643.878l.435.236a5.745,5.745,0,0,1,.95.383.644.644,0,0,1,.163.112l.229.071c.236.071.469.156.7.241l.15.022c.149.022.3.042.446.067.421.078.836.172,1.311.3.548.147,1.132.33,1.837.575a1.487,1.487,0,0,1,.45.245l.134-.092c.584-.426,1.173-.9,1.69-1.315a29.067,29.067,0,0,1,2.938-2.154c.778-.477,1.547-.909,2.348-1.322.207-.109.421-.207.673-.321.154-.069.306-.138.457-.209l.152-.074c.118-.058.239-.116.354-.165.071-.12.14-.243.207-.365.252-.573.491-1.2.749-1.982.12-.364.225-.733.328-1.1.089-.314.178-.628.278-.94.187-.6.408-1.193.635-1.815.1-.261.194-.524.288-.785a16.966,16.966,0,0,0,.667-2.485c.147-.845.317-1.75.557-2.655a1.371,1.371,0,0,1,.559-.785c.061-.495.116-.992.17-1.489l.069-.617q.217-1.889.408-3.778.187-1.836.37-3.667c.031-.294.058-.586.084-.878l.025-.27.08-.867.025-.145a.944.944,0,0,1-.317-.334c-.3-.511-.6-1.019-.914-1.522q-.2-.335-.4-.669l-.082-.136a1.452,1.452,0,0,1-.314-.905l-.08-.094a4.047,4.047,0,0,1-.858-.662,3.909,3.909,0,0,1-.312-.359l-.094-.116c-.094-.116-.183-.232-.287-.377-.051-.07-.1-.136-.156-.2-.176-.229-.347-.466-.5-.7-.776-.713-1.462-1.362-2.093-1.984-.254-.256-.512-.508-.771-.762l-.2-.194c-.488-.477-.976-.954-1.457-1.44l-.208-.209c-.332-.339-.664-.676-1.012-1-.41-.383-.825-.758-1.242-1.133-.593-.493-1.226-1.016-1.87-1.5-.693-.531-1.4-1.045-2.1-1.558l-.415-.3-.047-.036c-.552-.4-1.125-.82-1.669-1.255-.426-.343-.843-.689-1.253-1.05-.189-.167-.372-.341-.586-.546l-.051-.042q-.909-.779-1.837-1.542-.835-.689-1.685-1.353c-.143-.112-.285-.223-.43-.332a16.81,16.81,0,0,0-3.176-1.777l-.056-.026c-.684-.319-1.408-.584-2.035-.807l-.107-.071-.111-.074a6.743,6.743,0,0,0-2.053-1.494,2.3,2.3,0,0,0-.314-.094,3.9,3.9,0,0,0-.444-.107L638,1546.8c-.671-.339-1.342-.676-2.017-1-.548-.248-1.108-.477-1.687-.713a24.069,24.069,0,0,1-3.054-1.416c-.566.243-1.152.444-1.654.6a1.169,1.169,0,0,1,.125.606l-.085,1.278-.084,1.277-.047.6c-.036.482-.074.979-.085,1.467l-.011.453c-.031,1.264-.061,2.608-.061,3.948,0,2.936-.015,6.1-.156,9.322l-.036.758-.033.722-.016.292c-.047,1-.094,1.993-.118,2.987l-.009.243c-.018.593-.038,1.264-.014,1.906q.044,1.09.1,2.18c.147,1.77.317,3.539.486,5.307l.04.4c.1.992.194,2.048.258,3.1.027.457.042.914.058,1.371l.006.214c.011.354.022.711.04,1.068a21.757,21.757,0,0,0,.941,4.863,11.84,11.84,0,0,0,.624,1.507l.033.062c.241.457.513.974.811,1.453a6.865,6.865,0,0,0,.738.917,13.91,13.91,0,0,0,2.5,1.6c1.128.562,2.329,1.168,3.533,1.853.709.4,1.413.844,2.093,1.272Z" transform="translate(-278.465 -1216.204)" fill="#e0bc77"/>
  <path id="Path_2288" data-name="Path 2288" d="M616.878,1546.786c-.209.187-.406.4-.617.629l-.125.136a1.552,1.552,0,0,1-.636.393c-.091.2-.187.406-.285.606-.272.561-.577,1.121-.849,1.614q-.265.475-.519.957l-.027.062a10.227,10.227,0,0,0-.394,1.05c-.13.446-.245.89-.354,1.34-.2.836-.381,1.594-.535,2.309l0,0c-.2,1.025-.37,2.042-.5,3.023-.167,1.241-.278,2.505-.366,3.579-.025.268-.042.535-.062.8l-.02.281-.009.109c-.058.8-.116,1.625-.216,2.432-.219,1.766-.555,3.584-.851,5.189l-.02.1c-.123.673-.245,1.344-.361,2.015-.1.58-.189,1.162-.276,1.743l-.027.194c-.063.421-.125.843-.192,1.262-.049.976-.1,1.948-.16,2.924-.027.435-.061.865-.1,1.3l-.069.776-.011.129c-.015.185-.042.366-.069.546l-.009.076-.011.089-.015.092a3.124,3.124,0,0,1-.107.517c-.033.114-.076.221-.12.332l-.042.114a1.781,1.781,0,0,1-.256.439l-.007.08c-.051.588-.1,1.177-.147,1.777a2.05,2.05,0,0,1-.04.3c.2-.089.4-.176.6-.258a9.748,9.748,0,0,1,2.14-.615,15.1,15.1,0,0,1,2.217-.2h.083a7.617,7.617,0,0,1,1.36.1,5.091,5.091,0,0,1,1.558.551c.209.114.413.232.613.359a1.132,1.132,0,0,1,.524.9.738.738,0,0,1,.582-.245.172.172,0,0,1,.1.027,20.227,20.227,0,0,1-.141-2.363c.007-1.375-.02-2.679-.089-4.135,0,0-.013-.055-.015-.06-.047-.667-.091-1.331-.13-2-.029-.517-.065-1.037-.1-1.571-.11-1.594-.232-3.4-.252-5.158-.015-1.625.107-3.317.214-4.81.043-.593.083-1.188.118-1.781.172-2.878.265-6.009.288-9.58.009-1.389.038-2.889.083-4.592.018-.577.055-1.152.1-1.837l.027-.41.081-1.157.04-.613.058-.6c-.163.054-.324.107-.484.163A8.084,8.084,0,0,0,616.878,1546.786Z" transform="translate(-269.676 -1217.228)" fill="#f4f2f0"/>
  <path id="Path_2289" data-name="Path 2289" d="M727.631,1793.846c-.6-.684-1.3-1.482-1.974-2.289q-.669-.8-1.349-1.594c-.359-.386-.718-.767-1.078-1.148s-.74-.755-1.117-1.128l-.537-.535c-.17-.174-.345-.344-.519-.511l-.14-.134c-.359-.346-.731-.7-1.068-1.074-.437-.484-.867-.972-1.3-1.462l-.437-.5a42.157,42.157,0,0,1-3.237-4.356l-.337-.452q-.465-.629-.936-1.253c-.633-.811-1.3-1.6-1.948-2.36-.537-.631-1.072-1.262-1.589-1.9-.606-.754-1.174-1.5-1.855-2.4-.263-.348-.517-.7-.773-1.048l-.042-.061c-.285-.39-.569-.782-.89-1.2-.577-.751-1.114-1.493-1.466-1.986-.638-.887-1.284-1.768-1.928-2.648l-.08-.11q-.889-1.21-1.768-2.425l-.053-.073c-.617-.856-1.257-1.739-1.805-2.661l-.344-.575c-.43-.72-.86-1.438-1.306-2.149-.435-.687-.883-1.362-1.331-2.037l-.357-.54c-.288-.432-.566-.871-.845-1.31-.31-.488-.62-.976-.941-1.458a60.823,60.823,0,0,1-3.343-5.566c-.475-.9-1.012-1.83-1.645-2.833-.305-.486-.62-.967-.936-1.447-.129-.194-.263-.383-.4-.58-.156-.219-.31-.439-.457-.667-.637-.983-1.181-1.91-1.66-2.837a23.645,23.645,0,0,1-1.125-2.7l-.23-.624a.856.856,0,0,1-.007-.528l-.06-.123c-.1-.2-.2-.393-.29-.591-.571-1.166-1.1-2.374-1.618-3.542l-.1-.228-.348-.791-.334-.76c-.457-.845-.836-1.6-1.159-2.307-.607-1.32-1.183-2.722-1.817-4.414-.552-1.462-1.157-2.911-1.74-4.313l-.063-.147c-.361-.76-.657-1.4-.914-2.075-.337-.871-.678-1.83-1.072-3.018l-.132-.392c-.482-1.338-.947-2.7-1.382-3.99l-.109-.314c-.234-.689-.468-1.378-.686-2.068-.071-.223-.14-.448-.205-.671l-.229-.519-.087-.2c-.165-.37-.328-.738-.477-1.114s-.281-.749-.413-1.126l-.055-.16c-.274-.769-.533-1.547-.787-2.325s-.5-1.618-.725-2.463c-.071-.261-.143-.521-.216-.782-.136-.479-.269-.958-.383-1.444l-.156-.646c-.14-.575-.281-1.15-.4-1.729q-.161-.823-.339-1.641l-.158-.769c-.071-.334-.143-.669-.219-1-.105-.486-.209-.972-.308-1.462l-.02-.109c-.078-.254-.154-.51-.219-.769-.06-.236-.112-.472-.154-.7a.933.933,0,0,1-.3-.481c-.159-.477-.292-.965-.422-1.44l-.024-.1-.078-.289-.143-.518-.069-.254c-.091-.337-.183-.673-.268-1.01a14.441,14.441,0,0,1-.363-1.694c-.078-.584-.116-1.186-.151-1.716l-.029-.417a.806.806,0,0,1,.1-.41l-.045-.765-.018.082c-.02-.234-.047-.468-.08-.733l-.049-.423c-.127-1.137-.328-2.294-.5-3.317-.109-.637-.219-1.275-.317-1.914-.221-1.476-.408-3.107-.591-5.131-.047-.484-.083-.967-.118-1.453l0-.071c-.02-.272-.04-.546-.064-.821-.06-.764-.123-1.667-.127-2.572,0-.5-.013-1-.025-1.494l-.006-.247-.023-.87c-.013-.782-.022-1.687.041-2.565.018-.225.038-.45.06-.675.011-.1.025-.2.038-.3a2.253,2.253,0,0,1,.074-.365l-.163-.038-.483-.116c-.422-.1-.9-.209-1.353-.361a8.947,8.947,0,0,1-1.726-.715c-.212-.12-.412-.257-.615-.395l-.049-.031a8.589,8.589,0,0,0-.745-.473c-.227-.1-.459-.2-.69-.285-.432-.12-.86-.249-1.288-.379l-.272-.08-.626-.187-.581-.165c-.18-.038-.359-.073-.539-.107a.932.932,0,0,1-.328-.138q-.742-.2-1.486-.4a28.752,28.752,0,0,1-3.032-.939l-.062-.022a7.839,7.839,0,0,1-.789-.33c.388,1.036.716,2,1,2.94l.577,1.9.042.14c.464,1.525.927,3.052,1.409,4.57l.417,1.3c.631,1.97,1.284,4.01,1.875,6.036a3.033,3.033,0,0,0,.252.889l.268.979c.4,1.493.82,3.1,1.144,4.714l.165.854a34.393,34.393,0,0,0,.818,3.6l.022.071c.2.653.428,1.393.68,2.095.1.268.192.533.29.8.158.433.316.867.461,1.3a34.936,34.936,0,0,1,1.157,4.375c.053.268.109.537.167.811.1.493.205.985.292,1.483l.06.363.323,1.89c.216,1.3.413,2.61.611,3.928l.092.595c.1.664.2,1.326.312,1.99.134.836.265,1.67.39,2.507.214,1.489.45,3.072.745,4.614.149.8.312,1.591.475,2.387l.1.506c.11.539.219,1.076.326,1.618.227,1.19.41,2.38.608,3.7l.134.878.227,1.482c.156,1,.312,2,.452,3,.114.845.232,1.692.359,2.595.042.307.089.615.136.923l.029.189c.049.33.1.658.145.988q.157,1.193.31,2.387l.111.858.209,1.591c.208,1.568.491,3.157.767,4.641.192,1.05.428,2.107.635,3.04l.034.159c.1.434.189.869.283,1.3.33,1.545.528,3.107.72,4.621.214,1.7.414,3.1.626,4.406.123.769.258,1.541.4,2.314.145.816.288,1.631.421,2.45.118.738.207,1.5.3,2.28l.007.062c.083.7.167,1.429.281,2.14l.112.712q.294,1.832.577,3.664.084.552.174,1.1c.119.471.229.945.336,1.419.143.632.274,1.266.389,1.905.011.063.026.125.037.189s.02.127.031.191c.1.561.18,1.122.259,1.683.027.2.055.393.08.589.141,1.083.253,2.169.35,3.257.036.4.073.805.1,1.208l0,.055q.072.906.133,1.816c.1,1.514.217,3.027.319,4.541,0,.065.008.13.013.194q.064.959.12,1.918c.022.374.039.749.058,1.122.023.448.048.9.066,1.345q.044,1.1.07,2.208c0,.086,0,.171.005.257q0,.1,0,.207.017.868.021,1.736c0,.132,0,.265,0,.4,0,.063,0,.127,0,.191q0,.875-.022,1.75c0,.04,0,.079,0,.119,0,.116,0,.232-.007.349q-.031,1.126-.092,2.255c-.172,3.1-.274,6.21-.4,9.313a1.745,1.745,0,0,1-.043.317v0h0c.139,1.046.262,2.094.343,3.147,0,.021,0,.041,0,.062.01.131.015.264.023.4.034.562.052,1.126.059,1.69,0,.028,0,.056,0,.084.005.538,0,1.077-.01,1.613,0,.029,0,.059,0,.088a43.644,43.644,0,0,1-.241,4.576c-.087.7-.187,1.4-.286,2.095-.181,1.27-.354,2.539-.413,3.824,0,.143,0,.285.005.427,0,.324,0,.648.012.969,0,.159.015.318.022.476.014.317.03.633.054.949.013.172.031.344.047.515q.043.451.1.9c.023.179.05.357.078.535.021.132.035.265.058.4H673c.049.277.09.555.151.832.154.572.308,1.145.452,1.723-.069-.272-.136-.544-.2-.816a13.905,13.905,0,0,0,.716,2.193c.038.051.075.1.114.15.055.045.111.089.169.131a13.523,13.523,0,0,0,2.059.8,7.546,7.546,0,0,0,1,.176l.273-.011c2.661-1.408,5.554-3,8.988-4.939,1.621-.916,3.357-1.905,5.073-2.942,1.749-1.054,3.464-2.18,5.071-3.243.359-.238.713-.488,1.068-.736.33-.234.66-.466,1-.69l.646-.43c.562-.375,1.121-.749,1.687-1.117l.5-.328c1.464-.947,2.977-1.93,4.507-2.831,1.248-.736,2.541-1.449,3.792-2.138q.752-.414,1.5-.834c.484-.272.974-.537,1.463-.8l.876-.479c.894-.486,1.754-.992,2.708-1.553,1.652-.972,3.261-2.049,4.77-3.069q1.6-1.087,3.21-2.162l1.4-.943q1.05-.705,2.1-1.4c.192-.127.383-.256.575-.383-.241-.267-.477-.539-.711-.809Z" transform="translate(-286.979 -1260.512)" fill="#dddbd7"/>
  <path id="Path_2290" data-name="Path 2290" d="M753,1783.248q-.261-.779-.531-1.551c-.7-1.955-1.328-3.642-1.937-5.156-.254-.584-.519-1.163-.787-1.743l-.049-.111c-.2-.428-.392-.856-.584-1.286-.513-1.148-1.021-2.3-1.534-3.509l-.035-.094-.038-.08c-.343-.825-.671-1.683-.974-2.55-.312-.885-.653-1.766-.981-2.617s-.642-1.661-.936-2.5q-.458-1.291-.923-2.577l-.212-.586-.02-.056c-.19-.528-.381-1.056-.586-1.578-.394-.9-.843-1.77-1.188-2.432-.41-.782-.8-1.594-1.195-2.479l-.243-.552a.944.944,0,0,1-.345-.341c-.37-.631-.738-1.264-1.088-1.906-.317-.584-.587-1.2-.785-1.678-.277-.64-.524-1.315-.742-1.908l-.147-.4c-.283-.76-.555-1.525-.827-2.3l-.437-1.239-.038-.109c-.35-.994-.7-1.993-1.063-2.983-.163-.439-.324-.876-.488-1.328q-.542-1.177-1.085-2.354c-.664-1.433-1.326-2.866-1.973-4.309-.969-2.157-1.906-4.442-2.73-6.457l-.216-.521c-.406-.985-.809-1.97-1.222-2.951-.3-.7-.6-1.4-.912-2.093-.361-.814-.771-1.739-1.137-2.639-.713-1.739-1.315-3.464-2.028-5.539q-.431-1.251-.872-2.5t-.867-2.492c-.375-1.085-.729-2.177-1.084-3.27l-.2-.627q-.526-1.167-1.028-2.341l-.5-1.181c-.559-1.315-1.063-2.5-1.6-3.667l-.263-.573-.124-.271c-.622-1.355-1.264-2.757-1.861-4.146-.3-.689-.584-1.384-.869-2.079-.341-.829-.725-1.772-1.126-2.668-.72-1.614-1.518-3.183-2.338-4.781l-.539-1.045c-.225-.433-.448-.863-.669-1.3-.285-.552-.544-1.127-.8-1.685l-.026-.06-.245-.544c-.829-1.817-1.556-3.3-2.287-4.656-.239-.439-.49-.872-.74-1.3l-.078-.136c-.143-.245-.285-.49-.426-.738-.417-.733-.835-1.5-1.246-2.287a44.612,44.612,0,0,0-2.5-4.3c-.5-.676-1.012-1.342-1.525-2.008l-.7-.916c-.8-1.052-1.687-2.086-2.47-3l-.089-.1-.044-.053-.8-.8-.535-.532-.223-.223q-1.311-1.31-2.635-2.605c-.292-.288-.589-.568-.892-.854l-.555-.528c-.459-.437-.956-.934-1.525-1.52a.567.567,0,0,1-.1-.637c-.2.094-.386.2-.573.308-.555.325-1.146.7-1.854,1.183-.519.374-1.068.776-1.583,1.206l-.1.08.029.094c.236.791.479,1.609.746,2.405q.328.846.689,1.676c.256.58.54,1.15.816,1.7l.049.1a39.186,39.186,0,0,0,1.948,3.4c1.03,1.411,2.164,2.73,3.433,4.186.677.778,1.359,1.556,2.055,2.321.678.746,1.4,1.451,2.108,2.131l.056.054c.486.472.983.933,1.48,1.393l.637.591,2.3,2.14a.655.655,0,0,1,.2.491.805.805,0,0,1-.245.584.794.794,0,0,1-.548.2.825.825,0,0,1-.526-.248q-1.183-1.03-2.349-2.08l-.5-.446c-.526-.468-1.054-.938-1.572-1.417l-.559-.515-.1-.1c-.526-.479-1.068-.976-1.582-1.485-.749-.74-1.466-1.489-2.2-2.256l-.419-.439c-.495-.519-.992-1.039-1.473-1.571l-.091-.1a21.032,21.032,0,0,1-1.928-2.37c-.607-.911-1.084-1.689-1.5-2.449-.466-.847-.814-1.509-1.106-2.193l.221.847c.341,1.3.76,2.651,1.271,4.139l-.02-.107c.122.325.24.653.358.98l.047.129.216.6c.223.581.45,1.159.678,1.736l.14.361.091.236c.281.709.546,1.427.809,2.141l.056.147.04.109.022.06.02.058a19.165,19.165,0,0,0,1.106,2.394c.332.593.7,1.179,1.075,1.776l.18.292c.328.524.646,1.054.965,1.585l.364.606c.388.637.74,1.291,1.128,2.02l.094.174.091.169c.377.711.753,1.422,1.121,2.14a.589.589,0,0,1-.248.8.557.557,0,0,1-.268.069.612.612,0,0,1-.528-.317l-.424-.746-.06-.107c-.446-.785-.894-1.569-1.357-2.345l-.094-.152c-.12-.2-.239-.4-.37-.6-.172-.245-.341-.49-.511-.738-.16-.229-.321-.461-.482-.693l-.143-.21-.292-.466.067.13-.16-.223c-.633-.885-1.284-1.8-1.835-2.76a20.8,20.8,0,0,1-1.066-2.093.884.884,0,0,1-.055-.13c-.154-.354-.3-.711-.457-1.083q-.221-.535-.446-1.068c-.352-.829-.64-1.547-.878-2.2-.317-.849-.6-1.718-.876-2.556-.31-.932-.584-1.875-.878-3.056-.067,1.442-.123,2.744-.134,4.059l-.02,1.7a1.117,1.117,0,0,1,.163.584c0,.446-.015.892-.029,1.337-.009.308-.018.617-.022.927-.015.711.031,1.416.069,1.884.1,1.059.225,2.111.35,3.167.131,1.125.236,2.182.305,3.232l.015-.12c.192,2,.39,3.6.629,5.062.1.66.234,1.319.363,1.977l.094.481c.091.481.165.967.24,1.453l.024.163c.038.256.076.512.118.769.159.988.308,1.8.471,2.555.163.771.347,1.67.47,2.575.044.338.082.677.12,1.019.062.562.127,1.144.234,1.71.049.269.107.537.167.8a.923.923,0,0,1,.223.462l.1.668.044.288.054.2.044.163c.12.435.225.874.328,1.313.1.41.192.818.3,1.224l.127.483c.08.317.163.633.255.943l.076.252c.114.383.227.767.325,1.153.176.67.381,1.344.578,1.993l.049.163.212.7.234.771c.433.994.847,1.913,1.27,2.806.85,1.785,1.783,3.571,2.688,5.3l.091.179.742,1.42a2.939,2.939,0,0,0,.281.442l.223.528.083.2c.343.816.7,1.66,1.016,2.5.51,1.346,1.144,3.023,1.881,4.563l.067.14c.33.682.669,1.389,1.041,2.064.339.611.7,1.208,1.055,1.808l.172.29c.815,1.358,1.609,2.762,2.38,4.119l.11.2.1.176c.677,1.2,1.38,2.434,2.091,3.638,1.473,2.49,3.141,5.057,5.247,8.082.666.932,1.344,1.854,2.026,2.777l.131.179.64.867.366.428a.62.62,0,0,1,.575.33l.2.422c.172.372.348.753.555,1.11.219.372.459.733.684,1.065.457.515.912,1.03,1.353,1.556.167.2.332.406.5.608l.109.134.265.328c.158.2.325.39.495.586q.2.224.388.453c.143.172.285.339.428.508l.138.16.3.35c.292.343.557.718.82,1.092l.169.239.361.508.466.657.227.314c.219.3.437.6.64.914a1.04,1.04,0,0,1,.172.49l.508.682.787,1.05.383.5.381.5c.693.863,1.462,1.707,2.14,2.452l.051.055c.607.669,1.231,1.387,1.966,2.258.192.229.377.463.6.735l.075.1c.2.243.393.486.593.722q.626.745,1.266,1.48c.5.575.992,1.154,1.482,1.736l.147.172.815.965q.77.906,1.507,1.832a1.752,1.752,0,0,1,.18.227q.419.529.831,1.059c.4.521.783,1.054,1.193,1.625l.094.131c.3.41.607.821.916,1.228l.178.236.208.27c.468.6.949,1.226,1.393,1.875.158.23.312.462.466.7l.065.1c.272.408.552.829.849,1.226a30.366,30.366,0,0,0,2.182,2.477l.5.5c.223.221.446.444.664.667l.3.31.149.154c.223.234.446.466.678.691.357.348.682.726,1.008,1.1l.147.169.306.348c.24.274.486.553.722.834.264.32.616.744.992,1.14q.84-.589,1.667-1.188c1.233-.894,2.556-1.88,4.114-3.067-.115-.246-.227-.5-.338-.764C753.83,1785.691,753.414,1784.467,753,1783.248Z" transform="translate(-301.628 -1261.142)" fill="#e0bc77"/>
</svg>
