<svg xmlns="http://www.w3.org/2000/svg" width="845.623" height="565.018" viewBox="0 0 845.623 565.018">
  <g id="Group_2027" data-name="Group 2027" transform="translate(-974.728 -639)">
    <path id="Path_2339" data-name="Path 2339" d="M2428.8,92.479a27.983,27.983,0,0,0,1.236,2.587c.51.93,1,1.873,1.485,2.816a57.972,57.972,0,0,0,3.191,5.463c.7.9,1.423,1.785,2.05,2.74.643.972,1.184,2,1.755,3.011a77.259,77.259,0,0,0,4.119,6.673c.667.911,1.325,1.826,1.933,2.779.173.272.343.546.514.82.129-.188.257-.376.387-.562.75-1.081,1.573-2.1,2.41-3.115-.106.133-.214.266-.32.4q.472-.586.944-1.172c.387-.482.776-.964,1.168-1.44l-.325.406c1.2-1.5,2.465-2.944,3.679-4.431,1.411-1.779,2.7-3.633,4-5.5a40.069,40.069,0,0,0,3.4-5.985,27.806,27.806,0,0,0,1.745-5.774,6.93,6.93,0,0,0,.036-1.017c-.114-.714-.316-1.412-.5-2.114-.211-.839-.453-1.666-.735-2.486a9.63,9.63,0,0,0-.624-1.265,9.5,9.5,0,0,0-.671-.69,12.766,12.766,0,0,0-1.348-.729,12.1,12.1,0,0,0-2.117-.661,11.823,11.823,0,0,0-1.636.027,13.254,13.254,0,0,0-2.3.556,12.293,12.293,0,0,0-1.814,1.023,10.808,10.808,0,0,0-1.357,1.243,23.072,23.072,0,0,0-1.975,3.481,1.761,1.761,0,0,1-.5.6,3.013,3.013,0,0,1-5.556-.749,3.016,3.016,0,0,1,.018-1.516l-.009-.026a4.394,4.394,0,0,0-.215-.393,13.737,13.737,0,0,0-1.184-1.169c-.432-.391-.858-.783-1.3-1.16a14.816,14.816,0,0,0-2.534-1.45,9.635,9.635,0,0,0-1.417-.466,14.932,14.932,0,0,0-2.847.065,8.877,8.877,0,0,0-1.2.272,8.167,8.167,0,0,0-.871.476,12.31,12.31,0,0,0-1.169,1.093,7.651,7.651,0,0,0-.435.739,10.428,10.428,0,0,0-.281,1.015,8.162,8.162,0,0,0,.015,1.087A28.973,28.973,0,0,0,2428.8,92.479Zm19.974,22.107-.108.133Z" transform="translate(-997.726 560.724)" fill="none"/>
    <path id="Path_2340" data-name="Path 2340" d="M2320.645,217.65c.994-1.4,1.923-2.843,2.856-4.283.431-.667.876-1.342,1.241-2.048.313-.608.611-1.218.9-1.837.453-1.09.844-2.193,1.211-3.313a30.289,30.289,0,0,0,.959-3.558c.109-.862.2-1.731.228-2.6a20.742,20.742,0,0,0-.064-2.44,18.931,18.931,0,0,0-.712-2.994,8.819,8.819,0,0,0-.635-1.25,6.725,6.725,0,0,0-.687-.729,6.41,6.41,0,0,0-.743-.458,7.166,7.166,0,0,0-1.043-.3,7.431,7.431,0,0,0-1-.048c-.361.009-.72.04-1.079.073a12.928,12.928,0,0,0-2.485.533,8.465,8.465,0,0,0-1.162.666,10.363,10.363,0,0,0-1.3,1.211,12.877,12.877,0,0,0-1.236,2.048c-.168.406-.327.815-.484,1.227a6,6,0,0,1-1.238,2.24,2.184,2.184,0,0,1-2.6.315,3.033,3.033,0,0,1-1.066-1.351,10.7,10.7,0,0,0-.7-1.155,22.231,22.231,0,0,0-3.117-3.166,12.159,12.159,0,0,0-1.547-.992q-.9-.469-1.824-.893c-.988-.418-1.987-.8-2.993-1.172a21.751,21.751,0,0,0-3.228-.982,20.073,20.073,0,0,0-4.141-.029c-.264.033-.529.069-.792.12a7.861,7.861,0,0,0-1.1.3,8.622,8.622,0,0,0-.976.516,7.349,7.349,0,0,0-.781.755,7.738,7.738,0,0,0-.687,1.151,12.908,12.908,0,0,0-.588,2.159,8.817,8.817,0,0,0-.036,1.575,14.258,14.258,0,0,0,.708,2.667,63.7,63.7,0,0,0,6.227,11.69c1.356,1.807,2.832,3.51,4.345,5.186,1.5,1.657,2.969,3.336,4.478,4.983,1.477,1.613,2.977,3.213,4.567,4.717.977.926,1.976,1.826,2.984,2.714a5.932,5.932,0,0,1,.78-.7c.353-.263.722-.515,1.054-.8a15.857,15.857,0,0,0,1.838-1.917c.975-1.243,1.88-2.529,2.791-3.821C2318.715,220.317,2319.69,218.992,2320.645,217.65Z" transform="translate(-946.091 521.127)" fill="none"/>
    <g id="Group_2025" data-name="Group 2025" transform="translate(1372.818 771.815)">
      <path id="Path_2291" data-name="Path 2291" d="M2344.271,325.786h.03l-.046-.005Z" transform="translate(-2339.718 -300.791)" fill="#e0bc77"/>
      <path id="Path_2292" data-name="Path 2292" d="M2345.568,331.062l.035.028h0l-.039-.031Z" transform="translate(-2340.202 -302.742)" fill="#e0bc77"/>
      <path id="Path_2293" data-name="Path 2293" d="M2337.392,307.255h0l-.008,0Z" transform="translate(-2337.178 -293.939)" fill="#e0bc77"/>
      <path id="Path_2294" data-name="Path 2294" d="M2341.413,295.2c.758.133,1.509.293,2.267.411a16.534,16.534,0,0,0,2,.177,3.8,3.8,0,0,0,.188-.424,3.633,3.633,0,0,0,.074-.606,3.68,3.68,0,0,1,.047-.677,2.518,2.518,0,0,1,.217-.667,1.929,1.929,0,0,1,.988-.931l.051-.015a1.927,1.927,0,0,1,.186-.129,1.714,1.714,0,0,1,.8-.28,2.028,2.028,0,0,1,1.472.65,2.64,2.64,0,0,1,.411.48,2.944,2.944,0,0,1,.218.427,2.176,2.176,0,0,1,.235.32c.084.149.161.3.23.454.022.035.043.07.065.1l.087.138c.014.021.026.043.04.064s.047.04.073.058c.073.037.146.071.22.1.029-.067.054-.135.078-.2.011-.053.021-.106.028-.16-.01-.211-.031-.422-.041-.634a5.09,5.09,0,0,1,.008-1.056,5.478,5.478,0,0,1,.224-.8,3.466,3.466,0,0,1,.18-.435,2.717,2.717,0,0,1,.43-.645,2.763,2.763,0,0,1,.49-.43,2.517,2.517,0,0,1,.953-.372,2.455,2.455,0,0,1,.343-.023,2.81,2.81,0,0,1,.3.016,3.723,3.723,0,0,1,1.031.249,2.284,2.284,0,0,1,.556.337l.067-.005a1.241,1.241,0,0,1,.361-.2c-.009-.042-.02-.083-.028-.126-.064-.313-.12-.63-.195-.943s-.15-.625-.207-.943c-.022-.127-.052-.253-.076-.379-.624-.2-1.247-.4-1.879-.586-.335-.1-.669-.195-1-.294-.993-.3-2.02-.6-3.061-.8a15.643,15.643,0,0,0-2.951-.288,14.1,14.1,0,0,0-1.761.108l-.461.058c-.973.122-1.978.248-2.955.447a4.576,4.576,0,0,0-2.859,1.4,2.771,2.771,0,0,0-.533,1.545,1.839,1.839,0,0,0-.468.262,1.924,1.924,0,0,0-.758,1.341l0,.1c-.031,1-.053,2.029.009,3.05.188.018.376.036.564.061.418.052.832.118,1.246.2C2339.741,294.865,2340.575,295.054,2341.413,295.2Z" transform="translate(-2337.057 -286.129)" fill="#e0bc77"/>
      <path id="Path_2295" data-name="Path 2295" d="M2353.8,296.036h0Z" transform="translate(-2343.247 -289.792)" fill="#e0bc77"/>
      <path id="Path_2296" data-name="Path 2296" d="M2777.552,440.529c-.079-.044-.164-.089-.244-.133l.172.166C2777.5,440.55,2777.528,440.54,2777.552,440.529Z" transform="translate(-2499.844 -343.171)" fill="#e0bc77"/>
      <path id="Path_2297" data-name="Path 2297" d="M2784.428,704.928a2.546,2.546,0,0,0,.453-.654,2.983,2.983,0,0,0,.126-2.232c-.7-2.333-1.488-4.628-2.341-6.825-.594-1.526-1.371-3.542-2.122-5.6-.573-1.576-1.035-3.22-1.483-4.81l-.211-.749-.159-.567c-.517-1.831-1.051-3.726-1.67-5.558-.967-2.871-2.228-5.678-3.447-8.393-.509-1.134-1.019-2.267-1.508-3.408-.273-.632-.541-1.267-.809-1.9-.582-1.377-1.184-2.8-1.823-4.183-.865-1.873-1.841-3.73-2.784-5.527l-.409-.778-1.445-2.769q-1.614-3.1-3.241-6.187-.494-.973-.984-1.949c-1.3-2.585-2.646-5.259-4.129-7.81-.9-1.544-1.94-3.343-2.927-5.158q-1.253-2.3-2.489-4.608l-.209-.388-.638-1.254c-1.208-2.374-2.456-4.829-3.757-7.2l-1.3-2.382-1.3-2.382c-.517-.94-1.046-1.872-1.574-2.8l-.813-1.439c-3.644-6.482-7.042-12.924-9.594-17.811q-1.11-2.184-2.2-4.378c-1.3-2.6-2.64-5.28-4.017-7.89l-.531-1.008c-2.029-3.851-4.127-7.834-6.389-11.636l-.9-1.508c-.9-1.508-1.836-3.067-2.72-4.619q-1.092-1.916-2.168-3.839-.708-1.255-1.416-2.51c-1.4-2.472-2.769-5.018-4.091-7.48-.872-1.623-1.743-3.246-2.63-4.86-.911-1.658-1.875-3.321-2.808-4.93l-.846-1.461c-.962-1.674-1.909-3.355-2.856-5.039l-.662-1.175q-.464-.822-.934-1.642c-.789-1.382-1.6-2.81-2.358-4.239-1.216-2.308-2.409-4.564-3.633-6.785-.793-1.443-1.64-2.887-2.458-4.284l-.814-1.39q-1.757-3.018-3.542-6.017c-2.352-3.963-4.83-8.064-7.366-12.189-.595-.968-1.158-1.979-1.7-2.956-.512-.918-1.041-1.868-1.6-2.781-1.034-1.7-2.176-3.363-3.28-4.973l-.49-.715c-.592-.867-1.194-1.73-1.8-2.593-.73-1.047-1.46-2.094-2.175-3.151-1.426-2.108-2.731-4.066-3.989-5.985-.663-1.012-1.307-2.036-1.951-3.06-.514-.817-1.029-1.634-1.552-2.445-.5-.778-1.01-1.552-1.518-2.326-.731-1.112-1.46-2.224-2.171-3.349l-.392-.62c-1.182-1.872-2.4-3.808-3.579-5.726-1.092-1.782-2.284-3.631-3.752-5.818-1.12-1.665-2.434-3.6-3.863-5.446-.51-.661-1.062-1.309-1.6-1.935l-.474-.559-.25-.294c-.7-.82-1.393-1.64-2.1-2.451-.254-.292-.5-.575-.743-.862-.052,1.032-.088,1.982-.11,2.874-.014.448-.022.9-.03,1.347l-.005.337c-.015.914-.029,1.827-.069,2.738a40.017,40.017,0,0,1-.414,4.313c-.143.935-.31,1.864-.478,2.792-.091.5-.18,1-.266,1.5a49.687,49.687,0,0,1-1.112,5.177,27.137,27.137,0,0,1-1.076,2.9c-.135.327-.271.655-.4.984a58.214,58.214,0,0,0-2.407,7.989l-.187.788-.151.635a61.243,61.243,0,0,1-1.875,6.773,47.3,47.3,0,0,1-3.994,8.149,26.293,26.293,0,0,1-5.2,6.4c-.337.293-.591.5-.827.677a5.307,5.307,0,0,1-2.068,1.034,5.478,5.478,0,0,1-.93.089,2.827,2.827,0,0,1-1.224-.249l-.113-.054a11.406,11.406,0,0,1-1.206-.625,24.713,24.713,0,0,1-3.208-2.406,32.8,32.8,0,0,1-3.39-3.309c-.67-.77-1.314-1.59-1.937-2.38l-.091-.115-.576-.734q-.6-.76-1.2-1.514l-.463-.581c-1.268-1.588-2.405-3.021-3.513-4.471-1.152-1.521-1.95-2.612-2.668-3.648l-.283-.4c-.872-1.248-1.775-2.539-2.548-3.9l-.567-.995c-1.267-2.23-2.58-4.535-3.776-6.868-.682-1.33-1.4-2.75-2.081-4.21-.212-.458-.433-.911-.655-1.364l-.074-.152c-.394-.807-.8-1.642-1.16-2.479-.5-1.16-1.024-2.41-1.494-3.7l-.108-.3a30.171,30.171,0,0,1-1.317-4.219,19.509,19.509,0,0,1-.367-2.927,12.361,12.361,0,0,1,.027-2.127,16.032,16.032,0,0,1,1.281-4.759,34.819,34.819,0,0,1,5.037-7.681l.7-.854.106-.128c.59-.722,1.2-1.467,1.814-2.181,1.014-1.17,2.048-2.319,3.084-3.471a23.389,23.389,0,0,0,1.82-2.415c.357-.549.694-1.118,1.021-1.669l.052-.088c.271-.461.545-.921.828-1.371,1.4-2.238,2.461-3.969,3.464-5.874a13.554,13.554,0,0,0,.847-2.295,5.458,5.458,0,0,0,.034-.665,7.661,7.661,0,0,0-.216-1.024,10.937,10.937,0,0,0-.943-1.762,10.735,10.735,0,0,0-1.443-1.549,26.8,26.8,0,0,0-2.959-2.033c-.908-.527-1.812-.987-2.942-1.556a40.67,40.67,0,0,0-4.406-1.814c-1.492-.475-2.88-.849-4.249-1.139a50.071,50.071,0,0,0-7.4-.436,1.815,1.815,0,0,1-1.31-.6,2.076,2.076,0,0,1-.566-1.5,2.036,2.036,0,0,1,2.1-1.881l.231.005a45.161,45.161,0,0,1,7.221.463,33.405,33.405,0,0,1,6.7,1.92c1,.4,1.909.783,2.744,1.151,1.374.606,2.554,1.182,3.657,1.781a25.458,25.458,0,0,1,2.863,1.724c.288.207.542.4.783.584.321.248.612.484.884.721.032.028.066.055.1.084a12.478,12.478,0,0,1,2.036,2.425l.032.049a7.985,7.985,0,0,1,.655,1.11,8.784,8.784,0,0,1,.714,2.031,7.013,7.013,0,0,1,.15,2.115,11.472,11.472,0,0,1-.536,2.348,31.242,31.242,0,0,1-2.258,4.589l-.623,1.1q-.783,1.37-1.551,2.745c-.281.51-.542,1.032-.8,1.554-.36.724-.731,1.472-1.162,2.174a36.069,36.069,0,0,1-2.265,3.186l-.214.28c-1.044,1.364-1.822,2.423-2.525,3.432a62.482,62.482,0,0,0-4.338,6.95,15.717,15.717,0,0,0-.827,1.945c-.207.635-.369,1.2-.5,1.731a15.173,15.173,0,0,0-.131,2.592,24.749,24.749,0,0,0,1.094,4.513c.623,1.674,1.253,3.178,1.927,4.6,1.017,2.164,1.866,3.89,2.667,5.438.862,1.666,1.864,3.422,3.156,5.522,1.032,1.674,2,3.2,2.969,4.665.926,1.3,1.891,2.607,2.824,3.873l.12.162.138.185c.874,1.187,1.748,2.373,2.6,3.575l.783,1.093.069.1c.817,1.139,1.665,2.319,2.468,3.5q.893,1.315,1.785,2.639l.5.751a37.064,37.064,0,0,0,2.8,3.442c.426.466,1.009,1.1,1.531,1.755.133.168.261.342.391.542a20.251,20.251,0,0,0,1.47-1.5,19.406,19.406,0,0,0,1.593-2.113c.485-.77.908-1.593,1.258-2.3a49.03,49.03,0,0,0,2.146-5.17,48.1,48.1,0,0,0,1.51-5.431c.18-1.022.335-2.051.49-3.083a45.351,45.351,0,0,1,2.034-9.138c.18-.49.371-.975.561-1.462l.118-.306a43.4,43.4,0,0,0,1.479-4.2c.2-.724.352-1.462.512-2.282l.071-.357.089-.446.167-.8c.124-.591.246-1.184.365-1.775a45.036,45.036,0,0,0,.65-4.761c.1-1.364.133-2.767.163-4.005l.029-1.105.03-.948.022-.736q.045-1.48.084-2.959c.03-1.236-.005-2.57-.11-4.2-.047-.507-.113-1-.176-1.5-.138-.665-.294-1.326-.453-1.987-.046-.194-.084-.39-.132-.584-.126-.5-.254-1-.38-1.5-.062-.239-.12-.48-.173-.723-.367-.955-.7-1.922-.982-2.908-.108-.382-.2-.766-.293-1.15-.042-.172-.064-.349-.093-.522-.042-.224-.082-.451-.121-.674-.071-.394-.12-.793-.18-1.187-.051-.342-.105-.684-.147-1.027-.073-.593-.13-1.187-.176-1.782-.347-1.139-.692-2.281-1-3.434-.236-.481-.474-.961-.7-1.448-.237-.519-.5-1.029-.762-1.535-.074-.142-.147-.284-.223-.425-.192-.353-.394-.7-.6-1.046q-.279-.464-.565-.923c-.086-.14-.172-.279-.26-.417-.33-.417-.657-.834-.991-1.247-.9-1.11-1.8-2.224-2.721-3.314-.256-.3-.517-.6-.768-.908s-.5-.584-.736-.891l-.047-.064-.846-.791c-.408-.382-.815-.765-1.225-1.145-1.007-.931-2.029-1.848-3.048-2.77q-.608-.518-1.22-1.03l-.184-.121c-.582-.368-1.175-.719-1.784-1.041-.347-.158-.7-.3-1.053-.45-.391-.17-.772-.365-1.172-.525s-.812-.3-1.221-.45c-.56-.2-1.11-.424-1.66-.65l-.862-.355-.107-.044c-.791-.325-1.625-.542-2.438-.805-.392-.127-.791-.238-1.19-.349-.534-.147-1.07-.291-1.6-.446-.51-.149-1.025-.282-1.538-.423s-1.035-.292-1.555-.428a2.26,2.26,0,0,1-.4-.095l-.1-.035c-.482-.125-.964-.246-1.447-.367l-.781-.2c-.948-.239-1.9-.487-2.841-.756-.829-.237-1.646-.534-2.486-.739l-.173-.025c-.6-.091-1.195-.164-1.792-.276l.224.045c-1.155-.222-2.333-.4-3.464-.741-1-.3-1.989-.63-2.984-.948s-2.016-.6-3.008-.938a21.527,21.527,0,0,1-3.447-1.7,1.587,1.587,0,0,1,.584-2.873,1.533,1.533,0,0,1,.283-.027,1.835,1.835,0,0,1,.905.271c.482.27.96.539,1.448.8a30.771,30.771,0,0,0,3.691,1.461,35.87,35.87,0,0,0,3.691,1.014,16.067,16.067,0,0,0,3.527.255,8.657,8.657,0,0,1,1.452-.02c-.172-.185-.347-.366-.518-.552-.274-.3-.55-.6-.83-.9-.546-.577-1.1-1.145-1.661-1.713l-.879-.9c-1.218-1.255-2.522-2.455-3.784-3.615l-.862-.794c-1.072-.993-2.186-1.977-3.263-2.929q-.891-.787-1.779-1.579c-.77-.688-1.532-1.385-2.295-2.081-.891-.814-1.781-1.627-2.683-2.426-.642-.571-1.337-1.1-2.01-1.617l-.513-.393c-.872-.671-1.773-1.31-2.539-1.847-1.489-1.044-2.973-2.142-4.41-3.2l-.829-.613c-1.227-.906-2.495-1.791-3.723-2.648l-1.354-.947c-.656-.461-1.308-.93-1.959-1.4-.969-.7-1.971-1.417-2.974-2.1-2.952-2.019-6.01-3.982-8.967-5.88l-1.73-1.112c-1.75-1.128-3.507-2.2-5.3-3.284-.9-.546-1.819-1.07-2.735-1.595-.828-.473-1.654-.947-2.472-1.436l-.347-.209c-.763-.46-1.526-.92-2.3-1.357-.946-.531-1.907-1.02-2.723-1.428q-2.515-1.267-5.052-2.506c-2.463-1.2-4.893-2.571-7.242-3.895-.915-.516-1.83-1.031-2.75-1.538-1.482-.817-2.8-1.476-4.018-2.017-1.622-.716-3.336-1.289-4.848-1.795l.237.093c-1.866-.642-3.4-1.135-4.819-1.557a51.23,51.23,0,0,0-6.031-1.287l-.2-.035q-1.617-.277-3.237-.568c-.686-.123-1.369-.26-2.052-.4-.483-.1-.967-.194-1.452-.286a46.81,46.81,0,0,0-6.231-.7l-.337-.018c-1.391-.076-2.83-.155-4.246-.155q-.7,0-1.4.028c-2.311.1-4.408.156-6.41.177-1.531.014-3.082.153-4.583.287l-1.068.095c-2.17.187-3.993.33-5.834.423-.659.034-1.344.051-2.04.051s-1.458-.018-2.223-.054l-.394-.02c-.544-.028-1.108-.057-1.663-.057h-.2q-.257,0-.514,0-.642,0-1.283-.026c-.682-.057-1.334-.149-2.116-.263-.243-.035-.489-.061-.734-.087-.147-.015-.294-.031-.441-.048a11.976,11.976,0,0,1-1.284-.249q-1.05-.247-2.1-.484c-.956-.218-1.912-.436-2.864-.666-.83-.2-1.681-.378-2.478-.539-.232-.047-.465-.091-.7-.136l-.479-.091c-.26-.052-.517-.119-.774-.187-.193-.051-.387-.1-.582-.146-2.034-.462-4.036-1.073-5.554-1.554-2.425-.767-4.44-1.342-6.344-1.807-.847-.207-1.7-.389-2.551-.572-1.2-.256-2.431-.52-3.631-.852-.54-.151-1.075-.316-1.61-.48-.451-.139-.9-.278-1.356-.408-.35-.1-.706-.192-1.061-.282l-.3-.076c-.278-.069-.552-.149-.826-.23s-.518-.151-.779-.218c-.663-.171-1.325-.352-1.986-.533l-1.183-.321c-1.248-.332-2.508-.558-3.575-.736-1.5-.247-3-.582-4.46-.905l-.158-.035c-1.4-.313-2.882-.688-4.655-1.179-.692-.193-1.381-.4-2.07-.613-.672-.2-1.344-.409-2.021-.6-.822-.23-1.672-.411-2.493-.586-.524-.112-1.048-.223-1.567-.347-2.041-.49-4.1-1.071-6.09-1.632l-1.549-.436c-1.1-.3-2.265-.656-3.783-1.139q-.955-.3-1.913-.6c-.863-.268-1.726-.536-2.585-.816-.286-.1-.575-.2-.864-.292-.861-.3-1.694-.615-2.528-.93-.781-.3-1.562-.591-2.349-.868-.2-.071-.4-.136-.6-.206.119.631.233,1.264.369,1.891.1.476.212.949.31,1.424a4.982,4.982,0,0,1,.294.6l.093.222.086.208c.127.307.253.613.372.925a27.255,27.255,0,0,1,.928,2.915c.139.533.292,1.061.444,1.589l.06.21.239.825a18.323,18.323,0,0,1,.667,3.4,3.957,3.957,0,0,1-.428,2.163,3.343,3.343,0,0,1-1.867,1.537,4.26,4.26,0,0,1-1.521.259,5.943,5.943,0,0,1-1.346-.16,16.1,16.1,0,0,1-2.891-1.064l-.192-.086q-1.259-.554-2.511-1.12c-.5-.226-1.006-.46-1.51-.695L2350,305.4c-1.181-.547-2.4-1.112-3.631-1.6l-1.027-.4c-1.039-.389-2.017-.739-2.988-1.071-.385-.13-.782-.275-1.179-.434-.348-.079-.693-.171-1.039-.258-.477-.122-.951-.256-1.425-.386l-.1-.027a1.35,1.35,0,0,1,.141.164l0,.005a22.083,22.083,0,0,1,1.3,2.263,16.978,16.978,0,0,0,1.159,1.9c.455.589.949,1.141,1.426,1.712.537.638,1.017,1.32,1.553,1.959a19.681,19.681,0,0,0,1.657,1.795c.562.522,1.146,1.03,1.734,1.521.462.357.928.71,1.386,1.074h0l.073.057-.073-.056c.192.153.383.308.573.463.268.2.559.359.841.536a11.626,11.626,0,0,1,1.1.832h0l.418.334-.244-.192c.263.207.522.421.783.631.413.319.834.633,1.26.935q.506.354,1.021.691c.36.234.7.5,1.061.736.323.2.657.382.972.6a8.971,8.971,0,0,0,1.017.586,16.329,16.329,0,0,1,2.536,1.455c.279.211.543.44.814.661.361.2.721.406,1.073.622q.709.432,1.413.874c1.221.764,2.6,1.632,4.012,2.383,1.838.976,3.8,2,5.846,2.907l.736.324q2.535,1.116,5.074,2.222c1.733.75,3.5,1.481,5.217,2.188l.11.045.32.133c1.019.422,2.022.924,2.908,1.366,1.008.5,1.866.962,2.624,1.411.461.271.916.546,1.371.822l.055.033c1.117.679,2.271,1.38,3.461,1.973.995.495,2,.972,3,1.448.758.359,1.517.718,2.27,1.088,1.63.8,3.182,1.494,4.743,2.112,1.177.42,2.4.8,3.449,1.125l.293.089c1.009.313,2.152.668,3.287.95,1.247.306,2.467.565,3.916.862.44.091.881.17,1.324.248l.64.113c.546.1,1.132.212,1.715.288l.762.066c.7.062,1.406.124,2.11.158.824.048,1.663.064,2.475.08l.2,0,.638.01c1.885.038,3.809.2,5.507.349l.064.006c.466.04.93.08,1.394.115a2.382,2.382,0,0,1,1.582.6,2.2,2.2,0,0,1,.079,3.135,2.143,2.143,0,0,1-1.516.684l-1.283.025c-1.5.029-3.368.064-5.145.138-.6.022-1.2.037-1.8.037a23.584,23.584,0,0,1-4.438-.372l-.379-.074c-.756-.142-1.7-.319-2.588-.549-.411-.1-.824-.2-1.239-.3l-.255-.062c-.361-.087-.72-.174-1.079-.268-1.937-.5-3.524-.949-4.99-1.413-.387-.123-.773-.251-1.162-.382l-.185-.061c-.4-.132-.8-.266-1.2-.391s-.785-.239-1.179-.357c-.513-.155-1.024-.31-1.534-.473-1.837-.583-3.716-1.277-5.744-2.122q-1.194-.5-2.39-.988l-.99-.408-1.876-.773c-1.515-.625-2.991-1.38-4.474-2.137l-.758-.389c-1.741-.882-3.578-1.77-5.46-2.636-.566-.258-1.138-.5-1.711-.748-.374-.16-.75-.323-1.125-.488-.735-.327-1.453-.676-2.125-1l-.529-.256a120.989,120.989,0,0,1-11.328-6.214c-1.733-1.076-3.52-2.263-5.312-3.526-.874-.617-1.778-1.255-2.73-1.814-.829-.487-1.728-.993-2.747-1.546l-.7-.376c-.369-.2-.741-.4-1.113-.6a1.237,1.237,0,0,1-.228-.072.948.948,0,0,1-.107-.058l-.042-.018a11.387,11.387,0,0,0-1.8-.289,4.548,4.548,0,0,0-.423.168,2.392,2.392,0,0,0-.318.242,3.413,3.413,0,0,0-.423.5c-.013.024-.023.049-.036.074.012.089.023.179.028.27s0,.178,0,.267c.66.99,1.319,1.981,1.995,2.959.909,1.319,1.956,2.678,3.292,4.277.85,1.014,1.775,1.993,2.67,2.941.336.356.673.712,1.005,1.07l.515.558a39.429,39.429,0,0,0,3.011,3.043c.827.721,1.708,1.4,2.56,2.063.525.406,1.049.812,1.564,1.228.354.285.707.572,1.06.858,1.164.947,2.368,1.926,3.6,2.827a35.641,35.641,0,0,0,5.2,3.021c1.584.791,3.232,1.519,4.825,2.223l.752.333c2.023.894,3.67,1.6,5.183,2.235,2.068.866,4.145,1.712,6.221,2.557q2.276.927,4.547,1.862c.631.262,1.257.564,1.863.857l.654.314q1.185.561,2.379,1.112c1.639.758,3.284,1.465,4.966,2.184l.7.294c.647.273,1.3.546,1.934.843q1.322.616,2.634,1.253c1.464.708,2.878,1.484,4.551,2.43,1.068.632,2.13,1.31,3.156,1.966q.687.439,1.376.875c1.006.633,2.019,1.254,3.031,1.876q1.133.695,2.261,1.393c1.536.956,3.149,1.835,4.709,2.686l.6.325,1.134.62c1.245.681,2.489,1.36,3.726,2.053,1.453.86,3.1,1.834,4.682,2.856q1.031.669,2.057,1.344c.929.609,1.858,1.218,2.792,1.819,1.575,1.016,3.135,2.108,4.644,3.164l.125.088c1.9,1.336,3.422,2.452,4.776,3.51,1.129.883,2.251,1.778,3.373,2.673l1.317,1.049c.87.69,1.751,1.363,2.635,2.037.6.456,1.194.911,1.787,1.373l.335.26q2.075,1.606,4.141,3.226c1.324,1.044,2.7,2.065,4.035,3.053l.249.185c2.694,1.994,5.439,4.134,8.39,6.544,1.289,1.052,2.669,2.186,4.027,3.348.82.7,1.625,1.421,2.43,2.141.594.531,1.187,1.063,1.788,1.586q.817.712,1.626,1.434c.811.719,1.622,1.438,2.445,2.141l.259.221c1.238,1.059,2.519,2.154,3.747,3.267,2.717,2.456,5.281,4.955,7.648,7.289,1.6,1.611,3.16,3.18,4.752,4.673,1.691,1.583,3.364,3.232,4.84,4.688,1.194,1.23,2.437,2.552,4.032,4.286,1.06,1.151,2.094,2.363,3.094,3.534l.9,1.057c.74.865,1.467,1.742,2.192,2.619.584.705,1.168,1.411,1.759,2.11q.567.669,1.139,1.332c.935,1.087,1.9,2.212,2.8,3.36,2.739,3.477,5.313,7.159,7.469,10.3l.831,1.209c.873,1.269,1.776,2.581,2.635,3.892.906,1.385,1.793,2.817,2.651,4.2l.748,1.2q.545.874,1.1,1.745c.536.851,1.071,1.7,1.6,2.558q.384.625.764,1.251c.6.984,1.219,2,1.853,2.986l.818,1.269c1.51,2.339,3.071,4.759,4.526,7.192l0,0h0l.006.011.017.028.005,0,0,.005.017.03.51.868c.548.935,1.1,1.87,1.623,2.817l.895,1.61q.694,1.253,1.393,2.5l.411.73c.666,1.188,1.354,2.416,2.073,3.6l1.849,3.028.7,1.155c1.917,3.293,4.091,7.026,6.1,10.753,1.092,2.022,2.148,4.045,2.946,5.581.436.839.864,1.681,1.292,2.523.52,1.024,1.041,2.048,1.574,3.066,2,3.817,3.879,7.6,5.583,11.233q1.411,3.013,2.8,6.029c.47,1.017.954,2.026,1.438,3.036.351.734.7,1.467,1.049,2.2.668,1.422,1.351,2.839,2.034,4.253,1.181,2.449,2.4,4.981,3.522,7.509.582,1.313,1.136,2.667,1.671,3.976q.377.924.759,1.845c.565,1.357,1.109,2.723,1.652,4.09l.7,1.745c.7,1.763,1.425,3.52,2.146,5.278l.208.505q.4.977.81,1.952c.5,1.2,1,2.392,1.472,3.6l.19.486c.72,1.837,1.464,3.737,2.146,5.624.638,1.763,1.3,3.68,2.078,6.031l.544,1.633c.482,1.444.964,2.887,1.425,4.337.767,2.4,1.375,4.231,1.969,5.924,1.261,3.588,2.507,7.25,3.71,10.79l.548,1.613q.634,1.861,1.277,3.717l.833,2.42.5,1.45c.473,1.388.963,2.823,1.471,4.223.713,1.96,1.456,3.872,2.282,5.988.789,2.012,1.625,4.155,2.4,6.272,1.3,3.56,2.541,7.4,3.683,11.415.576,2.029,1.169,4.052,1.762,6.076q.768,2.621,1.524,5.244.879,3.154,1.724,6.314c.249.928.487,1.857.725,2.785.326,1.269.652,2.536,1,3.8a2.6,2.6,0,0,0-.077,1.383,5.648,5.648,0,0,0,.135.66,13.911,13.911,0,0,0,.49,1.453.991.991,0,0,0,.414.54.818.818,0,0,0,.173.077c.051.474.1.954.157,1.434.065.584.129,1.169.2,1.751q.1.847.2,1.695.094.824.191,1.649c.206,1.745.435,3.6.76,5.416.129.712.282,1.418.435,2.125.187.862.38,1.754.523,2.641.087.709.152,1.437.2,2.225.025.408.042.817.057,1.226.005.154.006.309.006.464a6.716,6.716,0,0,0,.035.831l.058.422a1.608,1.608,0,0,0,.419.729,1.632,1.632,0,0,0,2.3,0,1.58,1.58,0,0,0,.443-.865,10.809,10.809,0,0,0,1.229.057c.348,0,.7-.009,1.041-.018l.1,0q.6-.011,1.2-.027l.576-.013c.5-.009,1.007-.02,1.509-.047l1.482-.083,1.516-.084c.478-.025.956-.068,1.432-.111l.651-.057.544-.044c.481-.038.963-.076,1.443-.124l.962-.1c1.273-.127,2.547-.254,3.817-.394,2.945-.321,6.1-.7,9.924-1.182l.9-.116c1.042-.134,2.121-.273,3.183-.379l.226-.022q1.24-.122,2.479-.246c.562-.057,1.127-.095,1.692-.132l.8-.055c2.8-.208,6.049-.441,9.245-.576,3.083-.129,6.155-.163,9.564-.192q2.483-.022,4.967-.018h4.514q9.25.008,18.5.054,4.972.022,9.946.055,4.349.025,8.7.048l4.5.017,4.5.018,2.431.01,2.438.01q.659,0,1.318.012c.588.007,1.175.013,1.763.013.462,0,.923,0,1.385-.015.921-.024,1.855-.08,2.759-.135.427-.026.854-.052,1.281-.074.446-.023.894-.044,1.341-.065l.67-.032c.562-.028,1.131-.089,1.682-.149l.478-.05c1.366-.142,2.751-.267,4.116-.369.29-.022.578-.042.869-.044.177,0,.355,0,.532,0h.226a4.409,4.409,0,0,0,.667-.069l.114-.018a3.088,3.088,0,0,0,.957-.442.661.661,0,0,0,.09.005.938.938,0,0,0,.71-.3c.293-.325.585-.65.886-.97.288-.117.579-.24.862-.383a2.825,2.825,0,0,0,.73-.582,3.621,3.621,0,0,0,.538-.748,1.681,1.681,0,0,0,.193-.561c.2-.2.393-.4.577-.615a1.131,1.131,0,0,0,.319-.77,1.1,1.1,0,0,0-.319-.77A1.132,1.132,0,0,0,2784.428,704.928Zm-412.54-385.8a1.421,1.421,0,0,1-1.019.447,1.5,1.5,0,0,1-1.118-2.564,1.421,1.421,0,0,1,1.019-.447,1.527,1.527,0,0,1,1.555,1.456A1.542,1.542,0,0,1,2371.889,319.132Zm1.519-10.763a1.614,1.614,0,0,1-1.166.514,1.724,1.724,0,0,1-1.28-2.945,1.614,1.614,0,0,1,1.167-.514,1.725,1.725,0,0,1,1.279,2.945Zm12.017,17.482a1.045,1.045,0,0,1-.753.332,1.112,1.112,0,0,1-.827-1.9,1.044,1.044,0,0,1,.753-.332,1.112,1.112,0,0,1,.827,1.9Zm.423-14.515a2.149,2.149,0,0,1-1.549.681,2.291,2.291,0,0,1-1.7-3.911,2.15,2.15,0,0,1,1.548-.681,2.291,2.291,0,0,1,1.7,3.911Zm10.263,8.3a1.865,1.865,0,0,1-1.344.59,1.989,1.989,0,0,1-1.477-3.4,1.865,1.865,0,0,1,1.344-.59,1.989,1.989,0,0,1,1.477,3.4Zm7.082,9.575a1.4,1.4,0,0,1-.965.534,1.6,1.6,0,0,1-1.093-.313,1.466,1.466,0,0,1-.222-2.058,1.4,1.4,0,0,1,.966-.534,1.6,1.6,0,0,1,1.093.313,1.464,1.464,0,0,1,.221,2.058Zm98.724,12.28-.025.236-.025.24a1.791,1.791,0,0,1-1.744,1.368,1.783,1.783,0,0,1-1.51-.836l-.064-.128a19.916,19.916,0,0,0-1.088-2.067,15.714,15.714,0,0,0-1-1.371c-.5-.565-.93-1.018-1.343-1.426l-.283-.163c-1.081-.613-2.237-1.164-3.224-1.622l-.062-.027c-.989-.457-2.109-.976-3.22-1.43a60.435,60.435,0,0,0-5.844-1.831c-.852-.222-1.724-.422-2.572-.615l-.185-.042c-1.14-.254-2.253-.508-3.349-.817a17.79,17.79,0,0,1-2.561-.894,2.9,2.9,0,0,1-.451-.252l-.142-.1-.1-.07a4.056,4.056,0,0,1-.627-.487,3.924,3.924,0,0,1-.561-.658,4.62,4.62,0,0,1-.294-.587l-.066-.153a2.554,2.554,0,0,1-.058-1.259,2.078,2.078,0,0,1,.25-.732l.1-.14a2.3,2.3,0,0,1,.8-.812l.088-.047a3.572,3.572,0,0,1,.666-.291c.157-.047.318-.089.48-.128a7.529,7.529,0,0,1,1.72-.2h.032a15.511,15.511,0,0,1,2.659.308c.747.142,1.491.323,2.212.537s1.435.476,2.076.714l.842.31.1.037c1.292.475,2.628.967,3.912,1.528a23.435,23.435,0,0,1,3.874,2.241c1.257.86,2.588,1.861,4.191,3.149a26.071,26.071,0,0,1,3.385,3.319,16.8,16.8,0,0,1,1.517,2c.125.2.246.4.361.607q.528.51,1.034,1.041a.878.878,0,0,1,.056,1.214A1.947,1.947,0,0,1,2501.917,341.494Z" transform="translate(-2337.631 -287.704)" fill="#e0bc77"/>
    </g>
    <g id="Group_2026" data-name="Group 2026" transform="translate(974.728 747.684)">
      <path id="Path_2298" data-name="Path 2298" d="M2294.5,291.806c-.013-.156-.028-.312-.043-.467a3.355,3.355,0,0,1-.081-1.49c-.028-.08-.056-.161-.083-.241s-.061-.182-.091-.273a5.9,5.9,0,0,1-.33-1.271c-.081-.079-.157-.163-.231-.248a5.559,5.559,0,0,1-.726-1.175c0-.007-.008-.015-.01-.022-.3-.345-.633-.66-.96-.97l-.069-.064a4.4,4.4,0,0,0-.832-.637,4.974,4.974,0,0,0-.638-.3l-.2-.084c-.391-.169-.778-.335-1.179-.485a6,6,0,0,0-.657-.2c-.178-.047-.355-.093-.527-.15l-.372-.128a7.771,7.771,0,0,0-1.361-.384,13.329,13.329,0,0,0-2.068-.214h-.074l-.076,0c-2.791.064-5.575.189-8.381.327-.078.469-.159.937-.226,1.407-.022.18-.044.359-.066.539-.01.084-.016.168-.025.251a2.919,2.919,0,0,1,1.956.778,2.832,2.832,0,0,1,.91,2.007l-.029.637c-.049,1.127-.105,2.288-.265,3.421.137-.187.28-.371.431-.546a4.413,4.413,0,0,1,1.308-1.034,4.3,4.3,0,0,1,1.755-.487c.061,0,.122,0,.183,0a3.018,3.018,0,0,1,2.576,1.271,3.677,3.677,0,0,1,.757.815,3.629,3.629,0,0,1,.426,1.017,8.625,8.625,0,0,1,.288,1.876,7.059,7.059,0,0,1,0,.945c-.013.164-.037.325-.061.487,0,.023-.007.047-.009.071-.008.05-.016.1-.025.151s-.008.075-.018.112c0,.013-.01.024-.014.037-.028.141-.055.282-.091.423-.086.34-.17.679-.259,1.017-.05.189-.1.376-.151.566.067-.107.134-.212.2-.32a8.951,8.951,0,0,1,.611-.884,1.639,1.639,0,0,1,.2-.243,3.018,3.018,0,0,1,.3-.227,1.168,1.168,0,0,1,.559-.142.974.974,0,0,1,.729.3,1.273,1.273,0,0,1,.278.475,1.985,1.985,0,0,1,.1.66,7.338,7.338,0,0,1-.029.81,9.675,9.675,0,0,0-.109,1.219l.005.02c.022.04.046.078.071.115s.055.059.084.087c.084.054.171.1.259.149.459-.429.918-.856,1.368-1.274l.359-.333c.441-.411.882-.819,1.32-1.233a11.513,11.513,0,0,0,2.73-3.39,6.6,6.6,0,0,0,.547-1.617A5.643,5.643,0,0,0,2294.5,291.806Z" transform="translate(-1916.094 -260.845)" fill="#b1b0af"/>
      <path id="Path_2299" data-name="Path 2299" d="M2069.2,292.5c-.6.1-1.209.195-1.812.306-.583.1-1.157.246-1.736.369a4.559,4.559,0,0,1-1.918.054,2.726,2.726,0,0,1-1.514-.857,7.725,7.725,0,0,1-.82-1.258,12.2,12.2,0,0,1-.7-1.489,13.259,13.259,0,0,1-.443-1.436,12.588,12.588,0,0,1-.291-1.683c-.154-1.165-.317-2.327-.451-3.493-.034-.262-.069-.522-.1-.782a12.165,12.165,0,0,1-.086-1.228c-.014-.608.018-1.2.06-1.809.037-.539.027-1.078.062-1.617a29.825,29.825,0,0,1,.433-3.555c.106-.549.2-1.1.345-1.642.16-.608.362-1.2.576-1.787.024-.066.048-.13.072-.195l-.669-.03c-1-.047-1.989-.094-2.984-.113-1.455-.032-2.91-.039-4.365-.047l-.374,0c-1.445-.01-2.93-.02-4.395-.054l-2.171-.057c-2.223-.061-4.463-.12-6.669-.12-.6,0-1.2.009-1.808.02s-1.209.022-1.812.022l-.492,0c-1.386-.012-2.762-.074-4.17-.137-2.445-.116-5.074-.219-7.728-.219l-.531,0c-2.836.014-5.675.1-8.823.2-.9.03-1.862.057-2.844.057-.478,0-.958-.008-1.437-.022-.852-.027-1.7-.079-2.558-.133-.539-.035-1.064-.064-1.59-.091-1.268-.061-2.645-.091-4.205-.091-1.347,0-2.694.022-4.04.049-2.012.04-4.055.108-6.032.177l-.125.005c-3,.106-6.108.214-9.163.214l-.655,0c-.583-.005-1.167-.005-1.75-.005-2.275,0-4.56.027-6.788.081-.6.015-1.2.025-1.795.025-.913,0-1.718-.025-2.462-.076s-1.509-.111-2.265-.172c-.554-.045-1.11-.089-1.666-.128a45.581,45.581,0,0,1-4.973-.936,43.823,43.823,0,0,1-4.923-1.475l-1.2-.482c-.81-.328-1.6-.648-2.4-.972-.909-.369-1.846-.714-2.755-1.046l-.124-.045-.3-.113-1.138-.421c-1.27-.5-2.546-.985-3.823-1.465-1.359-.531-2.464-1-3.479-1.487-.82-.394-1.635-.84-2.423-1.271l-.261-.142c-.275-.15-.551-.3-.832-.448-1.184-.633-2.464-1.3-3.792-1.933-.4-.189-.795-.386-1.191-.583a26.751,26.751,0,0,0-2.871-1.3,29.159,29.159,0,0,0-3.73-1.061,31.623,31.623,0,0,0-4.624-.6c-1.071-.076-2.208-.111-3.481-.111-1.442,0-2.907.047-4.325.094l-.074,0-.677.022c-.753.022-1.5.052-2.255.079l-.753.03-1,.037c-1.42.054-2.834.187-4.4.347l-.8.079q-1.617.166-3.24.323l-1.477.133c-.923.079-1.817.155-2.708.258-.734.084-1.465.185-2.193.285l-.374.049c-.5.069-1,.135-1.494.2-1.561.187-2.962.335-4.286.452-2.43.21-4.882.347-7.253.48l-1.083.062c-.993.057-2,.19-2.972.32-.475.064-.936.125-1.393.18-.667.079-1.334.145-2,.212-.7.069-1.4.14-2.1.224-.591.072-1.182.158-1.773.244l-.248.037c-.623.093-1.246.185-1.871.263q-2.027.254-4.05.549c-1.74.248-3.07.425-4.311.574-1.327.152-2.755.364-4.367.647a37.867,37.867,0,0,0-8.255,2.44c-.419.177-.832.362-1.248.549-.714.766-1.409,1.551-2.073,2.368-.047.057-.1.11-.154.163.655.254,1.369.537,2.056.858.993.465,1.962,1.008,2.921,1.544l.13.073c.355.2.714.4,1.074.6,1.354.736,2.774,1.431,4.221,2.068a44.626,44.626,0,0,0,5.26,1.693l.078.018c.734.173,1.649.388,2.534.5.747.1,1.5.182,2.277.268l.94.106a1.827,1.827,0,0,1,1.172.84,1.908,1.908,0,0,1-.6,2.631,1.753,1.753,0,0,1-.987.274,4.621,4.621,0,0,1-.474-.032c-.3-.035-.605-.067-.924-.1-.784-.081-1.593-.164-2.379-.3-.979-.166-1.916-.372-2.785-.611-1.1-.3-2.051-.593-2.921-.9l-.694-.239c-.763-.261-1.551-.531-2.295-.86a56.341,56.341,0,0,1-5.427-2.76c-.758-.437-1.642-.939-2.54-1.364-.729-.345-1.417-.633-2.382-1.031a31.548,31.548,0,0,1-6.075-3.221,26.284,26.284,0,0,1-4.841-4.511,34.873,34.873,0,0,0-2.466-2.472c-.7-.66-1.428-1.344-2.091-2.063-.916-1-1.7-1.922-2.4-2.832-.284-.371-.555-.753-.826-1.133l-.061-.085c-.327-.463-.654-.923-1-1.371a14.273,14.273,0,0,0-1.86-1.739,14.125,14.125,0,0,0-2.044-1.1,10.543,10.543,0,0,0-1.976-.441c-.349-.022-.694-.035-1.038-.035a12.182,12.182,0,0,0-1.639.1,13.066,13.066,0,0,0-2.44.672,8.5,8.5,0,0,0-.86.531l-.059.061-.068.062-.039.085a23.327,23.327,0,0,0-.729,3.8l-.125.918c-.255,1.758-.51,3.278-.783,4.649a30.336,30.336,0,0,1-.775,3.248c-.228.728-.483,1.428-.759,2.081a8.63,8.63,0,0,1-.722,1.4,25.985,25.985,0,0,1-2.529,3.307c-.725.795-1.529,1.607-2.457,2.484a54.8,54.8,0,0,1-6.007,5.1c-.569.4-1.17.783-1.758,1.155-.416.261-.832.524-1.243.8-.908.608-1.809,1.242-2.757,1.937a411.213,411.213,0,0,1-.67.559c-.526.456-1.046.916-1.56,1.386l-.469.427c-.683.621-1.389,1.264-2.037,1.937l-.537.554c-.564.579-1.2,1.234-1.772,1.913-.608.723-1.272,1.54-2.031,2.5-1,1.427-1.765,2.622-2.42,3.759a30.623,30.623,0,0,0-1.809,3.881c-.845,2.314-1.585,4.429-2.262,6.468-.18.544-.36,1.09-.537,1.634l-.21.641c-.124.376-.247.752-.373,1.127-.169.507-.315.987-.452,1.45.182-.02.367-.045.553-.072,1-.187,2.014-.417,3-.642q.805-.184,1.608-.362c1.476-.318,3.139-.606,5.235-.906,1.37-.2,2.557-.342,3.735-.463l.476-.046c1.039-.1,2.113-.208,3.178-.216l.756,0a27.682,27.682,0,0,1,3.452.17,33.33,33.33,0,0,1,3.671.606c1.054.252,2.162.577,3.388,1a34.665,34.665,0,0,1,3.809,1.489,15.664,15.664,0,0,1,3.433,2.183c.349.3.674.628,1.025.985s.71.725,1.1,1.052a8.8,8.8,0,0,0,.986.536,8.134,8.134,0,0,0,.821.221l.116,0a3.621,3.621,0,0,0,.436-.025l.178-.067c.047-.047.093-.1.137-.144a7.654,7.654,0,0,0,.517-1.023,18.659,18.659,0,0,0,.561-2c.112-.522.206-1.094.3-1.855.03-.4.057-.8.074-1.206a9.5,9.5,0,0,0-.13-1.84,22.121,22.121,0,0,0-.8-2.69l-.06-.163a26.188,26.188,0,0,1-1.649-8.685,24.971,24.971,0,0,1,.435-3.507c.18-1.023.357-1.9.544-2.672a30.427,30.427,0,0,1,2.063-5.924,20.382,20.382,0,0,1,1.746-3.009,2.716,2.716,0,0,1,.387-.545,22.725,22.725,0,0,1,2.386-2.866,19.139,19.139,0,0,1,3.061-2.512,10.849,10.849,0,0,1,2.271-1.158,11.439,11.439,0,0,1,2.056-.5,8.193,8.193,0,0,1,1.311-.138c.066,0,.13,0,.2,0l.155.01a10.179,10.179,0,0,1,2.012.234,13.441,13.441,0,0,1,2.441.919,15.984,15.984,0,0,1,3.786,2.818,10.612,10.612,0,0,1,2.517,3.187,14.35,14.35,0,0,1,.805,2.086c.045.149.083.3.119.451l.021.086a6.686,6.686,0,0,0,.231.816c.086.185.17.367.251.552a2.793,2.793,0,0,1,.049,1.476,2.768,2.768,0,0,1-2.7,2.12,2.66,2.66,0,0,1-.641-.077,2.77,2.77,0,0,1-2.045-3.341,2.689,2.689,0,0,1,.108-.344,10.654,10.654,0,0,0-.43-1.5,6.583,6.583,0,0,0-.514-.8,20.379,20.379,0,0,0-2.675-2.323,7.793,7.793,0,0,0-1.148-.642,8.688,8.688,0,0,0-1.333-.364c-.11,0-.219-.007-.327-.007-.268,0-.531.012-.8.037a11.311,11.311,0,0,0-1.584.5,14.34,14.34,0,0,0-2.057,1.363,20.346,20.346,0,0,0-2.783,3l-.069.1c-.088.128-.177.254-.268.374a30.487,30.487,0,0,0-2.329,4.284,34.761,34.761,0,0,0-1.823,7.571,19.762,19.762,0,0,0,.17,3.42,23.855,23.855,0,0,0,.613,2.7c.086.278.173.556.274.877.223.708.453,1.442.618,2.171a21.223,21.223,0,0,1,.394,2.179,14.618,14.618,0,0,1,.064,2.716,22.711,22.711,0,0,1-.5,3.576,16.683,16.683,0,0,1-1.192,3.563,6.077,6.077,0,0,1-3.187,3.1,6.828,6.828,0,0,1-2.5.456,7.968,7.968,0,0,1-1.606-.171c-.363.71-.681,1.444-1.012,2.171-.522,1.142-1.063,2.277-1.595,3.417s-1.1,2.28-1.687,3.405c-.536,1.029-1.117,2.043-1.617,3.092-1.064,2.233-2.091,4.48-3.173,6.7-1.067,2.188-2.142,4.352-3.028,6.62-.546,1.4-1.133,2.767-1.75,4.136-.562,1.249-1.081,2.513-1.64,3.762-.271.613-.527,1.231-.812,1.837-.315.67-.68,1.307-1.049,1.95a29.519,29.519,0,0,0-1.918,3.774c-.495,1.26-.984,2.518-1.526,3.759-.561,1.283-1.261,2.5-1.849,3.769-.537,1.155-1.01,2.339-1.542,3.5q-.413,1.344-.881,2.673c-1.145,3.226-2.381,6.418-3.74,9.562-.349.81-.706,1.618-1.066,2.425q-.411,1.023-.828,2.046-.568,1.676-1.14,3.35a3.493,3.493,0,0,1-.86,1.632c-.032.025-.064.052-.093.076-2.22,5.291-4.518,10.547-6.849,15.791-.025.052-.047.1-.069.153-.13.35-.263.7-.394,1.046l-.389,1.029c-.536,1.418-1.058,2.8-1.578,4.18q-.3.787-.593,1.576l-1.282,3.346-.638,1.661.1-.192c-1.6,4.1-2.853,7.538-3.941,10.817-1.189,3.579-2.41,7.322-3.629,11.12-.15.463-.3.923-.452,1.386-.385,1.177-.823,2.509-1.189,3.8l-.6,2.065q-.484,1.677-.96,3.355l-.18.633c-.995,3.531-2.016,7.16-3.127,10.7-1.142,3.637-2.358,7.5-3.6,11.312-1.241,3.789-2.437,7.5-3.452,11.246-.876,3.232-1.516,6.544-2.134,9.747l-.239,1.231c-.51,2.617-1.125,5.241-1.719,7.78q-.3,1.292-.6,2.587c-.829,3.609-1.652,6.842-2.518,9.882l-.022.066-.1.347c-.453,1.586-.921,3.225-1.335,4.848-.216.837-.428,1.681-.637,2.523l-.143.574c-.217.874-.435,1.75-.657,2.624-.278,1.093-.539,2.193-.8,3.291l-.018.081-.039.163-.389,1.637q-.362,1.5-.731,2.989c-.239.967-.475,1.927-.7,2.89-.263,1.09-.519,2.179-.778,3.272l-.192.815c-.539,2.3-1.117,4.746-1.706,7.108-.886,3.538-1.731,7.146-2.511,10.724q-.351,1.584-.706,3.173l-.236,1.059c-.468,2.073-.933,4.148-1.376,6.229q-.6,2.8-1.184,5.613c-.349,1.664-.7,3.316-1.046,4.968-.706,3.326-1.519,7.258-2.2,11.182-.643,3.71-1.174,7.5-1.689,11.17-.482,3.459-1.029,7.368-1.674,11.12-.328,1.888-.667,3.754-1,5.542-.106.557-.219,1.113-.332,1.669-.258,1.265-.485,2.408-.65,3.557q-.455,3.136-.867,6.278c-.293,1.374-.522,2.518-.717,3.607-.416,2.267-.78,4.584-1.135,6.824l-.239,1.514c-.276,1.728-.539,3.459-.8,5.19l-.214,1.388-.249,1.635c-.027.184-.057.369-.086.553-.315,1.14-.67,2.317-1.054,3.5a2.49,2.49,0,0,0,.212,1.809c-.155,1-.3,2.019-.441,3.036-.357,2.56-.664,5.333-.938,8.474-.042.458-.081.886-.12,1.317-.091.972-.18,1.947-.244,2.92l-.037.5c-.039.558-.079,1.117-.093,1.677-.025.78-.037,1.556-.037,2.336q0,.757.012,1.514c0,.207.005.414.012.623l.005.251a4.215,4.215,0,0,0,.143,1.241,2.044,2.044,0,0,0,1.337,1.406c.035.049.079.106.123.16a14.45,14.45,0,0,0,1.305,1.443,6.286,6.286,0,0,0,1.625,1.037,13.41,13.41,0,0,0,3.973.975c.978.118,2.132.251,3.292.315l.726.042c.739.047,1.578.1,2.4.1l.246,0c1-.009,2-.037,3-.064l.391-.01c3.771-.106,7.826-.152,13.149-.152h1.076q1.658,0,3.321.017c.847.005,1.706.049,2.539.094l.187.009.546.03c1.962.1,3.959.241,5.886.377l.318.022.389.027q3.416.244,6.832.512,1.1.084,2.2.177l.773.064c1.33.111,2.644.222,3.959.318,5.064.377,10.226.8,14.781,1.177,4.313.355,8.629.709,12.945,1.039.554.042,1.11.091,1.666.141l.308.029q.682.063,1.366.123c.524.042,1.046.081,1.57.118l.386.027c.431.03.859.059,1.29.091,2.38.18,4.759.354,7.142.509,1.987.13,3.971.276,5.955.421l.69.052c2.747.2,4.971.394,7,.6,2.519.257,4.83.522,7.073.815,2.366.328,4.742.706,7.038,1.076,1.9.306,3.794.608,5.694.887,1.152.167,2.284.369,3.542.6.921.165,1.839.328,2.762.475,2.154.342,4.284.834,6.283,1.31.995.236,1.977.571,2.927.9l.695.239c.557.185,1.076.357,1.593.534.451.153.906.286,1.36.418l.13.037.633.187a2.128,2.128,0,0,0,.576.084,2.179,2.179,0,0,0,.8-.158.814.814,0,0,0,.025.2,1.457,1.457,0,0,0,.7.911,1.5,1.5,0,0,0,.77.209,1.591,1.591,0,0,0,.386-.049l.047.04a2.081,2.081,0,0,0,1.049.283l.251-.035.3-.039a2.068,2.068,0,0,0,.918-.534,2.5,2.5,0,0,0,.691-1.82l.01-.083a5.843,5.843,0,0,0-.008-.9c-.03-.424-.054-.817-.079-1.209l0-.081-.017-.278-.017-.293c-.037-.606-.072-1.211-.118-1.817l-.106-1.4c-.084-1.122-.167-2.242-.258-3.366l-.079-.938c-.106-1.277-.209-2.556-.3-3.836-.04-.507-.074-1.014-.108-1.519-.072-1.041-.143-2.065-.231-3.089q-.133-1.5-.256-2.989l-.061-.716c-.123-1.426-.244-2.854-.377-4.279-.057-.6-.125-1.192-.195-1.787l-.032-.291c-.074-.63-.148-1.26-.209-1.891-.094-.923-.244-1.864-.4-2.824-.067-.408-.13-.815-.192-1.223q-.033-.281-.059-.562l-.017-.172a17.573,17.573,0,0,0-.271-1.977l-.133-.606c-.13-.586-.253-1.142-.34-1.7-.1-.79-.18-1.583-.259-2.376l-.059-.59a18.067,18.067,0,0,0-.332-2.068c-.175-.785-.3-1.485-.392-2.137a1.416,1.416,0,0,0-.359-.615,1.536,1.536,0,0,0-.157-.138l-.03-.288c-.217-1.893-.458-4.042-.65-6.1l-.121-1.268c-.271-2.846-.576-6.069-.744-9.2-.18-3.269-.4-7.08-.679-10.926-.081-1.078-.169-2.159-.258-3.237-.2-2.406-.4-4.838-.495-7.236-.231-5.918-.4-11.935-.557-17.243l-.142-4.879c-.2-6.5-.418-14.05-.576-21.406-.16-7.459-.271-14.754.128-21.992.039-.736.086-1.472.133-2.208.059-.947.118-1.9.164-2.843.091-1.9.185-3.764.318-5.641.249-3.522.436-7.156.6-10.362l.035-.66c.04-.815.069-1.632.1-2.447l.012-.344c.025-.783.049-1.564.087-2.344l.019-.429c.076-1.652.155-3.36.182-5.047.064-4.109.217-7.509.48-10.7.242-2.972.409-5.283.544-7.5.143-2.383.249-4.687.362-7.238.049-1.13.114-2.258.18-3.388l.025-.394c.072-1.179.143-2.361.2-3.54.1-2.248.253-4.516.445-6.744.239-2.087.5-4.178.761-6.265l.027-.224q.218-1.746.433-3.486l.192-1.612.067-.562c.123-1.034.246-2.07.379-3.1l.089-.721.01-.076c.182-1.48.374-3.011.645-4.5.352-1.933.709-3.681,1.086-5.348q.262-1.151.536-2.3.3-1.237.579-2.477l.182-.8.19-.817c.258-1.1.514-2.2.748-3.311.16-.771.318-1.538.475-2.309.209-1.029.419-2.056.638-3.08.562-2.631,1.189-5.022,1.918-7.3.566-1.782,1.216-3.653,1.741-5.155.224-.643.446-1.283.667-1.925l.527-1.531q1.046-3.05,2.1-6.1c.615-1.782,1.463-4.223,2.324-6.5.982-2.467,2.1-4.916,3.181-7.287,1.236-2.713,2.272-4.907,3.262-6.906,1.408-2.844,2.529-4.981,3.624-6.926a72.638,72.638,0,0,1,3.959-6.243c.825-1.105,1.711-2.225,2.708-3.422,1.028-1.236,2.046-2.44,3.146-3.611,1.827-1.942,3.858-3.713,5.825-5.426q.75-.65,1.494-1.308l.4-.352c2.085-1.839,4.448-3.922,6.593-6.071q.791-.794,1.578-1.6l.291-.3c.285-.293.571-.586.861-.877,1.494-1.186,2.7-2.109,3.779-2.91,1.172-.864,2.132-1.543,3.021-2.144a20.892,20.892,0,0,1,2.745-1.507c3.05-1.366,6.236-2.528,9.316-3.654l.064-.022.306-.113c1.238-.453,2.471-.9,3.7-1.369.726-.279,1.445-.576,2.161-.874l.111-.044.157-.067c.379-.158.756-.315,1.13-.465q1.635-.661,3.267-1.329c2.294-.948,4.734-1.783,6.885-2.521l.627-.217c3.78-1.3,6.908-2.233,9.85-2.937,1.02-.244,2.073-.466,3-.66l.33-.071c.542-.113,1.081-.227,1.623-.347,1.5-.335,3.092-.655,4.739-.953,2.743-.431,4.973-.739,7.019-.972,1.553-.177,3.141-.244,4.675-.31l.088,0c.862-.035,1.724-.069,2.58-.123,1.388-.089,2.619-.207,3.764-.36l.717-.1a24.892,24.892,0,0,1,2.929-.3c.655-.012,1.266-.025,1.874-.034l.074,0c1.755-.03,3.57-.059,5.347-.16a38.711,38.711,0,0,0,6.3-.884c.943-.214,2.009-.455,3.05-.632.527-.091,1.051-.2,1.576-.315.293-.064.589-.129.884-.187,1.047-.146,2.283-.333,3.5-.616.65-.152,1.3-.325,1.945-.5l.239-.062c.47-.125.943-.251,1.418-.364l.5-.118.259-.059c.347-.076.694-.155,1.039-.244.236-.061.47-.125.7-.189.322-.089.645-.178.972-.257a13.449,13.449,0,0,0,1.674-.554c.611-.243,1.219-.448,1.837-.655,1.44-.487,2.516-.884,3.493-1.29.576-.238,1.16-.453,1.741-.667l.189-.071c.436-.16.869-.32,1.3-.493.746-.3,1.466-.621,2.174-.953q.914-.738,1.862-1.433c.625-.458,1.248-.916,1.9-1.332,1.18-.751,2.375-1.489,3.517-2.3a11.091,11.091,0,0,0,1.345-1.318,10.492,10.492,0,0,0,.934-1.54c.009-.027.017-.054.024-.081,0-.091,0-.182,0-.273-.011-.045-.022-.089-.035-.132a6.177,6.177,0,0,0-.559-.967,3.744,3.744,0,0,0-.434-.464,5.7,5.7,0,0,0-.868-.523c-.037-.013-.074-.021-.112-.032q-1.285.01-2.6.051a.975.975,0,0,1-.876.03c-2.288.084-4.6.2-7.139.335l-.808.042c-1.358.07-2.717.141-4.076.2-.357.014-.714.02-1.071.02-.483,0-.966-.01-1.455-.02s-.958-.02-1.435-.02c-1.418,0-2.833.008-4.25.035-.227,0-.456.009-.684.014l-.342.008c-.67.018-1.342.032-2.012.032-.334,0-.672,0-1.007-.013-1.019-.033-2.116-.088-3.455-.175l-1.671-.114c-2.075-.142-4.222-.29-6.34-.334-2.312-.051-4.664-.172-6.938-.289l-.073,0-.6-.03c-.992-.052-1.982-.123-2.971-.2-1.469-.11-3.135-.234-4.744-.256-.917-.015-1.826-.057-2.75-.1l-1.056-.044c-.438-.02-.877-.035-1.315-.049l-.277-.01c-.74-.026-1.479-.052-2.219-.093l-.34-.02c-1.081-.059-2.159-.121-3.24-.2-.678-.051-1.369-.068-2.07-.086-.542-.012-1.083-.026-1.625-.054-1.117-.062-2.235-.121-3.353-.16-1.2-.042-2.456-.127-3.832-.261l-.086-.008-.207-.022-.216-.022a37.71,37.71,0,0,1-6.5-1.109,21.194,21.194,0,0,1-3.566-1.349,23.854,23.854,0,0,1-2.438-1.406c-1-.647-1.992-1.307-2.982-1.969l-.322-.215-.909-.611a26.761,26.761,0,0,1-5.02-4.048,3.89,3.89,0,0,1-1.186-2.614,3.754,3.754,0,0,1,3.625-3.872c.04,0,.076,0,.116,0a3.725,3.725,0,0,1,1.791.454l.778.558c.42.319.833.646,1.247.974l.139.11q.617.492,1.24.972l.265.188c1.1.782,2.24,1.591,3.333,2.434.977.751,1.989,1.512,3.006,2.258a19.233,19.233,0,0,0,2.962,1.72,47.244,47.244,0,0,0,6.612,1.706c2.351.454,4.175.751,5.915.962,1.932.17,4.086.294,6.78.391.541.02,1.083.03,1.661.038.746.012,1.518.025,2.273.066.267.018.53.037.8.059.34.03.68.057,1.019.069.478.02.956.022,1.433.022l.478,0c2.433.018,4.942.163,7.157.291l.51.027c1.95.115,4.045.17,6.405.17q.664,0,1.327-.008h.32c2.306,0,4.623.183,6.864.359l.7.054c1.351.1,2.449.164,3.456.187.33.01.657.013.987.013.576,0,1.155-.01,1.731-.02.441-.008.882-.015,1.322-.02l.639,0q.641,0,1.283,0c.768,0,1.539,0,2.307.022q.716.018,1.433.044c.763.027,1.528.054,2.294.054l.377,0q1.233-.015,2.469-.035c1.891-.03,3.78-.059,5.672-.061h.155c3.231,0,5.872.093,8.309.293,1.5.125,2.935.278,4.805.48.32.035.639.079.958.118.463-.06.93-.1,1.394-.147a8.516,8.516,0,0,0,1.565-.335c.344-.118.7-.22,1.041-.346.256-.112.509-.229.771-.326.173-.064.349-.116.522-.176.137-.068.27-.147.408-.218a4.567,4.567,0,0,0,.444-.259l.221-.179a6.768,6.768,0,0,0,.849-.732c.276-.322.581-.61.875-.918.33-.342.65-.691,1.012-1,.328-.276.623-.584.948-.862.477-.411.933-.846,1.416-1.255a11.434,11.434,0,0,1,1.085-.84c.214-.143.435-.274.647-.42.246-.2.478-.422.721-.628.208-.174.421-.338.633-.507.5-.549,1.006-1.1,1.5-1.668a41.459,41.459,0,0,1,3.558-3.471l.16-.145c.495-.448.989-.9,1.474-1.354.357-.335.722-.662,1.086-.989l.146-.13c.416-.369.83-.739,1.233-1.121s.778-.747,1.164-1.124c-.54.185-1.084.359-1.638.5C2071.391,292.089,2070.3,292.318,2069.2,292.5Zm-139.77-18.218a10.517,10.517,0,0,1-2.747.968c-.657.12-1.319.224-1.982.328l-.822.105h.021a.1.1,0,0,1,.049.011c-.6.1-1.194.195-1.79.288l-1.211.195q-1.333.24-2.674.46c-.967.175-1.969.374-2.981.591-.655.14-1.305.291-1.958.443-.386.091-.775.182-1.162.268-.652.147-1.3.311-1.943.475l-.221.056c-.372.1-.746.192-1.117.283-.525.131-1.05.259-1.574.379-.6.135-1.228.239-1.736.323l-.343.057a1.409,1.409,0,0,1-.18.012,2.2,2.2,0,0,1-1.371-.6c-.065-.063-.129-.131-.193-.2s-.131-.141-.194-.207l-.168.069-.369.155-.344.143q-2.39,1-4.781,1.98a1.151,1.151,0,0,1-.448.086,1.591,1.591,0,0,1-1.441-1.078,1.489,1.489,0,0,1,.114-1.167,1.567,1.567,0,0,1,.875-.722l.146-.059.143-.056q2.684-1.1,5.354-2.229c.9-.379,1.805-.739,2.712-1.1l.316-.125.5-.2,1.148-.457c1.844-.742,3.408-1.317,4.924-1.809.861-.28,1.754-.533,2.728-.771l.547-.138.077-.019c.62-.154,1.262-.313,1.9-.429,1.121-.2,2.059-.335,2.952-.426.8-.084,1.628-.122,2.477-.16.872-.037,1.746-.074,2.622-.091l.313-.005c.253-.008.5-.015.757-.015a7.7,7.7,0,0,1,1.673.151,3.641,3.641,0,0,1,1.048.384c.074.04.148.074.221.108a2.867,2.867,0,0,1,.277.143,1.939,1.939,0,0,1-.143,3.6Zm83.728,24.192a1.5,1.5,0,1,1,1.507-1.5A1.519,1.519,0,0,1,2013.162,298.471ZM2015.83,288a1.043,1.043,0,0,1-.752.332,1.112,1.112,0,0,1-.827-1.9,1.042,1.042,0,0,1,.753-.332,1.112,1.112,0,0,1,.826,1.9Zm7.019,5.951a1.468,1.468,0,0,1,.422-1.063,1.358,1.358,0,0,1,.975-.428,1.441,1.441,0,0,1,1.067,2.46,1.357,1.357,0,0,1-.974.428A1.465,1.465,0,0,1,2022.849,293.952Zm4.39,10.009a1.723,1.723,0,0,1-1.243.549,1.839,1.839,0,0,1-1.365-3.142,1.723,1.723,0,0,1,1.243-.548,1.839,1.839,0,0,1,1.365,3.142Zm7.672-16.994a2.36,2.36,0,0,1-1.753-4.026,2.221,2.221,0,0,1,1.6-.7,2.36,2.36,0,0,1,1.753,4.025A2.222,2.222,0,0,1,2034.911,286.966Zm4.234,15.311a1.237,1.237,0,0,1-.889.391,1.309,1.309,0,0,1-.972-2.232,1.238,1.238,0,0,1,.888-.391,1.309,1.309,0,0,1,.973,2.232Zm1.5-10.16a1.123,1.123,0,0,1-.717.27,1.232,1.232,0,0,1-1.255-1.177c0-.028,0-.056.006-.084,0-.01,0-.02,0-.03a1.253,1.253,0,1,1,1.97,1.021Zm8.808,4.63a1.153,1.153,0,0,1-.836.369,1.234,1.234,0,0,1-.916-2.106,1.157,1.157,0,0,1,.837-.369,1.234,1.234,0,0,1,.915,2.106Zm2.644-7.4a1.8,1.8,0,0,1-1.295.57,1.907,1.907,0,0,1-1.417-3.253,1.8,1.8,0,0,1,1.294-.57,1.907,1.907,0,0,1,1.417,3.253Z" transform="translate(-1705.409 -247.841)" fill="#b1b0af"/>
    </g>
    <path id="Path_2341" data-name="Path 2341" d="M2314.911,229.022a27.878,27.878,0,0,0,2.378-3.142c1.236-1.8,2.344-3.69,3.587-5.488s2.506-3.552,3.686-5.387c.611-.947,1.228-1.9,1.771-2.885a32.309,32.309,0,0,0,1.519-3.3,37.681,37.681,0,0,0,1.932-6.4,22.878,22.878,0,0,0,.409-3.661,19.972,19.972,0,0,0-.133-3.345,15.506,15.506,0,0,0-.618-2.967q-.288-.9-.652-1.775a8.053,8.053,0,0,0-2-2.841,8.142,8.142,0,0,0-5.721-2.014,19.549,19.549,0,0,0-3.471.406,10.38,10.38,0,0,0-3.1,1.179,10.664,10.664,0,0,0-3.021,2.75,10.979,10.979,0,0,0-1.307,2.2c-.082.183-.16.366-.236.55-.068-.076-.137-.151-.207-.225a24.16,24.16,0,0,0-2.361-2.179,14.155,14.155,0,0,0-2.915-1.884q-1.614-.76-3.284-1.4c-1-.384-2.006-.771-3.018-1.133a14.629,14.629,0,0,0-3.437-.847,22.423,22.423,0,0,0-2.283-.124q-.376,0-.75.015a12.458,12.458,0,0,0-4.271.744c-.3.123-.591.246-.877.389a6.733,6.733,0,0,0-1.371.98,8.623,8.623,0,0,0-2.329,3.638,13.35,13.35,0,0,0-.394,1.44,10.6,10.6,0,0,0-.268,2.229,11.471,11.471,0,0,0,.174,1.91,16.065,16.065,0,0,0,.83,3.075c.423,1.2.9,2.383,1.393,3.557a46.208,46.208,0,0,0,3.028,6.022c.635,1.051,1.285,2.083,2,3.08.733,1.024,1.5,2.024,2.292,3.006,1.2,1.485,2.462,2.917,3.7,4.373,1.285,1.514,2.594,3.006,3.956,4.451,1.28,1.357,2.61,2.664,3.969,3.942,1.477,1.388,3.026,2.7,4.555,4.023a2.4,2.4,0,0,0,1.6.7,2.263,2.263,0,0,0,1.583-.615c.04-.038.079-.078.116-.119a2.5,2.5,0,0,0,1.1-.625C2313.263,230.541,2314.148,229.854,2314.911,229.022Zm-22.364-19.946.035.049Zm18.442,16.416c-.332.285-.7.537-1.054.8a5.963,5.963,0,0,0-.78.7c-1.008-.889-2.007-1.788-2.984-2.714-1.59-1.5-3.09-3.1-4.567-4.717-1.509-1.647-2.979-3.326-4.478-4.983-1.513-1.675-2.989-3.379-4.345-5.186a63.727,63.727,0,0,1-6.227-11.69,14.276,14.276,0,0,1-.708-2.667,8.772,8.772,0,0,1,.036-1.575,12.931,12.931,0,0,1,.587-2.159,7.762,7.762,0,0,1,.688-1.151,7.3,7.3,0,0,1,.781-.755,8.59,8.59,0,0,1,.977-.516,7.834,7.834,0,0,1,1.1-.3c.263-.051.527-.086.792-.12a20.069,20.069,0,0,1,4.141.029,21.764,21.764,0,0,1,3.228.982c1.006.373,2.005.754,2.993,1.172q.922.424,1.825.893a12.123,12.123,0,0,1,1.546.992,22.232,22.232,0,0,1,3.117,3.166,10.661,10.661,0,0,1,.7,1.155,3.033,3.033,0,0,0,1.066,1.351,2.184,2.184,0,0,0,2.6-.315,6,6,0,0,0,1.239-2.24c.156-.412.315-.821.484-1.227a12.86,12.86,0,0,1,1.236-2.048,10.342,10.342,0,0,1,1.3-1.211,8.471,8.471,0,0,1,1.162-.666,12.922,12.922,0,0,1,2.485-.533c.359-.033.718-.064,1.079-.073a7.43,7.43,0,0,1,1,.048,7.178,7.178,0,0,1,1.044.3,6.43,6.43,0,0,1,.743.458,6.7,6.7,0,0,1,.687.729,8.819,8.819,0,0,1,.635,1.25,18.986,18.986,0,0,1,.712,2.994,20.742,20.742,0,0,1,.063,2.44c-.031.866-.118,1.735-.228,2.6a30.242,30.242,0,0,1-.959,3.558c-.367,1.12-.757,2.223-1.211,3.313-.286.619-.584,1.23-.9,1.837-.364.706-.81,1.381-1.241,2.048-.933,1.44-1.861,2.883-2.856,4.283-.956,1.342-1.93,2.667-2.878,4.013-.91,1.292-1.815,2.578-2.791,3.821A15.854,15.854,0,0,1,2310.989,225.491Z" transform="translate(-943.941 523.038)" fill="var(--text-gray)"/>
    <path id="Path_2342" data-name="Path 2342" d="M2418.392,91.209a38.889,38.889,0,0,0,3.045,6.738c.534,1.046,1.115,2.068,1.7,3.09a37.845,37.845,0,0,0,2.392,3.532,24.562,24.562,0,0,0,1.906,2.1,21.664,21.664,0,0,1,1.534,1.871c1.358,1.944,2.694,3.9,4.091,5.817,1.265,1.733,2.745,3.3,4.072,4.985.288.365.583.724.876,1.083a6.267,6.267,0,0,0,1.255,1.162,4.138,4.138,0,0,0,.909.429,2.572,2.572,0,0,0,1.886-.173,2.715,2.715,0,0,0,1.214-1.312,24.5,24.5,0,0,1,2.506-3.825c3.264-3.953,6.783-7.732,9.53-12.081.685-1.083,1.4-2.145,2.024-3.265s1.271-2.238,1.859-3.382a29.292,29.292,0,0,0,2.774-7.334,15.311,15.311,0,0,0,.286-1.952,10.027,10.027,0,0,0-.138-1.992,25.291,25.291,0,0,0-.677-3.66,15.422,15.422,0,0,0-.712-2.073,7.626,7.626,0,0,0-2.112-2.8,14.073,14.073,0,0,0-1.743-1.218,16.618,16.618,0,0,0-2.058-.97,10.405,10.405,0,0,0-5.312-.4,8.171,8.171,0,0,0-1.781.4,12.249,12.249,0,0,0-2.737,1.26,13.748,13.748,0,0,0-3.146,2.72,14.757,14.757,0,0,0-1.122,1.6c-.34-.343-.717-.653-1.079-.971-.549-.48-1.088-.97-1.637-1.45a17.325,17.325,0,0,0-3.284-2.243,11.487,11.487,0,0,0-3.5-1.273,17.669,17.669,0,0,0-2.761-.228,10.917,10.917,0,0,0-5.656,1.4,17.923,17.923,0,0,0-1.878,1.346,9.269,9.269,0,0,0-1.632,1.792,7.58,7.58,0,0,0-.785,1.317,9.871,9.871,0,0,0-.85,2.324,12.014,12.014,0,0,0-.224,2.118,17.2,17.2,0,0,0,.2,2.218A21.948,21.948,0,0,0,2418.392,91.209Zm31.054,15.133.108-.133Zm7.071-10.924.046-.111Zm-18.3-11.854a.145.145,0,0,1-.021.026A.145.145,0,0,0,2438.217,83.565Zm-14.352.447a10.157,10.157,0,0,1,.281-1.015,7.648,7.648,0,0,1,.435-.739,12.4,12.4,0,0,1,1.169-1.093,8.192,8.192,0,0,1,.871-.476,8.874,8.874,0,0,1,1.2-.272,14.933,14.933,0,0,1,2.847-.065,9.638,9.638,0,0,1,1.417.466,14.836,14.836,0,0,1,2.534,1.45c.442.376.868.769,1.3,1.16A13.74,13.74,0,0,1,2437.1,84.6c.078.127.149.258.215.393l.008.026a3.014,3.014,0,0,0,5.538,2.266,1.768,1.768,0,0,0,.5-.6,23.01,23.01,0,0,1,1.975-3.481,10.824,10.824,0,0,1,1.357-1.243,12.305,12.305,0,0,1,1.814-1.023,13.248,13.248,0,0,1,2.3-.556,11.825,11.825,0,0,1,1.637-.027,12.115,12.115,0,0,1,2.118.661,12.755,12.755,0,0,1,1.347.729,9.554,9.554,0,0,1,.671.69,9.628,9.628,0,0,1,.623,1.265c.282.819.524,1.647.735,2.486.179.7.381,1.4.5,2.114a6.9,6.9,0,0,1-.036,1.017,27.821,27.821,0,0,1-1.745,5.774,40.005,40.005,0,0,1-3.4,5.985c-1.3,1.864-2.587,3.718-4,5.5-1.214,1.487-2.478,2.932-3.679,4.431l.324-.406c-.392.476-.78.958-1.168,1.44q-.472.584-.944,1.172c.106-.133.215-.266.32-.4-.837,1.015-1.659,2.034-2.41,3.115-.131.186-.258.374-.387.562-.171-.274-.342-.548-.514-.82-.607-.952-1.266-1.867-1.932-2.779a77.26,77.26,0,0,1-4.119-6.673c-.571-1.014-1.113-2.038-1.755-3.011-.627-.955-1.354-1.837-2.05-2.74A57.866,57.866,0,0,1,2427.757,95c-.488-.943-.975-1.886-1.485-2.816a28.051,28.051,0,0,1-1.236-2.587,29.027,29.027,0,0,1-1.156-4.5A8.121,8.121,0,0,1,2423.865,84.012Z" transform="translate(-993.959 563.608)" fill="#fff"/>
  </g>
</svg>
