<svg xmlns="http://www.w3.org/2000/svg" width="14" height="16" viewBox="0 0 14 16">
  <path id="Path_2485" data-name="Path 2485" d="M14-6.25v-10.5a.748.748,0,0,0-.75-.75H3a3,3,0,0,0-3,3v10a3,3,0,0,0,3,3H13.25A.748.748,0,0,0,14-2.25v-.5a.756.756,0,0,0-.278-.584,6.97,6.97,0,0,1,0-2.334A.745.745,0,0,0,14-6.25ZM4-13.312a.188.188,0,0,1,.188-.188h6.625a.188.188,0,0,1,.188.188v.625a.188.188,0,0,1-.187.187H4.188A.188.188,0,0,1,4-12.687Zm0,2a.188.188,0,0,1,.188-.187h6.625a.188.188,0,0,1,.188.188v.625a.188.188,0,0,1-.187.188H4.188A.188.188,0,0,1,4-10.687ZM11.919-3.5H3a1,1,0,0,1-1-1,1,1,0,0,1,1-1h8.919A11.248,11.248,0,0,0,11.919-3.5Z" transform="translate(0 17.5)" fill="#b1b0af"/>
</svg>
