<svg id="save-draft-button" xmlns="http://www.w3.org/2000/svg" width="32" height="32" viewBox="0 0 32 32">
  <circle id="Ellipse_414" data-name="Ellipse 414" cx="16" cy="16" r="16" fill="#fff"/>
  <path id="Path_2484" data-name="Path 2484" d="M15.5,32.873l-3-3a1.969,1.969,0,0,0-1.212-.5H1.714A1.714,1.714,0,0,0,0,31.089V43.661a1.714,1.714,0,0,0,1.714,1.714H14.286A1.714,1.714,0,0,0,16,43.661V34.085A1.969,1.969,0,0,0,15.5,32.873ZM8,43.089A2.286,2.286,0,1,1,10.286,40.8,2.286,2.286,0,0,1,8,43.089Zm3.429-10.876V35.8a.429.429,0,0,1-.429.429H2.714a.429.429,0,0,1-.429-.429V32.089a.429.429,0,0,1,.429-.429h8.161a.428.428,0,0,1,.3.126l.124.124a.492.492,0,0,1,.126.3Z" transform="translate(8 -21.375)" fill="#b1b0af"/>
</svg>
