<svg xmlns="http://www.w3.org/2000/svg" width="18" height="12" viewBox="0 0 18 12">
  <path id="Path_2364" data-name="Path 2364" d="M17.891-7.956A10.023,10.023,0,0,0,9-13.5,10.025,10.025,0,0,0,.109-7.956,1.2,1.2,0,0,0,0-7.5a1.2,1.2,0,0,0,.109.456A10.023,10.023,0,0,0,9-1.5a10.025,10.025,0,0,0,8.891-5.544A1.2,1.2,0,0,0,18-7.5,1.2,1.2,0,0,0,17.891-7.956ZM9-3A4.5,4.5,0,0,1,4.5-7.5,4.5,4.5,0,0,1,9-12a4.5,4.5,0,0,1,4.5,4.5v0A4.5,4.5,0,0,1,9-3Zm0-7.5a3.576,3.576,0,0,0-.791.118A1.748,1.748,0,0,1,8.5-9.5,1.5,1.5,0,0,1,7-8a1.748,1.748,0,0,1-.886-.291,3.593,3.593,0,0,0-.1.784A2.994,2.994,0,0,0,9.007-4.514,2.994,2.994,0,0,0,12-7.507,2.994,2.994,0,0,0,9.007-10.5Z" transform="translate(0 13.5)" fill="#b1b0af"/>
</svg>
